<?xml version="1.0" encoding="utf-8"?>
<!-- Generator: Adobe Illustrator 23.0.3, SVG Export Plug-In . SVG Version: 6.00 Build 0)  -->
<svg version="1.1" id="Layer_1" xmlns="http://www.w3.org/2000/svg" xmlns:xlink="http://www.w3.org/1999/xlink" x="0px" y="0px" width="60" height="48"
	 viewBox="0 0 60 48" style="enable-background:new 0 0 60 48;" xml:space="preserve">
<style type="text/css">
	.st0{fill-rule:evenodd;clip-rule:evenodd;}
	.st1{fill-rule:evenodd;clip-rule:evenodd;fill:#B01116;}
</style>
<g id="g12" transform="matrix(1.25,0,0,-1.25,-74.032368,969.5855)">
	<g id="g4367" transform="matrix(4.146293,0,0,4.146293,-184.11246,-2427.6394)">
		<path id="path614" class="st0" d="M59.49,764.27c0-0.16,0.08-0.33,0.21-0.49l0.05,0.06c-0.09,0.09-0.14,0.2-0.14,0.3
			c0,0.09,0.06,0.16,0.14,0.16h0.16v-0.35v-0.09l0.15-0.12v0.21v0.65h0.16l-0.08,0.16h-0.81l0.09-0.16h0.5v-0.14h-0.24
			C59.57,764.46,59.49,764.38,59.49,764.27"/>
		<path id="path618" class="st0" d="M59.96,764.77h0.06c-0.06,0.1-0.11,0.21-0.18,0.3c-0.07,0.12-0.16,0.19-0.25,0.19
			c-0.02,0-0.04-0.01-0.06-0.02l0.07-0.18c0.04,0.02,0.06,0.03,0.08,0.03c0.05,0,0.09-0.03,0.12-0.07L59.96,764.77L59.96,764.77z"/>
		<path id="path622" class="st0" d="M60.24,764.38c0.08-0.29,0.24-0.49,0.4-0.49c0.07,0,0.14,0.07,0.14,0.16
			c0,0.07-0.04,0.15-0.09,0.22h0.21v-0.32v-0.09l0.15-0.13v0.21v0.65h0.16l-0.09,0.16H60.1l0.09-0.16h0.71v-0.14h-0.37l-0.02-0.04
			c0.07-0.06,0.11-0.15,0.11-0.24c0-0.05-0.03-0.09-0.07-0.09c-0.1,0-0.2,0.12-0.26,0.31L60.24,764.38L60.24,764.38z"/>
		<path id="path626" class="st0" d="M61.17,764.6h0.15v-0.65v-0.09l0.15-0.12v0.21v0.65h0.16l-0.08,0.16h-0.09
			c-0.04,0.04-0.06,0.1-0.06,0.15c0,0.12,0.14,0.24,0.32,0.23c0.34,0,0.66-0.1,0.9-0.31l0.04,0.03c-0.26,0.26-0.62,0.39-1.01,0.39
			c-0.21,0-0.38-0.11-0.38-0.25c0-0.1,0.04-0.19,0.11-0.24h-0.28L61.17,764.6z"/>
		<path id="path630" class="st0" d="M61.99,763.73l0.07,0.06l-0.24,0.27c0.06,0.02,0.11,0.09,0.12,0.17
			c0.06-0.08,0.12-0.12,0.16-0.12c0.04,0,0.08,0.01,0.11,0.04v0.17c-0.03-0.04-0.08-0.06-0.14-0.06c-0.05,0-0.09,0.02-0.13,0.04
			v0.31h0.26l-0.09,0.16H61.5l0.09-0.16h0.21v-0.23c0-0.04-0.01-0.07-0.03-0.08c-0.03,0.03-0.06,0.05-0.08,0.05
			c-0.03,0-0.05-0.03-0.05-0.07c0-0.05,0.04-0.13,0.1-0.22L61.99,763.73L61.99,763.73z"/>
		<path id="path634" class="st0" d="M62.54,764.77h-0.46l0.09-0.16h0.37V764.77L62.54,764.77z M62.24,764.28
			c0-0.15,0.17-0.35,0.3-0.35v0.14c-0.02,0-0.04-0.01-0.06-0.01c-0.09,0-0.15,0.07-0.15,0.14c0,0.09,0.09,0.16,0.21,0.16v0.14
			c-0.02,0.01-0.05,0.02-0.07,0.02C62.34,764.52,62.24,764.41,62.24,764.28 M62.54,763.93c0.06,0,0.13,0.04,0.21,0.11v-0.08v-0.09
			l0.15-0.12v0.21v0.65h0.16l-0.09,0.16h-0.43v-0.16h0.21v-0.27c-0.06,0.09-0.14,0.15-0.21,0.17v-0.14c0.06,0,0.14-0.04,0.21-0.12
			c-0.06-0.09-0.14-0.15-0.21-0.18L62.54,763.93L62.54,763.93z"/>
		<path id="path638" class="st0" d="M63.39,764.27c0-0.1,0.09-0.25,0.16-0.24c0.01,0,0.04,0.03,0.04,0.07v0.05
			c0,0.02,0.01,0.05,0.03,0.05h0.19v-0.23v-0.09l0.15-0.12v0.21v0.65h0.16l-0.08,0.16h-0.68l-0.01-0.16h0.47v-0.26h-0.34
			C63.42,764.35,63.39,764.31,63.39,764.27"/>
		<path id="path642" class="st0" d="M64.07,764.6h0.14v-0.65v-0.09l0.15-0.12v0.21v0.65h0.16l-0.08,0.16h-0.45L64.07,764.6z"/>
		<path id="path646" class="st0" d="M64.84,764.77h-0.45l0.09-0.16h0.36V764.77z M64.55,764.28c0-0.15,0.16-0.35,0.29-0.35v0.14
			c-0.02,0-0.04-0.01-0.06-0.01c-0.08,0-0.14,0.07-0.14,0.14c0,0.09,0.09,0.16,0.21,0.16v0.14c-0.02,0.01-0.05,0.02-0.07,0.02
			C64.64,764.52,64.55,764.41,64.55,764.28 M64.84,763.93c0.06,0,0.13,0.04,0.2,0.11v-0.08v-0.09l0.16-0.12v0.21v0.65h0.15
			l-0.09,0.16h-0.42v-0.16h0.2v-0.27c-0.06,0.09-0.13,0.15-0.2,0.17v-0.14c0.06,0,0.13-0.04,0.2-0.12c-0.06-0.09-0.13-0.15-0.2-0.18
			V763.93z"/>
		<path id="path650" class="st0" d="M65.56,764.2c0.03,0.03,0.09,0.07,0.14,0.07l0.07,0.01l-0.01,0.13
			c-0.16,0.01-0.19,0.05-0.19,0.05c-0.06,0.04-0.09,0.08-0.09,0.11c0,0.05,0.03,0.1,0.08,0.12v0.12h-0.01
			c-0.1,0-0.17-0.09-0.17-0.19c0-0.08,0.06-0.17,0.17-0.24c-0.08-0.03-0.14-0.1-0.14-0.17c0-0.09,0.07-0.19,0.16-0.25v0.1
			c-0.03,0.02-0.04,0.04-0.04,0.07C65.52,764.15,65.53,764.19,65.56,764.2 M65.6,764.71c-0.01,0-0.03,0-0.04-0.01v0.12
			 M65.56,763.96c0.04-0.03,0.08-0.04,0.13-0.04c0.08,0,0.17,0.04,0.23,0.12v-0.08v-0.09l0.16-0.13v0.21v0.65h0.15l-0.08,0.16h-0.37
			l0.09-0.16h0.06v-0.35c-0.09-0.13-0.21-0.2-0.31-0.2c-0.02,0-0.04,0-0.05,0.01V763.96L65.56,763.96z"/>
		<path id="path654" class="st0" d="M66.19,764.6h0.14v-0.65v-0.09l0.16-0.12v0.21v0.65h0.15l-0.08,0.16h-0.11
			c-0.04,0.24-0.16,0.43-0.3,0.43c-0.1,0-0.18-0.1-0.18-0.22c0-0.08,0.01-0.14,0.04-0.18h0.06c-0.01,0.03-0.01,0.07-0.01,0.11
			c0,0.08,0.06,0.15,0.13,0.14c0.08,0,0.16-0.11,0.18-0.27h-0.26L66.19,764.6z"/>
		<path id="path658" class="st0" d="M66.69,764.27c0-0.16,0.08-0.33,0.21-0.49l0.05,0.06c-0.08,0.09-0.14,0.2-0.14,0.3
			c0,0.09,0.06,0.16,0.14,0.16h0.15v-0.35v-0.09l0.16-0.12v0.21v0.65h0.15l-0.08,0.16h-0.79l0.09-0.16h0.49v-0.14h-0.23
			C66.77,764.46,66.69,764.38,66.69,764.27"/>
		<path id="path662" class="st0" d="M67.43,764.21c0-0.08,0.15-0.26,0.21-0.26c0.02,0,0.04,0.03,0.04,0.07v0.08h0.13v0.16h-0.13
			v0.34h0.13v0.16h-0.52l0.08-0.16h0.16v-0.34h-0.05C67.45,764.27,67.43,764.24,67.43,764.21 M67.81,764.1h0.13v-0.15v-0.09
			l0.15-0.13v0.21v0.65h0.16l-0.08,0.16h-0.35v-0.16h0.13v-0.34h-0.13V764.1z"/>
		<path id="path666" class="st0" d="M68.6,763.73l0.07,0.06l-0.24,0.27c0.06,0.02,0.11,0.09,0.12,0.17
			c0.06-0.08,0.12-0.12,0.16-0.12c0.04,0,0.08,0.01,0.11,0.04v0.17c-0.02-0.04-0.08-0.06-0.14-0.06c-0.05,0-0.09,0.02-0.13,0.04
			v0.31h0.26l-0.08,0.16h-0.61l0.08-0.16h0.21v-0.23c0-0.04-0.01-0.07-0.03-0.08c-0.03,0.03-0.06,0.05-0.08,0.05
			c-0.03,0-0.05-0.03-0.05-0.07c0-0.05,0.04-0.13,0.11-0.22L68.6,763.73L68.6,763.73z"/>
		<path id="path670" class="st0" d="M68.86,764.27c0-0.16,0.08-0.33,0.21-0.49l0.05,0.06c-0.09,0.09-0.13,0.2-0.13,0.3
			c0,0.09,0.06,0.16,0.13,0.16h0.16v-0.35v-0.09l0.15-0.12v0.21v0.65h0.16l-0.09,0.16h-0.8l0.09-0.16h0.5v-0.14h-0.23
			C68.94,764.46,68.86,764.38,68.86,764.27"/>
		<path id="path674" class="st0" d="M69.32,763.31c0.14,0,0.26,0.1,0.26,0.23c0,0.11-0.13,0.26-0.23,0.26
			c-0.05,0-0.11-0.03-0.16-0.09l0.1-0.11c0.03,0.06,0.07,0.09,0.11,0.09c0.03,0,0.06-0.02,0.06-0.05c0-0.1-0.08-0.18-0.18-0.19
			c-0.15,0-0.29,0.1-0.39,0.26l-0.04-0.04C68.98,763.44,69.16,763.31,69.32,763.31"/>
		<path id="path676" d="M62.77,766.44h-0.19v1.46h0.19V766.44z"/>
		<path id="path678" d="M63.28,766.44h-0.19v1.46h0.19V766.44z"/>
		<path id="path682" d="M63.85,767.9l0.44-1.23l0.44,1.23h0.25v-1.46h-0.18v1.22h0l-0.44-1.22h-0.16l-0.44,1.22h0v-1.22h-0.18v1.46
			H63.85L63.85,767.9z"/>
		<path id="path686" d="M65.95,766.6c0.08,0,0.15,0.02,0.19,0.07c0.05,0.05,0.07,0.11,0.07,0.19c0,0.05-0.01,0.09-0.03,0.12
			c-0.02,0.03-0.04,0.06-0.07,0.07c-0.03,0.02-0.06,0.03-0.1,0.04c-0.04,0.01-0.07,0.01-0.11,0.01h-0.43v-0.51H65.95z M65.86,767.27
			c0.11,0,0.18,0.02,0.23,0.06c0.05,0.04,0.07,0.1,0.07,0.18c0,0.05-0.01,0.09-0.02,0.12c-0.02,0.03-0.04,0.05-0.06,0.07
			c-0.03,0.02-0.06,0.03-0.1,0.03c-0.04,0-0.07,0.01-0.11,0.01h-0.37v-0.47H65.86z M65.8,767.9c0.03,0,0.06,0,0.1,0
			c0.03,0,0.07,0,0.1-0.01c0.03,0,0.07-0.01,0.1-0.02c0.03-0.01,0.05-0.02,0.08-0.03c0.05-0.03,0.08-0.07,0.12-0.12
			c0.03-0.05,0.05-0.11,0.05-0.19c0-0.08-0.02-0.15-0.05-0.2c-0.04-0.06-0.09-0.1-0.15-0.13v0c0.09-0.02,0.15-0.06,0.2-0.12
			s0.07-0.14,0.07-0.23c0-0.05-0.01-0.11-0.03-0.16c-0.02-0.05-0.05-0.1-0.08-0.13c-0.04-0.04-0.08-0.07-0.13-0.09
			c-0.05-0.02-0.11-0.04-0.18-0.04H65.3v1.46H65.8L65.8,767.9z"/>
		<path id="path690" class="st1" d="M64.52,769.46c-0.11,0-0.24,0-0.32,0c-0.03,0.01-0.02,0.05-0.01,0.07
			c0.03,0.15,0.05,0.27,0.01,0.45c-0.04,0.18-0.17,0.4-0.27,0.55c-0.19,0.27-0.31,0.46-0.37,0.7c-0.07,0.23-0.05,0.46,0.02,0.67
			c0.11,0.33,0.31,0.56,0.33,0.58c0.06,0.08,0.08,0.09,0.22,0.09c0.43,0.04,0.98-0.01,1.4-0.08c0.02,0,0.04-0.01,0.04-0.04
			c0-0.02-0.01-0.03-0.02-0.04c-0.09-0.01-0.32-0.05-0.56-0.18c-0.25-0.13-0.53-0.41-0.61-0.8c-0.02-0.13-0.02-0.27,0.02-0.48
			c0.03-0.15,0.1-0.37,0.15-0.53c0.03-0.15,0.09-0.26,0.09-0.53c0-0.09-0.03-0.21-0.06-0.31C64.56,769.47,64.54,769.46,64.52,769.46
			"/>
		<path id="path694" class="st1" d="M63.68,769.36c-0.11-0.03-0.2-0.06-0.28-0.09c-0.03,0-0.03,0.05-0.03,0.07
			c-0.02,0.16-0.03,0.27-0.12,0.42c-0.08,0.12-0.21,0.26-0.46,0.47c-0.26,0.2-0.41,0.34-0.53,0.56c-0.12,0.2-0.15,0.42-0.14,0.64
			c0.04,0.36,0.15,0.59,0.15,0.61c0.01,0.03,0.03,0.08,0.08,0.1c0.4,0.17,0.98,0.33,1.44,0.39c0.05,0.01,0.07,0.01,0.07-0.01
			c0-0.01,0-0.03-0.01-0.04c-0.08-0.04-0.3-0.13-0.5-0.33c-0.14-0.14-0.38-0.49-0.35-0.91c0.02-0.15,0.05-0.31,0.14-0.49
			c0.07-0.13,0.19-0.32,0.29-0.46c0.07-0.13,0.19-0.24,0.25-0.51c0.02-0.08,0.03-0.21,0.02-0.31
			C63.71,769.38,63.7,769.37,63.68,769.36"/>
		<path id="path698" class="st1" d="M62.91,768.98c-0.09-0.07-0.19-0.14-0.26-0.19c-0.03,0-0.04,0.04-0.05,0.06
			c-0.07,0.15-0.12,0.23-0.22,0.33c-0.08,0.09-0.27,0.2-0.58,0.31c-0.3,0.11-0.5,0.2-0.67,0.37c-0.15,0.15-0.26,0.32-0.32,0.54
			c-0.09,0.36-0.01,0.65,0,0.7c0.01,0.03,0.01,0.07,0.06,0.12c0.34,0.3,0.85,0.61,1.26,0.8c0.05,0.02,0.06-0.04,0.03-0.07
			c-0.06-0.06-0.25-0.22-0.35-0.48c-0.08-0.16-0.23-0.55-0.08-0.95c0.05-0.14,0.13-0.28,0.27-0.42c0.1-0.1,0.28-0.24,0.41-0.34
			c0.11-0.1,0.25-0.16,0.39-0.4c0.04-0.07,0.08-0.18,0.11-0.27C62.94,769.01,62.92,769,62.91,768.98"/>
		<path id="path702" class="st1" d="M62.28,768.41c-0.07-0.09-0.14-0.18-0.2-0.25c-0.03-0.01-0.05,0.03-0.06,0.04
			c-0.11,0.12-0.17,0.19-0.29,0.26c-0.1,0.06-0.32,0.11-0.64,0.13c-0.32,0.02-0.52,0.03-0.74,0.14c-0.19,0.1-0.33,0.22-0.45,0.42
			c-0.18,0.33-0.2,0.56-0.21,0.67c-0.02,0.06,0.01,0.11,0.04,0.16c0.18,0.27,0.59,0.79,0.97,1.11c0.04,0.03,0.07-0.02,0.05-0.06
			c-0.03-0.06-0.15-0.2-0.2-0.55c-0.03-0.19-0.06-0.59,0.18-0.93c0.08-0.12,0.2-0.22,0.38-0.31c0.13-0.07,0.34-0.15,0.49-0.2
			c0.13-0.06,0.28-0.1,0.47-0.3c0.06-0.06,0.13-0.14,0.18-0.22C62.29,768.43,62.29,768.43,62.28,768.41"/>
		<path id="path706" class="st1" d="M61.84,767.66c-0.04-0.11-0.07-0.18-0.12-0.29c-0.02-0.03-0.04,0-0.06,0.01
			c-0.13,0.09-0.19,0.12-0.33,0.17c-0.12,0.02-0.3,0.03-0.66-0.07c-0.32-0.06-0.52-0.13-0.75-0.1c-0.23,0.03-0.39,0.11-0.55,0.26
			c-0.25,0.27-0.36,0.46-0.41,0.55c-0.01,0.03-0.02,0.04-0.02,0.06c0.1,0.42,0.41,1.09,0.65,1.49c0.03,0.04,0.07,0,0.06-0.05
			c-0.02-0.07-0.09-0.24-0.05-0.59c0.02-0.19,0.1-0.6,0.45-0.85c0.11-0.09,0.25-0.15,0.45-0.18c0.14-0.02,0.37-0.02,0.52-0.04
			c0.14-0.02,0.29-0.01,0.52-0.14c0.07-0.04,0.17-0.12,0.23-0.16C61.84,767.69,61.84,767.68,61.84,767.66"/>
		<path id="path710" class="st1" d="M61.61,766.81c0-0.11-0.01-0.23-0.02-0.34c0-0.02-0.04-0.02-0.05-0.01
			c-0.15,0.05-0.22,0.08-0.37,0.08c-0.11-0.01-0.21-0.01-0.63-0.25c-0.34-0.2-0.3-0.18-0.42-0.25c0,0-0.38-0.2-0.79-0.04
			c-0.43,0.18-0.63,0.49-0.63,0.49c0.01,0.5,0.06,1.08,0.2,1.59c0.01,0.05,0.08,0.04,0.07-0.02c0,0,0.01-0.35,0.16-0.66
			c0.09-0.15,0.23-0.45,0.65-0.58c0.14-0.03,0.3-0.04,0.49-0.02c0.14,0.02,0.29,0.08,0.45,0.12c0.14,0.02,0.28,0.06,0.54,0.03
			c0.08-0.01,0.21-0.06,0.27-0.09C61.61,766.85,61.61,766.82,61.61,766.81"/>
		<path id="path714" class="st1" d="M65.33,769.31c-0.11,0.03-0.2,0.05-0.28,0.08c-0.03,0.02,0.01,0.05,0.02,0.07
			c0.08,0.13,0.13,0.27,0.14,0.45c0,0.2-0.08,0.43-0.12,0.6c-0.08,0.33-0.14,0.55-0.13,0.79c0,0.24,0.07,0.45,0.2,0.63
			c0.2,0.29,0.46,0.42,0.49,0.44c0.07,0.04,0.09,0.06,0.13,0.05c0.57-0.13,1.08-0.38,1.38-0.55c0.02-0.01,0.08-0.03,0.07-0.07
			c0-0.02-0.03-0.04-0.04-0.03c-0.09,0.02-0.31,0.06-0.59,0.01c-0.28-0.05-0.63-0.21-0.81-0.58c-0.05-0.12-0.09-0.23-0.11-0.44
			c-0.02-0.15-0.02-0.39-0.01-0.56c-0.01-0.16,0.02-0.34-0.07-0.58c-0.03-0.08-0.07-0.17-0.12-0.25
			C65.4,769.28,65.36,769.31,65.33,769.31"/>
		<path id="path718" class="st1" d="M66.16,768.86c-0.09,0.06-0.15,0.11-0.22,0.16c-0.02,0.03-0.01,0.03,0,0.05
			c0.11,0.1,0.21,0.17,0.26,0.34c0.08,0.22,0.08,0.48,0.08,0.66c0.01,0.34,0,0.53,0.06,0.76c0.07,0.23,0.2,0.43,0.37,0.56
			c0.27,0.22,0.55,0.28,0.58,0.29c0.09,0.03,0.12,0.02,0.2-0.03c0.17-0.11,0.87-0.64,1.14-0.97c0.03-0.05-0.02-0.07-0.04-0.06
			c-0.08,0.04-0.28,0.15-0.56,0.19c-0.28,0.04-0.67,0.03-0.94-0.27c-0.08-0.09-0.14-0.24-0.22-0.44c-0.06-0.14-0.11-0.38-0.15-0.54
			c-0.05-0.15-0.1-0.35-0.26-0.5c-0.05-0.07-0.12-0.14-0.2-0.2C66.2,768.8,66.18,768.85,66.16,768.86"/>
		<path id="path722" class="st1" d="M66.76,768.24c-0.07,0.09-0.11,0.14-0.16,0.21c-0.01,0.03,0,0.04,0.02,0.05
			c0.11,0.08,0.24,0.14,0.37,0.27c0.14,0.18,0.22,0.43,0.28,0.6c0.1,0.33,0.16,0.5,0.29,0.7c0.14,0.19,0.33,0.35,0.52,0.41
			c0.32,0.12,0.61,0.09,0.64,0.09c0.08-0.01,0.09-0.03,0.11-0.05c0.28-0.32,0.64-0.94,0.85-1.35c0.02-0.06-0.05-0.06-0.06-0.04
			c-0.06,0.08-0.21,0.25-0.46,0.37c-0.33,0.17-0.56,0.25-0.99,0c-0.11-0.06-0.2-0.13-0.34-0.28c-0.1-0.11-0.23-0.32-0.31-0.47
			c-0.09-0.12-0.2-0.27-0.39-0.39c-0.07-0.05-0.17-0.1-0.26-0.13C66.79,768.16,66.78,768.22,66.76,768.24"/>
		<path id="path726" class="st1" d="M67.17,767.48c-0.04,0.12-0.06,0.17-0.09,0.25c-0.01,0.03,0.01,0.04,0.03,0.04
			c0.13,0.03,0.26,0.05,0.41,0.12c0.19,0.13,0.33,0.33,0.43,0.48c0.18,0.26,0.29,0.43,0.48,0.57c0.18,0.14,0.4,0.24,0.61,0.23
			c0.34,0.01,0.61-0.11,0.64-0.12c0.07-0.03,0.09-0.04,0.1-0.07c0.17-0.33,0.38-1.14,0.43-1.55c0-0.06-0.06-0.05-0.07-0.02
			c-0.03,0.09-0.12,0.33-0.33,0.52c-0.21,0.19-0.56,0.38-0.95,0.29c-0.12-0.03-0.23-0.06-0.4-0.18c-0.12-0.08-0.31-0.24-0.44-0.34
			c-0.12-0.08-0.25-0.17-0.47-0.24c-0.08-0.03-0.18-0.03-0.27-0.04C67.18,767.39,67.18,767.45,67.17,767.48"/>
		<path id="path730" class="st1" d="M67.33,766.57c0,0.12,0,0.18-0.01,0.26c0,0.03,0.02,0.04,0.04,0.03
			c0.13-0.02,0.25-0.03,0.41-0.01c0.22,0.06,0.4,0.23,0.54,0.33c0.25,0.19,0.4,0.34,0.62,0.42c0.22,0.07,0.47,0.07,0.67,0.02
			c0.32-0.1,0.54-0.31,0.57-0.33c0.04-0.03,0.05-0.08,0.05-0.11c0.06-0.48,0.06-1.06,0-1.54c-0.01-0.02-0.02-0.03-0.04-0.03
			c-0.02,0-0.03,0.01-0.03,0.03c-0.01,0.1-0.04,0.27-0.18,0.52c-0.14,0.25-0.42,0.55-0.82,0.59c-0.12,0.01-0.24,0.01-0.44-0.04
			c-0.14-0.04-0.36-0.13-0.51-0.19c-0.14-0.04-0.29-0.09-0.51-0.09c-0.08,0-0.18,0.02-0.27,0.04
			C67.32,766.49,67.34,766.54,67.33,766.57"/>
	</g>
</g>
</svg>
