<svg xmlns="http://www.w3.org/2000/svg" width="60" height="60" viewBox="0 0 60 60">
  <g id="Accounting_and_Finance" data-name="Accounting and Finance" transform="translate(0 0)">
    <path id="Union_7" data-name="Union 7" d="M35.806,60a4.837,4.837,0,0,1-4.839-4.838V29.032H0V0H56.129V19.452A4.852,4.852,0,0,1,60,24.194V55.162A4.837,4.837,0,0,1,55.161,60ZM32.9,24.194V55.162a2.912,2.912,0,0,0,2.9,2.9H55.161a2.912,2.912,0,0,0,2.9-2.9V24.194a2.912,2.912,0,0,0-2.9-2.9H35.806A2.912,2.912,0,0,0,32.9,24.194ZM1.936,27.1H30.968V24.738a10.221,10.221,0,0,1-2.9.423A10.645,10.645,0,1,1,38.71,14.516a10.433,10.433,0,0,1-1.173,4.839H54.194V1.936H1.936ZM19.355,14.516a8.72,8.72,0,0,0,8.71,8.71,8.534,8.534,0,0,0,3.194-.629,4.825,4.825,0,0,1,3.992-3.182,8.7,8.7,0,1,0-15.9-4.9ZM0,60V58.065H1.936V38.71H7.742V58.065h3.871V44.516h5.806V58.065H21.29V40.645H27.1v17.42h1.936V60Zm23.226-1.935h1.936V42.581H23.226Zm-9.677,0h1.936V46.452H13.548Zm-9.677,0H5.806V40.645H3.871Zm46.452-1.936V42.581h5.807V56.129Zm1.936-1.936h1.935V44.516H52.258Zm-9.677,1.936V50.323h5.806v5.807Zm1.936-1.936h1.936V52.258H44.516Zm-9.677,1.936V50.323h5.806v5.807Zm1.936-1.936H38.71V52.258H36.774Zm5.806-5.806V42.581h5.806v5.806Zm1.936-1.936h1.936V44.516H44.516Zm-9.677,1.936V42.581h5.806v5.806Zm1.936-1.936H38.71V44.516H36.774ZM11.613,39.677a2.95,2.95,0,0,1,.06-.581l-5-3a2.845,2.845,0,0,1-1.839.677,2.9,2.9,0,1,1,2.9-2.9,3.049,3.049,0,0,1-.06.581l5,3a2.844,2.844,0,0,1,1.839-.677,2.885,2.885,0,0,1,2.165.992L21.3,35.916c0-.036-.012-.073-.012-.109a2.94,2.94,0,1,1,.738,1.911l-4.621,1.851c0,.036.012.073.012.109a2.9,2.9,0,1,1-5.806,0Zm1.935,0a.968.968,0,1,0,.968-.968A.97.97,0,0,0,13.548,39.677Zm9.677-3.871a.968.968,0,1,0,.968-.968A.971.971,0,0,0,23.226,35.807ZM3.871,33.871a.968.968,0,1,0,.968-.968A.97.97,0,0,0,3.871,33.871Zm46.452,6.774V34.839h5.807v5.806Zm1.936-1.935h1.935V36.774H52.258Zm-9.677,1.935V34.839h5.806v5.806Zm1.936-1.935h1.936V36.774H44.516Zm-9.677,1.935V34.839h5.806v5.806Zm1.936-1.935H38.71V36.774H36.774ZM34.839,32.9V23.226h21.29V32.9Zm1.936-1.936H54.194V25.161H36.774Zm-32.9-5.806V19.355H5.806v3.871H9.677v1.936Zm24.641-5.347-2.323-3.75H24.6V14.782h2.214A1.673,1.673,0,0,0,28.56,13.5H24.6v-.859h3.968a1.64,1.64,0,0,0-1.754-1.27H24.6V10.077h6.871v.883H29.032a2.514,2.514,0,0,1,1.052,1.681h1.391V13.5H30.109A2.678,2.678,0,0,1,27.7,15.919l2.5,3.9ZM32.9,15.484V13.548h1.936v1.936Zm-11.613,0V13.548h1.935v1.936ZM50.323,9.677V5.806H46.452V3.871h5.806V9.677Zm-46.452,0V3.871H9.677V5.806H5.806V9.677Z" transform="translate(0 0)" fill="#4086a2"/>
  </g>
</svg>
