<svg xmlns="http://www.w3.org/2000/svg" width="248.7" height="69.916" viewBox="0 0 248.7 69.916">
  <g id="aws_educate" transform="translate(-676 -4398.64)">
    <g id="Group_13195" data-name="Group 13195" transform="translate(-49.838 3817.67)">
      <g id="Group_13192" data-name="Group 13192" transform="translate(725.838 623.195)">
        <path id="Path_434" data-name="Path 434" d="M735.077,643.3a8.189,8.189,0,0,0,2.079-.457,1.566,1.566,0,0,0,1.123-1.48,1.748,1.748,0,0,0-.862-1.69,5.434,5.434,0,0,0-2.527-.466,3.322,3.322,0,0,0-2.648.913,3.778,3.778,0,0,0-.741,1.828h-5.024a7.622,7.622,0,0,1,1.468-4.293q2.073-2.631,7.119-2.632a12.694,12.694,0,0,1,5.835,1.3q2.55,1.3,2.55,4.9v9.135q0,.95.037,2.3a2.891,2.891,0,0,0,.311,1.388,1.862,1.862,0,0,0,.767.6v.767H738.9a5.819,5.819,0,0,1-.329-1.133q-.092-.53-.146-1.206a10.768,10.768,0,0,1-2.5,1.992,7.562,7.562,0,0,1-3.822.968,6.6,6.6,0,0,1-4.493-1.544,5.491,5.491,0,0,1-1.773-4.376,5.67,5.67,0,0,1,2.852-5.316,12.753,12.753,0,0,1,4.6-1.279Zm3.184,2.43a5.727,5.727,0,0,1-1.01.5,8.5,8.5,0,0,1-1.4.356l-1.186.219a7.783,7.783,0,0,0-2.393.713,2.378,2.378,0,0,0-1.23,2.21,2.311,2.311,0,0,0,.751,1.928,2.857,2.857,0,0,0,1.827.594,5.44,5.44,0,0,0,3.144-.987q1.438-.986,1.494-3.6Z" transform="translate(-725.838 -634.93)" fill="#414042"/>
        <path id="Path_435" data-name="Path 435" d="M775.045,635.916h5.28l3.032,14.342,3.106-14.342h5.426l-5.773,19.914h-5.353l-3.124-14.506-3.161,14.506H769.07l-5.59-19.914h5.59l3.106,14.287Z" transform="translate(-743.493 -635.35)" fill="#414042"/>
        <path id="Path_436" data-name="Path 436" d="M825.326,648.972a3.466,3.466,0,0,0,.716,1.973q.973,1.042,3.6,1.041a5.5,5.5,0,0,0,2.451-.457,1.462,1.462,0,0,0,.908-1.37,1.477,1.477,0,0,0-.732-1.334,29.867,29.867,0,0,0-5.447-1.571,11.316,11.316,0,0,1-4.783-2.1,4.555,4.555,0,0,1-1.388-3.581,6.2,6.2,0,0,1,2.169-4.741,8.725,8.725,0,0,1,6.106-1.983,11.223,11.223,0,0,1,6.088,1.489q2.353,1.489,2.7,5.143h-5.207a3.073,3.073,0,0,0-.568-1.589,3.581,3.581,0,0,0-2.932-1.059,4.221,4.221,0,0,0-2.427.529,1.523,1.523,0,0,0-.724,1.242,1.358,1.358,0,0,0,.769,1.3,33.331,33.331,0,0,0,5.436,1.444,9.974,9.974,0,0,1,4.665,2.21,5.018,5.018,0,0,1,1.535,3.745,6.048,6.048,0,0,1-2.206,4.832q-2.206,1.873-6.819,1.873-4.705,0-6.947-1.982a6.443,6.443,0,0,1-2.243-5.052Z" transform="translate(-770.024 -634.85)" fill="#414042"/>
      </g>
      <g id="Group_13193" data-name="Group 13193" transform="translate(846.039 617.371)">
        <path id="Path_437" data-name="Path 437" d="M965.234,637.7a7.322,7.322,0,0,1,2.919,2.5,8.641,8.641,0,0,1,1.289,3.405,22.4,22.4,0,0,1,.286,4.252H955.694a8.341,8.341,0,0,0,1.376,4.724,4.592,4.592,0,0,0,3.987,1.779,5.122,5.122,0,0,0,4.022-1.683,5.735,5.735,0,0,0,1.191-2.262h3.189a6.717,6.717,0,0,1-.838,2.369,8.511,8.511,0,0,1-1.588,2.135,7.481,7.481,0,0,1-3.63,1.945,10.941,10.941,0,0,1-2.628.288,8.053,8.053,0,0,1-6.07-2.621q-2.488-2.621-2.488-7.341a11.134,11.134,0,0,1,2.507-7.548,8.246,8.246,0,0,1,6.553-2.9A8.714,8.714,0,0,1,965.234,637.7Zm1.162,7.575a8.463,8.463,0,0,0-.912-3.368,4.66,4.66,0,0,0-4.412-2.343,4.873,4.873,0,0,0-3.716,1.613,6.119,6.119,0,0,0-1.59,4.1Z" transform="translate(-952.217 -629.912)" fill="#414042"/>
        <path id="Path_438" data-name="Path 438" d="M1002.323,631.736a8.7,8.7,0,0,1,1.956,1.891v-9.746h3.117v26.555h-2.919v-2.685a7,7,0,0,1-2.674,2.576,7.631,7.631,0,0,1-3.535.793,7.149,7.149,0,0,1-5.564-2.712,10.624,10.624,0,0,1-2.351-7.215,12.486,12.486,0,0,1,2.144-7.305,7.012,7.012,0,0,1,6.128-3.09A6.816,6.816,0,0,1,1002.323,631.736ZM995.085,646.2a4.577,4.577,0,0,0,4.194,2.09,4.412,4.412,0,0,0,3.684-1.936,9.186,9.186,0,0,0,1.443-5.558q0-3.657-1.488-5.413a4.634,4.634,0,0,0-3.674-1.757,4.841,4.841,0,0,0-3.953,1.874,8.611,8.611,0,0,0-1.514,5.512A9.6,9.6,0,0,0,995.085,646.2Z" transform="translate(-970.104 -623.881)" fill="#414042"/>
        <path id="Path_439" data-name="Path 439" d="M1034.756,637.555v12.809a5.525,5.525,0,0,0,.456,2.414,3.166,3.166,0,0,0,3.141,1.729,4.439,4.439,0,0,0,4.492-3.027,12.313,12.313,0,0,0,.649-4.45v-9.476h3.242v19.294h-3.063l.036-2.847a6.507,6.507,0,0,1-1.539,1.855,6.683,6.683,0,0,1-4.419,1.514q-4.048,0-5.516-2.756a8.349,8.349,0,0,1-.8-3.946V637.555Z" transform="translate(-989.375 -630.294)" fill="#414042"/>
        <path id="Path_440" data-name="Path 440" d="M1081.807,638.087q2.045,1.586,2.459,5.459h-3.153a5.815,5.815,0,0,0-1.315-2.964,4.154,4.154,0,0,0-3.3-1.18,4.555,4.555,0,0,0-4.431,3.023,12,12,0,0,0-.864,4.84,9.1,9.1,0,0,0,1.224,4.876,4.757,4.757,0,0,0,7.053.75,6.751,6.751,0,0,0,1.63-3.365h3.153a7.623,7.623,0,0,1-8.233,7.386,7.382,7.382,0,0,1-6.036-2.765,10.58,10.58,0,0,1-2.252-6.909q0-5.081,2.469-7.909a7.974,7.974,0,0,1,6.287-2.829A8.417,8.417,0,0,1,1081.807,638.087Z" transform="translate(-1006.403 -629.801)" fill="#414042"/>
        <path id="Path_441" data-name="Path 441" d="M1114.511,644.758a1.762,1.762,0,0,0,1.5-.935,2.878,2.878,0,0,0,.215-1.248,2.65,2.65,0,0,0-1.178-2.415,6.292,6.292,0,0,0-3.371-.75,4.269,4.269,0,0,0-3.6,1.376,4.554,4.554,0,0,0-.773,2.264h-3.026q.089-3.579,2.312-4.978a9.465,9.465,0,0,1,5.155-1.4,10.478,10.478,0,0,1,5.524,1.3,4.4,4.4,0,0,1,2.106,4.036v11.116a1.423,1.423,0,0,0,.207.811,1,1,0,0,0,.874.305q.216,0,.486-.027c.181-.018.372-.045.577-.081v2.4a9.054,9.054,0,0,1-1.153.27,8.4,8.4,0,0,1-1.081.054,2.666,2.666,0,0,1-2.432-1.188,4.581,4.581,0,0,1-.559-1.784,8.253,8.253,0,0,1-2.847,2.251,8.8,8.8,0,0,1-4.089.955,6.085,6.085,0,0,1-4.387-1.628,5.4,5.4,0,0,1-1.7-4.075,5.245,5.245,0,0,1,1.675-4.156,7.976,7.976,0,0,1,4.4-1.818Zm-6.828,8.76a3.811,3.811,0,0,0,2.432.809,7.407,7.407,0,0,0,3.315-.791,4.453,4.453,0,0,0,2.7-4.3v-2.608a5.545,5.545,0,0,1-1.528.632,12.838,12.838,0,0,1-1.834.36l-1.96.252a7.569,7.569,0,0,0-2.65.737,2.867,2.867,0,0,0-1.5,2.7A2.662,2.662,0,0,0,1107.683,653.518Z" transform="translate(-1023.065 -629.88)" fill="#414042"/>
        <path id="Path_442" data-name="Path 442" d="M1142.525,627.41h3.279V632.8h3.081v2.648H1145.8v12.593a1.362,1.362,0,0,0,.684,1.351,2.9,2.9,0,0,0,1.261.2q.234,0,.5-.012c.181-.007.39-.028.631-.06v2.576a7.317,7.317,0,0,1-1.162.234,11.11,11.11,0,0,1-1.306.072q-2.269,0-3.081-1.162a5.167,5.167,0,0,1-.81-3.018V635.445h-2.612V632.8h2.612Z" transform="translate(-1040.252 -625.536)" fill="#414042"/>
        <path id="Path_443" data-name="Path 443" d="M1173.864,637.7a7.31,7.31,0,0,1,2.918,2.5,8.644,8.644,0,0,1,1.29,3.405,22.47,22.47,0,0,1,.286,4.252h-14.034a8.336,8.336,0,0,0,1.376,4.724,4.589,4.589,0,0,0,3.986,1.779,5.121,5.121,0,0,0,4.022-1.683,5.741,5.741,0,0,0,1.192-2.262h3.188a6.714,6.714,0,0,1-.837,2.369,8.51,8.51,0,0,1-1.588,2.135,7.484,7.484,0,0,1-3.63,1.945,10.943,10.943,0,0,1-2.628.288,8.051,8.051,0,0,1-6.069-2.621q-2.489-2.621-2.488-7.341a11.134,11.134,0,0,1,2.506-7.548,8.247,8.247,0,0,1,6.553-2.9A8.712,8.712,0,0,1,1173.864,637.7Zm1.162,7.575a8.466,8.466,0,0,0-.911-3.368,4.66,4.66,0,0,0-4.413-2.343,4.874,4.874,0,0,0-3.716,1.613,6.124,6.124,0,0,0-1.59,4.1Z" transform="translate(-1050.071 -629.912)" fill="#414042"/>
      </g>
      <g id="Group_13194" data-name="Group 13194" transform="translate(793.357 610.001)">
        <path id="Path_444" data-name="Path 444" d="M906.415,621.289l-25.476-11.112a2.124,2.124,0,0,0-1.712.006L854.26,621.3a2.124,2.124,0,0,0,.1,3.923l11.155,4.288-2.86,9.059a2.124,2.124,0,0,0,.385,1.99c.263.32,5.248,6.169,16.644,6.169a42.25,42.25,0,0,0,11.6-1.761,2.124,2.124,0,0,0-1.167-4.084c-13.836,3.953-20.816-.418-23.016-2.279l2.389-7.567,9.839,3.781a2.12,2.12,0,0,0,1.511.005l12.681-4.777V639.2a2.124,2.124,0,1,0,4.248,0V628.443l8.547-3.219a2.124,2.124,0,0,0,.1-3.934Zm-11.671,3.753-13.415-4.828a2.124,2.124,0,0,0-1.438,4l8.724,3.14L880.1,630.56l-19.428-7.468,19.429-8.647,19.825,8.646Z" transform="translate(-853 -610.001)" fill="#f9ae32"/>
        <path id="Path_445" data-name="Path 445" d="M931.124,674A2.124,2.124,0,0,0,929,676.124v2.655a2.124,2.124,0,0,0,4.248,0v-2.655A2.124,2.124,0,0,0,931.124,674Z" transform="translate(-888.646 -640.018)" fill="#f9ae32"/>
      </g>
    </g>
    <path id="Path_433" data-name="Path 433" d="M-188.04-13.84h1.6l2.36,12.48h.58l2.82-12.36h1.8l2.82,12.36h.58l2.36-12.48h1.58L-174.34,0h-2.82l-2.62-11.82L-182.4,0h-2.82Zm17.72,8.82a6.347,6.347,0,0,1,.98-3.96,4.013,4.013,0,0,1,3.31-1.22,3.982,3.982,0,0,1,3.3,1.22,6.4,6.4,0,0,1,.97,3.96,6.762,6.762,0,0,1-.92,3.98Q-163.6.2-166.04.2t-3.36-1.24A6.762,6.762,0,0,1-170.32-5.02Zm1.54-.02a6.342,6.342,0,0,0,.53,3.06,2.4,2.4,0,0,0,2.22.88,2.381,2.381,0,0,0,2.21-.87,6.441,6.441,0,0,0,.52-3.07,5.633,5.633,0,0,0-.58-3.03,2.452,2.452,0,0,0-2.15-.83,2.48,2.48,0,0,0-2.16.83A5.553,5.553,0,0,0-168.78-5.04ZM-159.32,0V-10h1.48v1.36a9.74,9.74,0,0,1,3.66-1.58V-8.7a10.774,10.774,0,0,0-1.75.5,11.6,11.6,0,0,0-1.39.6l-.5.26V0Zm8.42,0h-1.5V-14.36h1.5v8.48l1.56-.08,2.86-4.04h1.7l-3.26,4.6,3.4,5.4h-1.7l-2.98-4.64-1.58.06Zm8.08,0V-10h1.5V0Zm0-12.26V-14h1.5v1.74ZM-136.94,0h-1.5V-10h1.48v.7a6.394,6.394,0,0,1,3.1-.9,2.957,2.957,0,0,1,2.69,1.08,7.628,7.628,0,0,1,.69,3.84V0h-1.48V-5.24a6.756,6.756,0,0,0-.41-2.85,1.8,1.8,0,0,0-1.75-.77,5.225,5.225,0,0,0-1.35.19,6.741,6.741,0,0,0-1.09.37l-.38.18Zm13.1,4.7a6.26,6.26,0,0,1-3.35-.65,2.672,2.672,0,0,1-.95-2.37,2.257,2.257,0,0,1,.36-1.33A5.588,5.588,0,0,1-126.56-.8a1.549,1.549,0,0,1-.56-1.38,3.438,3.438,0,0,1,.5-1.26l.18-.32a2.969,2.969,0,0,1-1.58-3.02q0-3.42,3.74-3.42a7.5,7.5,0,0,1,1.78.2l.3.06,2.96-.08v1.28l-1.9-.04a2.719,2.719,0,0,1,.66,2,3.209,3.209,0,0,1-.93,2.63,4.649,4.649,0,0,1-2.93.75,5.5,5.5,0,0,1-.98-.08,4.2,4.2,0,0,0-.36,1.14q0,.62.38.77a9.5,9.5,0,0,0,2.3.15,4.865,4.865,0,0,1,2.76.6,2.717,2.717,0,0,1,.84,2.34Q-119.4,4.7-123.84,4.7Zm-2.82-3.14a1.667,1.667,0,0,0,.59,1.47,4.091,4.091,0,0,0,2.18.41A4.421,4.421,0,0,0-121.61,3a1.609,1.609,0,0,0,.69-1.47q0-1.03-.5-1.33a4.28,4.28,0,0,0-1.96-.3l-2.16-.1a3.536,3.536,0,0,0-.89.84A1.681,1.681,0,0,0-126.66,1.56Zm.14-8.34a2.235,2.235,0,0,0,.53,1.68,2.506,2.506,0,0,0,1.75.5,2.467,2.467,0,0,0,1.74-.5,2.279,2.279,0,0,0,.52-1.69,2.279,2.279,0,0,0-.52-1.69,2.467,2.467,0,0,0-1.74-.5,2.473,2.473,0,0,0-1.75.51A2.272,2.272,0,0,0-126.52-6.78Zm18.68-1.92h-3.18v4.78a6.455,6.455,0,0,0,.25,2.26q.25.54,1.19.54l1.78-.12.1,1.24a13.68,13.68,0,0,1-2.04.22,2.615,2.615,0,0,1-2.16-.76,4.957,4.957,0,0,1-.6-2.9V-8.7h-1.42V-10h1.42v-3.06h1.48V-10h3.18Zm1.4,3.68a6.347,6.347,0,0,1,.98-3.96,4.013,4.013,0,0,1,3.31-1.22,3.982,3.982,0,0,1,3.3,1.22,6.4,6.4,0,0,1,.97,3.96,6.762,6.762,0,0,1-.92,3.98Q-99.72.2-102.16.2t-3.36-1.24A6.762,6.762,0,0,1-106.44-5.02Zm1.54-.02a6.343,6.343,0,0,0,.53,3.06,2.4,2.4,0,0,0,2.22.88,2.381,2.381,0,0,0,2.21-.87,6.441,6.441,0,0,0,.52-3.07A5.633,5.633,0,0,0-100-8.07a2.452,2.452,0,0,0-2.15-.83,2.48,2.48,0,0,0-2.16.83A5.554,5.554,0,0,0-104.9-5.04ZM-91.58,4.7a6.26,6.26,0,0,1-3.35-.65,2.672,2.672,0,0,1-.95-2.37A2.257,2.257,0,0,1-95.52.35,5.588,5.588,0,0,1-94.3-.8a1.549,1.549,0,0,1-.56-1.38,3.438,3.438,0,0,1,.5-1.26l.18-.32a2.969,2.969,0,0,1-1.58-3.02q0-3.42,3.74-3.42a7.5,7.5,0,0,1,1.78.2l.3.06,2.96-.08v1.28l-1.9-.04a2.719,2.719,0,0,1,.66,2,3.209,3.209,0,0,1-.93,2.63,4.649,4.649,0,0,1-2.93.75,5.5,5.5,0,0,1-.98-.08,4.2,4.2,0,0,0-.36,1.14q0,.62.38.77a9.5,9.5,0,0,0,2.3.15,4.865,4.865,0,0,1,2.76.6,2.717,2.717,0,0,1,.84,2.34Q-87.14,4.7-91.58,4.7ZM-94.4,1.56a1.667,1.667,0,0,0,.59,1.47,4.091,4.091,0,0,0,2.18.41A4.421,4.421,0,0,0-89.35,3a1.609,1.609,0,0,0,.69-1.47q0-1.03-.5-1.33a4.28,4.28,0,0,0-1.96-.3l-2.16-.1a3.536,3.536,0,0,0-.89.84A1.681,1.681,0,0,0-94.4,1.56Zm.14-8.34a2.235,2.235,0,0,0,.53,1.68,2.506,2.506,0,0,0,1.75.5,2.467,2.467,0,0,0,1.74-.5,2.279,2.279,0,0,0,.52-1.69,2.279,2.279,0,0,0-.52-1.69,2.467,2.467,0,0,0-1.74-.5,2.473,2.473,0,0,0-1.75.51A2.272,2.272,0,0,0-94.26-6.78Zm15.9,5.54.58-.06.04,1.18a28.709,28.709,0,0,1-3.9.32A3.516,3.516,0,0,1-84.7-1.05a6.713,6.713,0,0,1-.9-3.89q0-5.26,4.18-5.26A3.824,3.824,0,0,1-78.4-9.07a5.263,5.263,0,0,1,1,3.55l-.08,1.14h-6.6a4.1,4.1,0,0,0,.6,2.46,2.453,2.453,0,0,0,2.09.8Q-79.9-1.12-78.36-1.24Zm-.54-4.34a4.341,4.341,0,0,0-.59-2.6,2.281,2.281,0,0,0-1.92-.76,2.461,2.461,0,0,0-2,.8,4.038,4.038,0,0,0-.69,2.56Zm8.96-3.12h-3.18v4.78a6.455,6.455,0,0,0,.25,2.26q.25.54,1.19.54l1.78-.12L-69.8,0a13.68,13.68,0,0,1-2.04.22A2.615,2.615,0,0,1-74-.54a4.957,4.957,0,0,1-.6-2.9V-8.7h-1.42V-10h1.42v-3.06h1.48V-10h3.18ZM-66.6,0h-1.5V-14.36h1.5v4.92a7.169,7.169,0,0,1,3.08-.76,2.957,2.957,0,0,1,2.69,1.08,7.627,7.627,0,0,1,.69,3.84V0h-1.5V-5.24a6.756,6.756,0,0,0-.41-2.85,1.778,1.778,0,0,0-1.73-.77,6.661,6.661,0,0,0-2.44.46l-.38.14Zm16.04-1.24.58-.06.04,1.18a28.709,28.709,0,0,1-3.9.32A3.516,3.516,0,0,1-56.9-1.05a6.713,6.713,0,0,1-.9-3.89q0-5.26,4.18-5.26A3.824,3.824,0,0,1-50.6-9.07a5.263,5.263,0,0,1,1,3.55l-.08,1.14h-6.6a4.1,4.1,0,0,0,.6,2.46,2.453,2.453,0,0,0,2.09.8Q-52.1-1.12-50.56-1.24Zm-.54-4.34a4.341,4.341,0,0,0-.59-2.6,2.281,2.281,0,0,0-1.92-.76,2.461,2.461,0,0,0-2,.8,4.038,4.038,0,0,0-.69,2.56ZM-47.26,0V-10h1.48v1.36a9.74,9.74,0,0,1,3.66-1.58V-8.7a10.774,10.774,0,0,0-1.75.5,11.6,11.6,0,0,0-1.39.6l-.5.26V0Zm10.5-10h1.5l2.02,8.7h.32l2.38-8.5h1.56l2.38,8.5h.34l2-8.7h1.5L-25.14,0h-2.5l-2.12-7.82L-31.88,0h-2.5ZM-20.7,0V-10h1.5V0Zm0-12.26V-14h1.5v1.74Zm9.56,3.56h-3.18v4.78a6.455,6.455,0,0,0,.25,2.26q.25.54,1.19.54l1.78-.12L-11,0a13.68,13.68,0,0,1-2.04.22A2.615,2.615,0,0,1-15.2-.54a4.957,4.957,0,0,1-.6-2.9V-8.7h-1.42V-10h1.42v-3.06h1.48V-10h3.18ZM-7.8,0H-9.3V-14.36h1.5v4.92a7.169,7.169,0,0,1,3.08-.76A2.957,2.957,0,0,1-2.03-9.12a7.627,7.627,0,0,1,.69,3.84V0h-1.5V-5.24a6.756,6.756,0,0,0-.41-2.85,1.778,1.778,0,0,0-1.73-.77,6.661,6.661,0,0,0-2.44.46l-.38.14Z" transform="translate(926.04 4413)" fill="#707070"/>
    <line id="Line_1" data-name="Line 1" x2="55.5" transform="translate(676.5 4405.5)" fill="none" stroke="#707070" stroke-width="1.5"/>
  </g>
</svg>
