<svg xmlns="http://www.w3.org/2000/svg" width="60" height="60" viewBox="0 0 60 60">
  <g id="data_Visualisation" data-name="data Visualisation" transform="translate(-436.753 -436.753)">
    <path id="Union_2" data-name="Union 2" d="M0,40A20,20,0,1,1,20,60,20,20,0,0,1,0,40ZM32,53.415,19.294,40.708l-.006-.006a1.019,1.019,0,0,1-.188-.281.263.263,0,0,1-.021-.035c-.014-.02-.008-.044-.014-.064a.955.955,0,0,1-.052-.258c0-.022-.012-.041-.012-.062V22.027A18,18,0,1,0,32,53.415ZM33.415,52a17.846,17.846,0,0,0,4.558-11H22.415ZM21,39H37.973A18.028,18.028,0,0,0,21,22.027Zm21,2V39H55a3,3,0,0,0,3-3V5a3,3,0,0,0-3-3H13a3,3,0,0,0-3,3V21H8V5a5.006,5.006,0,0,1,5-5H55a5.006,5.006,0,0,1,5,5V36a5.006,5.006,0,0,1-5,5Zm0-5V34h1V22H41v8H39V21a1,1,0,0,1,1-1h4a1,1,0,0,1,1,1V34h2V14a1,1,0,0,1,1-1h4a1,1,0,0,1,1,1V34h3v2Zm7-2h2V15H49ZM35,24V15H33v6H31V14a1,1,0,0,1,1-1h4a1,1,0,0,1,1,1V24Zm-8-5V18H23V17a1,1,0,0,1,1-1h4a1,1,0,0,1,1,1v2ZM12,18V16h6v2Zm0-4V12H22v2Zm0-4V8H56v2Zm8-4V4h2V6ZM16,6V4h2V6ZM12,6V4h2V6Z" transform="translate(436.753 436.753)" fill="#4086a2"/>
  </g>
</svg>
