<svg xmlns="http://www.w3.org/2000/svg" width="62.311" height="54" viewBox="0 0 62.311 54">
  <g id="Probability_and_Statistics_for_Data_Sciences" data-name="Probability and Statistics  for Data Sciences" transform="translate(0 -32.015)">
    <path id="Union_16" data-name="Union 16" d="M55.042,54a1.039,1.039,0,0,1-.864-.463l-2.022-3.032a38.972,38.972,0,0,1-5.422.379,37.427,37.427,0,0,1-7.269-.693v2.769A1.039,1.039,0,0,1,38.427,54H1.038A1.039,1.039,0,0,1,0,52.962V7.273c0-.023.013-.043.013-.065A1,1,0,0,1,.066,6.94a.856.856,0,0,1,.035-.1,1.018,1.018,0,0,1,.207-.3L6.539.308A1.039,1.039,0,0,1,6.846.1.747.747,0,0,1,6.936.067,1.017,1.017,0,0,1,7.215.011C7.235.01,7.254,0,7.274,0H38.427a1.039,1.039,0,0,1,1.038,1.038V5.885a37.427,37.427,0,0,1,7.269-.693c7.55,0,15.576,2.181,15.576,6.231V44.653a4.018,4.018,0,0,1-2.077,3.227v5.082A1.039,1.039,0,0,1,59.2,54Zm-.655-3.894L55.6,51.923h2.559V48.971A21.922,21.922,0,0,1,54.387,50.106ZM2.082,51.923H37.389V2.077H8.312V7.269A1.039,1.039,0,0,1,7.274,8.307H2.082Zm37.384-3.837a34.9,34.9,0,0,0,7.269.721c8.241,0,13.5-2.46,13.5-4.154V39.572c-2.873,1.966-8.3,3-13.5,3a37.281,37.281,0,0,1-7.269-.693Zm0-8.307a34.967,34.967,0,0,0,7.269.721c8.241,0,13.5-2.46,13.5-4.154l.006-5.076h-.007c-.019.013-.039.024-.057.036-.218.147-.452.286-.7.422l-.224.121c-.239.127-.494.25-.758.368-.039.014-.07.031-.1.047-.3.128-.611.25-.934.367l-.261.093c-.278.1-.564.188-.856.275-.064.02-.124.039-.189.058-.354.1-.712.2-1.081.285-.088.021-.178.041-.266.061-.3.072-.617.138-.935.2l-.265.051q-.58.109-1.179.2l-.243.033q-.5.072-1.019.131l-.312.035c-.415.044-.83.082-1.246.112l-.164.01q-.555.038-1.11.059c-.112.006-.224.013-.337.013-.422.013-.847.022-1.262.022-.711,0-1.413-.021-2.11-.057-.222-.011-.439-.031-.659-.046-.473-.032-.94-.068-1.4-.117-.247-.025-.489-.056-.733-.087-.435-.053-.85-.114-1.266-.181-.236-.038-.47-.077-.7-.12-.133-.025-.271-.042-.4-.068Zm.006-8.32c.208.045.416.091.623.133.238.046.479.093.727.134.376.062.762.115,1.152.165.247.031.492.066.744.093.433.04.875.074,1.318.1.221.016.436.037.66.049.671.035,1.351.055,2.039.055,8.241,0,13.5-2.46,13.5-4.154v-5.08c-2.874,1.965-8.3,3-13.5,3a37.656,37.656,0,0,1-7.263-.671Zm-.006-8.313a34.72,34.72,0,0,0,7.269.738c8.241,0,13.5-2.46,13.5-4.154V14.655c-.019.012-.039.023-.057.036-.218.146-.452.285-.7.422l-.224.121c-.239.126-.494.25-.758.367-.039.015-.07.031-.1.047-.3.129-.611.251-.934.367-.087.033-.174.062-.261.093q-.416.143-.856.276c-.064.02-.124.039-.189.058-.354.1-.712.2-1.081.284-.088.022-.178.042-.266.062-.3.071-.617.138-.935.2l-.265.052q-.58.109-1.179.2l-.243.034q-.5.072-1.019.131l-.312.034c-.415.044-.83.082-1.246.112l-.164.01q-.555.038-1.11.06c-.112,0-.224.012-.337.012-.422.014-.847.023-1.262.023-.711,0-1.413-.022-2.11-.058-.222-.011-.439-.031-.659-.045-.473-.033-.94-.069-1.4-.118-.247-.025-.489-.056-.733-.086-.435-.054-.85-.114-1.266-.182-.236-.038-.47-.077-.7-.119-.133-.025-.271-.043-.4-.069ZM39.471,7.99v6.854c.208.046.416.092.623.133.238.046.479.093.727.135.376.061.762.115,1.152.165.247.032.492.066.744.093.433.041.875.074,1.318.1.221.016.436.037.66.05.671.034,1.351.054,2.039.054,8.241,0,13.5-2.46,13.5-4.154s-5.258-4.154-13.5-4.154h-.189A35.141,35.141,0,0,0,39.471,7.99ZM3.55,6.231H6.235V3.545ZM6.235,47.769V45.692h27v2.077ZM49.85,46.73V44.653h2.077V46.73Zm-4.154,0V44.653h2.077V46.73Zm-4.154,0V44.653h2.077V46.73ZM6.235,43.615V41.538h27v2.077Zm6.231-4.154V37.384H33.235v2.077Zm-4.154,0V37.384h2.077v2.077ZM49.85,38.423V36.346h2.077v2.077Zm-4.154,0V36.346h2.077v2.077Zm-4.154,0V36.346h2.077v2.077ZM7.274,34.269a1.038,1.038,0,0,1-1.038-1.038V24.923a1.038,1.038,0,0,1,1.038-1.038H32.2a1.039,1.039,0,0,1,1.038,1.038v8.307A1.039,1.039,0,0,1,32.2,34.269Zm1.038-2.077H31.158V25.962H8.312ZM49.85,30.115V28.038h2.077v2.077Zm-4.154,0V28.038h2.077v2.077Zm-4.154,0V28.038h2.077v2.077ZM27,30.115V28.038h2.077v2.077Zm-4.154,0V28.038h2.077v2.077Zm-4.154,0V28.038h2.077v2.077ZM49.85,21.808V19.731h2.077v2.077Zm-4.154,0V19.731h2.077v2.077Zm-4.154,0V19.731h2.077v2.077ZM8.312,20.769V18.693h2.077v2.077Zm14.538,0V18.3l-3.115-1.558L16.619,18.3v2.473H14.543V18.3l-3.36-1.681H8.312V14.538h2.077V10.384a1.039,1.039,0,0,1,.574-.929l3.58-1.79V5.192h2.077V7.665l3.115,1.558L22.85,7.665V5.192h2.078V7.665l3.36,1.681h2.87v2.077H29.082v4.154a1.039,1.039,0,0,1-.575.935L24.928,18.3v2.473Zm-2.077-9.742v3.909l3.115,1.557L27,14.935V11.026L23.888,9.468Zm-8.307,0v3.909l3.115,1.557L18.7,14.935V11.026L15.581,9.468ZM29.081,7.269V5.192h2.077V7.269Z" transform="translate(0 32.015)" fill="#4086a2"/>
  </g>
</svg>
