<svg xmlns="http://www.w3.org/2000/svg" width="65" height="65.001" viewBox="0 0 65 65.001">
  <g id="Introduction_to_Deep_Learning" data-name="Introduction to Deep Learning" transform="translate(-0.004)">
    <g id="Group_43" data-name="Group 43" transform="translate(0.004)">
      <g id="Group_42" data-name="Group 42">
        <path id="Path_56" data-name="Path 56" d="M65,19.919a3.149,3.149,0,0,0-3.145-3.145,3.112,3.112,0,0,0-1.025.186l-4.7-5.872a3.113,3.113,0,0,0,.481-1.652,3.141,3.141,0,0,0-5.393-2.193L42.96,3.428c.008-.094.028-.186.028-.283A3.138,3.138,0,0,0,36.89,2.1H24.972a3.138,3.138,0,0,0-6.1,1.048,3.075,3.075,0,0,0,.039.382l-5.2,2.6a3.134,3.134,0,0,0-4.841,3.913l-4.7,5.872a3.112,3.112,0,0,0-1.025-.186,3.138,3.138,0,0,0-1.048,6.1V28.5a3.136,3.136,0,1,0,3.764,4.51l5.723,1.04a3.142,3.142,0,0,0,3.094,2.643c.042,0,.082-.01.124-.013l2,5a3.135,3.135,0,1,0,4.624,4.17l9,2.571A3.133,3.133,0,0,0,32.5,51.178V58.9a3.145,3.145,0,1,0,2.1,0V51.178a3.119,3.119,0,0,0,.88-5.419L36.732,42l9.407,3.136a3.138,3.138,0,0,0,2.09,2.894V58.9a3.145,3.145,0,1,0,2.1,0V48.033A3.1,3.1,0,0,0,52.219,44l8.044-6.7a3.109,3.109,0,0,0,1.6.45,3.138,3.138,0,0,0,1.048-6.1V22.871A3.138,3.138,0,0,0,65,19.919ZM53.472,8.387a1.048,1.048,0,1,1-1.048,1.048A1.049,1.049,0,0,1,53.472,8.387Zm-1.491,3.8A2.981,2.981,0,0,0,54.5,12.4l4.7,5.873a3.118,3.118,0,0,0-.48,1.651,3.079,3.079,0,0,0,.05.494l-7.427,4.051-5.409-4.507a3.055,3.055,0,0,0-.037-2.289ZM38.794,29.355a3.094,3.094,0,0,0-1.347.316l-4.442-4.442,7.842-4.067a3.087,3.087,0,0,0,3.736.4l4.773,3.978-8.474,4.622A3.117,3.117,0,0,0,38.794,29.355ZM39.843,32.5a1.048,1.048,0,1,1-1.048-1.048A1.049,1.049,0,0,1,39.843,32.5ZM23.992,20.954l1.76,5.672-8.93,4.631a3.143,3.143,0,0,0-1.342-.738L14.027,19.376l7.184-.36A3.143,3.143,0,0,0,23.992,20.954Zm-.924-3.132a1.048,1.048,0,1,1,1.048,1.048A1.049,1.049,0,0,1,23.069,17.823Zm3.314,10.839,2.659,8.568L17.82,33.49a3.055,3.055,0,0,0-.038-.369Zm-.007-7.1L29.5,24.685l-1.855.961Zm.572-2.395a3.076,3.076,0,0,0,.05-2.6l4.978-4.646L40,17.939a3.1,3.1,0,0,0-.157.932,3.2,3.2,0,0,0,.043.428l-8.436,4.374Zm14.992-.3a1.048,1.048,0,1,1,1.048,1.048A1.049,1.049,0,0,1,41.939,18.871Zm9.15,8.117,7.512,6.26L42.325,31.768ZM39.843,2.1a1.048,1.048,0,1,1-1.048,1.048A1.049,1.049,0,0,1,39.843,2.1ZM38.4,5.924a3.088,3.088,0,0,0,3.689-.587l8.263,3.814c-.008.1-.028.187-.028.284a3.129,3.129,0,0,0,.241,1.2l-6.089,5.48a3.08,3.08,0,0,0-3.232.136l-7.714-5.786ZM36.89,4.194c.025.068.043.139.071.205L31.828,9.19l-6.663-5ZM22.02,2.1a1.048,1.048,0,1,1-1.048,1.048A1.049,1.049,0,0,1,22.02,2.1Zm-7.339,6.29a3.038,3.038,0,0,0-.039-.381l5.2-2.6a3.126,3.126,0,0,0,3.919.354l6.509,4.882-4.714,4.4a3.106,3.106,0,0,0-1.44-.365,3.139,3.139,0,0,0-3,2.245l-7.364.368-.8-6.113A3.137,3.137,0,0,0,14.681,8.387ZM11.536,7.339a1.048,1.048,0,1,1-1.048,1.048A1.049,1.049,0,0,1,11.536,7.339Zm-1.025,4.008a3.181,3.181,0,0,0,.368.114l.774,5.935-5.6.28a3.123,3.123,0,0,0-.242-.457ZM3.149,17.823A1.048,1.048,0,1,1,2.1,18.871,1.049,1.049,0,0,1,3.149,17.823Zm0,14.677A1.048,1.048,0,1,1,4.2,31.452,1.049,1.049,0,0,1,3.149,32.5Zm8.817-.511-5.722-1.04A3.139,3.139,0,0,0,4.2,28.5V21.822a3.14,3.14,0,0,0,1.95-2.052l5.779-.289,1.461,11.207A3.149,3.149,0,0,0,11.966,31.989ZM14.681,34.6a1.048,1.048,0,1,1,1.048-1.048A1.049,1.049,0,0,1,14.681,34.6Zm4.194,10.484a1.048,1.048,0,1,1,1.048-1.048A1.049,1.049,0,0,1,18.875,45.081ZM31,46.4l-9-2.571a3.142,3.142,0,0,0-3.126-2.947c-.042,0-.082.01-.124.013l-2-5a3.232,3.232,0,0,0,.4-.423L29.808,39.7l1.869,6.022A3.2,3.2,0,0,0,31,46.4Zm2.554,16.5A1.048,1.048,0,1,1,34.6,61.855,1.049,1.049,0,0,1,33.552,62.9Zm0-13.629A1.048,1.048,0,1,1,34.6,48.226,1.049,1.049,0,0,1,33.552,49.274Zm.036-4.47-1.333-4.292,2.487.829Zm1.818-5.453-3.915-1.305L28.275,27.682l2.778-1.44,4.912,4.912a3.094,3.094,0,0,0-.316,1.347,3.128,3.128,0,0,0,1.218,2.467ZM49.278,62.9a1.048,1.048,0,1,1,1.048-1.048A1.049,1.049,0,0,1,49.278,62.9Zm0-16.774a1.048,1.048,0,1,1,1.048-1.048A1.049,1.049,0,0,1,49.278,46.129Zm1.6-3.745a3.09,3.09,0,0,0-4.062.77l-9.417-3.139,1.458-4.376a3.137,3.137,0,0,0,2.79-1.827l17.179,1.561a3.091,3.091,0,0,0,.1.308Zm2.2-16.478,6.7-3.655a3.113,3.113,0,0,0,1.041.619v8.774a3.154,3.154,0,0,0-.548.257Zm8.789,9.738A1.048,1.048,0,1,1,62.907,34.6,1.049,1.049,0,0,1,61.859,35.645Zm0-14.677a1.048,1.048,0,1,1,1.048-1.048A1.049,1.049,0,0,1,61.859,20.968Z" transform="translate(-0.004)" fill="#4086a2"/>
      </g>
    </g>
  </g>
</svg>
