<?xml version="1.0" encoding="utf-8"?>
<!-- Generator: Adobe Illustrator 24.0.0, SVG Export Plug-In . SVG Version: 6.00 Build 0)  -->
<svg version="1.1" id="Layer_1" xmlns="http://www.w3.org/2000/svg" xmlns:xlink="http://www.w3.org/1999/xlink" x="0px" y="0px"
	 viewBox="0 0 39.2 39.2" style="enable-background:new 0 0 39.2 39.2;" xml:space="preserve">
<style type="text/css">
	.st0{opacity:0.2;fill:#FFFFFF;enable-background:new    ;}
	.st1{opacity:0.8;}
	.st2{fill:#FFFFFF;}
</style>
<g>
	<circle id="Ellipse_254_1_" class="st0" cx="19.6" cy="19.6" r="19.6"/>
	<g id="facebook-logo_1_" transform="translate(1155.019 5201.019)" class="st1">
		<path id="Path_2_1_" class="st2" d="M-1130.7-5191h-2.5c-2.4-0.1-4.5,1.7-4.7,4.2c0,0.2,0,0.4,0,0.6v2.2h-2.5
			c-0.2,0-0.4,0.2-0.4,0.4v3.2c0,0.2,0.2,0.4,0.4,0.4h2.5v8.1c0,0.2,0.2,0.4,0.4,0.4h3.3c0.2,0,0.4-0.2,0.4-0.4v-8.1h3
			c0.2,0,0.4-0.2,0.4-0.4l0,0v-3.2c0-0.2-0.2-0.4-0.4-0.4l0,0h-3v-1.9c0-0.9,0.2-1.4,1.4-1.4h1.7c0.2,0,0.4-0.2,0.4-0.4c0,0,0,0,0,0
			v-3C-1130.3-5190.8-1130.5-5191-1130.7-5191z"/>
	</g>
</g>
</svg>
