<?xml version="1.0" encoding="utf-8"?>
<!-- Generator: Adobe Illustrator 24.0.0, SVG Export Plug-In . SVG Version: 6.00 Build 0)  -->
<svg version="1.1" id="Layer_1" xmlns="http://www.w3.org/2000/svg" xmlns:xlink="http://www.w3.org/1999/xlink" x="0px" y="0px"
	 viewBox="0 0 39.2 39.2" style="enable-background:new 0 0 39.2 39.2;" xml:space="preserve">
<style type="text/css">
	.st0{opacity:0.2;fill:#FFFFFF;enable-background:new    ;}
	.st1{opacity:0.8;}
	.st2{fill:#FFFFFF;}
</style>
<g id="Group_12729" transform="translate(-1140.826 -5191)">
	<circle id="Ellipse_254" class="st0" cx="1160.4" cy="5210.6" r="19.6"/>
	<g id="facebook-logo" transform="translate(1155.019 5201.019)" class="st1">
		<path id="Path_2" class="st2" d="M10.1,0H7.6C5.1-0.1,3.1,1.7,2.9,4.2c0,0.2,0,0.4,0,0.6V7H0.4C0.2,7,0,7.2,0,7.4v3.2
			C0,10.8,0.2,11,0.4,11h2.5V19c0,0.2,0.2,0.4,0.4,0.4h3.3C6.9,19.4,7,19.3,7,19V11h3c0.2,0,0.4-0.2,0.4-0.4v0V7.4
			C10.4,7.2,10.2,7,10,7l0,0H7V5.1c0-0.9,0.2-1.4,1.4-1.4h1.7c0.2,0,0.4-0.2,0.4-0.4c0,0,0,0,0,0v-3C10.5,0.2,10.3,0,10.1,0z"/>
	</g>
</g>
</svg>
