<svg xmlns="http://www.w3.org/2000/svg" width="39.24" height="39.24" viewBox="0 0 39.24 39.24">
  <g id="Group_12729" data-name="Group 12729" transform="translate(-1140.826 -5191)">
    <circle id="Ellipse_254" data-name="Ellipse 254" cx="19.62" cy="19.62" r="19.62" transform="translate(1140.826 5191)" fill="#fff" opacity="0.2"/>
    <g id="facebook-logo" transform="translate(1155.019 5201.019)" opacity="0.8">
      <path id="Path_2" data-name="Path 2" d="M32.186,0l-2.52,0a4.425,4.425,0,0,0-4.66,4.782v2.2H22.473a.4.4,0,0,0-.4.4v3.194a.4.4,0,0,0,.4.4h2.533v8.06a.4.4,0,0,0,.4.4h3.305a.4.4,0,0,0,.4-.4v-8.06h2.962a.4.4,0,0,0,.4-.4V7.383a.4.4,0,0,0-.4-.4H29.1V5.118c0-.9.214-1.354,1.384-1.354h1.7a.4.4,0,0,0,.4-.4V.4A.4.4,0,0,0,32.186,0Z" transform="translate(-22.077)" fill="#fff"/>
    </g>
  </g>
</svg>
