<svg xmlns="http://www.w3.org/2000/svg" width="60" height="60" viewBox="0 0 60 60">
  <g id="Campus_Connect_" data-name="Campus Connect " transform="translate(-263 -31)">
    <path id="Union_12" data-name="Union 12" d="M-105-4087h-52a1,1,0,0,1-1-1v-5a5.994,5.994,0,0,1,.09-1H-160a1,1,0,0,1-1-1v-36h0a1,1,0,0,1,1-1h15v-14h0a1,1,0,0,1,1-1h26a1,1,0,0,1,1,1v14h15a1,1,0,0,1,1,1v36h0a1,1,0,0,1-1,1h-2.09a5.98,5.98,0,0,1,.09,1v5h0a1,1,0,0,1-1,1Zm-9-6v4h8v-4a4,4,0,0,0-4-4A4,4,0,0,0-114-4093Zm-10-3v7h8v-7a4,4,0,0,0-4-4A4,4,0,0,0-124-4096Zm-12,0v7h10v-7a5,5,0,0,0-5-5A5,5,0,0,0-136-4096Zm-10,0v7h8v-7a4,4,0,0,0-4-4A4,4,0,0,0-146-4096Zm-10,3v4h8v-4a4,4,0,0,0-4-4A4,4,0,0,0-156-4093Zm46-12.015a3.987,3.987,0,0,1,2.761,1.106,4,4,0,0,1,.132,5.655,6.037,6.037,0,0,1,2.295,2.253H-103v-34h-14v23.382a3.946,3.946,0,0,1-.107,5.365,6.016,6.016,0,0,1,2.955,3.931,6.039,6.039,0,0,1,1.258-.931,4,4,0,0,1,0-5.524,3.988,3.988,0,0,1,2.894-1.238ZM-159-4096h1.812a6.039,6.039,0,0,1,2.295-2.253,4,4,0,0,1,0-5.524,4,4,0,0,1,5.655-.131,4,4,0,0,1,.132,5.655,6.03,6.03,0,0,1,1.258.931,6.017,6.017,0,0,1,2.955-3.931,3.946,3.946,0,0,1-.107-5.365V-4130h-14Zm47-5a2,2,0,0,0,2,2,2,2,0,0,0,2-2,2,2,0,0,0-2-2A2,2,0,0,0-112-4101Zm-42,0a2,2,0,0,0,2,2,2,2,0,0,0,2-2,2,2,0,0,0-2-2A2,2,0,0,0-154-4101Zm26.824-8.254a5,5,0,0,1-.6,7.046,7.042,7.042,0,0,1,2.869,2.77,6.042,6.042,0,0,1,2.016-1.815,3.989,3.989,0,0,1-1.106-2.768,3.989,3.989,0,0,1,4-3.979,3.955,3.955,0,0,1,1,.142V-4145h-24v37.142a3.972,3.972,0,0,1,3.83.989,3.972,3.972,0,0,1,.064,5.616,6.04,6.04,0,0,1,2.016,1.815,7.041,7.041,0,0,1,2.869-2.77,4.974,4.974,0,0,1-.6-.6,5,5,0,0,1,.6-7.045,4.98,4.98,0,0,1,3.219-1.176A4.991,4.991,0,0,1-127.176-4109.254ZM-122-4104a2,2,0,0,0,2,2,2,2,0,0,0,2-2,2,2,0,0,0-2-2A2,2,0,0,0-122-4104Zm-22,0a2,2,0,0,0,2,2,2,2,0,0,0,2-2,2,2,0,0,0-2-2A2,2,0,0,0-144-4104Zm10-2a3,3,0,0,0,3,3,3,3,0,0,0,3-3,3,3,0,0,0-3-3A3,3,0,0,0-134-4106Zm26-2v-16h2v16Zm-6,0v-16h2v16Zm-36,0v-16h2v16Zm-6,0v-16h2v16Zm32-5v-2h2v2Zm-4,0v-2h2v2Zm-4,0v-2h2v2Zm-4,0v-2h2v2Zm-4,0v-2h2v2Zm16-4v-2h2v2Zm-4,0v-2h2v2Zm-4,0v-2h2v2Zm-4,0v-2h2v2Zm-4,0v-2h2v2Zm16-4v-2h2v2Zm-4,0v-2h2v2Zm-4,0v-2h2v2Zm-4,0v-2h2v2Zm-4,0v-2h2v2Zm16-4v-2h2v2Zm-4,0v-2h2v2Zm-4,0v-2h2v2Zm-4,0v-2h2v2Zm-4,0v-2h2v2Zm12-4v-2h2v2Zm-4,0v-2h2v2Zm-4,0v-2h2v2Zm11-4h-12a1,1,0,0,1-1-1v-8h0a1,1,0,0,1,1-1h12a1,1,0,0,1,1,1v8h0a1,1,0,0,1-1,1Zm-11-2h10v-6h-10Z" transform="translate(424 4178)" fill="#4086a2"/>
  </g>
</svg>
