<svg xmlns="http://www.w3.org/2000/svg" width="63.158" height="60" viewBox="0 0 63.158 60">
  <g id="Videos" transform="translate(-225.421 -31.499)">
    <path id="Union_11" data-name="Union 11" d="M-208.64-4079.5a3.363,3.363,0,0,1-3.36-3.358v-31.177a3.364,3.364,0,0,1,3.36-3.359h2.27a9.46,9.46,0,0,1-3.525-7.369,9.484,9.484,0,0,1,9.474-9.473,9.468,9.468,0,0,1,7.711,3.976,12.127,12.127,0,0,1,11.762-9.239,12.119,12.119,0,0,1,12.105,12.105,12.1,12.1,0,0,1-5.29,10h7.194a3.364,3.364,0,0,1,3.36,3.359v5.681l11.163-6.638a2.4,2.4,0,0,1,2.4.06,2.439,2.439,0,0,1,1.168,2.1v28.779a2.441,2.441,0,0,1-1.168,2.1,2.4,2.4,0,0,1-1.254.356,2.4,2.4,0,0,1-1.092-.264l-.06-.033-11.162-6.637v5.679a3.364,3.364,0,0,1-3.36,3.36Zm-1.255-34.536v31.176a1.256,1.256,0,0,0,1.255,1.255h41.7a1.255,1.255,0,0,0,1.254-1.253v-31.177a1.256,1.256,0,0,0-1.254-1.254h-41.7A1.256,1.256,0,0,0-209.894-4114.036Zm58.5.885-12.18,7.244v14.918l12.2,7.254a.279.279,0,0,0,.268-.022.336.336,0,0,0,.163-.3v-28.779a.336.336,0,0,0-.163-.3.287.287,0,0,0-.154-.046A.3.3,0,0,0-151.4-4113.151Zm-29.549-4.244a10.012,10.012,0,0,0,10-10,10.012,10.012,0,0,0-10-10,10.012,10.012,0,0,0-10,10A10.012,10.012,0,0,0-180.947-4117.4Zm-6.815,0a12.2,12.2,0,0,1-3.761-4.115,9.516,9.516,0,0,1-2.949,4.115Zm-12.659,0a7.377,7.377,0,0,0,7.369-7.369,7.377,7.377,0,0,0-7.369-7.368,7.377,7.377,0,0,0-7.369,7.368A7.377,7.377,0,0,0-200.421-4117.4Zm6.324,28.629a2.085,2.085,0,0,1-1.061-1.826v-15.835a2.086,2.086,0,0,1,1.06-1.825,2.157,2.157,0,0,1,2.149,0l13.633,7.917a2.091,2.091,0,0,1,1.054,1.823,2.09,2.09,0,0,1-1.054,1.822l-13.633,7.917a2.145,2.145,0,0,1-1.078.29A2.134,2.134,0,0,1-194.1-4088.766Zm1.044-1.826v0l13.678-7.919-13.632-7.921Zm4.21-36.8a7.9,7.9,0,0,1,7.895-7.9,1.052,1.052,0,0,1,1.052,1.053,1.052,1.052,0,0,1-1.052,1.052,5.8,5.8,0,0,0-5.79,5.79,5.8,5.8,0,0,0,5.79,5.79,5.8,5.8,0,0,0,5.79-5.79,1.052,1.052,0,0,1,1.052-1.052,1.052,1.052,0,0,1,1.053,1.052,7.9,7.9,0,0,1-7.895,7.895A7.9,7.9,0,0,1-188.842-4127.4Zm-16.842,2.631a1.052,1.052,0,0,1,1.053-1.052,1.052,1.052,0,0,1,1.052,1.052,3.162,3.162,0,0,0,3.158,3.158,3.162,3.162,0,0,0,3.158-3.158,3.161,3.161,0,0,0-3.158-3.158,1.053,1.053,0,0,1-1.053-1.053,1.052,1.052,0,0,1,1.053-1.052,5.269,5.269,0,0,1,5.263,5.263,5.269,5.269,0,0,1-5.263,5.263A5.269,5.269,0,0,1-205.684-4124.764Z" transform="translate(437.421 4171)" fill="#4086a2"/>
  </g>
</svg>
