<svg xmlns="http://www.w3.org/2000/svg" width="64.286" height="60" viewBox="0 0 64.286 60">
  <g id="webinar" transform="translate(0)">
    <path id="Union_13" data-name="Union 13" d="M3.214,60A3.215,3.215,0,0,1,0,56.786V52.5a1.072,1.072,0,0,1,1.072-1.072H2.143V18.214A5.364,5.364,0,0,1,7.5,12.857h15V11.786A11.8,11.8,0,0,1,34.286,0H45A11.8,11.8,0,0,1,56.786,11.786v1.071a5.363,5.363,0,0,1,5.357,5.357V51.429h1.072A1.072,1.072,0,0,1,64.286,52.5v4.286A3.215,3.215,0,0,1,61.071,60Zm0-2.143H61.071a1.071,1.071,0,0,0,1.071-1.071H52.5V54.643h9.643V53.571h-22.5v1.072A2.143,2.143,0,0,1,37.5,56.786H26.786a2.143,2.143,0,0,1-2.143-2.143V53.571H2.143v1.072h9.643v2.143H2.143A1.072,1.072,0,0,0,3.214,57.857Zm23.571-3.214H37.5V53.571H26.786ZM4.286,18.214V51.429H60V18.214A3.215,3.215,0,0,0,56.786,15h-.052A11.8,11.8,0,0,1,45.452,25.706L38.258,32.9a1.071,1.071,0,0,1-1.829-.758V25.714H34.286A11.8,11.8,0,0,1,22.554,15H7.5A3.214,3.214,0,0,0,4.286,18.214Zm20.357-6.428v2.143a9.654,9.654,0,0,0,9.643,9.643H37.5a1.072,1.072,0,0,1,1.072,1.072v4.913l5.671-5.671A1.073,1.073,0,0,1,45,23.571a9.654,9.654,0,0,0,9.643-9.643V11.786A9.654,9.654,0,0,0,45,2.143H34.286A9.655,9.655,0,0,0,24.643,11.786Zm8.571,35.357V45H50.357v2.143Zm-7.186-3.528-5.043-5.043H9.643A1.072,1.072,0,0,1,8.571,37.5V26.786a1.072,1.072,0,0,1,1.072-1.072H26.786a1.072,1.072,0,0,1,1.072,1.072V42.857a1.071,1.071,0,0,1-1.829.758ZM10.714,36.429H21.429a1.072,1.072,0,0,1,.758.314l3.528,3.528V27.857h-15Zm22.5,6.428V40.714H50.357v2.143Zm6.429-4.286V36.429H50.357v2.143Zm-6.429,0V36.429H37.5v2.143ZM21.429,33.214V31.072h2.143v2.143Zm-4.286,0V31.072h2.143v2.143Zm-4.286,0V31.072H15v2.143ZM30,18.214V16.071H49.286v2.143Zm0-4.286V11.786H49.286v2.143Zm0-4.286V7.5H49.286V9.643Z" transform="translate(0 0)" fill="#4086a2"/>
  </g>
</svg>
