<svg id="IIM_Bangalore_Logo" xmlns="http://www.w3.org/2000/svg" width="70.818" height="54.13" viewBox="0 0 70.818 54.13">
  <g id="g4367">
    <g id="Group_1" data-name="Group 1" transform="translate(3.884 27.289)">
      <path id="path614" d="M324.156-3808.885a4.438,4.438,0,0,0,1.306,2.838l.306-.338a2.585,2.585,0,0,1-.831-1.763.915.915,0,0,1,.831-.946h.957v2.531l.913.73v-5.021h.959l-.518-.946h-4.926l.527.946h3.046v.814h-1.44a1.151,1.151,0,0,0-1.129,1.154" transform="translate(-323.152 3830.137)" fill-rule="evenodd"/>
      <path id="path618" d="M331.044-3820.923h.4c-.351-.6-.7-1.2-1.093-1.764a2.061,2.061,0,0,0-1.526-1.116,1.183,1.183,0,0,0-.388.088l.433,1.028a1.044,1.044,0,0,1,.477-.163.888.888,0,0,1,.741.424Z" transform="translate(-327.167 3839.262)" fill-rule="evenodd"/>
      <path id="path622" d="M343.785-3809.566c.52,1.721,1.483,2.837,2.437,2.837a.918.918,0,0,0,.832-.947,2.431,2.431,0,0,0-.526-1.286h1.31v2.4l.915.731v-5.021h.954l-.521-.946h-6.228l.521.946h4.359v.814h-2.267l-.131.215a1.863,1.863,0,0,1,.7,1.379.455.455,0,0,1-.438.511c-.6,0-1.217-.727-1.565-1.8Z" transform="translate(-338.206 3830.134)" fill-rule="evenodd"/>
      <path id="path626" d="M368.541-3819.976h.914v4.292l.911.729v-5.021h.956l-.52-.946h-.566a1.154,1.154,0,0,1-.39-.9c0-.73.869-1.374,1.957-1.333a8.589,8.589,0,0,1,5.492,1.807l.216-.17a8.835,8.835,0,0,0-6.189-2.282c-1.3,0-2.305.645-2.305,1.462a1.7,1.7,0,0,0,.7,1.418h-1.7Z" transform="translate(-357.253 3839.26)" fill-rule="evenodd"/>
      <path id="path630" d="M381.681-3805.74l.436-.348-1.483-1.591a1.2,1.2,0,0,0,.744-.981,1.54,1.54,0,0,0,1,.729.968.968,0,0,0,.694-.214v-.99a1.072,1.072,0,0,1-.872.34,1.224,1.224,0,0,1-.78-.257v-1.8h1.564l-.525-.946h-3.745l.527.946h1.262v1.331a.669.669,0,0,1-.174.469.87.87,0,0,0-.482-.295c-.174,0-.3.166-.3.384a2.493,2.493,0,0,0,.611,1.284l1.523,1.939Z" transform="translate(-365.387 3830.137)" fill-rule="evenodd"/>
      <path id="path634" d="M396.212-3811.8H393.42l.526.947h2.265Zm-1.827,2.834a2.349,2.349,0,0,0,1.827,2.06v-.81c-.132,0-.26.036-.351.036a.868.868,0,0,1-.911-.813c0-.515.566-.944,1.262-.944v-.814a1.438,1.438,0,0,0-.434-.095,1.372,1.372,0,0,0-1.393,1.38m1.827,2.06a2.084,2.084,0,0,0,1.265-.641v.985l.914.73v-5.021h.962l-.525-.947h-2.616v.947h1.264v1.586a2.6,2.6,0,0,0-1.264-.985v.814a1.95,1.95,0,0,1,1.264.688,3.119,3.119,0,0,1-1.264,1.033v.81Z" transform="translate(-376.563 3830.138)" fill-rule="evenodd"/>
      <path id="path638" d="M425.692-3808.885c0,.6.562,1.467.95,1.424.086,0,.216-.173.216-.386v-.3c0-.133.086-.265.178-.265H428.2v1.85l.911.73v-5.021h.954l-.52-.946h-4.13l-.073.946H428.2v1.5h-2.08a.468.468,0,0,0-.43.463" transform="translate(-400.828 3830.137)" fill-rule="evenodd"/>
      <path id="path642" d="M442.49-3810.852h.865v4.291l.91.73v-5.021h.952l-.52-.947h-2.728Z" transform="translate(-413.466 3830.137)" fill-rule="evenodd"/>
      <path id="path646" d="M455.177-3811.8h-2.73l.521.947h2.209Zm-1.78,2.834a2.263,2.263,0,0,0,1.78,2.06v-.81c-.133,0-.267.036-.39.036a.857.857,0,0,1-.868-.813c0-.515.564-.944,1.258-.944v-.814a1.487,1.487,0,0,0-.434-.095,1.335,1.335,0,0,0-1.347,1.38m1.78,2.06a1.885,1.885,0,0,0,1.212-.641v.985l.951.73v-5.021h.914l-.523-.947h-2.554v.947h1.212v1.586a2.336,2.336,0,0,0-1.212-.985v.814a1.766,1.766,0,0,1,1.212.688,3.037,3.037,0,0,1-1.212,1.033Z" transform="translate(-421.429 3830.138)" fill-rule="evenodd"/>
      <path id="path650" d="M478.676-3809.455a1.441,1.441,0,0,1,.836-.424l.448-.078-.076-.741c-.966-.077-1.154-.282-1.154-.282-.339-.224-.522-.463-.531-.666a.76.76,0,0,1,.477-.724v-.7h-.088a1.071,1.071,0,0,0-1.038,1.113,1.95,1.95,0,0,0,1.038,1.421,1.125,1.125,0,0,0-.862.987,2,2,0,0,0,.95,1.461v-.6a.427.427,0,0,1-.259-.4.463.463,0,0,1,.259-.38m.261-2.967a.47.47,0,0,0-.261.052v-.7m0,4.983a1.441,1.441,0,0,0,.778.261,1.99,1.99,0,0,0,1.434-.687v.985l.955.731v-5.022h.909l-.52-.945h-2.258l.526.945h.388v2.058a2.521,2.521,0,0,1-1.91,1.161.376.376,0,0,1-.3-.082Z" transform="translate(-440.51 3831.101)" fill-rule="evenodd"/>
      <path id="path654" d="M493.788-3818.746h.864v4.291l.952.73v-5.021h.91l-.52-.947H495.3c-.218-1.417-1-2.492-1.861-2.492a1.211,1.211,0,0,0-1.089,1.293,1.851,1.851,0,0,0,.264,1.07h.346a2.72,2.72,0,0,1-.086-.645.774.774,0,0,1,.822-.817c.518,0,1,.648,1.128,1.592h-1.562Z" transform="translate(-451.761 3838.031)" fill-rule="evenodd"/>
      <path id="path658" d="M507.808-3808.885a4.46,4.46,0,0,0,1.3,2.838l.3-.338a2.429,2.429,0,0,1-.827-1.763.885.885,0,0,1,.827-.946h.909v2.531l.954.73v-5.021h.91l-.52-.946h-4.855l.521.946h2.99v.814h-1.385a1.124,1.124,0,0,0-1.127,1.154" transform="translate(-462.75 3830.137)" fill-rule="evenodd"/>
      <path id="path662" d="M527.063-3808.583c0,.471.909,1.513,1.3,1.513.129,0,.215-.177.215-.39v-.474h.778v-.951h-.778v-1.968h.778v-.947h-3.2l.517.947h.956v1.968h-.311a.292.292,0,0,0-.25.3m2.292.649h.778v1.37l.913.733v-5.023H532l-.52-.947h-2.125v.947h.778v1.968h-.778Z" transform="translate(-477.451 3830.138)" fill-rule="evenodd"/>
      <path id="path666" d="M550.415-3805.74l.435-.348-1.472-1.591a1.2,1.2,0,0,0,.737-.981,1.528,1.528,0,0,0,1,.729.971.971,0,0,0,.69-.214v-.99a1.009,1.009,0,0,1-.867.34,1.236,1.236,0,0,1-.78-.257v-1.8h1.563l-.52-.946h-3.728l.516.946h1.258v1.331a.534.534,0,0,1-.17.469.885.885,0,0,0-.477-.295c-.178,0-.3.166-.3.384a2.324,2.324,0,0,0,.648,1.284Z" transform="translate(-493.657 3830.137)" fill-rule="evenodd"/>
      <path id="path670" d="M563.072-3808.885a4.443,4.443,0,0,0,1.3,2.838l.3-.338a2.585,2.585,0,0,1-.823-1.763.912.912,0,0,1,.823-.946h.952v2.531l.91.73v-5.021h.956l-.522-.946h-4.9l.526.946h3.033v.814h-1.386a1.16,1.16,0,0,0-1.17,1.154" transform="translate(-504.753 3830.137)" fill-rule="evenodd"/>
      <path id="path674" d="M568.97-3785.331a1.5,1.5,0,0,0,1.6-1.33,1.787,1.787,0,0,0-1.429-1.5,1.35,1.35,0,0,0-.955.511l.608.643a.813.813,0,0,1,.7-.511.338.338,0,0,1,.347.3,1.14,1.14,0,0,1-1.127,1.114,2.973,2.973,0,0,1-2.386-1.548l-.26.262a3.838,3.838,0,0,0,2.9,2.059" transform="translate(-507.793 3812.172)" fill-rule="evenodd"/>
      <path id="path676" d="M407.413-3879.669h-1.139v-8.561h1.139Z" transform="translate(-386.333 3888.23)"/>
      <path id="path678" d="M420.35-3879.669h-1.139v-8.561h1.139Z" transform="translate(-396.166 3888.23)"/>
      <path id="path682" d="M433.617-3888.229l2.7,7.194,2.708-7.194h1.559v8.562H439.5v-7.124h-.024l-2.673,7.124h-.971l-2.673-7.124h-.025v7.124h-1.078v-8.562Z" transform="translate(-405.932 3888.23)"/>
      <path id="path686" d="M479.477-3880.629a1.632,1.632,0,0,0,1.18-.408,1.484,1.484,0,0,0,.425-1.127,1.406,1.406,0,0,0-.155-.7,1.215,1.215,0,0,0-.413-.438,1.74,1.74,0,0,0-.594-.228,3.54,3.54,0,0,0-.7-.067h-2.6v2.962Zm-.576-3.919a2.249,2.249,0,0,0,1.4-.342,1.241,1.241,0,0,0,.426-1.026,1.509,1.509,0,0,0-.143-.719.989.989,0,0,0-.4-.407,1.535,1.535,0,0,0-.582-.189,5.679,5.679,0,0,0-.7-.04h-2.278v2.722Zm-.312-3.682c.184,0,.38,0,.593,0s.421.018.629.038a4.309,4.309,0,0,1,.582.091,1.484,1.484,0,0,1,.462.18,2.213,2.213,0,0,1,.712.694,1.927,1.927,0,0,1,.293,1.092,2.083,2.083,0,0,1-.33,1.18,1.921,1.921,0,0,1-.941.736v.025a1.974,1.974,0,0,1,1.211.72,2.152,2.152,0,0,1,.419,1.342,2.532,2.532,0,0,1-.168.912,2.284,2.284,0,0,1-.5.784,2.491,2.491,0,0,1-.814.553,2.792,2.792,0,0,1-1.122.21h-4.135v-8.562h3.1Z" transform="translate(-438.94 3888.231)"/>
    </g>
    <path id="path690" d="M436.262-3983.766c-.685.014-1.447.005-1.967.018-.2-.071-.1-.3-.075-.433a5.19,5.19,0,0,0,.031-2.6,10.057,10.057,0,0,0-1.635-3.193,11.613,11.613,0,0,1-2.253-4.088,6.253,6.253,0,0,1,.118-3.9,10.107,10.107,0,0,1,2.014-3.394c.385-.448.472-.542,1.345-.525a35.23,35.23,0,0,1,8.57.494c.146.025.255.046.241.221-.007.1-.05.193-.109.214a10.123,10.123,0,0,0-3.443,1.072,6.979,6.979,0,0,0-3.706,4.7,8.131,8.131,0,0,0,.1,2.8,22.285,22.285,0,0,0,.945,3.106,9.17,9.17,0,0,1,.522,3.122,7.808,7.808,0,0,1-.351,1.791c-.144.535-.239.573-.346.588" transform="translate(-400.565 4001.969)" fill="#b01116" fill-rule="evenodd"/>
    <path id="path694" d="M403.633-3982.485c-.655.2-1.233.373-1.729.523-.211-.014-.174-.265-.189-.4a5.093,5.093,0,0,0-.76-2.465,13.534,13.534,0,0,0-2.844-2.73,11.44,11.44,0,0,1-3.271-3.25,5.962,5.962,0,0,1-.841-3.717,11.68,11.68,0,0,1,.942-3.583.9.9,0,0,1,.51-.6,39.991,39.991,0,0,1,8.827-2.306c.288-.031.417-.06.455.086a.215.215,0,0,1-.055.222,9.772,9.772,0,0,0-3.038,1.93,7.228,7.228,0,0,0-2.164,5.316,7.044,7.044,0,0,0,.887,2.851c.443.752,1.184,1.9,1.763,2.7a9.343,9.343,0,0,1,1.546,2.953,7.8,7.8,0,0,1,.138,1.818c0,.555-.078.616-.178.657" transform="translate(-373.101 4001.265)" fill="#b01116" fill-rule="evenodd"/>
    <path id="path698" d="M373.318-3971.327c-.561.391-1.15.814-1.574,1.117-.173.029-.23-.235-.287-.358a6.73,6.73,0,0,0-1.318-1.955,10.128,10.128,0,0,0-3.534-1.838,10.319,10.319,0,0,1-4.094-2.17,6.749,6.749,0,0,1-1.946-3.17,8.235,8.235,0,0,1,0-4.1,1.133,1.133,0,0,1,.343-.725,37.885,37.885,0,0,1,7.69-4.7c.276-.1.384.24.172.42a7.494,7.494,0,0,0-2.171,2.828,6.791,6.791,0,0,0-.479,5.552,6.149,6.149,0,0,0,1.665,2.453,30.5,30.5,0,0,0,2.522,2,8.771,8.771,0,0,1,2.372,2.335,7.044,7.044,0,0,1,.645,1.6c.178.525.078.635,0,.7" transform="translate(-347.503 3992.296)" fill="#b01116" fill-rule="evenodd"/>
    <path id="path702" d="M348.158-3950.281c-.426.536-.884,1.073-1.2,1.484-.155.076-.286-.163-.376-.262a6.736,6.736,0,0,0-1.778-1.524,10.316,10.316,0,0,0-3.944-.775,12.672,12.672,0,0,1-4.542-.793,6.593,6.593,0,0,1-2.737-2.448,9.076,9.076,0,0,1-1.283-3.9,1.054,1.054,0,0,1,.25-.916,35.568,35.568,0,0,1,5.925-6.466c.239-.17.448.128.3.361a7.824,7.824,0,0,0-1.252,3.223,7.112,7.112,0,0,0,1.118,5.462,6.187,6.187,0,0,0,2.325,1.8,30.118,30.118,0,0,0,2.989,1.179,8.274,8.274,0,0,1,2.851,1.725,6.78,6.78,0,0,1,1.1,1.3c.307.448.306.452.265.551" transform="translate(-326.193 3974.581)" fill="#b01116" fill-rule="evenodd"/>
    <path id="path706" d="M331.126-3921.242c-.225.641-.439,1.075-.71,1.685-.153.175-.259.025-.377-.032a5.863,5.863,0,0,0-2.018-.97,8.821,8.821,0,0,0-4.053.388c-1.927.328-3.185.776-4.563.6a5.785,5.785,0,0,1-3.391-1.545,13.42,13.42,0,0,1-2.5-3.235.542.542,0,0,1-.118-.326,37.446,37.446,0,0,1,3.963-8.718c.177-.234.421,0,.347.269a7.694,7.694,0,0,0-.311,3.428,6.716,6.716,0,0,0,2.769,4.951,5.756,5.756,0,0,0,2.771,1.035c.864.112,2.234.122,3.2.231a7.625,7.625,0,0,1,3.192.807,10.429,10.429,0,0,1,1.386.957c.425.334.42.367.41.475" transform="translate(-311.85 3949.92)" fill="#b01116" fill-rule="evenodd"/>
    <path id="path710" d="M324.814-3885.919c-.012.669-.062,1.322-.1,1.986-.024.091-.216.1-.332.033a5.693,5.693,0,0,0-2.277-.446c-.654.047-1.264.055-3.861,1.438-2.061,1.187-1.823,1.064-2.581,1.448a6.608,6.608,0,0,1-4.847.218,9.265,9.265,0,0,1-3.856-2.839,37.446,37.446,0,0,1,1.241-9.31c.083-.278.466-.205.435.13a10.47,10.47,0,0,0,.967,3.863,6.459,6.459,0,0,0,3.961,3.386,8.028,8.028,0,0,0,2.994.093,27.238,27.238,0,0,0,2.74-.7,10.075,10.075,0,0,1,3.323-.172,10.424,10.424,0,0,1,1.671.517c.517.162.52.306.521.357" transform="translate(-306.96 3919.573)" fill="#b01116" fill-rule="evenodd"/>
    <path id="path714" d="M468.888-3980.245c-.658-.2-1.226-.3-1.726-.439-.168-.128.037-.311.1-.433a5.164,5.164,0,0,0,.827-2.647,14.357,14.357,0,0,0-.763-3.523,14.859,14.859,0,0,1-.8-4.6,6.133,6.133,0,0,1,1.212-3.654,9.009,9.009,0,0,1,2.975-2.6c.41-.235.579-.337.78-.273a33.048,33.048,0,0,1,8.447,3.226c.142.078.48.2.429.417a.259.259,0,0,1-.256.185,9.681,9.681,0,0,0-3.58-.043,6.678,6.678,0,0,0-4.97,3.37,7.457,7.457,0,0,0-.693,2.569,22.208,22.208,0,0,0-.086,3.248,8.745,8.745,0,0,1-.422,3.4,6.352,6.352,0,0,1-.755,1.487c-.287.52-.555.333-.715.3" transform="translate(-428.234 3999.28)" fill="#b01116" fill-rule="evenodd"/>
    <path id="path718" d="M493.02-3964.236c-.571-.379-.909-.668-1.342-.953-.123-.174-.076-.2.017-.3a4.424,4.424,0,0,0,1.613-2.012,10.876,10.876,0,0,0,.5-3.843,18.4,18.4,0,0,1,.382-4.443,6.487,6.487,0,0,1,2.257-3.258,9.788,9.788,0,0,1,3.566-1.688,1.1,1.1,0,0,1,1.2.153,42.389,42.389,0,0,1,6.988,5.654c.21.293-.147.431-.259.362a9.767,9.767,0,0,0-3.407-1.1,6.53,6.53,0,0,0-5.744,1.561,9.909,9.909,0,0,0-1.357,2.545,23.666,23.666,0,0,0-.915,3.185,6.659,6.659,0,0,1-1.6,2.921,6.711,6.711,0,0,1-1.211,1.191c-.429.411-.548.1-.7.021" transform="translate(-447.308 3985.913)" fill="#b01116" fill-rule="evenodd"/>
    <path id="path722" d="M509.735-3939.474c-.419-.542-.647-.8-.966-1.212-.061-.2-.009-.212.111-.274a11.5,11.5,0,0,0,2.233-1.594,10.874,10.874,0,0,0,1.7-3.483,13.685,13.685,0,0,1,1.782-4.09,6.631,6.631,0,0,1,3.2-2.405,10.272,10.272,0,0,1,3.939-.5c.471.049.529.148.653.316a46.308,46.308,0,0,1,5.216,7.882.228.228,0,0,1-.362.263,7.757,7.757,0,0,0-2.819-2.169c-2.009-1.013-3.4-1.469-6.041.008a7.237,7.237,0,0,0-2.059,1.655,23.588,23.588,0,0,0-1.922,2.723,9.179,9.179,0,0,1-2.367,2.3,7.21,7.21,0,0,1-1.568.784c-.538.251-.613-.087-.727-.2" transform="translate(-460.336 3964.792)" fill="#b01116" fill-rule="evenodd"/>
    <path id="path726" d="M521.425-3909.28a14.757,14.757,0,0,0-.567-1.448c-.055-.187.041-.236.185-.242a8.969,8.969,0,0,0,2.5-.729,10.724,10.724,0,0,0,2.642-2.794,14.488,14.488,0,0,1,2.926-3.347,6.487,6.487,0,0,1,3.721-1.366,10.235,10.235,0,0,1,3.927.686c.436.185.532.239.6.436a34.292,34.292,0,0,1,2.615,9.064.227.227,0,0,1-.422.144,7.634,7.634,0,0,0-2.01-3.02,6.788,6.788,0,0,0-5.833-1.669,6.362,6.362,0,0,0-2.453,1.033c-.736.474-1.885,1.411-2.668,1.991a9.426,9.426,0,0,1-2.85,1.4,10.454,10.454,0,0,1-1.654.262c-.588.083-.586-.254-.66-.4" transform="translate(-469.532 3939.066)" fill="#b01116" fill-rule="evenodd"/>
    <path id="path730" d="M527.239-3876.02c0-.72-.006-1.041-.044-1.531,0-.2.109-.214.25-.175a8.575,8.575,0,0,0,2.536.03,10.446,10.446,0,0,0,3.289-1.941,15.4,15.4,0,0,1,3.792-2.454,7.828,7.828,0,0,1,4.094-.091,10.073,10.073,0,0,1,3.46,1.943.776.776,0,0,1,.295.652,36.777,36.777,0,0,1-.017,8.995c-.051.124-.133.17-.22.159a.21.21,0,0,1-.2-.163,7.39,7.39,0,0,0-1.112-3.031,6.794,6.794,0,0,0-5.018-3.436,6.577,6.577,0,0,0-2.688.242c-.846.233-2.221.758-3.118,1.108a9.351,9.351,0,0,1-3.136.515,10.615,10.615,0,0,1-1.657-.244c-.588-.088-.487-.411-.51-.579" transform="translate(-474.361 3911.096)" fill="#b01116" fill-rule="evenodd"/>
  </g>
</svg>
