<svg xmlns="http://www.w3.org/2000/svg" xmlns:xlink="http://www.w3.org/1999/xlink" width="53" height="53" viewBox="0 0 53 53">
  <defs>
    <filter id="Ellipse_28" x="0" y="0" width="53" height="53" filterUnits="userSpaceOnUse">
      <feOffset dy="3" input="SourceAlpha"/>
      <feGaussianBlur stdDeviation="3" result="blur"/>
      <feFlood flood-opacity="0.161"/>
      <feComposite operator="in" in2="blur"/>
      <feComposite in="SourceGraphic"/>
    </filter>
  </defs>
  <g id="More_info" data-name="More info" transform="translate(-707 -1827)">
    <g transform="matrix(1, 0, 0, 1, 707, 1827)" filter="url(#Ellipse_28)">
      <circle id="Ellipse_28-2" data-name="Ellipse 28" cx="17.5" cy="17.5" r="17.5" transform="translate(9 6)" fill="#4086a2"/>
    </g>
    <path id="Path_446" data-name="Path 446" d="M4.272-1.464A1.439,1.439,0,0,1,3.864-.42,1.378,1.378,0,0,1,2.832,0,1.378,1.378,0,0,1,1.8-.42a1.439,1.439,0,0,1-.408-1.044v-9.912A1.439,1.439,0,0,1,1.8-12.42a1.378,1.378,0,0,1,1.032-.42,1.378,1.378,0,0,1,1.032.42,1.439,1.439,0,0,1,.408,1.044ZM2.808-14.4a1.907,1.907,0,0,1-1.152-.264A1.128,1.128,0,0,1,1.32-15.6v-.456a1.088,1.088,0,0,1,.36-.936,1.974,1.974,0,0,1,1.152-.264,1.959,1.959,0,0,1,1.176.264,1.128,1.128,0,0,1,.336.936v.456A1.1,1.1,0,0,1,4-14.652,2.1,2.1,0,0,1,2.808-14.4Z" transform="translate(731 1860)" fill="#fff"/>
  </g>
</svg>
