<?xml version="1.0" encoding="utf-8"?>
<!-- Generator: Adobe Illustrator 24.0.0, SVG Export Plug-In . SVG Version: 6.00 Build 0)  -->
<svg version="1.1" id="Layer_1" xmlns="http://www.w3.org/2000/svg" xmlns:xlink="http://www.w3.org/1999/xlink" x="0px" y="0px"
	 viewBox="0 0 39.2 39.2" style="enable-background:new 0 0 39.2 39.2;" xml:space="preserve">
<style type="text/css">
	.st0{opacity:0.2;fill:#FFFFFF;enable-background:new    ;}
	.st1{opacity:0.8;}
	.st2{fill:#FFFFFF;}
</style>
<g>
	<circle id="Ellipse_254" class="st0" cx="19.6" cy="19.6" r="19.6"/>
	<g class="st1">
		<path class="st2" d="M29.7,15.4c0-1.1-0.2-1.8-0.5-2.5c-0.3-0.7-0.7-1.3-1.2-1.8c-0.5-0.5-1.1-0.9-1.8-1.2
			c-0.6-0.2-1.4-0.4-2.5-0.5c-1.1-0.1-1.4-0.1-4.2-0.1s-3.1,0-4.2,0.1c-1.1,0-1.8,0.2-2.5,0.5c-0.7,0.3-1.3,0.7-1.8,1.2
			c-0.5,0.5-0.9,1.1-1.2,1.8c-0.2,0.6-0.4,1.4-0.5,2.5c-0.1,1.1-0.1,1.4-0.1,4.2s0,3.1,0.1,4.2c0,1.1,0.2,1.8,0.5,2.5
			c0.3,0.7,0.7,1.3,1.2,1.8c0.5,0.5,1.1,0.9,1.8,1.2c0.6,0.2,1.4,0.4,2.5,0.5c1.1,0,1.4,0.1,4.2,0.1s3.1,0,4.2-0.1
			c1.1,0,1.8-0.2,2.5-0.5c1.4-0.5,2.4-1.6,3-3c0.2-0.6,0.4-1.4,0.5-2.5c0-1.1,0.1-1.4,0.1-4.2S29.7,16.5,29.7,15.4z M27.8,23.7
			c0,1-0.2,1.5-0.3,1.9c-0.3,0.9-1,1.6-1.9,1.9c-0.4,0.1-0.9,0.3-1.9,0.3c-1.1,0-1.4,0.1-4.1,0.1s-3,0-4.1-0.1c-1,0-1.5-0.2-1.9-0.3
			c-0.4-0.2-0.8-0.4-1.2-0.8c-0.3-0.3-0.6-0.7-0.8-1.2c-0.1-0.4-0.3-0.9-0.3-1.9c0-1.1-0.1-1.4-0.1-4.1s0-3,0.1-4.1
			c0-1,0.2-1.5,0.3-1.9c0.2-0.4,0.4-0.8,0.8-1.2c0.3-0.3,0.7-0.6,1.2-0.8c0.4-0.1,0.9-0.3,1.9-0.3c1.1,0,1.4-0.1,4.1-0.1
			c2.7,0,3,0,4.1,0.1c1,0,1.5,0.2,1.9,0.3c0.4,0.2,0.8,0.4,1.2,0.8c0.3,0.3,0.6,0.7,0.8,1.2c0.1,0.4,0.3,0.9,0.3,1.9
			c0,1.1,0.1,1.4,0.1,4.1S27.9,22.6,27.8,23.7z"/>
		<path class="st2" d="M19.6,14.4c-2.9,0-5.2,2.3-5.2,5.2s2.3,5.2,5.2,5.2c2.9,0,5.2-2.3,5.2-5.2S22.5,14.4,19.6,14.4z M19.6,23
			c-1.9,0-3.4-1.5-3.4-3.4c0-1.9,1.5-3.4,3.4-3.4c1.9,0,3.4,1.5,3.4,3.4C23,21.5,21.5,23,19.6,23z"/>
		<path class="st2" d="M26.2,14.2c0,0.7-0.5,1.2-1.2,1.2c-0.7,0-1.2-0.5-1.2-1.2c0-0.7,0.5-1.2,1.2-1.2C25.7,13,26.2,13.5,26.2,14.2
			z"/>
	</g>
</g>
</svg>
