<?xml version="1.0" encoding="utf-8"?>
<!-- Generator: Adobe Illustrator 24.0.0, SVG Export Plug-In . SVG Version: 6.00 Build 0)  -->
<svg version="1.1" id="Layer_1" xmlns="http://www.w3.org/2000/svg" xmlns:xlink="http://www.w3.org/1999/xlink" x="0px" y="0px"
	 viewBox="0 0 39.2 39.2" style="enable-background:new 0 0 39.2 39.2;" xml:space="preserve">
<style type="text/css">
	.st0{opacity:0.2;fill:#FFFFFF;enable-background:new    ;}
	.st1{opacity:0.8;}
	.st2{fill:#FFFFFF;}
</style>
<g>
	<circle id="Ellipse_254_2_" class="st0" cx="19.6" cy="19.6" r="19.6"/>
	<g id="twitter-logo-silhouette" transform="translate(1337.999 2214.559)" class="st1">
		<g id="Group_13169" transform="translate(0.001 57.441)">
			<path id="Path_418" class="st2" d="M-1309.1-2258.1c-0.7,0.3-1.4,0.5-2.2,0.6c0.8-0.5,1.4-1.2,1.7-2.1c-0.7,0.4-1.6,0.8-2.4,0.9
				c-1.4-1.5-3.8-1.6-5.4-0.1c-1,0.9-1.4,2.3-1.1,3.6c-3-0.2-5.9-1.6-7.8-4c-1,1.7-0.5,3.9,1.2,5.1c-0.6,0-1.2-0.2-1.7-0.5v0
				c0,1.8,1.3,3.4,3,3.7c-0.3,0.1-0.7,0.1-1,0.1c-0.2,0-0.5,0-0.7-0.1c0.5,1.5,1.9,2.6,3.5,2.6c-1.3,1.1-3,1.6-4.7,1.6
				c-0.3,0-0.6,0-0.9-0.1c1.7,1.1,3.7,1.7,5.8,1.7c5.9,0,10.7-4.7,10.8-10.6c0-0.1,0-0.1,0-0.2l0-0.5
				C-1310.3-2256.7-1309.7-2257.3-1309.1-2258.1z"/>
		</g>
	</g>
</g>
</svg>
