<?xml version="1.0" encoding="utf-8"?>
<!-- Generator: Adobe Illustrator 24.0.0, SVG Export Plug-In . SVG Version: 6.00 Build 0)  -->
<svg version="1.1" id="Layer_1" xmlns="http://www.w3.org/2000/svg" xmlns:xlink="http://www.w3.org/1999/xlink" x="0px" y="0px"
	 viewBox="0 0 39.2 39.2" style="enable-background:new 0 0 39.2 39.2;" xml:space="preserve">
<style type="text/css">
	.st0{opacity:0.2;fill:#FFFFFF;enable-background:new    ;}
	.st1{opacity:0.8;}
	.st2{fill:#FFFFFF;}
</style>
<g>
	<circle id="Ellipse_254_3_" class="st0" cx="19.6" cy="19.6" r="19.6"/>
	<g id="linked-in-logo" transform="translate(1171.947 5126.784)" class="st1">
		<path id="LinkedIn_3_" class="st2" d="M-1143-5105.1v6.9h-4v-6.5c0-1.6-0.6-2.7-2-2.7c-0.9,0-1.7,0.6-2.1,1.5
			c-0.1,0.3-0.2,0.6-0.1,1v6.7h-4c0,0,0.1-10.9,0-12.1h4v1.7c0,0,0,0,0,0h0v0c0.7-1.3,2.1-2.1,3.6-2
			C-1144.9-5110.6-1143-5108.8-1143-5105.1z M-1159.4-5116.1c-1.2-0.1-2.2,0.8-2.3,1.9c-0.1,1.2,0.8,2.2,1.9,2.3c0.1,0,0.2,0,0.3,0
			h0c1.2,0.1,2.2-0.7,2.3-1.9c0.1-1.2-0.7-2.2-1.9-2.3C-1159.2-5116.1-1159.3-5116.1-1159.4-5116.1z M-1161.4-5098.2h4v-12.1h-4
			V-5098.2z"/>
	</g>
</g>
</svg>
