<svg xmlns="http://www.w3.org/2000/svg" width="60" height="60" viewBox="0 0 60 60">
  <g id="Introduction_to_Machine_Learning_2" data-name="Introduction to Machine Learning 2" transform="translate(0 0)">
    <path id="Union_5" data-name="Union 5" d="M-77.968-2935.71v-4.839H-79.9v3.871h-1.936v-3.871H-85.71v3.871h-1.936v-3.871h-3.871v3.871h-1.935v-3.871h-3.871v3.871h-1.936v-3.871h-3.871v-3.871H-107v-1.936h3.871v-3.871H-107v-1.936h3.871v-3.871H-107v-1.936h3.871v-3.871H-107v-1.935h3.871v-3.871H-107v-1.936h3.871v-.4l3.47-3.47h.4v-3.871h1.936v3.871h3.871v-3.871h1.935v3.871h3.871v-3.871h1.936v3.871h3.871v-3.871H-79.9v3.871h1.936v-4.839a8.72,8.72,0,0,1,8.71-8.71,8.766,8.766,0,0,1,7.817,4.884c.306-.03.6-.045.892-.045a9.688,9.688,0,0,1,9.677,9.677,9.611,9.611,0,0,1-1.512,5.172A12.626,12.626,0,0,1-47-2957a12.634,12.634,0,0,1-6.425,10.959,10.466,10.466,0,0,1,.619,3.557,10.674,10.674,0,0,1-8.516,10.432l-.047.01A8.714,8.714,0,0,1-69.258-2927,8.719,8.719,0,0,1-77.968-2935.71Zm1.936,0a6.783,6.783,0,0,0,6.774,6.774,6.783,6.783,0,0,0,6.774-6.774,6.776,6.776,0,0,0-.9-3.386l1.674-.969a8.71,8.71,0,0,1,1.166,4.355,8.643,8.643,0,0,1-.136,1.477,8.734,8.734,0,0,0,5.942-8.251,8.615,8.615,0,0,0-.791-3.61l-.4-.871.867-.407a10.689,10.689,0,0,0,6.13-9.628,10.669,10.669,0,0,0-4.656-8.773,9.645,9.645,0,0,1-6.957,2.967v-1.935a7.751,7.751,0,0,0,7.742-7.742,7.751,7.751,0,0,0-7.742-7.742,7.6,7.6,0,0,0-1.321.123l-.783.136-.285-.743a6.813,6.813,0,0,0-6.32-4.354,6.782,6.782,0,0,0-6.774,6.774v10.645h1.666l.791,2.378,2.24-1.121,3.724,3.724-1.12,2.239,2.376.792v5.266l-2.377.792,1.121,2.24-3.724,3.724-2.24-1.121-.791,2.377h-1.666Zm-25.161-33.47v26.7h23.226v-3.871h-1.666l-.791-2.378-2.24,1.121-3.724-3.724,1.121-2.24-2.377-.792v-5.266l2.376-.792-1.12-2.239,3.724-3.724,2.24,1.121.791-2.377h1.666v-3.871h-20.89Zm21.42,18.356c.12.052.241.1.366.149l.429.163.74,2.222h2.476l.74-2.221.429-.162c.125-.048.246-.1.366-.149l.419-.187,2.092,1.046,1.751-1.751-1.046-2.092.188-.419c.052-.12.1-.241.149-.366l.163-.428,2.222-.74v-2.476l-2.22-.741-.164-.427c-.049-.124-.1-.246-.15-.367l-.187-.418,1.046-2.093-1.751-1.75-2.092,1.046-.419-.188c-.119-.053-.24-.1-.363-.148l-.431-.163-.741-2.224h-2.476l-.741,2.223-.431.163c-.123.047-.244.095-.363.148l-.419.188-2.092-1.046-1.751,1.751,1.046,2.093-.188.418c-.053.12-.1.243-.15.367l-.164.427-2.22.74v2.476l2.221.74.163.429c.048.125.1.246.149.366l.188.419-1.046,2.092,1.751,1.751,2.092-1.046Zm5.677,15.114h1.936a2.907,2.907,0,0,0,2.9,2.9v1.936A4.845,4.845,0,0,1-74.1-2935.71Zm-25.161-8.709v-17.419h1.936v15.484h15.484v1.936Zm34.888-7.625,1.368-1.368a2.974,2.974,0,0,0,4.105,0,2.881,2.881,0,0,0,.851-2.053,2.889,2.889,0,0,0-.851-2.054l1.369-1.368a4.812,4.812,0,0,1,1.418,3.422,4.806,4.806,0,0,1-1.418,3.421,4.806,4.806,0,0,1-3.421,1.417A4.806,4.806,0,0,1-64.37-2952.044ZM-81.839-2957A4.844,4.844,0,0,1-77-2961.839,4.844,4.844,0,0,1-72.161-2957,4.844,4.844,0,0,1-77-2952.161,4.844,4.844,0,0,1-81.839-2957Zm1.936,0a2.907,2.907,0,0,0,2.9,2.9,2.907,2.907,0,0,0,2.9-2.9,2.907,2.907,0,0,0-2.9-2.9A2.907,2.907,0,0,0-79.9-2957Zm-19.355-9.677a2.907,2.907,0,0,1,2.9-2.9,2.907,2.907,0,0,1,2.9,2.9,2.907,2.907,0,0,1-2.9,2.9A2.907,2.907,0,0,1-99.258-2966.677Zm1.936,0a.969.969,0,0,0,.968.968.969.969,0,0,0,.968-.968.969.969,0,0,0-.968-.968A.969.969,0,0,0-97.323-2966.677Zm29.032-1.936a2.907,2.907,0,0,0,2.9-2.9,2.907,2.907,0,0,0-2.9-2.9v-1.936a4.844,4.844,0,0,1,4.839,4.839,4.844,4.844,0,0,1-4.839,4.839Zm-23.226.968v-1.936h9.677v1.936Zm34.839-4.839a3.875,3.875,0,0,0-3.871-3.871v-1.936a5.812,5.812,0,0,1,5.806,5.807Zm-17.419-5.807a4.844,4.844,0,0,1,4.839-4.839v1.936a2.907,2.907,0,0,0-2.9,2.9Z" transform="translate(107 2987)" fill="#4086a2"/>
  </g>
</svg>
