<svg xmlns="http://www.w3.org/2000/svg" width="59" height="59" viewBox="0 0 59 59">
  <g id="Introduction_to_Machine_Learning" data-name="Introduction to  Machine Learning" transform="translate(0 0)">
    <path id="Union_4" data-name="Union 4" d="M24.838,55.193H0V16.177H3.806v-5.71h5.71v1.9H5.71V49.483H28.548V38.064h1.9V49.483H53.29V12.371H49.483v-1.9h5.71v5.71H59V55.193H34.162a4.758,4.758,0,0,1-9.324,0ZM1.9,53.29H26.645v.952a2.855,2.855,0,1,0,5.71,0V53.29H57.1V18.08h-1.9V51.387H3.806V18.08H1.9Zm30.451-5.71v-1.9H51.387v1.9Zm-24.742,0v-1.9H26.645v1.9Zm24.742-3.806v-1.9H51.387v1.9Zm-24.742,0v-1.9H26.645v1.9Zm24.742-3.806v-1.9H51.387v1.9Zm-24.742,0v-1.9H26.645v1.9Zm29.5-3.806V32.355H33.306v3.806H31.4V32.355H27.6v3.806h-1.9V32.355H21.887v3.806h-1.9V32.355H15.226V27.6H11.419v-1.9h3.806V21.887H11.419v-1.9h3.806V16.177H11.419v-1.9h3.806V10.468H11.419v-1.9h3.806V8.17L19.59,3.806h.394V0h1.9V3.806h3.806V0h1.9V3.806H31.4V0h1.9V3.806h3.806V0h1.9V3.806h4.758V8.564H47.58v1.9H43.774v3.806H47.58v1.9H43.774v3.806H47.58v1.9H43.774v3.806H47.58v1.9H43.774v4.758H39.016v3.806ZM17.129,8.958V30.451H41.871V5.71H20.378Zm9.781,19.59-.779-2.337-2.2,1.1L20.267,23.65l1.1-2.2-2.337-.778V15.491l2.338-.778-1.1-2.2L23.93,8.848l2.2,1.1.779-2.336h5.178l.779,2.336,2.2-1.1,3.662,3.662-1.1,2.2,2.337.778V20.67l-2.338.778,1.1,2.2-3.662,3.662-2.2-1.1-.779,2.336Zm-.137-4.395c.118.053.239.1.361.148l.42.161.728,2.183h2.435l.728-2.182.42-.161c.122-.048.242-.094.361-.148l.412-.184L34.695,25l1.722-1.722L35.387,21.22l.184-.412c.053-.117.1-.236.146-.357l.16-.424,2.187-.729V16.863l-2.186-.729-.16-.424c-.046-.121-.093-.24-.146-.357l-.184-.412,1.029-2.057L34.7,11.163l-2.057,1.029-.412-.184c-.118-.052-.239-.1-.361-.148l-.42-.161-.728-2.183H28.283L27.555,11.7l-.42.161c-.122.048-.242.094-.361.148l-.412.184L24.3,11.162l-1.721,1.722,1.029,2.058-.184.412c-.053.117-.1.236-.146.357l-.16.424-2.187.729V19.3l2.186.729.16.424c.046.121.093.24.146.357l.184.412-1.029,2.057L24.3,25l2.057-1.029ZM24.742,18.08A4.758,4.758,0,1,1,29.5,22.838,4.764,4.764,0,0,1,24.742,18.08Zm1.9,0A2.855,2.855,0,1,0,29.5,15.226,2.859,2.859,0,0,0,26.645,18.08Z" transform="translate(0 0)" fill="#4086a2"/>
  </g>
</svg>
