<svg xmlns="http://www.w3.org/2000/svg" width="60.002" height="60" viewBox="0 0 60.002 60">
  <g id="Organization_Design" data-name="Organization Design" transform="translate(0 0)">
    <path id="Union_17" data-name="Union 17" d="M18.779,59.769l-4.611-3.839a1,1,0,0,1-.129-1.408L16.139,52H1a1,1,0,0,1-1-1V8A5.006,5.006,0,0,1,5,3H6a5.006,5.006,0,0,1,5,5H45.617L52.728.321A1,1,0,0,1,54.14.266l4.4,4.075A1,1,0,0,1,58.6,5.754l-2.038,2.2,1.467,1.365h0a1,1,0,0,1,.056,1.413l-4.075,4.4H54V41.8l4.271-4.489A1,1,0,0,1,60,38V59a1,1,0,0,1-1,1H39a1,1,0,0,1-.725-1.688L44.286,52H25.962a2.967,2.967,0,0,1-.656,1.491l-5.119,6.149h0a1,1,0,0,1-1.408.129ZM41.334,58H58V40.5ZM16.216,55.033l3.074,2.559,2.559-3.075-3.074-2.559Zm4.478-5.381-.639.769,3.074,2.559.64-.768v0h0a1,1,0,0,0-.13-1.408L22.1,49.523h0a1,1,0,0,0-1.408.128Zm2.688-1.665,1.537,1.279a2.98,2.98,0,0,1,.622.734H46.191L52,43.9V12.879l-7.666,8.285a1,1,0,0,1-.3.211.8.8,0,0,1-.078.035c-.025.009-.047.024-.073.032l-5.6,1.632a1,1,0,0,1-1.259-1.164L38.219,16.2c.007-.032.023-.062.032-.092s.019-.057.031-.086a.958.958,0,0,1,.178-.291L43.767,10H11V50h6.8l1.357-1.627a3,3,0,0,1,4.225-.386ZM2,50H9a3,3,0,0,0-3-3H5A3,3,0,0,0,2,50Zm4-5a4.95,4.95,0,0,1,3,1.026V8A3,3,0,0,0,6,5H5A3,3,0,0,0,2,8V46.025A4.947,4.947,0,0,1,5,45ZM39.323,20.691l2.3-.671-1.809-1.675Zm1.284-4.334,2.937,2.717L52,9.934V9.92h.012l1.719-1.856L50.8,5.347ZM54,10.718v1.471L55.935,10.1l-.733-.68ZM52.153,3.879,55.09,6.6l1.359-1.471L53.513,2.411ZM48,56a1,1,0,0,1-.707-1.707l7-7A1,1,0,0,1,56,48v7a1,1,0,0,1-1,1Zm2.414-2H54V50.413ZM29,44V42h2v2ZM16,40a1,1,0,1,1,0-2h7V27a1.012,1.012,0,0,1,.292-.709l6-6a1,1,0,0,1,1.414,0l6,6A1.012,1.012,0,0,1,37,27V38h7a1,1,0,0,1,0,2Zm9-2H35V28H25Zm1.414-12h7.172L30,22.412ZM29,18V16h2v2Z" transform="translate(0 0)" fill="#4086a2"/>
  </g>
</svg>
