<svg xmlns="http://www.w3.org/2000/svg" width="58" height="58" viewBox="0 0 58 58">
  <g id="Parameter_Estimation_and_Linear_Regression" data-name="Parameter Estimation and  Linear Regression" transform="translate(0 0)">
    <path id="Union_3" data-name="Union 3" d="M10.592,58a.909.909,0,0,1-.906-.906V34.743H2.719A2.719,2.719,0,0,1,0,32.024V2.719A2.727,2.727,0,0,1,2.719,0H24.276a2.722,2.722,0,0,1,2.73,2.719v.193H47.4a.9.9,0,0,1,.646.261l9.685,9.685a.917.917,0,0,1,.261.646V45.471H56.176V14.409H47.4a.909.909,0,0,1-.906-.906V4.724h-19.5v6.831H25.182V2.719a.909.909,0,0,0-.906-.906H2.719a.909.909,0,0,0-.906.906V32.024a.909.909,0,0,0,.906.906H24.287a.909.909,0,0,0,.906-.906V16.4h1.813V32.036a2.729,2.729,0,0,1-2.73,2.719H11.5V56.187H56.187V50.308H58v6.786a.909.909,0,0,1-.906.906ZM48.314,12.6s6.582,0,6.582-.011L48.314,6Zm-21.183,29a13.533,13.533,0,0,1,1.518-6.23l1.609.838A11.563,11.563,0,0,0,28.943,41.6,11.679,11.679,0,1,0,40.622,29.917a11.563,11.563,0,0,0-8.428,3.591L30.88,32.251a13.362,13.362,0,0,1,9.742-4.157A13.5,13.5,0,1,1,27.131,41.6Zm10.478,6.65,4.577-13.764,1.416.51L39.025,48.711Zm3.523-2.764c0-1.892.782-2.832,2.334-2.832s2.333.94,2.333,2.832-.782,2.832-2.333,2.832h-.027C41.9,48.314,41.132,47.363,41.132,45.482Zm1.994-.986a3.872,3.872,0,0,0-.091.986,4.042,4.042,0,0,0,.091,1,.343.343,0,0,0,.68,0,3.915,3.915,0,0,0,.091-1,3.872,3.872,0,0,0-.091-.986.346.346,0,0,0-.68,0ZM16.4,48.314V46.5h6.049v1.812Zm0-4.848V41.653h6.049v1.812Zm19.042-5.63c0-1.892.782-2.832,2.334-2.832s2.334.94,2.334,2.832-.782,2.832-2.334,2.832S35.445,39.727,35.445,37.836Zm1.994-1a3.874,3.874,0,0,0-.091.986,4.043,4.043,0,0,0,.091,1,.343.343,0,0,0,.68,0,3.909,3.909,0,0,0,.091-1,3.868,3.868,0,0,0-.091-.986.336.336,0,0,0-.34-.283A.347.347,0,0,0,37.439,36.839Zm-18.125-5a.909.909,0,0,1-.906-.906V19.314a.909.909,0,0,1,.906-.906h3.874a.909.909,0,0,1,.906.906V30.937a.909.909,0,0,1-.906.906Zm.906-1.812h2.062v-9.81H20.22Zm-8.655,1.812a.909.909,0,0,1-.906-.906V27.063a.909.909,0,0,1,.906-.906H15.44a.909.909,0,0,1,.906.906v3.874a.909.909,0,0,1-.906.906Zm.906-1.812h2.062V27.969H12.472ZM3.817,31.843a.909.909,0,0,1-.906-.906V27.063a.909.909,0,0,1,.906-.906H7.692a.909.909,0,0,1,.906.906v3.874a.909.909,0,0,1-.906.906Zm.906-1.812H6.786V27.969H4.724Zm43.817-1.745L34.075,13.82a.889.889,0,0,1-.249-.465l-.589-2.968C33.18,10.342,31.311,8.3,31.311,8.3L32.659,7.08l1.62,1.79,3.364.668a.888.888,0,0,1,.464.249l13.05,13.061.759-.759-4.271-4.055L48.9,16.709l4.95,4.7a.926.926,0,0,1,.011,1.3l-1.416,1.416.113.136a2.721,2.721,0,0,1,0,3.852l-.17.17a2.735,2.735,0,0,1-3.852,0Zm-2.934-5.528,4.237,4.237a.909.909,0,0,0,1.28,0l.17-.17a.909.909,0,0,0,0-1.28l-4.237-4.237ZM35.559,12.721l8.768,8.745,1.45-1.45L37.02,11.26,35.2,10.9ZM11.566,24.095a.909.909,0,0,1-.906-.906V19.314a.909.909,0,0,1,.906-.906H15.44a.909.909,0,0,1,.906.906v3.874a.909.909,0,0,1-.906.906Zm.906-1.812h2.062V20.221H12.472ZM3.817,24.095a.909.909,0,0,1-.906-.906V19.314a.909.909,0,0,1,.906-.906H7.692a.909.909,0,0,1,.906.906v3.874a.909.909,0,0,1-.906.906Zm.906-1.812H6.786V20.221H4.724Zm14.59-5.936a.909.909,0,0,1-.906-.906V11.566a.909.909,0,0,1,.906-.906h3.874a.909.909,0,0,1,.906.906V15.44a.909.909,0,0,1-.906.906Zm.906-1.812h2.062V12.472H20.22Zm-8.655,1.812a.909.909,0,0,1-.906-.906V11.566a.909.909,0,0,1,.906-.906H15.44a.909.909,0,0,1,.906.906V15.44a.909.909,0,0,1-.906.906Zm.906-1.812h2.062V12.472H12.472ZM3.817,16.346a.909.909,0,0,1-.906-.906V11.566a.909.909,0,0,1,.906-.906H7.692a.909.909,0,0,1,.906.906V15.44a.909.909,0,0,1-.906.906Zm.906-1.812H6.786V12.472H4.724ZM3.817,9.572a.909.909,0,0,1-.906-.906V3.817a.909.909,0,0,1,.906-.906H23.188a.9.9,0,0,1,.906.906V8.666a.909.909,0,0,1-.906.906Zm.906-1.824H22.282V4.724H4.724Z" transform="translate(0 0)" fill="#4086a2"/>
  </g>
</svg>
