<svg xmlns="http://www.w3.org/2000/svg" width="58.389" height="54.892" viewBox="0 0 58.389 54.892">
  <g id="Introduction_to_reinforcement_Learning" data-name="Introduction to reinforcement Learning" transform="translate(0 0.918)">
    <path id="Union_6" data-name="Union 6" d="M42.309,50.731a4.135,4.135,0,0,1,.668-2.257l-3.416-4.033,0-.006c-.016-.019-.03-.039-.045-.059l-.024-.031c-.014-.02-.026-.041-.039-.062s-.014-.022-.02-.033-.019-.039-.028-.058-.015-.028-.02-.042-.008-.021-.012-.031-.019-.048-.027-.073c0-.009,0-.019-.007-.028-.008-.027-.015-.053-.021-.081,0-.01,0-.021,0-.031,0-.027-.01-.053-.012-.08s0-.024,0-.036,0-.052,0-.078c0,0,0,0,0-.007V28.671H35.876v2.743a1.138,1.138,0,0,1-2.276,0V28.671H24.376V46.729a4.161,4.161,0,1,1-2.276,0V28.671H18.685V43.712c0,.026,0,.052,0,.078s0,.023,0,.035c0,.027-.008.053-.012.08,0,.01,0,.021-.005.031-.006.027-.013.054-.021.081,0,.009,0,.019-.007.027-.007.025-.017.049-.027.073s-.007.021-.011.031-.014.028-.021.043-.018.039-.028.058-.014.022-.02.033-.025.042-.038.062l-.024.031c-.015.02-.029.04-.045.059l0,.006L15,48.473a4.156,4.156,0,1,1-1.711-1.5l3.12-3.683V28.671H13.057V39.833a1.139,1.139,0,0,1-1.138,1.138H8.163a4.161,4.161,0,1,1,0-2.277h2.618V28.671H8.671a1.138,1.138,0,0,1-1.138-1.138V26.4a4.417,4.417,0,0,0-4.061-4.386,1.138,1.138,0,0,1-1.019-1.406A26.945,26.945,0,0,1,10.766,6.837a1.138,1.138,0,0,1,1.721.247,4.382,4.382,0,0,0,5.929,1.477l.1-.061a4.405,4.405,0,0,0,1.743-5.764,1.139,1.139,0,0,1,.692-1.6,27.187,27.187,0,0,1,16.216.2,1.139,1.139,0,0,1,.633,1.65,3.857,3.857,0,0,0-.579,1.8c-.076,2.822,1.523,3.812,1.669,3.9a.806.806,0,0,1,.148.093,4.359,4.359,0,0,0,5.1.151l.037-.026a4.353,4.353,0,0,0,1.3-1.371,1.138,1.138,0,0,1,1.752-.243,26.9,26.9,0,0,1,8.051,14.356,1.139,1.139,0,0,1-1.116,1.365h-.246a4.406,4.406,0,0,0-4.4,4.4v.121a1.138,1.138,0,0,1-1.138,1.138H47.2V38.695h3.029a4.161,4.161,0,1,1,0,2.276H46.47a1.1,1.1,0,0,0-.413,0,1.138,1.138,0,0,1-1.138-1.138V28.671H41.568V43.288l3.12,3.683a4.161,4.161,0,1,1-2.379,3.76Zm2.276,0a1.885,1.885,0,1,0,1.885-1.885A1.887,1.887,0,0,0,44.585,50.731Zm-23.231,0a1.885,1.885,0,1,0,1.884-1.885A1.887,1.887,0,0,0,21.354,50.731Zm-11.732,0a1.885,1.885,0,1,0,1.885-1.885A1.887,1.887,0,0,0,9.622,50.731Zm42.72-10.9a1.885,1.885,0,1,0,1.885-1.885A1.887,1.887,0,0,0,52.342,39.833Zm-50.066,0a1.885,1.885,0,1,0,1.885-1.885A1.887,1.887,0,0,0,2.276,39.833ZM39.112,19.208a12.482,12.482,0,0,1,2.45,7.187h5.759a6.694,6.694,0,0,1,5.438-5.559,24.592,24.592,0,0,0-6.183-11,6.678,6.678,0,0,1-1.1.942,6.627,6.627,0,0,1-7.726-.127c-.534-.316-2.9-1.949-2.8-5.921a5.424,5.424,0,0,1,.293-1.593A24.958,24.958,0,0,0,22.78,3a6.692,6.692,0,0,1-3.122,7.471l-.1.06a6.647,6.647,0,0,1-8.165-1.165,24.648,24.648,0,0,0-6.41,10.616,6.714,6.714,0,0,1,4.83,6.411h6.6a12.48,12.48,0,0,1,3.8-8.743,12.677,12.677,0,0,1,1.614-1.331,12.577,12.577,0,0,1,8.957-2.11,1.138,1.138,0,0,1-.326,2.253A10.3,10.3,0,0,0,18.689,26.4h20.6a10.219,10.219,0,0,0-2.006-5.836,1.138,1.138,0,0,1,1.833-1.351ZM30.577,50.731a4.168,4.168,0,0,1,3.023-4V40.292a1.138,1.138,0,1,1,2.276,0v6.437a4.161,4.161,0,1,1-5.3,4Zm2.276,0a1.885,1.885,0,1,0,1.885-1.885A1.887,1.887,0,0,0,32.853,50.731Zm1.2-13.973-.029-.022a1.138,1.138,0,1,1,1.38-1.81l.029.022a1.138,1.138,0,0,1-1.38,1.81ZM34.02,17.689l-.029-.022a1.138,1.138,0,1,1,1.381-1.81l.029.022a1.138,1.138,0,0,1-1.381,1.81Z" transform="translate(0 -0.918)" fill="#4086a2"/>
  </g>
</svg>
