<svg xmlns="http://www.w3.org/2000/svg" xmlns:xlink="http://www.w3.org/1999/xlink" width="645.296" height="357" viewBox="0 0 645.296 357">
  <defs>
    <filter id="Union_18" x="19.31" y="0" width="410.534" height="357" filterUnits="userSpaceOnUse">
      <feOffset dy="3" input="SourceAlpha"/>
      <feGaussianBlur stdDeviation="3" result="blur"/>
      <feFlood flood-opacity="0.161"/>
      <feComposite operator="in" in2="blur"/>
      <feComposite in="SourceGraphic"/>
    </filter>
    <linearGradient id="linear-gradient" x1="0.5" x2="0.5" y2="1" gradientUnits="objectBoundingBox">
      <stop offset="0" stop-color="#74e8eb"/>
      <stop offset="1" stop-color="#38a1a7"/>
    </linearGradient>
    <filter id="Ellipse_294" x="136.88" y="187.5" width="57" height="57" filterUnits="userSpaceOnUse">
      <feOffset dy="3" input="SourceAlpha"/>
      <feGaussianBlur stdDeviation="3" result="blur-2"/>
      <feFlood flood-opacity="0.161"/>
      <feComposite operator="in" in2="blur-2"/>
      <feComposite in="SourceGraphic"/>
    </filter>
    <filter id="Subtraction_6" x="155.332" y="46" width="332.599" height="98.241" filterUnits="userSpaceOnUse">
      <feOffset dy="3" input="SourceAlpha"/>
      <feGaussianBlur stdDeviation="3" result="blur-3"/>
      <feFlood flood-opacity="0.161"/>
      <feComposite operator="in" in2="blur-3"/>
      <feComposite in="SourceGraphic"/>
    </filter>
    <clipPath id="clip-path">
      <path id="Subtraction_9" data-name="Subtraction 9" d="M312.936,79.241h-2.678L272.7,10.375A4.547,4.547,0,0,0,268.691,8H40.805a4.593,4.593,0,0,0-1.155.147L42.8,2.375A4.552,4.552,0,0,1,46.805,0H274.691A4.549,4.549,0,0,1,278.7,2.375l38.245,70.119a4.561,4.561,0,0,1-4.006,6.746Z" transform="translate(14388.004 4159)" fill="#fff" stroke="rgba(0,0,0,0)" stroke-width="1"/>
    </clipPath>
    <linearGradient id="linear-gradient-2" x1="0.333" x2="0.894" y2="0.86" gradientUnits="objectBoundingBox">
      <stop offset="0" stop-color="#84dce0"/>
      <stop offset="1" stop-color="#3a979b"/>
    </linearGradient>
    <filter id="Subtraction_5" x="107.328" y="139" width="426.77" height="96.75" filterUnits="userSpaceOnUse">
      <feOffset dy="3" input="SourceAlpha"/>
      <feGaussianBlur stdDeviation="3" result="blur-4"/>
      <feFlood flood-opacity="0.161"/>
      <feComposite operator="in" in2="blur-4"/>
      <feComposite in="SourceGraphic"/>
    </filter>
    <clipPath id="clip-path-2">
      <path id="Subtraction_18" data-name="Subtraction 18" d="M409.192,77.749h-1.821L370.6,10.331A4.462,4.462,0,0,0,366.667,8H43a4.481,4.481,0,0,0-2.4.7L44.07,2.331A4.463,4.463,0,0,1,48,0H371.668A4.459,4.459,0,0,1,375.6,2.331l37.526,68.8a4.476,4.476,0,0,1-3.931,6.62Z" transform="translate(14485.002 4252)" fill="#fff" stroke="rgba(0,0,0,0)" stroke-width="1"/>
    </clipPath>
    <linearGradient id="linear-gradient-3" x1="0.5" x2="0.5" y2="1" gradientUnits="objectBoundingBox">
      <stop offset="0" stop-color="#5287c4"/>
      <stop offset="1" stop-color="#2d348d"/>
    </linearGradient>
    <filter id="Subtraction_4" x="53.321" y="231" width="536.218" height="106.75" filterUnits="userSpaceOnUse">
      <feOffset dy="3" input="SourceAlpha"/>
      <feGaussianBlur stdDeviation="3" result="blur-5"/>
      <feFlood flood-opacity="0.161"/>
      <feComposite operator="in" in2="blur-5"/>
      <feComposite in="SourceGraphic"/>
    </filter>
    <clipPath id="clip-path-3">
      <path id="Subtraction_21" data-name="Subtraction 21" d="M516.05,87.749H515.2L473.135,10.631A5.041,5.041,0,0,0,468.7,8H46.4a5.045,5.045,0,0,0-2.839.868l3.4-6.237A5.038,5.038,0,0,1,51.4,0H473.7a5.038,5.038,0,0,1,4.437,2.631l42.352,77.647a5.052,5.052,0,0,1-4.437,7.472Z" transform="translate(876.287 4172)" fill="#fff" stroke="rgba(0,0,0,0)" stroke-width="1"/>
    </clipPath>
    <linearGradient id="linear-gradient-4" x1="0.247" y1="0.236" x2="0.919" y2="1.351" gradientUnits="objectBoundingBox">
      <stop offset="0" stop-color="#6563c3"/>
      <stop offset="1" stop-color="#7938aa"/>
    </linearGradient>
    <linearGradient id="linear-gradient-5" x1="0.5" x2="0.5" y2="1" gradientUnits="objectBoundingBox">
      <stop offset="0" stop-color="#f69352"/>
      <stop offset="1" stop-color="#d8623c"/>
    </linearGradient>
    <filter id="Ellipse_90" x="380.88" y="104.333" width="53.333" height="53.334" filterUnits="userSpaceOnUse">
      <feOffset dy="3" input="SourceAlpha"/>
      <feGaussianBlur stdDeviation="3" result="blur-6"/>
      <feFlood flood-opacity="0.161"/>
      <feComposite operator="in" in2="blur-6"/>
      <feComposite in="SourceGraphic"/>
    </filter>
    <linearGradient id="linear-gradient-6" x1="0.5" x2="0.5" y2="1" gradientUnits="objectBoundingBox">
      <stop offset="0" stop-color="#af67e5"/>
      <stop offset="1" stop-color="#8f54cf"/>
    </linearGradient>
    <filter id="Ellipse_295" x="410.88" y="304.5" width="47" height="47" filterUnits="userSpaceOnUse">
      <feOffset dy="3" input="SourceAlpha"/>
      <feGaussianBlur stdDeviation="3" result="blur-7"/>
      <feFlood flood-opacity="0.161"/>
      <feComposite operator="in" in2="blur-7"/>
      <feComposite in="SourceGraphic"/>
    </filter>
  </defs>
  <g id="Group_13191" data-name="Group 13191" transform="translate(-817.12 -3934.5)">
    <g transform="matrix(1, 0, 0, 1, 817.12, 3934.5)" filter="url(#Union_18)">
      <path id="Union_18-2" data-name="Union 18" d="M24.113,338a6.226,6.226,0,0,1-5.3-2.822,5.274,5.274,0,0,1,0-5.638L194.4,2.817a6.382,6.382,0,0,1,10.587,0L408.58,329.54a5.289,5.289,0,0,1,0,5.638,6.226,6.226,0,0,1-5.3,2.822Z" transform="translate(10.88 6.5)" fill="#525195" stroke="rgba(0,0,0,0)" stroke-width="1"/>
    </g>
    <g transform="matrix(1, 0, 0, 1, 817.12, 3934.5)" filter="url(#Ellipse_294)">
      <circle id="Ellipse_294-2" data-name="Ellipse 294" cx="19.5" cy="19.5" r="19.5" transform="translate(145.88 193.5)" fill="url(#linear-gradient)"/>
    </g>
    <g transform="matrix(1, 0, 0, 1, 817.12, 3934.5)" filter="url(#Subtraction_6)">
      <path id="Subtraction_6-2" data-name="Subtraction 6" d="M143.967,79.241H4.563A4.562,4.562,0,0,1,.557,72.494L38.8,2.375A4.551,4.551,0,0,1,42.809,0H270.695A4.548,4.548,0,0,1,274.7,2.375l38.246,70.119a4.561,4.561,0,0,1-4.006,6.746H169.531L158.517,68.226a2.5,2.5,0,0,0-3.536,0L143.967,79.241Z" transform="translate(164.88 52.5)" fill="#fff" stroke="rgba(0,0,0,0)" stroke-width="1"/>
    </g>
    <g id="Mask_Group_416" data-name="Mask Group 416" transform="translate(-13410 -172)" clip-path="url(#clip-path)">
      <path id="Rectangle_1957" data-name="Rectangle 1957" d="M0,0H320a5,5,0,0,1,5,5V84a5,5,0,0,1-5,5H0a0,0,0,0,1,0,0V0A0,0,0,0,1,0,0Z" transform="translate(14382.154 4154)" fill="url(#linear-gradient-2)"/>
    </g>
    <g transform="matrix(1, 0, 0, 1, 817.12, 3934.5)" filter="url(#Subtraction_5)">
      <path id="Subtraction_5-2" data-name="Subtraction 5" d="M191.458,77.749H4.478a4.476,4.476,0,0,1-3.931-6.62l37.526-68.8A4.464,4.464,0,0,1,42,0H365.669a4.461,4.461,0,0,1,3.93,2.331l37.526,68.8a4.477,4.477,0,0,1-3.931,6.62H218.04L206.517,66.227a2.5,2.5,0,0,0-3.535,0L191.458,77.749Z" transform="translate(116.88 145.5)" fill="#fff" stroke="rgba(0,0,0,0)" stroke-width="1"/>
    </g>
    <g id="Mask_Group_419" data-name="Mask Group 419" transform="translate(-13556.601 -172)" clip-path="url(#clip-path-2)">
      <path id="Rectangle_2037" data-name="Rectangle 2037" d="M0,0H422a5,5,0,0,1,5,5V84a5,5,0,0,1-5,5H0a0,0,0,0,1,0,0V0A0,0,0,0,1,0,0Z" transform="translate(14479.154 4246)" fill="url(#linear-gradient-3)"/>
    </g>
    <g transform="matrix(1, 0, 0, 1, 817.12, 3934.5)" filter="url(#Subtraction_4)">
      <path id="Subtraction_4-2" data-name="Subtraction 4" d="M245.458,87.749H5.053A5.052,5.052,0,0,1,.616,80.277L42.969,2.631A5.036,5.036,0,0,1,47.4,0H469.7a5.039,5.039,0,0,1,4.437,2.631L516.49,80.277a5.052,5.052,0,0,1-4.437,7.472H272.04L260.517,76.226a2.5,2.5,0,0,0-3.535,0L245.458,87.749Z" transform="translate(62.88 237.5)" fill="#fff" stroke="rgba(0,0,0,0)" stroke-width="1"/>
    </g>
    <g id="Mask_Group_453" data-name="Mask Group 453" clip-path="url(#clip-path-3)">
      <path id="Rectangle_2041" data-name="Rectangle 2041" d="M0,0H549a5,5,0,0,1,5,5V94a5,5,0,0,1-5,5H0a0,0,0,0,1,0,0V0A0,0,0,0,1,0,0Z" transform="translate(869.438 4166)" fill="url(#linear-gradient-4)"/>
    </g>
    <g transform="matrix(1, 0, 0, 1, 817.12, 3934.5)" filter="url(#Ellipse_90)">
      <circle id="Ellipse_90-2" data-name="Ellipse 90" cx="12.5" cy="12.5" r="12.5" transform="translate(408.16 110.33) rotate(47)" fill="url(#linear-gradient-5)"/>
    </g>
    <g transform="matrix(1, 0, 0, 1, 817.12, 3934.5)" filter="url(#Ellipse_295)">
      <circle id="Ellipse_295-2" data-name="Ellipse 295" cx="14.5" cy="14.5" r="14.5" transform="translate(419.88 310.5)" fill="url(#linear-gradient-6)"/>
    </g>
    <g id="Group_12815" data-name="Group 12815" transform="translate(54 -174)">
      <path id="Path_431" data-name="Path 431" d="M-30.96-17.7a6.907,6.907,0,0,1,5.76-2.46,6.864,6.864,0,0,1,5.745,2.46q1.935,2.46,1.935,7.9T-19.44-2A7,7,0,0,1-25.2.36,7,7,0,0,1-30.96-2q-1.92-2.355-1.92-7.8T-30.96-17.7Zm9.18,7.83a12.213,12.213,0,0,0-.78-5.2,2.728,2.728,0,0,0-2.625-1.485,2.755,2.755,0,0,0-2.64,1.5,12.019,12.019,0,0,0-.8,5.19,11.607,11.607,0,0,0,.81,5.16,2.785,2.785,0,0,0,2.64,1.47,2.72,2.72,0,0,0,2.61-1.47A12,12,0,0,0-21.78-9.87ZM-4.26-19.8V0H-8.4V-15.12l-4.29,2.76-1.89-3.09,6.54-4.35Z" transform="translate(807 4390)" fill="#a5a8aa"/>
      <path id="Path_432" data-name="Path 432" d="M-34.26,0h-7.62V-13.84h1.54V-1.38h6.08Zm8.4-1.24.58-.06.04,1.18a28.709,28.709,0,0,1-3.9.32A3.516,3.516,0,0,1-32.2-1.05a6.713,6.713,0,0,1-.9-3.89q0-5.26,4.18-5.26A3.824,3.824,0,0,1-25.9-9.07a5.263,5.263,0,0,1,1,3.55l-.08,1.14h-6.6a4.1,4.1,0,0,0,.6,2.46,2.453,2.453,0,0,0,2.09.8Q-27.4-1.12-25.86-1.24Zm-.54-4.34a4.341,4.341,0,0,0-.59-2.6,2.281,2.281,0,0,0-1.92-.76,2.461,2.461,0,0,0-2,.8,4.038,4.038,0,0,0-.69,2.56ZM-23.66-10h1.6l2.34,8.7h.74l2.42-8.7h1.54L-17.84,0h-3ZM-6.48-1.24l.58-.06.04,1.18A28.709,28.709,0,0,1-9.76.2a3.516,3.516,0,0,1-3.06-1.25,6.713,6.713,0,0,1-.9-3.89q0-5.26,4.18-5.26A3.824,3.824,0,0,1-6.52-9.07a5.263,5.263,0,0,1,1,3.55L-5.6-4.38h-6.6a4.1,4.1,0,0,0,.6,2.46,2.453,2.453,0,0,0,2.09.8Q-8.02-1.12-6.48-1.24Zm-.54-4.34a4.341,4.341,0,0,0-.59-2.6,2.281,2.281,0,0,0-1.92-.76,2.461,2.461,0,0,0-2,.8,4.038,4.038,0,0,0-.69,2.56ZM-3.06,0V-14.36h1.5V0Z" transform="translate(805 4416)" fill="#a5a8aa"/>
    </g>
    <g id="Group_12816" data-name="Group 12816" transform="translate(102 -266)">
      <path id="Path_429" data-name="Path 429" d="M-30.96-17.7a6.907,6.907,0,0,1,5.76-2.46,6.864,6.864,0,0,1,5.745,2.46q1.935,2.46,1.935,7.9T-19.44-2A7,7,0,0,1-25.2.36,7,7,0,0,1-30.96-2q-1.92-2.355-1.92-7.8T-30.96-17.7Zm9.18,7.83a12.213,12.213,0,0,0-.78-5.2,2.728,2.728,0,0,0-2.625-1.485,2.755,2.755,0,0,0-2.64,1.5,12.019,12.019,0,0,0-.8,5.19,11.607,11.607,0,0,0,.81,5.16,2.785,2.785,0,0,0,2.64,1.47,2.72,2.72,0,0,0,2.61-1.47A12,12,0,0,0-21.78-9.87ZM-2.01,0H-14.85V-3.51l4.23-4.29a35.393,35.393,0,0,0,3.135-3.54A4.414,4.414,0,0,0-6.6-13.965a2.343,2.343,0,0,0-.735-1.965A3.337,3.337,0,0,0-9.42-16.5a29.31,29.31,0,0,0-4.38.36l-.72.09-.21-3.21a20.688,20.688,0,0,1,6.09-.9q6.3,0,6.3,5.67a7.4,7.4,0,0,1-.96,3.84A19.061,19.061,0,0,1-6.78-6.72L-10.23-3.6h8.22Z" transform="translate(806 4390)" fill="#a5a8aa"/>
      <path id="Path_430" data-name="Path 430" d="M-34.26,0h-7.62V-13.84h1.54V-1.38h6.08Zm8.4-1.24.58-.06.04,1.18a28.709,28.709,0,0,1-3.9.32A3.516,3.516,0,0,1-32.2-1.05a6.713,6.713,0,0,1-.9-3.89q0-5.26,4.18-5.26A3.824,3.824,0,0,1-25.9-9.07a5.263,5.263,0,0,1,1,3.55l-.08,1.14h-6.6a4.1,4.1,0,0,0,.6,2.46,2.453,2.453,0,0,0,2.09.8Q-27.4-1.12-25.86-1.24Zm-.54-4.34a4.341,4.341,0,0,0-.59-2.6,2.281,2.281,0,0,0-1.92-.76,2.461,2.461,0,0,0-2,.8,4.038,4.038,0,0,0-.69,2.56ZM-23.66-10h1.6l2.34,8.7h.74l2.42-8.7h1.54L-17.84,0h-3ZM-6.48-1.24l.58-.06.04,1.18A28.709,28.709,0,0,1-9.76.2a3.516,3.516,0,0,1-3.06-1.25,6.713,6.713,0,0,1-.9-3.89q0-5.26,4.18-5.26A3.824,3.824,0,0,1-6.52-9.07a5.263,5.263,0,0,1,1,3.55L-5.6-4.38h-6.6a4.1,4.1,0,0,0,.6,2.46,2.453,2.453,0,0,0,2.09.8Q-8.02-1.12-6.48-1.24Zm-.54-4.34a4.341,4.341,0,0,0-.59-2.6,2.281,2.281,0,0,0-1.92-.76,2.461,2.461,0,0,0-2,.8,4.038,4.038,0,0,0-.69,2.56ZM-3.06,0V-14.36h1.5V0Z" transform="translate(805 4416)" fill="#a5a8aa"/>
    </g>
    <g id="Group_12817" data-name="Group 12817" transform="translate(152 -358)">
      <path id="Path_427" data-name="Path 427" d="M-30.96-17.7a6.907,6.907,0,0,1,5.76-2.46,6.864,6.864,0,0,1,5.745,2.46q1.935,2.46,1.935,7.9T-19.44-2A7,7,0,0,1-25.2.36,7,7,0,0,1-30.96-2q-1.92-2.355-1.92-7.8T-30.96-17.7Zm9.18,7.83a12.213,12.213,0,0,0-.78-5.2,2.728,2.728,0,0,0-2.625-1.485,2.755,2.755,0,0,0-2.64,1.5,12.019,12.019,0,0,0-.8,5.19,11.607,11.607,0,0,0,.81,5.16,2.785,2.785,0,0,0,2.64,1.47,2.72,2.72,0,0,0,2.61-1.47A12,12,0,0,0-21.78-9.87Zm6.84-9.21a16.794,16.794,0,0,1,6.165-1.08q3.4,0,4.965,1.305A5.16,5.16,0,0,1-2.25-14.67a4.97,4.97,0,0,1-2.31,4.41A6.125,6.125,0,0,1-2.5-8.64,4.572,4.572,0,0,1-1.89-5.97a6.379,6.379,0,0,1-1.6,4.77Q-5.1.36-8.64.36a21.006,21.006,0,0,1-5.49-.78l-.96-.24.21-3.15a34.751,34.751,0,0,0,5.64.57q3.09,0,3.09-2.64a2.182,2.182,0,0,0-.795-1.77A3.157,3.157,0,0,0-9.03-8.31h-3.99v-3.42h3.99a2.318,2.318,0,0,0,1.755-.84,2.7,2.7,0,0,0,.765-1.86q0-2.13-2.97-2.13a25.018,25.018,0,0,0-4.41.42l-.78.12Z" transform="translate(806 4390)" fill="#a5a8aa"/>
      <path id="Path_428" data-name="Path 428" d="M-34.26,0h-7.62V-13.84h1.54V-1.38h6.08Zm8.4-1.24.58-.06.04,1.18a28.709,28.709,0,0,1-3.9.32A3.516,3.516,0,0,1-32.2-1.05a6.713,6.713,0,0,1-.9-3.89q0-5.26,4.18-5.26A3.824,3.824,0,0,1-25.9-9.07a5.263,5.263,0,0,1,1,3.55l-.08,1.14h-6.6a4.1,4.1,0,0,0,.6,2.46,2.453,2.453,0,0,0,2.09.8Q-27.4-1.12-25.86-1.24Zm-.54-4.34a4.341,4.341,0,0,0-.59-2.6,2.281,2.281,0,0,0-1.92-.76,2.461,2.461,0,0,0-2,.8,4.038,4.038,0,0,0-.69,2.56ZM-23.66-10h1.6l2.34,8.7h.74l2.42-8.7h1.54L-17.84,0h-3ZM-6.48-1.24l.58-.06.04,1.18A28.709,28.709,0,0,1-9.76.2a3.516,3.516,0,0,1-3.06-1.25,6.713,6.713,0,0,1-.9-3.89q0-5.26,4.18-5.26A3.824,3.824,0,0,1-6.52-9.07a5.263,5.263,0,0,1,1,3.55L-5.6-4.38h-6.6a4.1,4.1,0,0,0,.6,2.46,2.453,2.453,0,0,0,2.09.8Q-8.02-1.12-6.48-1.24Zm-.54-4.34a4.341,4.341,0,0,0-.59-2.6,2.281,2.281,0,0,0-1.92-.76,2.461,2.461,0,0,0-2,.8,4.038,4.038,0,0,0-.69,2.56ZM-3.06,0V-14.36h1.5V0Z" transform="translate(805 4416)" fill="#a5a8aa"/>
    </g>
    <line id="Line_7" data-name="Line 7" x2="150.154" y2="280" transform="translate(1293.5 3979.5)" fill="none" stroke="#707070" stroke-width="1.5" stroke-dasharray="5"/>
    <g id="Ellipse_296" data-name="Ellipse 296" transform="translate(1438 4253)" fill="#f7f7f7" stroke="#707070" stroke-width="1.5">
      <circle cx="3.5" cy="3.5" r="3.5" stroke="none"/>
      <circle cx="3.5" cy="3.5" r="2.75" fill="none"/>
    </g>
    <path id="Path_154" data-name="Path 154" d="M1006.073,4031.839l6.086,5.973-6.086,5.951" transform="translate(-1647.066 6925.403) rotate(-121)" fill="none" stroke="#707070" stroke-width="1.5"/>
    <path id="Path_423" data-name="Path 423" d="M11.066-.242A20.586,20.586,0,0,1,7,.22a7.239,7.239,0,0,1-2.915-.5,3.65,3.65,0,0,1-1.716-1.54,7.143,7.143,0,0,1-.836-2.4A20.579,20.579,0,0,1,1.3-7.59a21,21,0,0,1,.231-3.4,7.272,7.272,0,0,1,.836-2.431A3.584,3.584,0,0,1,4.07-14.96a7.168,7.168,0,0,1,2.86-.484,21.108,21.108,0,0,1,4.136.484L11-13.53a22.842,22.842,0,0,0-3.96-.4q-2.42,0-3.2,1.441a11.1,11.1,0,0,0-.781,4.917A21.73,21.73,0,0,0,3.2-4.774a6.13,6.13,0,0,0,.561,1.9,2.479,2.479,0,0,0,1.221,1.21A5.938,5.938,0,0,0,7.337-1.3,20.264,20.264,0,0,0,11-1.694ZM21.318-7.678v5.632q.066.814,1.276.968L22.528.22A3.553,3.553,0,0,1,19.91-.66a9.68,9.68,0,0,1-3.96.88,2.989,2.989,0,0,1-2.31-.858A3.5,3.5,0,0,1,12.848-3.1a3.091,3.091,0,0,1,.814-2.365A4.316,4.316,0,0,1,16.214-6.4l3.454-.33v-.946a2.214,2.214,0,0,0-.484-1.606,1.784,1.784,0,0,0-1.32-.484,31.634,31.634,0,0,0-3.652.22l-.682.066-.066-1.254a22.172,22.172,0,0,1,4.29-.484,3.692,3.692,0,0,1,2.717.858A3.694,3.694,0,0,1,21.318-7.678ZM14.542-3.19q0,2.024,1.672,2.024a8.9,8.9,0,0,0,2.948-.506l.506-.176v-3.63l-3.256.308a2.118,2.118,0,0,0-1.43.572A2.025,2.025,0,0,0,14.542-3.19ZM24.574,4.884V-11H26.2v.792a6.345,6.345,0,0,1,3.3-1.012,3.466,3.466,0,0,1,3.036,1.331A7.776,7.776,0,0,1,33.484-5.5a6.862,6.862,0,0,1-1.111,4.389A4.552,4.552,0,0,1,28.688.22a11.7,11.7,0,0,1-2.464-.242V4.884ZM29.26-9.746a5.113,5.113,0,0,0-1.419.22,7.334,7.334,0,0,0-1.2.44l-.418.22v7.414A16.863,16.863,0,0,0,28.6-1.21a2.848,2.848,0,0,0,2.5-1.012,5.856,5.856,0,0,0,.715-3.3,6.09,6.09,0,0,0-.649-3.256A2.146,2.146,0,0,0,29.26-9.746Zm10.362,0q-2.4,0-2.4,1.672a1.155,1.155,0,0,0,.55,1.089,9.332,9.332,0,0,0,2.508.66,6.68,6.68,0,0,1,2.772.957,2.749,2.749,0,0,1,.814,2.31A2.867,2.867,0,0,1,42.779-.572,5.366,5.366,0,0,1,39.6.22a19.9,19.9,0,0,1-3.212-.308l-.66-.11.088-1.43a28.04,28.04,0,0,0,3.784.374,3.794,3.794,0,0,0,1.947-.407,1.468,1.468,0,0,0,.671-1.364,1.384,1.384,0,0,0-.572-1.3,8.458,8.458,0,0,0-2.508-.649,6.629,6.629,0,0,1-2.75-.9,2.563,2.563,0,0,1-.814-2.2,2.673,2.673,0,0,1,1.133-2.376,4.917,4.917,0,0,1,2.827-.77,23.132,23.132,0,0,1,3.366.308l.616.11-.044,1.408A28.631,28.631,0,0,0,39.622-9.746ZM52.1-9.57H48.6v5.258a7.1,7.1,0,0,0,.275,2.486q.275.594,1.309.594l1.958-.132L52.25,0a15.048,15.048,0,0,1-2.244.242A2.876,2.876,0,0,1,47.63-.594a5.452,5.452,0,0,1-.66-3.19V-9.57H45.408V-11H46.97v-3.366H48.6V-11h3.5Zm1.54,4.048a6.982,6.982,0,0,1,1.078-4.356,4.414,4.414,0,0,1,3.641-1.342,4.38,4.38,0,0,1,3.63,1.342,7.036,7.036,0,0,1,1.067,4.356A7.439,7.439,0,0,1,62.04-1.144Q61.028.22,58.344.22t-3.7-1.364A7.439,7.439,0,0,1,53.636-5.522Zm1.694-.022a6.977,6.977,0,0,0,.583,3.366,2.635,2.635,0,0,0,2.442.968,2.619,2.619,0,0,0,2.431-.957,7.085,7.085,0,0,0,.572-3.377,6.2,6.2,0,0,0-.638-3.333,2.7,2.7,0,0,0-2.365-.913,2.728,2.728,0,0,0-2.376.913A6.109,6.109,0,0,0,55.33-5.544ZM67.386,0h-1.65V-11h1.628v.77a7.034,7.034,0,0,1,3.41-.99q2.2,0,2.959,1.188a8.39,8.39,0,0,1,.759,4.224V0H72.864V-5.764A7.431,7.431,0,0,0,72.413-8.9a1.979,1.979,0,0,0-1.925-.847A5.748,5.748,0,0,0,69-9.537a7.415,7.415,0,0,0-1.2.407l-.418.2ZM85.03-1.364l.638-.066.044,1.3a31.58,31.58,0,0,1-4.29.352,3.867,3.867,0,0,1-3.366-1.375,7.385,7.385,0,0,1-.99-4.279q0-5.786,4.6-5.786a4.206,4.206,0,0,1,3.322,1.243,5.789,5.789,0,0,1,1.1,3.905L86-4.818h-7.26a4.511,4.511,0,0,0,.66,2.706,2.7,2.7,0,0,0,2.3.88Q83.336-1.232,85.03-1.364Zm-.594-4.774A4.776,4.776,0,0,0,83.787-9a2.509,2.509,0,0,0-2.112-.836,2.707,2.707,0,0,0-2.2.88,4.442,4.442,0,0,0-.759,2.816ZM99.352-5.126H95.48V0H93.786V-15.224h5.566a4.95,4.95,0,0,1,3.674,1.21,5.088,5.088,0,0,1,1.188,3.7Q104.214-5.126,99.352-5.126Zm-3.872-1.5h3.85q3.146,0,3.146-3.7a3.766,3.766,0,0,0-.748-2.585,3.093,3.093,0,0,0-2.4-.825H95.48ZM106.546,0V-11h1.628v1.5a10.714,10.714,0,0,1,4.026-1.738V-9.57a11.851,11.851,0,0,0-1.925.55,12.757,12.757,0,0,0-1.529.66l-.55.286V0Zm6.908-5.522a6.982,6.982,0,0,1,1.078-4.356,4.414,4.414,0,0,1,3.641-1.342,4.38,4.38,0,0,1,3.63,1.342,7.036,7.036,0,0,1,1.067,4.356,7.439,7.439,0,0,1-1.012,4.378Q120.846.22,118.162.22t-3.7-1.364A7.439,7.439,0,0,1,113.454-5.522Zm1.694-.022a6.977,6.977,0,0,0,.583,3.366,2.635,2.635,0,0,0,2.442.968,2.619,2.619,0,0,0,2.431-.957,7.085,7.085,0,0,0,.572-3.377,6.2,6.2,0,0,0-.638-3.333,2.7,2.7,0,0,0-2.365-.913,2.728,2.728,0,0,0-2.376.913A6.109,6.109,0,0,0,115.148-5.544ZM125.576-.286V-11H127.2V-.264a5.209,5.209,0,0,1-.726,3.036,8.261,8.261,0,0,1-2.926,2.134l-.66-1.276a7.225,7.225,0,0,0,2.2-1.683A3.986,3.986,0,0,0,125.576-.286Zm0-13.2V-15.4H127.2v1.914ZM137.852-1.364l.638-.066.044,1.3a31.58,31.58,0,0,1-4.29.352,3.867,3.867,0,0,1-3.366-1.375,7.385,7.385,0,0,1-.99-4.279q0-5.786,4.6-5.786a4.206,4.206,0,0,1,3.322,1.243,5.789,5.789,0,0,1,1.1,3.905l-.088,1.254h-7.26a4.511,4.511,0,0,0,.66,2.706,2.7,2.7,0,0,0,2.3.88Q136.158-1.232,137.852-1.364Zm-.594-4.774A4.776,4.776,0,0,0,136.609-9a2.509,2.509,0,0,0-2.112-.836,2.707,2.707,0,0,0-2.2.88,4.442,4.442,0,0,0-.759,2.816ZM145.6-11.22a19.007,19.007,0,0,1,2.464.264l.528.066-.066,1.342a25.809,25.809,0,0,0-2.6-.2,3.021,3.021,0,0,0-2.541.891,5.8,5.8,0,0,0-.671,3.3,6.453,6.453,0,0,0,.627,3.355q.627.946,2.607.946l2.6-.2.066,1.364a22.621,22.621,0,0,1-3.058.308Q142.978.22,142-1.1a7.681,7.681,0,0,1-.979-4.455q0-3.135,1.056-4.4A4.351,4.351,0,0,1,145.6-11.22Zm11.176,1.65h-3.5v5.258a7.1,7.1,0,0,0,.275,2.486q.275.594,1.309.594l1.958-.132L156.926,0a15.048,15.048,0,0,1-2.244.242,2.876,2.876,0,0,1-2.376-.836,5.452,5.452,0,0,1-.66-3.19V-9.57h-1.562V-11h1.562v-3.366h1.628V-11h3.5Z" transform="translate(1060 4035)" fill="#5a5b5b"/>
    <path id="Path_424" data-name="Path 424" d="M.528,0l4.18-15.224H8.4L12.584,0H10.912l-1.1-3.916H3.3L2.2,0ZM5.984-13.772,3.674-5.434H9.438l-2.31-8.338ZM23.012-15.8V0H21.384V-.748A6.706,6.706,0,0,1,18.04.22,4.875,4.875,0,0,1,16.5,0a3.159,3.159,0,0,1-1.232-.792Q14.08-1.98,14.08-5.181A7.8,7.8,0,0,1,15.147-9.8a4.134,4.134,0,0,1,3.531-1.419,13.82,13.82,0,0,1,2.706.286V-15.8ZM16.544-1.98a1.9,1.9,0,0,0,.748.572,2.862,2.862,0,0,0,1.023.154,5.5,5.5,0,0,0,1.408-.209,8.379,8.379,0,0,0,1.221-.407l.44-.2V-9.526a14.262,14.262,0,0,0-2.618-.264,2.52,2.52,0,0,0-2.332,1.067,6.461,6.461,0,0,0-.66,3.311Q15.774-2.86,16.544-1.98ZM25.168-11h1.76L29.5-1.43h.814L32.978-11h1.694L31.57,0h-3.3ZM44.374-7.678v5.632q.066.814,1.276.968L45.584.22a3.553,3.553,0,0,1-2.618-.88,9.68,9.68,0,0,1-3.96.88A2.989,2.989,0,0,1,36.7-.638,3.5,3.5,0,0,1,35.9-3.1a3.091,3.091,0,0,1,.814-2.365A4.316,4.316,0,0,1,39.27-6.4l3.454-.33v-.946a2.214,2.214,0,0,0-.484-1.606,1.784,1.784,0,0,0-1.32-.484,31.634,31.634,0,0,0-3.652.22l-.682.066-.066-1.254a22.172,22.172,0,0,1,4.29-.484,3.692,3.692,0,0,1,2.717.858A3.694,3.694,0,0,1,44.374-7.678ZM37.6-3.19q0,2.024,1.672,2.024a8.9,8.9,0,0,0,2.948-.506l.506-.176v-3.63l-3.256.308a2.118,2.118,0,0,0-1.43.572A2.025,2.025,0,0,0,37.6-3.19ZM49.28,0H47.63V-11h1.628v.77a7.034,7.034,0,0,1,3.41-.99q2.2,0,2.959,1.188a8.39,8.39,0,0,1,.759,4.224V0H54.758V-5.764A7.431,7.431,0,0,0,54.307-8.9a1.979,1.979,0,0,0-1.925-.847,5.748,5.748,0,0,0-1.485.209,7.416,7.416,0,0,0-1.2.407l-.418.2ZM63.558-11.22a19.006,19.006,0,0,1,2.464.264l.528.066-.066,1.342a25.809,25.809,0,0,0-2.6-.2,3.021,3.021,0,0,0-2.541.891,5.8,5.8,0,0,0-.671,3.3A6.453,6.453,0,0,0,61.3-2.2q.627.946,2.607.946l2.6-.2.066,1.364A22.621,22.621,0,0,1,63.514.22Q60.94.22,59.961-1.1a7.681,7.681,0,0,1-.979-4.455q0-3.135,1.056-4.4A4.351,4.351,0,0,1,63.558-11.22ZM76.384-1.364l.638-.066.044,1.3a31.58,31.58,0,0,1-4.29.352A3.867,3.867,0,0,1,69.41-1.155a7.385,7.385,0,0,1-.99-4.279q0-5.786,4.6-5.786A4.206,4.206,0,0,1,76.34-9.977a5.789,5.789,0,0,1,1.1,3.905l-.088,1.254h-7.26a4.511,4.511,0,0,0,.66,2.706,2.7,2.7,0,0,0,2.3.88Q74.69-1.232,76.384-1.364ZM75.79-6.138A4.776,4.776,0,0,0,75.141-9a2.509,2.509,0,0,0-2.112-.836,2.707,2.707,0,0,0-2.2.88,4.442,4.442,0,0,0-.759,2.816ZM88.462-15.8V0H86.834V-.748A6.706,6.706,0,0,1,83.49.22,4.875,4.875,0,0,1,81.95,0a3.159,3.159,0,0,1-1.232-.792Q79.53-1.98,79.53-5.181A7.8,7.8,0,0,1,80.6-9.8a4.135,4.135,0,0,1,3.531-1.419,13.82,13.82,0,0,1,2.706.286V-15.8ZM81.994-1.98a1.9,1.9,0,0,0,.748.572,2.862,2.862,0,0,0,1.023.154,5.5,5.5,0,0,0,1.408-.209,8.379,8.379,0,0,0,1.221-.407l.44-.2V-9.526a14.263,14.263,0,0,0-2.618-.264,2.52,2.52,0,0,0-2.332,1.067,6.461,6.461,0,0,0-.66,3.311Q81.224-2.86,81.994-1.98Zm23.98,1.738A20.586,20.586,0,0,1,101.9.22a7.239,7.239,0,0,1-2.915-.5,3.65,3.65,0,0,1-1.716-1.54,7.144,7.144,0,0,1-.836-2.4,20.579,20.579,0,0,1-.231-3.377,21,21,0,0,1,.231-3.4,7.273,7.273,0,0,1,.836-2.431,3.584,3.584,0,0,1,1.705-1.54,7.168,7.168,0,0,1,2.86-.484,21.108,21.108,0,0,1,4.136.484l-.066,1.43a22.842,22.842,0,0,0-3.96-.4q-2.42,0-3.2,1.441a11.1,11.1,0,0,0-.781,4.917,21.73,21.73,0,0,0,.143,2.794,6.13,6.13,0,0,0,.561,1.9,2.479,2.479,0,0,0,1.221,1.21,5.938,5.938,0,0,0,2.354.363,20.264,20.264,0,0,0,3.663-.4Zm9.746-1.122.638-.066.044,1.3a31.58,31.58,0,0,1-4.29.352,3.867,3.867,0,0,1-3.366-1.375,7.385,7.385,0,0,1-.99-4.279q0-5.786,4.6-5.786a4.206,4.206,0,0,1,3.322,1.243,5.789,5.789,0,0,1,1.1,3.905l-.088,1.254h-7.26a4.511,4.511,0,0,0,.66,2.706,2.7,2.7,0,0,0,2.3.88Q114.026-1.232,115.72-1.364Zm-.594-4.774A4.776,4.776,0,0,0,114.477-9a2.509,2.509,0,0,0-2.112-.836,2.707,2.707,0,0,0-2.2.88,4.442,4.442,0,0,0-.759,2.816ZM119.35,0V-11h1.628v1.5A10.714,10.714,0,0,1,125-11.242V-9.57a11.851,11.851,0,0,0-1.925.55,12.757,12.757,0,0,0-1.529.66l-.55.286V0Zm13.31-9.57h-3.5v5.258a7.1,7.1,0,0,0,.275,2.486q.275.594,1.309.594l1.958-.132L132.814,0a15.048,15.048,0,0,1-2.244.242,2.876,2.876,0,0,1-2.376-.836,5.452,5.452,0,0,1-.66-3.19V-9.57h-1.562V-11h1.562v-3.366h1.628V-11h3.5ZM134.684,0V-11h1.65V0Zm0-13.486V-15.4h1.65v1.914Zm6.93,3.916V0h-1.65V-9.57h-1.386V-11h1.386v-.99a5.458,5.458,0,0,1,.66-3.179,2.766,2.766,0,0,1,2.31-.847l2.222.154-.022,1.364q-1.232-.044-2.035-.044a1.257,1.257,0,0,0-1.144.528,4.166,4.166,0,0,0-.341,2.046V-11h3.19v1.43ZM146.784,0V-11h1.65V0Zm0-13.486V-15.4h1.65v1.914Zm8.932,2.266a19.007,19.007,0,0,1,2.464.264l.528.066-.066,1.342a25.809,25.809,0,0,0-2.6-.2,3.021,3.021,0,0,0-2.541.891,5.8,5.8,0,0,0-.671,3.3,6.453,6.453,0,0,0,.627,3.355q.627.946,2.607.946l2.6-.2.066,1.364a22.621,22.621,0,0,1-3.058.308q-2.574,0-3.553-1.32a7.681,7.681,0,0,1-.979-4.455q0-3.135,1.056-4.4A4.351,4.351,0,0,1,155.716-11.22ZM168.96-7.678v5.632q.066.814,1.276.968L170.17.22a3.553,3.553,0,0,1-2.618-.88,9.68,9.68,0,0,1-3.96.88,2.989,2.989,0,0,1-2.31-.858A3.5,3.5,0,0,1,160.49-3.1a3.091,3.091,0,0,1,.814-2.365,4.316,4.316,0,0,1,2.552-.935l3.454-.33v-.946a2.214,2.214,0,0,0-.484-1.606,1.784,1.784,0,0,0-1.32-.484,31.634,31.634,0,0,0-3.652.22l-.682.066-.066-1.254a22.171,22.171,0,0,1,4.29-.484,3.692,3.692,0,0,1,2.717.858A3.694,3.694,0,0,1,168.96-7.678ZM162.184-3.19q0,2.024,1.672,2.024a8.9,8.9,0,0,0,2.948-.506l.506-.176v-3.63l-3.256.308a2.118,2.118,0,0,0-1.43.572A2.025,2.025,0,0,0,162.184-3.19Zm15.73-6.38h-3.5v5.258a7.1,7.1,0,0,0,.275,2.486q.275.594,1.309.594l1.958-.132L178.068,0a15.048,15.048,0,0,1-2.244.242,2.876,2.876,0,0,1-2.376-.836,5.452,5.452,0,0,1-.66-3.19V-9.57h-1.562V-11h1.562v-3.366h1.628V-11h3.5ZM179.938,0V-11h1.65V0Zm0-13.486V-15.4h1.65v1.914Zm4.334,7.964a6.982,6.982,0,0,1,1.078-4.356,4.414,4.414,0,0,1,3.641-1.342,4.38,4.38,0,0,1,3.63,1.342,7.036,7.036,0,0,1,1.067,4.356,7.439,7.439,0,0,1-1.012,4.378Q191.664.22,188.98.22t-3.7-1.364A7.439,7.439,0,0,1,184.272-5.522Zm1.694-.022a6.977,6.977,0,0,0,.583,3.366,2.635,2.635,0,0,0,2.442.968,2.619,2.619,0,0,0,2.431-.957,7.085,7.085,0,0,0,.572-3.377,6.2,6.2,0,0,0-.638-3.333,2.7,2.7,0,0,0-2.365-.913,2.728,2.728,0,0,0-2.376.913A6.109,6.109,0,0,0,185.966-5.544ZM198.022,0h-1.65V-11H198v.77a7.034,7.034,0,0,1,3.41-.99q2.2,0,2.959,1.188a8.39,8.39,0,0,1,.759,4.224V0H203.5V-5.764a7.431,7.431,0,0,0-.451-3.135,1.979,1.979,0,0,0-1.925-.847,5.748,5.748,0,0,0-1.485.209,7.416,7.416,0,0,0-1.2.407l-.418.2Z" transform="translate(1035 4127)" fill="#5a5b5b"/>
    <path id="Path_425" data-name="Path 425" d="M-106.733-.242A20.586,20.586,0,0,1-110.8.22a7.239,7.239,0,0,1-2.915-.5,3.65,3.65,0,0,1-1.716-1.54,7.144,7.144,0,0,1-.836-2.4A20.579,20.579,0,0,1-116.5-7.59a21,21,0,0,1,.231-3.4,7.273,7.273,0,0,1,.836-2.431,3.584,3.584,0,0,1,1.705-1.54,7.168,7.168,0,0,1,2.86-.484,21.108,21.108,0,0,1,4.136.484l-.066,1.43a22.842,22.842,0,0,0-3.96-.4q-2.42,0-3.2,1.441a11.1,11.1,0,0,0-.781,4.917,21.729,21.729,0,0,0,.143,2.794,6.13,6.13,0,0,0,.561,1.9,2.479,2.479,0,0,0,1.221,1.21,5.938,5.938,0,0,0,2.354.363,20.264,20.264,0,0,0,3.663-.4Zm9.746-1.122.638-.066.044,1.3a31.58,31.58,0,0,1-4.29.352,3.867,3.867,0,0,1-3.366-1.375,7.385,7.385,0,0,1-.99-4.279q0-5.786,4.6-5.786a4.206,4.206,0,0,1,3.322,1.243,5.789,5.789,0,0,1,1.1,3.905l-.088,1.254h-7.26a4.511,4.511,0,0,0,.66,2.706,2.7,2.7,0,0,0,2.3.88Q-98.681-1.232-96.987-1.364Zm-.594-4.774A4.776,4.776,0,0,0-98.23-9a2.509,2.509,0,0,0-2.112-.836,2.707,2.707,0,0,0-2.2.88,4.442,4.442,0,0,0-.759,2.816ZM-93.357,0V-11h1.628v1.5A10.714,10.714,0,0,1-87.7-11.242V-9.57a11.851,11.851,0,0,0-1.925.55,12.757,12.757,0,0,0-1.529.66l-.55.286V0Zm13.31-9.57h-3.5v5.258a7.1,7.1,0,0,0,.275,2.486q.275.594,1.309.594L-80-1.364-79.893,0a15.048,15.048,0,0,1-2.244.242,2.876,2.876,0,0,1-2.376-.836,5.452,5.452,0,0,1-.66-3.19V-9.57h-1.562V-11h1.562v-3.366h1.628V-11h3.5ZM-78.023,0V-11h1.65V0Zm0-13.486V-15.4h1.65v1.914Zm6.93,3.916V0h-1.65V-9.57h-1.386V-11h1.386v-.99a5.458,5.458,0,0,1,.66-3.179,2.766,2.766,0,0,1,2.31-.847l2.222.154-.022,1.364q-1.232-.044-2.035-.044a1.257,1.257,0,0,0-1.144.528,4.167,4.167,0,0,0-.341,2.046V-11h3.19v1.43ZM-65.923,0V-11h1.65V0Zm0-13.486V-15.4h1.65v1.914Zm8.932,2.266a19.006,19.006,0,0,1,2.464.264l.528.066-.066,1.342a25.809,25.809,0,0,0-2.6-.2,3.021,3.021,0,0,0-2.541.891,5.8,5.8,0,0,0-.671,3.3A6.453,6.453,0,0,0-59.246-2.2q.627.946,2.607.946l2.6-.2.066,1.364A22.621,22.621,0,0,1-57.035.22q-2.574,0-3.553-1.32a7.681,7.681,0,0,1-.979-4.455q0-3.135,1.056-4.4A4.351,4.351,0,0,1-56.991-11.22Zm13.244,3.542v5.632q.066.814,1.276.968l-.066,1.3a3.553,3.553,0,0,1-2.618-.88,9.68,9.68,0,0,1-3.96.88,2.989,2.989,0,0,1-2.31-.858A3.5,3.5,0,0,1-52.217-3.1,3.091,3.091,0,0,1-51.4-5.467,4.316,4.316,0,0,1-48.851-6.4l3.454-.33v-.946a2.214,2.214,0,0,0-.484-1.606,1.784,1.784,0,0,0-1.32-.484,31.634,31.634,0,0,0-3.652.22l-.682.066-.066-1.254a22.172,22.172,0,0,1,4.29-.484,3.692,3.692,0,0,1,2.717.858A3.694,3.694,0,0,1-43.747-7.678ZM-50.523-3.19q0,2.024,1.672,2.024A8.9,8.9,0,0,0-45.9-1.672l.506-.176v-3.63l-3.256.308a2.118,2.118,0,0,0-1.43.572A2.025,2.025,0,0,0-50.523-3.19Zm15.73-6.38h-3.5v5.258a7.1,7.1,0,0,0,.275,2.486q.275.594,1.309.594l1.958-.132L-34.639,0a15.048,15.048,0,0,1-2.244.242,2.876,2.876,0,0,1-2.376-.836,5.452,5.452,0,0,1-.66-3.19V-9.57h-1.562V-11h1.562v-3.366h1.628V-11h3.5Zm9.5,8.206.638-.066.044,1.3A31.58,31.58,0,0,1-28.9.22a3.867,3.867,0,0,1-3.366-1.375,7.385,7.385,0,0,1-.99-4.279q0-5.786,4.6-5.786a4.206,4.206,0,0,1,3.322,1.243,5.789,5.789,0,0,1,1.1,3.905l-.088,1.254h-7.26a4.511,4.511,0,0,0,.66,2.706,2.7,2.7,0,0,0,2.3.88Q-26.983-1.232-25.289-1.364Zm-.594-4.774A4.776,4.776,0,0,0-26.532-9a2.509,2.509,0,0,0-2.112-.836,2.707,2.707,0,0,0-2.2.88A4.442,4.442,0,0,0-31.6-6.138Zm14.916,1.012h-3.872V0h-1.694V-15.224h5.566a4.95,4.95,0,0,1,3.674,1.21,5.088,5.088,0,0,1,1.188,3.7Q-6.1-5.126-10.967-5.126Zm-3.872-1.5h3.85q3.146,0,3.146-3.7A3.766,3.766,0,0,0-8.591-12.9a3.093,3.093,0,0,0-2.4-.825h-3.85ZM-3.773,0V-11h1.628v1.5a10.714,10.714,0,0,1,4.026-1.738V-9.57a11.851,11.851,0,0,0-1.925.55,12.757,12.757,0,0,0-1.529.66l-.55.286V0ZM3.135-5.522A6.982,6.982,0,0,1,4.213-9.878,4.414,4.414,0,0,1,7.854-11.22a4.38,4.38,0,0,1,3.63,1.342,7.036,7.036,0,0,1,1.067,4.356,7.439,7.439,0,0,1-1.012,4.378Q10.527.22,7.843.22t-3.7-1.364A7.439,7.439,0,0,1,3.135-5.522Zm1.694-.022a6.977,6.977,0,0,0,.583,3.366,2.635,2.635,0,0,0,2.442.968,2.619,2.619,0,0,0,2.431-.957,7.085,7.085,0,0,0,.572-3.377,6.2,6.2,0,0,0-.638-3.333A2.7,2.7,0,0,0,7.854-9.79a2.728,2.728,0,0,0-2.376.913A6.109,6.109,0,0,0,4.829-5.544ZM19.481,5.17A6.886,6.886,0,0,1,15.8,4.455a2.939,2.939,0,0,1-1.045-2.607,2.483,2.483,0,0,1,.4-1.463A6.147,6.147,0,0,1,16.489-.88,1.7,1.7,0,0,1,15.873-2.4a3.782,3.782,0,0,1,.55-1.386l.2-.352q-1.738-.792-1.738-3.322,0-3.762,4.114-3.762a8.252,8.252,0,0,1,1.958.22l.33.066,3.256-.088v1.408l-2.09-.044a2.991,2.991,0,0,1,.726,2.2,3.53,3.53,0,0,1-1.023,2.893,5.114,5.114,0,0,1-3.223.825,6.05,6.05,0,0,1-1.078-.088,4.616,4.616,0,0,0-.4,1.254q0,.682.418.847a10.452,10.452,0,0,0,2.53.165,5.352,5.352,0,0,1,3.036.66,2.988,2.988,0,0,1,.924,2.574Q24.365,5.17,19.481,5.17Zm-3.1-3.454a1.834,1.834,0,0,0,.649,1.617,4.5,4.5,0,0,0,2.4.451A4.863,4.863,0,0,0,21.934,3.3a1.769,1.769,0,0,0,.759-1.617q0-1.133-.55-1.463a4.708,4.708,0,0,0-2.156-.33L17.611-.22A3.889,3.889,0,0,0,16.632.7,1.849,1.849,0,0,0,16.379,1.716Zm.154-9.174a2.459,2.459,0,0,0,.583,1.848,2.757,2.757,0,0,0,1.925.55,2.713,2.713,0,0,0,1.914-.55,2.507,2.507,0,0,0,.572-1.859,2.507,2.507,0,0,0-.572-1.859,2.713,2.713,0,0,0-1.914-.55,2.72,2.72,0,0,0-1.925.561A2.5,2.5,0,0,0,16.533-7.458ZM26.543,0V-11h1.628v1.5A10.714,10.714,0,0,1,32.2-11.242V-9.57a11.851,11.851,0,0,0-1.925.55,12.757,12.757,0,0,0-1.529.66l-.55.286V0ZM41.921-7.678v5.632q.066.814,1.276.968L43.131.22a3.553,3.553,0,0,1-2.618-.88,9.68,9.68,0,0,1-3.96.88,2.989,2.989,0,0,1-2.31-.858A3.5,3.5,0,0,1,33.451-3.1a3.091,3.091,0,0,1,.814-2.365A4.316,4.316,0,0,1,36.817-6.4l3.454-.33v-.946a2.214,2.214,0,0,0-.484-1.606,1.784,1.784,0,0,0-1.32-.484,31.634,31.634,0,0,0-3.652.22l-.682.066-.066-1.254a22.172,22.172,0,0,1,4.29-.484,3.692,3.692,0,0,1,2.717.858A3.694,3.694,0,0,1,41.921-7.678ZM35.145-3.19q0,2.024,1.672,2.024a8.9,8.9,0,0,0,2.948-.506l.506-.176v-3.63l-3.256.308a2.118,2.118,0,0,0-1.43.572A2.025,2.025,0,0,0,35.145-3.19ZM46.827,0h-1.65V-11h1.628v.77a6.235,6.235,0,0,1,3.212-.99,3.3,3.3,0,0,1,2.86,1.122,8.074,8.074,0,0,1,1.881-.781,7.309,7.309,0,0,1,2.035-.341q2.2,0,2.959,1.177a8.383,8.383,0,0,1,.759,4.235V0h-1.65V-5.764a7.6,7.6,0,0,0-.44-3.135,1.906,1.906,0,0,0-1.87-.847,5.7,5.7,0,0,0-1.5.209,7.482,7.482,0,0,0-1.188.407l-.418.2a11.008,11.008,0,0,1,.286,3.212V0h-1.65V-5.676A8.093,8.093,0,0,0,51.656-8.9a1.9,1.9,0,0,0-1.881-.847,5.268,5.268,0,0,0-1.441.209A6.794,6.794,0,0,0,47.2-9.13l-.374.2ZM65.219,0h-1.65V-11H65.2v.77a6.235,6.235,0,0,1,3.212-.99,3.3,3.3,0,0,1,2.86,1.122,8.074,8.074,0,0,1,1.881-.781,7.309,7.309,0,0,1,2.035-.341q2.2,0,2.959,1.177A8.383,8.383,0,0,1,78.9-5.808V0h-1.65V-5.764a7.6,7.6,0,0,0-.44-3.135,1.906,1.906,0,0,0-1.87-.847,5.7,5.7,0,0,0-1.5.209,7.482,7.482,0,0,0-1.188.407l-.418.2a11.008,11.008,0,0,1,.286,3.212V0h-1.65V-5.676A8.093,8.093,0,0,0,70.048-8.9a1.9,1.9,0,0,0-1.881-.847,5.268,5.268,0,0,0-1.441.209,6.794,6.794,0,0,0-1.133.407l-.374.2ZM89.441-1.364l.638-.066.044,1.3a31.58,31.58,0,0,1-4.29.352,3.867,3.867,0,0,1-3.366-1.375,7.385,7.385,0,0,1-.99-4.279q0-5.786,4.6-5.786A4.206,4.206,0,0,1,89.4-9.977a5.789,5.789,0,0,1,1.1,3.905l-.088,1.254h-7.26a4.511,4.511,0,0,0,.66,2.706,2.7,2.7,0,0,0,2.3.88Q87.747-1.232,89.441-1.364Zm-.594-4.774A4.776,4.776,0,0,0,88.2-9a2.509,2.509,0,0,0-2.112-.836,2.707,2.707,0,0,0-2.2.88,4.442,4.442,0,0,0-.759,2.816ZM97.911,0V-11h1.65V0Zm0-13.486V-15.4h1.65v1.914ZM104.379,0h-1.65V-11h1.628v.77a7.034,7.034,0,0,1,3.41-.99q2.2,0,2.959,1.188a8.39,8.39,0,0,1,.759,4.224V0h-1.628V-5.764a7.431,7.431,0,0,0-.451-3.135,1.979,1.979,0,0,0-1.925-.847A5.748,5.748,0,0,0,106-9.537a7.415,7.415,0,0,0-1.2.407l-.418.2ZM-135.685,16.294V14.776h11v1.518h-4.642V30H-131V16.294Zm18.348,12.342.638-.066.044,1.3a31.58,31.58,0,0,1-4.29.352,3.867,3.867,0,0,1-3.366-1.375,7.385,7.385,0,0,1-.99-4.279q0-5.786,4.6-5.786a4.206,4.206,0,0,1,3.322,1.243,5.789,5.789,0,0,1,1.1,3.905l-.088,1.254h-7.26a4.511,4.511,0,0,0,.66,2.706,2.7,2.7,0,0,0,2.3.88Q-119.031,28.768-117.337,28.636Zm-.594-4.774A4.776,4.776,0,0,0-118.58,21a2.509,2.509,0,0,0-2.112-.836,2.707,2.707,0,0,0-2.2.88,4.442,4.442,0,0,0-.759,2.816Zm8.338-5.082a19.007,19.007,0,0,1,2.464.264l.528.066-.066,1.342a25.809,25.809,0,0,0-2.6-.2,3.021,3.021,0,0,0-2.541.891,5.8,5.8,0,0,0-.671,3.3,6.453,6.453,0,0,0,.627,3.355q.627.946,2.607.946l2.6-.2.066,1.364a22.621,22.621,0,0,1-3.058.308q-2.574,0-3.553-1.32a7.681,7.681,0,0,1-.979-4.455q0-3.135,1.056-4.4A4.351,4.351,0,0,1-109.593,18.78ZM-102.465,30h-1.65V14.2h1.65v5.412a7.886,7.886,0,0,1,3.388-.836q2.2,0,2.959,1.188a8.39,8.39,0,0,1,.759,4.224V30h-1.65V24.236A7.431,7.431,0,0,0-97.46,21.1a1.956,1.956,0,0,0-1.9-.847,7.327,7.327,0,0,0-2.684.506l-.418.154Zm11.814,0H-92.3V19h1.628v.77a7.034,7.034,0,0,1,3.41-.99q2.2,0,2.959,1.188a8.39,8.39,0,0,1,.759,4.224V30h-1.628V24.236a7.431,7.431,0,0,0-.451-3.135,1.979,1.979,0,0,0-1.925-.847,5.748,5.748,0,0,0-1.485.209,7.416,7.416,0,0,0-1.2.407l-.418.2Zm9.68-5.522a6.982,6.982,0,0,1,1.078-4.356,4.414,4.414,0,0,1,3.641-1.342,4.38,4.38,0,0,1,3.63,1.342,7.036,7.036,0,0,1,1.067,4.356,7.439,7.439,0,0,1-1.012,4.378q-1.012,1.364-3.7,1.364t-3.7-1.364A7.439,7.439,0,0,1-80.971,24.478Zm1.694-.022a6.977,6.977,0,0,0,.583,3.366,2.635,2.635,0,0,0,2.442.968,2.619,2.619,0,0,0,2.431-.957,7.085,7.085,0,0,0,.572-3.377,6.2,6.2,0,0,0-.638-3.333,2.7,2.7,0,0,0-2.365-.913,2.728,2.728,0,0,0-2.376.913A6.109,6.109,0,0,0-79.277,24.456ZM-68.739,30V14.2h1.65V30Zm4.466-5.522a6.982,6.982,0,0,1,1.078-4.356,4.414,4.414,0,0,1,3.641-1.342,4.38,4.38,0,0,1,3.63,1.342,7.036,7.036,0,0,1,1.067,4.356,7.439,7.439,0,0,1-1.012,4.378q-1.012,1.364-3.7,1.364t-3.7-1.364A7.439,7.439,0,0,1-64.273,24.478Zm1.694-.022A6.977,6.977,0,0,0-62,27.822a2.635,2.635,0,0,0,2.442.968,2.619,2.619,0,0,0,2.431-.957,7.085,7.085,0,0,0,.572-3.377,6.2,6.2,0,0,0-.638-3.333,2.7,2.7,0,0,0-2.365-.913,2.728,2.728,0,0,0-2.376.913A6.109,6.109,0,0,0-62.579,24.456ZM-47.927,35.17a6.886,6.886,0,0,1-3.685-.715,2.939,2.939,0,0,1-1.045-2.607,2.483,2.483,0,0,1,.4-1.463,6.146,6.146,0,0,1,1.342-1.265,1.7,1.7,0,0,1-.616-1.518,3.782,3.782,0,0,1,.55-1.386l.2-.352q-1.738-.792-1.738-3.322,0-3.762,4.114-3.762a8.252,8.252,0,0,1,1.958.22l.33.066,3.256-.088v1.408l-2.09-.044a2.991,2.991,0,0,1,.726,2.2,3.53,3.53,0,0,1-1.023,2.893,5.114,5.114,0,0,1-3.223.825,6.05,6.05,0,0,1-1.078-.088,4.616,4.616,0,0,0-.4,1.254q0,.682.418.847a10.452,10.452,0,0,0,2.53.165,5.352,5.352,0,0,1,3.036.66,2.988,2.988,0,0,1,.924,2.574Q-43.043,35.17-47.927,35.17Zm-3.1-3.454a1.834,1.834,0,0,0,.649,1.617,4.5,4.5,0,0,0,2.4.451,4.863,4.863,0,0,0,2.508-.484,1.769,1.769,0,0,0,.759-1.617q0-1.133-.55-1.463a4.708,4.708,0,0,0-2.156-.33l-2.376-.11a3.89,3.89,0,0,0-.979.924A1.849,1.849,0,0,0-51.029,31.716Zm.154-9.174a2.459,2.459,0,0,0,.583,1.848,2.757,2.757,0,0,0,1.925.55,2.713,2.713,0,0,0,1.914-.55,2.507,2.507,0,0,0,.572-1.859,2.507,2.507,0,0,0-.572-1.859,2.713,2.713,0,0,0-1.914-.55,2.72,2.72,0,0,0-1.925.561A2.5,2.5,0,0,0-50.875,22.542ZM-41.9,19h1.65l2.75,9.57h.726L-34,19h1.65l-4.576,15.884h-1.65L-37.147,30h-1.628Zm24.266,3.322v5.632q.066.814,1.276.968l-.066,1.3a3.553,3.553,0,0,1-2.618-.88,9.68,9.68,0,0,1-3.96.88,2.989,2.989,0,0,1-2.31-.858A3.5,3.5,0,0,1-26.1,26.9a3.091,3.091,0,0,1,.814-2.365,4.316,4.316,0,0,1,2.552-.935l3.454-.33v-.946a2.214,2.214,0,0,0-.484-1.606,1.784,1.784,0,0,0-1.32-.484,31.634,31.634,0,0,0-3.652.22l-.682.066-.066-1.254a22.171,22.171,0,0,1,4.29-.484,3.692,3.692,0,0,1,2.717.858A3.694,3.694,0,0,1-17.633,22.322Zm-6.776,4.488q0,2.024,1.672,2.024a8.9,8.9,0,0,0,2.948-.506l.506-.176v-3.63l-3.256.308a2.118,2.118,0,0,0-1.43.572A2.025,2.025,0,0,0-24.409,26.81ZM-12.727,30h-1.65V19h1.628v.77a7.034,7.034,0,0,1,3.41-.99q2.2,0,2.959,1.188a8.39,8.39,0,0,1,.759,4.224V30H-7.249V24.236A7.431,7.431,0,0,0-7.7,21.1a1.979,1.979,0,0,0-1.925-.847,5.748,5.748,0,0,0-1.485.209,7.416,7.416,0,0,0-1.2.407l-.418.2ZM5.885,14.2V30H4.257v-.748a6.706,6.706,0,0,1-3.344.968A4.875,4.875,0,0,1-.627,30a3.159,3.159,0,0,1-1.232-.792q-1.188-1.188-1.188-4.389A7.8,7.8,0,0,1-1.98,20.2,4.134,4.134,0,0,1,1.551,18.78a13.82,13.82,0,0,1,2.706.286V14.2ZM-.583,28.02a1.9,1.9,0,0,0,.748.572,2.862,2.862,0,0,0,1.023.154A5.5,5.5,0,0,0,2.6,28.537a8.379,8.379,0,0,0,1.221-.407l.44-.2V20.474a14.262,14.262,0,0,0-2.618-.264A2.52,2.52,0,0,0-.693,21.277a6.461,6.461,0,0,0-.66,3.311Q-1.353,27.14-.583,28.02ZM15.565,30h-1.65V19h1.628v.77a6.235,6.235,0,0,1,3.212-.99,3.3,3.3,0,0,1,2.86,1.122,8.074,8.074,0,0,1,1.881-.781,7.309,7.309,0,0,1,2.035-.341q2.2,0,2.959,1.177a8.383,8.383,0,0,1,.759,4.235V30H27.6V24.236a7.6,7.6,0,0,0-.44-3.135,1.906,1.906,0,0,0-1.87-.847,5.7,5.7,0,0,0-1.5.209,7.482,7.482,0,0,0-1.188.407l-.418.2a11.008,11.008,0,0,1,.286,3.212V30h-1.65V24.324a8.093,8.093,0,0,0-.429-3.223,1.9,1.9,0,0,0-1.881-.847,5.268,5.268,0,0,0-1.441.209,6.794,6.794,0,0,0-1.133.407l-.374.2Zm24.508-7.678v5.632q.066.814,1.276.968l-.066,1.3a3.553,3.553,0,0,1-2.618-.88,9.68,9.68,0,0,1-3.96.88,2.989,2.989,0,0,1-2.31-.858A3.5,3.5,0,0,1,31.6,26.9a3.091,3.091,0,0,1,.814-2.365,4.316,4.316,0,0,1,2.552-.935l3.454-.33v-.946a2.214,2.214,0,0,0-.484-1.606,1.784,1.784,0,0,0-1.32-.484,31.634,31.634,0,0,0-3.652.22l-.682.066-.066-1.254a22.172,22.172,0,0,1,4.29-.484,3.692,3.692,0,0,1,2.717.858A3.694,3.694,0,0,1,40.073,22.322ZM33.3,26.81q0,2.024,1.672,2.024a8.9,8.9,0,0,0,2.948-.506l.506-.176v-3.63l-3.256.308a2.118,2.118,0,0,0-1.43.572A2.025,2.025,0,0,0,33.3,26.81ZM44.979,30h-1.65V19h1.628v.77a7.034,7.034,0,0,1,3.41-.99q2.2,0,2.959,1.188a8.39,8.39,0,0,1,.759,4.224V30H50.457V24.236a7.431,7.431,0,0,0-.451-3.135,1.979,1.979,0,0,0-1.925-.847,5.748,5.748,0,0,0-1.485.209,7.416,7.416,0,0,0-1.2.407l-.418.2Zm17.93-7.678v5.632q.066.814,1.276.968l-.066,1.3a3.553,3.553,0,0,1-2.618-.88,9.68,9.68,0,0,1-3.96.88,2.989,2.989,0,0,1-2.31-.858,3.5,3.5,0,0,1-.792-2.464,3.091,3.091,0,0,1,.814-2.365,4.316,4.316,0,0,1,2.552-.935l3.454-.33v-.946a2.214,2.214,0,0,0-.484-1.606,1.784,1.784,0,0,0-1.32-.484,31.634,31.634,0,0,0-3.652.22l-.682.066-.066-1.254a22.172,22.172,0,0,1,4.29-.484,3.692,3.692,0,0,1,2.717.858A3.694,3.694,0,0,1,62.909,22.322ZM56.133,26.81q0,2.024,1.672,2.024a8.9,8.9,0,0,0,2.948-.506l.506-.176v-3.63L58,24.83a2.118,2.118,0,0,0-1.43.572A2.025,2.025,0,0,0,56.133,26.81Zm14.278,8.36a6.886,6.886,0,0,1-3.685-.715,2.939,2.939,0,0,1-1.045-2.607,2.483,2.483,0,0,1,.4-1.463,6.146,6.146,0,0,1,1.342-1.265A1.7,1.7,0,0,1,66.8,27.6a3.782,3.782,0,0,1,.55-1.386l.2-.352q-1.738-.792-1.738-3.322,0-3.762,4.114-3.762a8.252,8.252,0,0,1,1.958.22l.33.066,3.256-.088v1.408l-2.09-.044a2.991,2.991,0,0,1,.726,2.2,3.53,3.53,0,0,1-1.023,2.893,5.114,5.114,0,0,1-3.223.825,6.05,6.05,0,0,1-1.078-.088,4.616,4.616,0,0,0-.4,1.254q0,.682.418.847a10.452,10.452,0,0,0,2.53.165,5.352,5.352,0,0,1,3.036.66,2.988,2.988,0,0,1,.924,2.574Q75.3,35.17,70.411,35.17Zm-3.1-3.454a1.834,1.834,0,0,0,.649,1.617,4.5,4.5,0,0,0,2.4.451,4.863,4.863,0,0,0,2.508-.484,1.769,1.769,0,0,0,.759-1.617q0-1.133-.55-1.463a4.708,4.708,0,0,0-2.156-.33l-2.376-.11a3.889,3.889,0,0,0-.979.924A1.849,1.849,0,0,0,67.309,31.716Zm.154-9.174a2.459,2.459,0,0,0,.583,1.848,2.757,2.757,0,0,0,1.925.55,2.713,2.713,0,0,0,1.914-.55,2.507,2.507,0,0,0,.572-1.859,2.507,2.507,0,0,0-.572-1.859,3.594,3.594,0,0,0-3.839.011A2.5,2.5,0,0,0,67.463,22.542Zm17.49,6.094.638-.066.044,1.3a31.58,31.58,0,0,1-4.29.352,3.867,3.867,0,0,1-3.366-1.375,7.385,7.385,0,0,1-.99-4.279q0-5.786,4.6-5.786a4.206,4.206,0,0,1,3.322,1.243,5.789,5.789,0,0,1,1.1,3.905l-.088,1.254h-7.26a4.511,4.511,0,0,0,.66,2.706,2.7,2.7,0,0,0,2.3.88Q83.259,28.768,84.953,28.636Zm-.594-4.774A4.776,4.776,0,0,0,83.71,21a2.509,2.509,0,0,0-2.112-.836,2.707,2.707,0,0,0-2.2.88,4.442,4.442,0,0,0-.759,2.816ZM90.233,30h-1.65V19h1.628v.77a6.235,6.235,0,0,1,3.212-.99,3.3,3.3,0,0,1,2.86,1.122,8.074,8.074,0,0,1,1.881-.781,7.309,7.309,0,0,1,2.035-.341q2.2,0,2.959,1.177a8.383,8.383,0,0,1,.759,4.235V30h-1.65V24.236a7.6,7.6,0,0,0-.44-3.135,1.906,1.906,0,0,0-1.87-.847,5.7,5.7,0,0,0-1.5.209,7.482,7.482,0,0,0-1.188.407l-.418.2a11.008,11.008,0,0,1,.286,3.212V30h-1.65V24.324a8.093,8.093,0,0,0-.429-3.223,1.9,1.9,0,0,0-1.881-.847,5.268,5.268,0,0,0-1.441.209,6.794,6.794,0,0,0-1.133.407l-.374.2Zm24.222-1.364.638-.066.044,1.3a31.58,31.58,0,0,1-4.29.352,3.867,3.867,0,0,1-3.366-1.375,7.385,7.385,0,0,1-.99-4.279q0-5.786,4.6-5.786a4.206,4.206,0,0,1,3.322,1.243,5.789,5.789,0,0,1,1.1,3.905l-.088,1.254h-7.26a4.511,4.511,0,0,0,.66,2.706,2.7,2.7,0,0,0,2.3.88Q112.761,28.768,114.455,28.636Zm-.594-4.774a4.776,4.776,0,0,0-.649-2.86,2.509,2.509,0,0,0-2.112-.836,2.707,2.707,0,0,0-2.2.88,4.442,4.442,0,0,0-.759,2.816ZM119.735,30h-1.65V19h1.628v.77a7.034,7.034,0,0,1,3.41-.99q2.2,0,2.959,1.188a8.39,8.39,0,0,1,.759,4.224V30h-1.628V24.236a7.431,7.431,0,0,0-.451-3.135,1.979,1.979,0,0,0-1.925-.847,5.748,5.748,0,0,0-1.485.209,7.416,7.416,0,0,0-1.2.407l-.418.2Zm15.8-9.57h-3.5v5.258a7.1,7.1,0,0,0,.275,2.486q.275.594,1.309.594l1.958-.132.11,1.364a15.048,15.048,0,0,1-2.244.242,2.876,2.876,0,0,1-2.376-.836,5.452,5.452,0,0,1-.66-3.19V20.43h-1.562V19h1.562V15.634h1.628V19h3.5Z" transform="translate(1139 4210)" fill="#5a5b5b"/>
    <path id="Path_426" data-name="Path 426" d="M11.184,0H2.04V-16.608H3.888V-1.656h7.3Zm10.08-1.488.7-.072.048,1.416a34.451,34.451,0,0,1-4.68.384,4.219,4.219,0,0,1-3.672-1.5,8.056,8.056,0,0,1-1.08-4.668q0-6.312,5.016-6.312a4.589,4.589,0,0,1,3.624,1.356,6.315,6.315,0,0,1,1.2,4.26l-.1,1.368H14.4A4.921,4.921,0,0,0,15.12-2.3a2.943,2.943,0,0,0,2.508.96Q19.416-1.344,21.264-1.488ZM20.616-6.7a5.21,5.21,0,0,0-.708-3.12,2.737,2.737,0,0,0-2.3-.912,2.953,2.953,0,0,0-2.4.96A4.846,4.846,0,0,0,14.376-6.7ZM33.7-8.376v6.144q.072.888,1.392,1.056L35.016.24A3.876,3.876,0,0,1,32.16-.72a10.56,10.56,0,0,1-4.32.96A3.26,3.26,0,0,1,25.32-.7a3.823,3.823,0,0,1-.864-2.688,3.373,3.373,0,0,1,.888-2.58,4.708,4.708,0,0,1,2.784-1.02l3.768-.36V-8.376a2.415,2.415,0,0,0-.528-1.752,1.946,1.946,0,0,0-1.44-.528,34.509,34.509,0,0,0-3.984.24l-.744.072-.072-1.368a24.187,24.187,0,0,1,4.68-.528,4.028,4.028,0,0,1,2.964.936A4.03,4.03,0,0,1,33.7-8.376ZM26.3-3.48q0,2.208,1.824,2.208a9.71,9.71,0,0,0,3.216-.552l.552-.192v-3.96l-3.552.336a2.311,2.311,0,0,0-1.56.624A2.209,2.209,0,0,0,26.3-3.48ZM37.248,0V-12h1.776v1.632a11.688,11.688,0,0,1,4.392-1.9v1.824a12.929,12.929,0,0,0-2.1.6,13.917,13.917,0,0,0-1.668.72l-.6.312V0Zm10.1,0h-1.8V-12h1.776v.84a7.673,7.673,0,0,1,3.72-1.08q2.4,0,3.228,1.3A9.153,9.153,0,0,1,55.1-6.336V0H53.328V-6.288a8.107,8.107,0,0,0-.492-3.42,2.159,2.159,0,0,0-2.1-.924,6.27,6.27,0,0,0-1.62.228,8.09,8.09,0,0,0-1.308.444l-.456.216ZM58.44,0V-12h1.8V0Zm0-14.712V-16.8h1.8v2.088ZM65.5,0H63.7V-12h1.776v.84a7.673,7.673,0,0,1,3.72-1.08q2.4,0,3.228,1.3a9.153,9.153,0,0,1,.828,4.608V0H71.472V-6.288a8.107,8.107,0,0,0-.492-3.42,2.159,2.159,0,0,0-2.1-.924,6.27,6.27,0,0,0-1.62.228,8.09,8.09,0,0,0-1.308.444l-.456.216Zm15.72,5.64a7.512,7.512,0,0,1-4.02-.78,3.206,3.206,0,0,1-1.14-2.844,2.709,2.709,0,0,1,.432-1.6A6.705,6.705,0,0,1,77.952-.96a1.859,1.859,0,0,1-.672-1.656,4.126,4.126,0,0,1,.6-1.512l.216-.384q-1.9-.864-1.9-3.624,0-4.1,4.488-4.1a9,9,0,0,1,2.136.24l.36.072,3.552-.1v1.536l-2.28-.048a3.263,3.263,0,0,1,.792,2.4A3.851,3.851,0,0,1,84.132-4.98a5.578,5.578,0,0,1-3.516.9,6.6,6.6,0,0,1-1.176-.1,5.035,5.035,0,0,0-.432,1.368q0,.744.456.924a11.4,11.4,0,0,0,2.76.18,5.839,5.839,0,0,1,3.312.72,3.26,3.26,0,0,1,1.008,2.808Q86.544,5.64,81.216,5.64ZM77.832,1.872a2,2,0,0,0,.708,1.764,4.909,4.909,0,0,0,2.616.492A5.305,5.305,0,0,0,83.892,3.6a1.93,1.93,0,0,0,.828-1.764q0-1.236-.6-1.6a5.136,5.136,0,0,0-2.352-.36L79.176-.24A4.243,4.243,0,0,0,78.108.768,2.017,2.017,0,0,0,77.832,1.872ZM78-8.136a2.682,2.682,0,0,0,.636,2.016,3.008,3.008,0,0,0,2.1.6,2.96,2.96,0,0,0,2.088-.6,2.734,2.734,0,0,0,.624-2.028,2.734,2.734,0,0,0-.624-2.028,2.96,2.96,0,0,0-2.088-.6,2.967,2.967,0,0,0-2.1.612A2.726,2.726,0,0,0,78-8.136ZM8.112,28.408H3.888V34H2.04V17.392H8.112a5.4,5.4,0,0,1,4.008,1.32,5.551,5.551,0,0,1,1.3,4.032Q13.416,28.408,8.112,28.408ZM3.888,26.776h4.2q3.432,0,3.432-4.032a4.109,4.109,0,0,0-.816-2.82,3.374,3.374,0,0,0-2.616-.9h-4.2Zm20.424-1.152v6.144q.072.888,1.392,1.056l-.072,1.416a3.876,3.876,0,0,1-2.856-.96,10.56,10.56,0,0,1-4.32.96,3.26,3.26,0,0,1-2.52-.936,3.823,3.823,0,0,1-.864-2.688,3.373,3.373,0,0,1,.888-2.58,4.708,4.708,0,0,1,2.784-1.02l3.768-.36V25.624a2.415,2.415,0,0,0-.528-1.752,1.946,1.946,0,0,0-1.44-.528,34.509,34.509,0,0,0-3.984.24l-.744.072-.072-1.368a24.187,24.187,0,0,1,4.68-.528,4.028,4.028,0,0,1,2.964.936A4.03,4.03,0,0,1,24.312,25.624Zm-7.392,4.9q0,2.208,1.824,2.208a9.71,9.71,0,0,0,3.216-.552l.552-.192v-3.96l-3.552.336a2.311,2.311,0,0,0-1.56.624A2.209,2.209,0,0,0,16.92,30.52Zm17.16-6.96H30.264V29.3a7.746,7.746,0,0,0,.3,2.712q.3.648,1.428.648l2.136-.144L34.248,34a16.416,16.416,0,0,1-2.448.264,3.138,3.138,0,0,1-2.592-.912,5.948,5.948,0,0,1-.72-3.48V23.56h-1.7V22h1.7V18.328h1.776V22H34.08ZM38.088,34h-1.8V16.768h1.8v5.9a8.6,8.6,0,0,1,3.7-.912q2.4,0,3.228,1.3a9.153,9.153,0,0,1,.828,4.608V34h-1.8V27.712a8.107,8.107,0,0,0-.492-3.42,2.133,2.133,0,0,0-2.076-.924,7.993,7.993,0,0,0-2.928.552l-.456.168Zm9.984-12h1.8L52.3,32.44h.384l2.856-10.2h1.872l2.856,10.2h.408L63.072,22h1.8L62.016,34h-3l-2.544-9.384L53.928,34h-3ZM75.7,25.624v6.144q.072.888,1.392,1.056l-.072,1.416a3.876,3.876,0,0,1-2.856-.96,10.56,10.56,0,0,1-4.32.96,3.26,3.26,0,0,1-2.52-.936,3.823,3.823,0,0,1-.864-2.688,3.372,3.372,0,0,1,.888-2.58,4.708,4.708,0,0,1,2.784-1.02l3.768-.36V25.624a2.415,2.415,0,0,0-.528-1.752,1.946,1.946,0,0,0-1.44-.528,34.51,34.51,0,0,0-3.984.24l-.744.072-.072-1.368a24.187,24.187,0,0,1,4.68-.528,4.028,4.028,0,0,1,2.964.936A4.03,4.03,0,0,1,75.7,25.624ZM68.3,30.52q0,2.208,1.824,2.208a9.71,9.71,0,0,0,3.216-.552l.552-.192v-3.96l-3.552.336a2.311,2.311,0,0,0-1.56.624A2.209,2.209,0,0,0,68.3,30.52ZM78,22h1.8l3,10.44h.792L86.616,22h1.8L83.424,39.328h-1.8L83.184,34H81.408Z" transform="translate(1374 4054)" fill="#5a5b5b"/>
  </g>
</svg>
