<svg xmlns="http://www.w3.org/2000/svg" width="13.239" height="7.29" viewBox="0 0 13.239 7.29">
  <g id="Chevron_Right" transform="translate(-0.001 61.403) rotate(-90)" fill="#707070">
    <path d="M54.307,7.093l5.954,5.952a.669.669,0,1,0,.946-.944l-5.482-5.48,5.481-5.48A.669.669,0,0,0,60.26.2L54.306,6.148A.675.675,0,0,0,54.307,7.093Z" stroke="none"/>
    <path d="M 60.73356246948242 13.24065780639648 C 60.56234741210938 13.24065780639648 60.39122009277344 13.17551040649414 60.26059341430664 13.04521560668945 L 54.30675506591797 7.093365669250488 C 54.04885482788086 6.836065769195557 54.04885482788086 6.406155586242676 54.30609512329102 6.148255825042725 L 60.25993347167969 0.1964557766914368 C 60.39056015014648 0.06616078317165375 60.56185531616211 0.001013281056657434 60.73315048217773 0.001013281056657434 C 60.90444564819336 0.001013281056657434 61.07574081420898 0.06616078317165375 61.20636367797852 0.1964557766914368 C 61.46761322021484 0.4577057957649231 61.46761322021484 0.8809657692909241 61.20636367797852 1.141565799713135 L 55.72543334960938 6.621165752410889 L 61.20702362060547 12.1007661819458 C 61.4682731628418 12.36136531829834 61.4682731628418 12.78462600708008 61.20702362060547 13.04521560668945 C 61.07606887817383 13.17551040649414 60.9047737121582 13.24065780639648 60.73356246948242 13.24065780639648 Z" stroke="none" fill="#707070"/>
  </g>
</svg>
