<svg id="shopping-bag" xmlns="http://www.w3.org/2000/svg" width="61.261" height="61.261" viewBox="0 0 61.261 61.261">
  <path id="Path_829" data-name="Path 829" d="M88.892,17.744a2.657,2.657,0,0,0,2.654-2.653V10.333a4.883,4.883,0,1,1,9.761,0V15.09a2.654,2.654,0,1,0,5.307,0V10.476A10.451,10.451,0,0,0,96.44,0h-.028A10.451,10.451,0,0,0,86.238,10.476v4.615A2.657,2.657,0,0,0,88.892,17.744Zm-.859-7.268a8.4,8.4,0,1,1,16.786,0v4.615a.859.859,0,0,1-1.718,0V10.333a6.854,6.854,0,0,0-6.632-6.82l-.087,0v0a6.854,6.854,0,0,0-6.632,6.82V15.09a.859.859,0,1,1-1.718,0Zm0,0" transform="translate(-75.92)" fill="#b01116"/>
  <path id="Path_830" data-name="Path 830" d="M291.259,330.656a2.279,2.279,0,0,0-2.276,2.276v1.683a3.759,3.759,0,0,1-3.845,3.754,3.822,3.822,0,0,1-3.664-3.841v-1.6a2.276,2.276,0,0,0-4.552,0v1.683a8.316,8.316,0,0,0,8.305,8.307h.13a8.4,8.4,0,0,0,8.178-8.419v-1.571A2.28,2.28,0,0,0,291.259,330.656Zm.481,3.847a6.6,6.6,0,0,1-6.411,6.624,6.521,6.521,0,0,1-6.614-6.512v-1.683a.481.481,0,0,1,.963,0v1.6a5.628,5.628,0,0,0,5.416,5.635,5.555,5.555,0,0,0,5.683-5.548v-1.683a.481.481,0,0,1,.963,0Zm0,0" transform="translate(-243.788 -291.093)" fill="#b01116"/>
  <path id="Path_831" data-name="Path 831" d="M217.781,302.641h-34.53L180.7,325.024l2.379,2.666h34.882l2.379-2.666Zm-.628,23.255H183.879l-1.309-1.467,2.282-19.993h31.327l2.282,19.993Zm0,0" transform="translate(-159.075 -266.429)" fill="#b01116"/>
  <path id="Path_832" data-name="Path 832" d="M91.515,203.437h.764v-1.795H76.448l-.51-1.912H71.32v1.795h3.239l3.134,11.731h.4a2.66,2.66,0,1,0,5.03,0h2.433v-1.795H79.071l-.184-.69H89.552Zm-10.91,9.82a.865.865,0,1,1-.865.865A.866.866,0,0,1,80.6,213.257Zm-.26-4.28H78.412l-.5-1.872h2.433Zm0-3.667H77.431l-.5-1.872h3.415Zm4.1,3.667H82.139V207.1h2.308Zm0-3.667H82.139v-1.872h2.308Zm3.727,3.667H86.242V207.1h2.433Zm-1.932-3.667v-1.872h3.415l-.5,1.872Zm0,0" transform="translate(-62.787 -175.833)" fill="#b01116"/>
  <path id="Path_833" data-name="Path 833" d="M3.4,132.59l-1.573-1.636.016-.407H15.02v-1.795H1.911L3.636,85.107H8.823V83.313H1.911L0,131.647l.265.275L2.1,133.834l.741.772H21.194v-1.795H3.608Zm0,0" transform="translate(0 -73.344)" fill="#b01116"/>
  <path id="Path_834" data-name="Path 834" d="M143.094,83.313h6.77v1.795h-6.77Zm0,0" transform="translate(-125.972 -73.344)" fill="#b01116"/>
  <path id="Path_835" data-name="Path 835" d="M275.42,108.095l1.794-.071-.976-24.711h-7.207v1.795h5.482Zm0,0" transform="translate(-236.841 -73.344)" fill="#b01116"/>
  <path id="Path_836" data-name="Path 836" d="M289.949,136.766l-.545-13.783,1.793-.071.545,13.783Zm-.592-14.979-.071-1.794,1.793-.071.071,1.793Zm-.118-2.989L289.168,117l1.793-.071.071,1.793Zm0,0" transform="translate(-254.569 -102.942)" fill="#b01116"/>
  <path id="Path_837" data-name="Path 837" d="M455.374,352.416l-1.27-11.124,1.784-.2,1.269,11.124ZM453.968,340.1l-.2-1.783,1.783-.2.2,1.783Zm-.339-2.972-.2-1.783,1.783-.2.2,1.784Zm0,0" transform="translate(-399.173 -295.044)" fill="#b01116"/>
</svg>
