<svg xmlns="http://www.w3.org/2000/svg" width="64.4" height="64.4" viewBox="0 0 64.4 64.4">
  <g id="business-and-finance" transform="translate(0.2 0.2)">
    <path id="Path_884" data-name="Path 884" d="M40.258,198.194v-2.065a4.129,4.129,0,0,0-8.258,0v2.065a4.129,4.129,0,0,0,8.258,0Zm-2.065,0a2.065,2.065,0,1,1-4.129,0v-2.065a2.065,2.065,0,0,1,4.129,0Zm0,0" transform="translate(-27.871 -167.226)" fill="#b01116" stroke="#fbf2f3" stroke-width="0.4"/>
    <path id="Path_885" data-name="Path 885" d="M408.258,198.194v-2.065a4.129,4.129,0,1,0-8.258,0v2.065a4.129,4.129,0,1,0,8.258,0Zm-2.064,0a2.065,2.065,0,1,1-4.129,0v-2.065a2.065,2.065,0,0,1,4.129,0Zm0,0" transform="translate(-348.387 -167.226)" fill="#b01116" stroke="#fbf2f3" stroke-width="0.4"/>
    <path id="Path_886" data-name="Path 886" d="M58.839,35.1H52.645a5.167,5.167,0,0,0-5.161,5.161v3.1a1.031,1.031,0,0,0,1.032,1.032h2.065v5.161H38.1a6.2,6.2,0,0,0-3-4.323V33.032h5.161A1.031,1.031,0,0,0,41.29,32V26.839h7.226a3.1,3.1,0,0,0,3.1-3.1V3.1a3.1,3.1,0,0,0-3.1-3.1H36.129a3.1,3.1,0,0,0-3.1,3.1V23.742a3.1,3.1,0,0,0,3.1,3.1h3.1v4.129H34.065A1.031,1.031,0,0,0,33.032,32V44.48a5.791,5.791,0,0,0-2.065,0V32a1.031,1.031,0,0,0-1.032-1.032H24.774V22.71h3.1A1.031,1.031,0,0,0,28.9,21.677V10.323h1.032A1.031,1.031,0,0,0,30.968,9.29V5.161a1.031,1.031,0,0,0-1.032-1.032H24.584a3.054,3.054,0,0,0,.19-1.032A3.084,3.084,0,0,0,19.613.8a3.075,3.075,0,0,0-4.971,3.324H9.29A1.031,1.031,0,0,0,8.258,5.161V9.29A1.031,1.031,0,0,0,9.29,10.323h1.032V21.677a1.031,1.031,0,0,0,1.032,1.032H22.71V32a1.031,1.031,0,0,0,1.032,1.032H28.9V45.225a6.2,6.2,0,0,0-3,4.323H13.419V44.387h2.065a1.031,1.031,0,0,0,1.032-1.032v-3.1A5.167,5.167,0,0,0,11.355,35.1H5.161A5.167,5.167,0,0,0,0,40.258v3.1a1.031,1.031,0,0,0,1.032,1.032H3.1V62.968A1.031,1.031,0,0,0,4.129,64h8.258a1.031,1.031,0,0,0,1.032-1.032V51.613H25.9a6.186,6.186,0,0,0,12.2,0h12.48V62.968A1.031,1.031,0,0,0,51.613,64h8.258A1.031,1.031,0,0,0,60.9,62.968V44.387h2.065A1.031,1.031,0,0,0,64,43.355v-3.1A5.167,5.167,0,0,0,58.839,35.1ZM35.1,23.742V3.1a1.033,1.033,0,0,1,1.032-1.032H48.516A1.033,1.033,0,0,1,49.548,3.1V23.742a1.033,1.033,0,0,1-1.032,1.032H36.129A1.033,1.033,0,0,1,35.1,23.742ZM21.677,2.065a1.032,1.032,0,1,1,0,2.065H20.645V3.1A1.033,1.033,0,0,1,21.677,2.065ZM16.516,3.1a1.032,1.032,0,0,1,2.065,0V4.129H17.548A1.033,1.033,0,0,1,16.516,3.1Zm-6.194,3.1H28.9V8.258H10.323Zm2.065,4.129H26.839V20.645H12.387ZM5.161,43.683l3.1-1.161,3.1,1.161v3.8H5.161Zm-2.253-1.36H2.065V40.258a3.1,3.1,0,0,1,3.1-3.1h6.194a3.1,3.1,0,0,1,3.1,3.1v2.065h-.844l-2.408-.9.519-.2-.726-1.933L8.258,40.317,5.525,39.292,4.8,41.225l.519.2ZM9.29,61.935V51.613H7.226V61.935H5.161V49.548h6.194V61.935ZM32,54.71a4.129,4.129,0,1,1,4.129-4.129A4.133,4.133,0,0,1,32,54.71ZM52.645,43.683l3.1-1.161,3.1,1.161v3.8H52.645Zm4.129,18.253V51.613H54.71V61.935H52.645V49.548h6.194V61.935Zm5.161-19.613h-.844l-2.408-.9.519-.2-.726-1.933-2.734,1.026-2.733-1.025-.726,1.933.519.2-2.409.9h-.844V40.258a3.1,3.1,0,0,1,3.1-3.1h6.194a3.1,3.1,0,0,1,3.1,3.1Zm0,0" fill="#b01116" stroke="#fbf2f3" stroke-width="0.4"/>
    <path id="Path_887" data-name="Path 887" d="M312,168h4.129v2.064H312Zm0,0" transform="translate(-271.742 -146.323)" fill="#b01116" stroke="#fbf2f3" stroke-width="0.4"/>
    <path id="Path_888" data-name="Path 888" d="M292.387,25.032A1.031,1.031,0,0,0,291.355,24H281.032A1.031,1.031,0,0,0,280,25.032V40.516a1.031,1.031,0,0,0,1.032,1.032h10.323a1.031,1.031,0,0,0,1.032-1.032Zm-2.065,14.452h-8.258V26.065h8.258Zm0,0" transform="translate(-243.871 -20.903)" fill="#b01116" stroke="#fbf2f3" stroke-width="0.4"/>
    <path id="Path_889" data-name="Path 889" d="M3.1,158.194A3.1,3.1,0,1,0,0,155.1,3.1,3.1,0,0,0,3.1,158.194Zm0-4.129A1.032,1.032,0,1,1,2.065,155.1,1.033,1.033,0,0,1,3.1,154.065Zm0,0" transform="translate(0 -132.387)" fill="#b01116" stroke="#fbf2f3" stroke-width="0.4"/>
    <path id="Path_890" data-name="Path 890" d="M4.129,88.258A4.129,4.129,0,1,0,0,84.129,4.133,4.133,0,0,0,4.129,88.258Zm0-6.194a2.065,2.065,0,1,1-2.065,2.065A2.067,2.067,0,0,1,4.129,82.065Zm0,0" transform="translate(0 -69.677)" fill="#b01116" stroke="#fbf2f3" stroke-width="0.4"/>
    <path id="Path_891" data-name="Path 891" d="M451.1,152a3.1,3.1,0,1,0,3.1,3.1A3.1,3.1,0,0,0,451.1,152Zm0,4.129a1.032,1.032,0,1,1,1.032-1.032A1.033,1.033,0,0,1,451.1,156.129Zm0,0" transform="translate(-390.194 -132.387)" fill="#b01116" stroke="#fbf2f3" stroke-width="0.4"/>
    <path id="Path_892" data-name="Path 892" d="M436.129,88.258A4.129,4.129,0,1,0,432,84.129,4.133,4.133,0,0,0,436.129,88.258Zm0-6.194a2.065,2.065,0,1,1-2.065,2.065A2.067,2.067,0,0,1,436.129,82.065Zm0,0" transform="translate(-376.258 -69.677)" fill="#b01116" stroke="#fbf2f3" stroke-width="0.4"/>
  </g>
</svg>
