<svg id="achievement" xmlns="http://www.w3.org/2000/svg" width="61.129" height="60.435" viewBox="0 0 61.129 60.435">
  <path id="Path_894" data-name="Path 894" d="M56.3,145.92V124.85H54.5v21.07H39.105V117.153H54.5v4.832h1.8v-6.631H39.105V99.117H20.114v27.7H13.372v1.8h6.742V145.92H4.72V128.615h5.787v-1.8H2.921v19.1H0v1.8H29.61v-1.8h-7.7v-45H37.307v45H32.475v1.8H61.129v-1.8Zm0,0" transform="translate(0 -87.283)" fill="#b01116"/>
  <path id="Path_895" data-name="Path 895" d="M214.233,3.442V9.868h1.8V3.442l2.286,2.286,1.271-1.272L215.132,0l-4.456,4.456,1.271,1.272Zm0,0" transform="translate(-185.522)" fill="#b01116"/>
  <path id="Path_896" data-name="Path 896" d="M358.233,67.442V81.509h1.8V67.442l2.285,2.286,1.272-1.272L359.132,64l-4.456,4.456,1.271,1.272Zm0,0" transform="translate(-312.33 -56.359)" fill="#b01116"/>
  <path id="Path_897" data-name="Path 897" d="M62.233,171.442v13.111h1.8V171.442l2.286,2.286,1.271-1.272L63.132,168l-4.456,4.456,1.271,1.272Zm0,0" transform="translate(-51.67 -147.942)" fill="#b01116"/>
  <path id="Path_898" data-name="Path 898" d="M221.9,145.144v1.8h5.731v-1.8h-1.966V136.2l-4.049,1.35.569,1.706,1.682-.561v6.449Zm0,0" transform="translate(-195.158 -119.938)" fill="#b01116"/>
  <path id="Path_899" data-name="Path 899" d="M368.469,272.848v5.619h5.675v-1.8h-3.877v-2.022h3.821v-7.53h-5.619v3.765h1.8v-1.966h2.022v3.933Zm0,0" transform="translate(-324.476 -235.225)" fill="#b01116"/>
  <path id="Path_900" data-name="Path 900" d="M72.469,369.751v2.809h6.574v-9.439H72.469v2.809h1.8v-1.011h2.977v2.022H74.323v1.8h2.921v2.022H74.267v-1.011Zm0,0" transform="translate(-63.816 -319.767)" fill="#b01116"/>
  <path id="Path_901" data-name="Path 901" d="M424,459.121h1.91v1.8H424Zm0,0" transform="translate(-373.377 -404.305)" fill="#b01116"/>
  <path id="Path_902" data-name="Path 902" d="M392,459.121h1.91v1.8H392Zm0,0" transform="translate(-345.198 -404.305)" fill="#b01116"/>
  <path id="Path_903" data-name="Path 903" d="M280,459.121h1.91v1.8H280Zm0,0" transform="translate(-246.57 -404.305)" fill="#b01116"/>
  <path id="Path_904" data-name="Path 904" d="M248,459.121h1.91v1.8H248Zm0,0" transform="translate(-218.39 -404.305)" fill="#b01116"/>
  <path id="Path_905" data-name="Path 905" d="M136,459.121h1.91v1.8H136Zm0,0" transform="translate(-119.762 -404.305)" fill="#b01116"/>
  <path id="Path_906" data-name="Path 906" d="M104,459.121h1.91v1.8H104Zm0,0" transform="translate(-91.583 -404.305)" fill="#b01116"/>
</svg>
