<svg xmlns="http://www.w3.org/2000/svg" xmlns:xlink="http://www.w3.org/1999/xlink" width="65" height="65" viewBox="0 0 65 65">
  <defs>
    <clipPath id="clip-path">
      <rect id="Rectangle_2308" data-name="Rectangle 2308" width="65" height="65" transform="translate(844 797)" fill="none" stroke="#707070" stroke-width="1"/>
    </clipPath>
    <clipPath id="clip-path-2">
      <rect id="Rectangle_2289" data-name="Rectangle 2289" width="58" height="58" transform="translate(694 1177)" fill="#fff" stroke="#707070" stroke-width="1" opacity="0.4"/>
    </clipPath>
  </defs>
  <g id="Mask_Group_18" data-name="Mask Group 18" transform="translate(-844 -797)" clip-path="url(#clip-path)">
    <g id="face2face_discussion" transform="translate(154 -376)" clip-path="url(#clip-path-2)">
      <g id="Group_13683" data-name="Group 13683" transform="translate(695.706 1177)">
        <g id="_002-discussion" data-name="002-discussion">
          <path id="Path_755" data-name="Path 755" d="M55.121,261.85c0-.01,0-.02,0-.03l-.6-7.811a2.781,2.781,0,0,0-1.333-2.171l-.136-.082-.356-2.611a4.172,4.172,0,0,0,1.1-1.407c.009-.019.018-.038.026-.057a4.123,4.123,0,0,0,.378-1.727v-3.145a3.237,3.237,0,0,0-3.234-3.233H49.128a3.239,3.239,0,0,0-3.136,2.446.863.863,0,0,0-.038.082.846.846,0,0,0-.049.446c-.007.085-.011.172-.011.259v3.145a4.149,4.149,0,0,0,1.9,3.487l-.236,2.353a.845.845,0,0,0-.134.127l-5.135,6.148-3.557-.013a.792.792,0,0,0-.193.022,3.737,3.737,0,0,0-1.647.845v-1.162a5.377,5.377,0,0,0-3.661-5.1l-1.469-.494a1.537,1.537,0,0,1-.627-.4,1.554,1.554,0,0,1-.432-1.081v-1.582l.5-.3a2.977,2.977,0,0,0,1.419-2.527V241.4a3.282,3.282,0,0,0-3.277-3.279h-3a3.282,3.282,0,0,0-3.276,3.279v4.879a2.976,2.976,0,0,0,1.419,2.527l.5.3v1.581a1.571,1.571,0,0,1-.5,1.144,1.53,1.53,0,0,1-.563.334l-1.467.493a5.377,5.377,0,0,0-3.661,5.1v1.227a3.734,3.734,0,0,0-1.718-.91.811.811,0,0,0-.193-.022l-3.557.012-5.135-6.148a.829.829,0,0,0-.134-.128l-.236-2.353a4.149,4.149,0,0,0,1.9-3.487v-3.145c0-.088,0-.173-.012-.259a.848.848,0,0,0-.048-.446.81.81,0,0,0-.038-.082,3.239,3.239,0,0,0-3.136-2.446H4.66a3.237,3.237,0,0,0-3.234,3.233v3.145a4.121,4.121,0,0,0,.378,1.727c.008.019.017.039.026.058a4.175,4.175,0,0,0,1.1,1.406l-.356,2.612-.136.082A2.779,2.779,0,0,0,1.1,254.006L.5,261.82c0,.01,0,.02,0,.03s0,.023,0,.035v2.161a5.1,5.1,0,0,0,5.1,5.1H50.023a5.1,5.1,0,0,0,5.1-5.1v-2.161C55.123,261.872,55.122,261.861,55.121,261.85Zm-5.993-20.576h1.836a1.536,1.536,0,0,1,1.535,1.534v3.143l-.884-.62v-.794a1.62,1.62,0,0,0-1.03-1.515l-2.723-1.077A1.533,1.533,0,0,1,49.128,241.273Zm-1.535,2.391,2.322.919v.782a1.631,1.631,0,0,0,.693,1.334l1.263.886a2.451,2.451,0,0,1-4.279-1.634Zm2.453,6.438a4.138,4.138,0,0,0,1.048-.135l.137,1a4.593,4.593,0,0,0-1.88.01l.092-.923A4.171,4.171,0,0,0,50.046,250.1Zm-11.21,9.651,3.85.014h0a.848.848,0,0,0,.652-.3l5.321-6.371A2.91,2.91,0,0,1,51.827,253l.484.292a1.082,1.082,0,0,1,.518.845l.529,6.9H49.218v-2.974l.511-.537a.85.85,0,1,0-1.23-1.172l-4.46,4.683H37.461A2.02,2.02,0,0,1,38.836,259.753Zm-6.144-5.483a3.679,3.679,0,0,1,2.5,3.489v3.276H29.188l1.155-1.164a.849.849,0,0,0,.208-.852l-1.673-5.346a8.436,8.436,0,0,0,1.471-.349,3.25,3.25,0,0,0,.878.453Zm-6.006-4.164a2.936,2.936,0,0,0,2.322,0v.581a3.269,3.269,0,0,0,.223,1.189,6.67,6.67,0,0,1-2.8.07,3.267,3.267,0,0,0,.254-1.259Zm1.107,5.792.982,3.139-.993,1-.883-.984Zm-1.448-16.082h3a1.581,1.581,0,0,1,1.578,1.58v1.1l-4.1-1.319a.853.853,0,0,0-.654.055l-1.4.733V241.4A1.581,1.581,0,0,1,26.345,239.816Zm-1.577,4.066,1.875-.978,4.284,1.378v1.994a1.267,1.267,0,0,1-.6,1.076L28.5,248.462a1.252,1.252,0,0,1-1.306,0l-1.823-1.111a1.267,1.267,0,0,1-.6-1.076ZM23,254.27l1.464-.493a3.211,3.211,0,0,0,.768-.375,8.46,8.46,0,0,0,1.416.3l-1.512,5.342a.848.848,0,0,0,.185.8l1.072,1.195H20.5v-3.276A3.677,3.677,0,0,1,23,254.27ZM5.577,248.4a2.447,2.447,0,0,1-1.826-.817l1.264-.886a1.632,1.632,0,0,0,.693-1.334v-.782l2.321-.919v2.287A2.454,2.454,0,0,1,5.577,248.4Zm-.918-7.13H6.5a1.534,1.534,0,0,1,1.267.67l-2.723,1.077a1.62,1.62,0,0,0-1.03,1.515v.794l-.884.62v-3.143A1.536,1.536,0,0,1,4.66,241.273Zm.918,8.829a4.165,4.165,0,0,0,.6-.044l.093.923a4.591,4.591,0,0,0-1.88-.009l.137-1A4.157,4.157,0,0,0,5.577,250.1ZM2.8,254.134a1.08,1.08,0,0,1,.518-.843L3.8,253a2.911,2.911,0,0,1,3.164.092l5.321,6.371a.85.85,0,0,0,.652.3h0l3.85-.014a2.019,2.019,0,0,1,1.375,1.281H11.585l-4.46-4.683a.85.85,0,1,0-1.23,1.172l.511.537v2.974H2.267Zm50.628,9.911a3.4,3.4,0,0,1-3.4,3.4H5.6a3.4,3.4,0,0,1-3.4-3.4v-1.311H6.406v.208a3.425,3.425,0,0,0,.931,2.352.85.85,0,1,0,1.239-1.164,1.728,1.728,0,0,1-.471-1.188v-3.1l2.275,2.389v.407A3.324,3.324,0,0,0,13.7,265.96h3.579a.85.85,0,0,0,0-1.7H13.7a1.622,1.622,0,0,1-1.617-1.517h7.043a.871.871,0,0,0,.123-.01H36.374a.866.866,0,0,0,.123.01h7.216a1.622,1.622,0,0,1-1.617,1.517H20.916a.85.85,0,0,0,0,1.7H42.1a3.324,3.324,0,0,0,3.32-3.319v-.552c0-.011,0-.023,0-.034l2.1-2.209v3.1a1.728,1.728,0,0,1-.47,1.188.85.85,0,0,0,1.239,1.164,3.424,3.424,0,0,0,.931-2.352v-.208h4.206Zm0,0" transform="translate(-0.5 -211.143)" fill="#b01116"/>
          <path id="Path_756" data-name="Path 756" d="M11.1,25.256h.142a3.609,3.609,0,0,0,6.528,0h12.2a2.425,2.425,0,0,0,2.288-1.631,4.3,4.3,0,0,0,5.549-.4,2.425,2.425,0,0,0,2.389,2.034h12.2a3.609,3.609,0,0,0,6.527,0h.142a2.426,2.426,0,0,0,2.423-2.423V9.482a2.426,2.426,0,0,0-2.423-2.423H52.168a.85.85,0,1,0,0,1.7h6.887a.725.725,0,0,1,.724.723V22.834a.724.724,0,0,1-.724.723H58.81a1.536,1.536,0,0,0-1.411.922,1.91,1.91,0,0,1-3.5,0,1.537,1.537,0,0,0-1.411-.921h-12.3a.724.724,0,0,1-.724-.723v-.975h7.151a2.826,2.826,0,0,0,2.823-2.823V2.823A2.826,2.826,0,0,0,46.615,0H22.958a2.826,2.826,0,0,0-2.824,2.823V7.059H11.1A2.426,2.426,0,0,0,8.672,9.482v1.206a.85.85,0,0,0,1.7,0V9.482a.725.725,0,0,1,.724-.723h9.039V19.036a2.826,2.826,0,0,0,2.824,2.823h7.728v.975a.724.724,0,0,1-.724.723h-12.3a1.538,1.538,0,0,0-1.412.922,1.909,1.909,0,0,1-3.5,0,1.537,1.537,0,0,0-1.411-.921H11.1a.724.724,0,0,1-.724-.723V14.265a.85.85,0,0,0-1.7,0v8.569A2.426,2.426,0,0,0,11.1,25.256Zm10.738-6.22V2.823A1.125,1.125,0,0,1,22.958,1.7H46.615a1.125,1.125,0,0,1,1.124,1.124V19.036a1.125,1.125,0,0,1-1.124,1.124H38.751a1.717,1.717,0,0,0-.291.026l-.024,0a1.708,1.708,0,0,0-1.256,1,2.61,2.61,0,0,1-4.786,0,1.711,1.711,0,0,0-1.572-1.026H22.958A1.125,1.125,0,0,1,21.833,19.036Zm0,0" transform="translate(-7.746)" fill="#b01116"/>
          <path id="Path_757" data-name="Path 757" d="M149.4,44.453H167.78a.85.85,0,0,0,0-1.7H149.4a.85.85,0,0,0,0,1.7Zm0,0" transform="translate(-131.783 -37.911)" fill="#b01116"/>
          <path id="Path_758" data-name="Path 758" d="M149.4,82.988H167.78a.85.85,0,0,0,0-1.7H149.4a.85.85,0,0,0,0,1.7Zm0,0" transform="translate(-131.783 -72.081)" fill="#b01116"/>
          <path id="Path_759" data-name="Path 759" d="M160.17,120.678a.85.85,0,0,0-.85-.85H149.4a.85.85,0,0,0,0,1.7h9.917A.85.85,0,0,0,160.17,120.678Zm0,0" transform="translate(-131.783 -106.254)" fill="#b01116"/>
        </g>
      </g>
    </g>
  </g>
</svg>
