<svg xmlns="http://www.w3.org/2000/svg" xmlns:xlink="http://www.w3.org/1999/xlink" width="65" height="65" viewBox="0 0 65 65">
  <defs>
    <clipPath id="clip-path">
      <rect id="Rectangle_2301" data-name="Rectangle 2301" width="65" height="65" transform="translate(1070 601)" fill="none" stroke="#707070" stroke-width="1"/>
    </clipPath>
    <clipPath id="clip-path-2">
      <rect id="Rectangle_2248" data-name="Rectangle 2248" width="59.018" height="59.018" transform="translate(400 1177)" fill="#fff" stroke="#707070" stroke-width="1" opacity="0.4"/>
    </clipPath>
  </defs>
  <g id="Mask_Group_12" data-name="Mask Group 12" transform="translate(-1070 -601)" clip-path="url(#clip-path)">
    <g id="online_courseware" transform="translate(672.999 -573)" clip-path="url(#clip-path-2)">
      <g id="_001-online" data-name="001-online" transform="translate(400 1177)">
        <g id="Group_13425" data-name="Group 13425" transform="translate(0 0)">
          <g id="Group_13424" data-name="Group 13424">
            <path id="Path_649" data-name="Path 649" d="M29.926,48.36A6.636,6.636,0,0,0,24.735,53l-2.217,7.392H59.345L57.128,53a6.635,6.635,0,0,0-5.191-4.64l-6.246-1.137v-.493a9.539,9.539,0,0,0,4.58-6.406A3.814,3.814,0,0,0,53.306,36.6v-9.4a5.97,5.97,0,0,0-4.264-5.728l-.476-.476a11.651,11.651,0,0,0-4.779-2.9V8.039a2.859,2.859,0,0,0-2.856-2.856H27.272a5.7,5.7,0,0,0-10.756,0H2.856A2.859,2.859,0,0,0,0,8.039V36.6a2.859,2.859,0,0,0,2.856,2.856H14.278v3.808h-1.9v1.9H31.413v-1.9h-1.9V39.452h.364a3.782,3.782,0,0,0,1.72.873,9.542,9.542,0,0,0,4.58,6.406v.493ZM50.45,38.235V34.958a1.886,1.886,0,0,1,0,3.277ZM27.6,9.943V7.087H40.932a.953.953,0,0,1,.952.952V17.68a11.81,11.81,0,0,0-1.606-.122,11.663,11.663,0,0,0-7.72,2.923l-.521-1.823a4.782,4.782,0,0,0-3.794-3.388L25.7,14.848v-.67A5.645,5.645,0,0,0,27.6,9.943Zm0,33.316H16.182V39.452H27.6Zm.952-13.98v2.558h-1.9v1.9h1.9V36.6a3.749,3.749,0,0,0,.135.952H2.856A.952.952,0,0,1,1.9,36.6V33.74H24.749v-1.9H1.9V8.039a.953.953,0,0,1,.952-.952H16.182V9.943a5.645,5.645,0,0,0,1.9,4.235v.67l-2.542.424a4.778,4.778,0,0,0-3.794,3.387l-1.59,5.563H29.721A11.618,11.618,0,0,0,28.557,29.279ZM12.685,22.317l.9-3.136a2.869,2.869,0,0,1,2.276-2.032l4.133-.688V13.256l-.378-.286a3.773,3.773,0,0,1-1.526-3.027V7.087a3.808,3.808,0,1,1,7.615,0V9.943a3.773,3.773,0,0,1-1.526,3.027l-.378.286v3.205l4.133.689a2.867,2.867,0,0,1,2.276,2.032l.833,2.91c-.058.074-.112.149-.168.225ZM31.413,38.234a1.886,1.886,0,0,1,0-3.277Zm0-6.4v1.087a3.741,3.741,0,0,0-.952.394V29.279A9.817,9.817,0,0,1,47.22,22.338l.84.84.257.064A4.069,4.069,0,0,1,51.4,27.194v6.124a3.741,3.741,0,0,0-.952-.394V31.837H47.431a8.281,8.281,0,0,1-6.592-3.295l-.756-1.011-1.892,1.892a8.186,8.186,0,0,1-5.827,2.413Zm1.9,6.663V33.7a10.069,10.069,0,0,0,6.221-2.928l.37-.37a10.2,10.2,0,0,0,7.524,3.341h1.116V38.5a7.615,7.615,0,0,1-15.23,0Zm4.839,9.1a9.49,9.49,0,0,0,5.551,0l-2.776,2.081Zm1.327,3.374-1.942,1.942-1.26-3.78.605-.109Zm5.5-1.947.605.109-1.26,3.78-1.942-1.942Zm-8.269,7.414,4.223-4.225,4.225,4.225,2.32-6.96,4.122.749A4.737,4.737,0,0,1,55.3,53.548l1.482,4.941H25.077l1.483-4.941a4.736,4.736,0,0,1,3.708-3.315l4.122-.749Z" transform="translate(0 -1.376)" fill="#b01116" stroke="#f5f5f5" stroke-width="0.2"/>
          </g>
        </g>
        <g id="Group_13427" data-name="Group 13427" transform="translate(30.461 7.615)">
          <g id="Group_13426" data-name="Group 13426">
            <rect id="Rectangle_2242" data-name="Rectangle 2242" width="1.904" height="1.904" fill="#b01116"/>
          </g>
        </g>
        <g id="Group_13429" data-name="Group 13429" transform="translate(34.268 7.615)">
          <g id="Group_13428" data-name="Group 13428">
            <rect id="Rectangle_2243" data-name="Rectangle 2243" width="1.904" height="1.904" fill="#b01116"/>
          </g>
        </g>
        <g id="Group_13431" data-name="Group 13431" transform="translate(38.076 7.615)">
          <g id="Group_13430" data-name="Group 13430">
            <rect id="Rectangle_2244" data-name="Rectangle 2244" width="1.904" height="1.904" fill="#b01116"/>
          </g>
        </g>
        <g id="Group_13433" data-name="Group 13433" transform="translate(3.808 26.653)">
          <g id="Group_13432" data-name="Group 13432">
            <rect id="Rectangle_2245" data-name="Rectangle 2245" width="1.904" height="1.904" fill="#b01116"/>
          </g>
        </g>
        <g id="Group_13435" data-name="Group 13435" transform="translate(7.615 26.653)">
          <g id="Group_13434" data-name="Group 13434">
            <rect id="Rectangle_2246" data-name="Rectangle 2246" width="1.904" height="1.904" fill="#b01116"/>
          </g>
        </g>
        <g id="Group_13437" data-name="Group 13437" transform="translate(11.423 26.653)">
          <g id="Group_13436" data-name="Group 13436">
            <rect id="Rectangle_2247" data-name="Rectangle 2247" width="1.904" height="1.904" fill="#b01116"/>
          </g>
        </g>
      </g>
    </g>
  </g>
</svg>
