<svg xmlns="http://www.w3.org/2000/svg" width="58.275" height="59.247" viewBox="0 0 58.275 59.247">
  <g id="effective_business" transform="translate(-1110 -3699.004)">
    <g id="Group_12981" data-name="Group 12981" transform="translate(1110 3707.745)">
      <g id="Group_12980" data-name="Group 12980">
        <path id="Path_290" data-name="Path 290" d="M58.2,83.734a6.8,6.8,0,1,0-8.361.762,4.855,4.855,0,0,0-2.13,4.015v6.8H43.822V90.454a6.8,6.8,0,0,0-5.993-6.746,6.8,6.8,0,1,0-9.382,0,6.8,6.8,0,0,0-5.993,6.746V95.31H18.569v-6.8a4.855,4.855,0,0,0-2.13-4.015,6.8,6.8,0,1,0-8.361-.762A4.852,4.852,0,0,0,4,88.511V103.08a4.865,4.865,0,0,0,3.885,4.758v14.667H9.828V107.937h8.741v13.6a.972.972,0,0,0,.971.971h5.828a.972.972,0,0,0,.971-.971v-15.54h5.828v14.569H28.281v1.943h9.713v-1.943H34.109V105.994h5.828v15.54a.972.972,0,0,0,.971.971h5.828a.972.972,0,0,0,.971-.971v-13.6h8.741v14.569h1.943V107.839a4.865,4.865,0,0,0,3.885-4.758V88.511A4.852,4.852,0,0,0,58.2,83.734ZM48.678,78.8a4.856,4.856,0,1,1,4.856,4.856A4.862,4.862,0,0,1,48.678,78.8Zm-20.4,0a4.856,4.856,0,1,1,4.856,4.856A4.862,4.862,0,0,1,28.281,78.8Zm6.369,6.8L33.138,89.63,31.626,85.6ZM24.4,90.454A4.862,4.862,0,0,1,29.253,85.6h.3l2.678,7.14a.971.971,0,0,0,1.819,0l2.677-7.14h.3a4.862,4.862,0,0,1,4.856,4.856V95.31H37.994a.972.972,0,0,0-.971.971v3.885h-7.77V96.281a.972.972,0,0,0-.971-.971H24.4ZM7.885,78.8a4.856,4.856,0,1,1,4.856,4.856A4.862,4.862,0,0,1,7.885,78.8ZM24.4,120.563H20.511v-13.6a.972.972,0,0,0-.971-.971H8.856a2.917,2.917,0,0,1-2.914-2.914V88.511A2.917,2.917,0,0,1,8.856,85.6h4.856a2.917,2.917,0,0,1,2.914,2.914v7.77a.972.972,0,0,0,.971.971H27.31v2.914h-13.6V91.425H11.77v9.713a.972.972,0,0,0,.971.971h8.741a2.917,2.917,0,0,1,2.914,2.914Zm15.649-16.511H26.23a4.85,4.85,0,0,0-.864-1.943H40.91A4.85,4.85,0,0,0,40.045,104.052Zm20.288-.971a2.917,2.917,0,0,1-2.914,2.914H46.735a.972.972,0,0,0-.971.971v13.6H41.879v-15.54a2.917,2.917,0,0,1,2.914-2.914h8.741a.972.972,0,0,0,.971-.971V91.425H52.563v8.741h-13.6V97.253h9.713a.972.972,0,0,0,.971-.971v-7.77A2.917,2.917,0,0,1,52.563,85.6h4.856a2.917,2.917,0,0,1,2.914,2.914Z" transform="translate(-4 -72)" fill="#b01116"/>
      </g>
    </g>
    <g id="Group_12985" data-name="Group 12985" transform="translate(1119.713 3699.004)">
      <g id="Group_12984" data-name="Group 12984">
        <path id="Path_291" data-name="Path 291" d="M98.569,0h-13.6A.972.972,0,0,0,84,.971V5.828a.972.972,0,0,0,.971.971h3.885V8.741a.971.971,0,0,0,1.554.777L94.036,6.8h4.533a.972.972,0,0,0,.971-.971V.971A.972.972,0,0,0,98.569,0ZM97.6,4.856H93.713a.971.971,0,0,0-.583.194L90.8,6.8V5.828a.972.972,0,0,0-.971-.971H85.943V1.943H97.6Z" transform="translate(-84)" fill="#b01116"/>
      </g>
    </g>
    <g id="Group_12987" data-name="Group 12987" transform="translate(1143.994 3701.918)">
      <g id="Group_12986" data-name="Group 12986">
        <rect id="Rectangle_2071" data-name="Rectangle 2071" width="1.943" height="1.943" fill="#b01116"/>
      </g>
    </g>
    <g id="Group_12989" data-name="Group 12989" transform="translate(1147.879 3701.918)">
      <g id="Group_12988" data-name="Group 12988">
        <rect id="Rectangle_2072" data-name="Rectangle 2072" width="1.943" height="1.943" fill="#b01116"/>
      </g>
    </g>
    <g id="Group_12991" data-name="Group 12991" transform="translate(1151.764 3701.918)">
      <g id="Group_12990" data-name="Group 12990">
        <rect id="Rectangle_2073" data-name="Rectangle 2073" width="1.943" height="1.943" fill="#b01116"/>
      </g>
    </g>
  </g>
</svg>
