<svg xmlns="http://www.w3.org/2000/svg" xmlns:xlink="http://www.w3.org/1999/xlink" width="65" height="65" viewBox="0 0 65 65">
  <defs>
    <clipPath id="clip-path">
      <rect id="Rectangle_2307" data-name="Rectangle 2307" width="65" height="65" transform="translate(1070 799)" fill="none" stroke="#707070" stroke-width="1"/>
    </clipPath>
  </defs>
  <g id="Mask_Group_17" data-name="Mask Group 17" transform="translate(-1070 -799)" clip-path="url(#clip-path)">
    <g id="organization" transform="translate(1074 803)">
      <g id="Group_13685" data-name="Group 13685" transform="translate(0 36.935)">
        <g id="Group_13684" data-name="Group 13684">
          <path id="Path_760" data-name="Path 760" d="M51.725,336.39a5.214,5.214,0,0,0,.94-2.991v-1.029a5.244,5.244,0,1,0-10.488,0V333.4a5.213,5.213,0,0,0,.94,2.991,6.269,6.269,0,0,0-4.954,2.684,6.269,6.269,0,0,0-4.954-2.684,5.213,5.213,0,0,0,.94-2.991v-1.029a5.244,5.244,0,1,0-10.488,0V333.4a5.214,5.214,0,0,0,.94,2.991,6.269,6.269,0,0,0-4.954,2.684,6.269,6.269,0,0,0-4.954-2.684,5.213,5.213,0,0,0,.94-2.991v-1.029a5.244,5.244,0,1,0-10.488,0V333.4a5.214,5.214,0,0,0,.94,2.991A6.279,6.279,0,0,0,0,342.658v4.213A1.129,1.129,0,0,0,1.129,348h55.55a1.129,1.129,0,0,0,1.129-1.129v-4.213A6.279,6.279,0,0,0,51.725,336.39ZM7.4,332.371a2.986,2.986,0,1,1,5.971,0V333.4a2.986,2.986,0,1,1-5.971,0Zm11.115,13.371H2.258v-3.084a4.019,4.019,0,0,1,4.015-4.014H9.258v4.512a1.129,1.129,0,1,0,2.258,0v-4.512H14.5a4.019,4.019,0,0,1,4.015,4.014Zm7.4-13.371a2.986,2.986,0,1,1,5.971,0V333.4a2.986,2.986,0,1,1-5.971,0Zm11.115,13.371H20.775v-3.084a4.019,4.019,0,0,1,4.014-4.014h3v4.512a1.129,1.129,0,1,0,2.258,0v-4.512h2.971a4.019,4.019,0,0,1,4.014,4.014Zm7.4-13.371a2.986,2.986,0,1,1,5.971,0V333.4a2.986,2.986,0,1,1-5.971,0ZM55.55,345.742H39.291v-3.084a4.019,4.019,0,0,1,4.015-4.014H46.32v4.512a1.129,1.129,0,1,0,2.258,0v-4.512h2.957a4.019,4.019,0,0,1,4.015,4.014Z" transform="translate(0 -327.127)" fill="#b01116" stroke="#fbf2f3" stroke-width="0.7"/>
        </g>
      </g>
      <g id="Group_13687" data-name="Group 13687" transform="translate(27.775 21.565)">
        <g id="Group_13686" data-name="Group 13686">
          <path id="Path_761" data-name="Path 761" d="M247.927,191.331a1.128,1.128,0,1,0,.331.8A1.137,1.137,0,0,0,247.927,191.331Z" transform="translate(-246 -191)" fill="#b01116" stroke="#fbf2f3" stroke-width="0.7"/>
        </g>
      </g>
      <g id="Group_13689" data-name="Group 13689" transform="translate(9.258)">
        <g id="Group_13688" data-name="Group 13688">
          <path id="Path_762" data-name="Path 762" d="M107.13,14.907h-.465a6.693,6.693,0,0,0,1.7-4.464V6.722a6.722,6.722,0,1,0-13.443,0v3.722a6.693,6.693,0,0,0,1.7,4.464h-.465a8.364,8.364,0,0,0-8.355,8.355v3.384a1.129,1.129,0,0,0,1.129,1.129h11.582v2.71H83.129A1.129,1.129,0,0,0,82,31.614v2.6a1.129,1.129,0,1,0,2.258,0V32.743h16.259v1.475a1.129,1.129,0,1,0,2.258,0V32.743h3.847a1.129,1.129,0,1,0,0-2.258h-3.847v-2.71h11.581a1.129,1.129,0,0,0,1.129-1.129V23.262A8.365,8.365,0,0,0,107.13,14.907ZM101.646,2.258a4.471,4.471,0,0,1,4.416,3.809L104.069,4.9a1.129,1.129,0,0,0-1.437.248,5,5,0,0,1-3.844,1.794H97.182V6.722h0A4.469,4.469,0,0,1,101.646,2.258ZM97.182,9.2h1.605a7.254,7.254,0,0,0,4.905-1.9l2.416,1.42v1.729a4.464,4.464,0,1,1-8.927,0V9.2Zm16.045,16.32H90.064V23.262a6.1,6.1,0,0,1,6.1-6.1h4.355V18.4a1.129,1.129,0,1,0,2.258,0V17.165h4.355a6.1,6.1,0,0,1,6.1,6.1Z" transform="translate(-82)" fill="#b01116" stroke="#fbf2f3" stroke-width="0.7"/>
        </g>
      </g>
      <g id="Group_13691" data-name="Group 13691" transform="translate(36.817 30.485)">
        <g id="Group_13690" data-name="Group 13690">
          <path id="Path_763" data-name="Path 763" d="M328.007,270.331a1.128,1.128,0,1,0,.331.8A1.138,1.138,0,0,0,328.007,270.331Z" transform="translate(-326.08 -270)" fill="#b01116" stroke="#fbf2f3" stroke-width="0.7"/>
        </g>
      </g>
      <g id="Group_13693" data-name="Group 13693" transform="translate(40.486 30.485)">
        <g id="Group_13692" data-name="Group 13692">
          <path id="Path_764" data-name="Path 764" d="M365.54,270h-5.835a1.129,1.129,0,1,0,0,2.258h4.706v1.475a1.129,1.129,0,0,0,2.258,0v-2.6A1.129,1.129,0,0,0,365.54,270Z" transform="translate(-358.576 -270)" fill="#b01116" stroke="#fbf2f3" stroke-width="0.7"/>
        </g>
      </g>
    </g>
  </g>
</svg>
