<svg id="happy_meaningful" xmlns="http://www.w3.org/2000/svg" width="55.268" height="41.616" viewBox="0 0 55.268 41.616">
  <g id="Group_12974" data-name="Group 12974">
    <path id="Path_288" data-name="Path 288" d="M51.413,70.059H37.653v-2.4a4.427,4.427,0,0,0-4.422-4.422H22.037a4.427,4.427,0,0,0-4.422,4.422v2.4H3.854A3.859,3.859,0,0,0,0,73.913V101a3.859,3.859,0,0,0,3.854,3.854H51.413A3.859,3.859,0,0,0,55.268,101V73.913A3.858,3.858,0,0,0,51.413,70.059Zm-31.6-2.4a2.223,2.223,0,0,1,2.22-2.22H33.23a2.223,2.223,0,0,1,2.22,2.22v2.4H19.817ZM53.066,101a1.654,1.654,0,0,1-1.652,1.652H3.854A1.654,1.654,0,0,1,2.2,101V79.752l16.9,8.2a4.41,4.41,0,0,0,4.345,3.689h8.367a4.41,4.41,0,0,0,4.345-3.689L46.72,82.829a1.1,1.1,0,0,0-.961-1.981l-9.845,4.775a4.41,4.41,0,0,0-4.1-2.792H23.45a4.41,4.41,0,0,0-4.1,2.792L2.2,77.3V73.913a1.654,1.654,0,0,1,1.652-1.652H51.413a1.654,1.654,0,0,1,1.652,1.652V101ZM21.248,87.236a2.2,2.2,0,0,1,2.2-2.2h8.367a2.2,2.2,0,0,1,0,4.4H23.45A2.2,2.2,0,0,1,21.248,87.236Z" transform="translate(0 -63.235)" fill="#b01116"/>
  </g>
</svg>
