<svg xmlns="http://www.w3.org/2000/svg" width="38.718" height="38.718" viewBox="0 0 38.718 38.718">
  <g id="Group_12865" data-name="Group 12865" transform="translate(0 0)">
    <g id="Group_12864" data-name="Group 12864">
      <path id="Path_227" data-name="Path 227" d="M290.2,199.786a.646.646,0,0,0,.869.282,55.311,55.311,0,0,1,5.71-2.541.646.646,0,0,0-.39-1.231,55.338,55.338,0,0,0-5.906,2.622A.646.646,0,0,0,290.2,199.786Z" transform="translate(-268.19 -181.425)" fill="#ebc4c6"/>
      <path id="Path_228" data-name="Path 228" d="M290.776,97.739a.644.644,0,0,0,.292-.07,55.313,55.313,0,0,1,5.71-2.541.646.646,0,0,0-.39-1.231,55.347,55.347,0,0,0-5.906,2.622.645.645,0,0,0,.294,1.22Z" transform="translate(-268.19 -86.769)" fill="#ebc4c6"/>
      <path id="Path_229" data-name="Path 229" d="M38.075,9.68a.645.645,0,0,0-.645.645V35.492a1.938,1.938,0,0,1-1.936,1.936H20.006V35.943a19.016,19.016,0,0,1,5.808-1.1A33.284,33.284,0,0,1,35.29,36.1a.645.645,0,0,0,.849-.612V7.1a.644.644,0,0,0-.505-.63s-.506-.113-1.371-.272a.645.645,0,0,0-.234,1.269c.33.061.606.114.819.157V34.634a36.443,36.443,0,0,0-9.034-1.078,20.273,20.273,0,0,0-6.428,1.236,15.117,15.117,0,0,0-5.833-1.236,43.485,43.485,0,0,0-9.679,1.105V7.6a42.475,42.475,0,0,1,9.679-1.145,13.991,13.991,0,0,1,5.162,1.063V32.91a.645.645,0,0,0,.978.553,73.879,73.879,0,0,1,12.132-5.748.645.645,0,0,0,.441-.612V.646a.646.646,0,0,0-.872-.6,68.644,68.644,0,0,0-10.44,5.22.645.645,0,1,0,.684,1.094,68.971,68.971,0,0,1,9.337-4.766V26.641a72.316,72.316,0,0,0-10.97,5.149V7.1a.646.646,0,0,0-.357-.578,14.942,14.942,0,0,0-6.1-1.358,41.881,41.881,0,0,0-10.5,1.316.645.645,0,0,0-.468.62V35.492a.645.645,0,0,0,.645.645.636.636,0,0,0,.177-.025,41.452,41.452,0,0,1,10.148-1.265,13.96,13.96,0,0,1,5.162,1.064v1.517H3.228a1.938,1.938,0,0,1-1.936-1.936V10.325a.645.645,0,0,0-1.291,0V35.492a3.23,3.23,0,0,0,3.227,3.227H35.493a3.23,3.23,0,0,0,3.227-3.227V10.325A.645.645,0,0,0,38.075,9.68Z" transform="translate(-0.002 0)" fill="#ebc4c6"/>
      <path id="Path_230" data-name="Path 230" d="M290.2,148.586a.646.646,0,0,0,.869.282,55.31,55.31,0,0,1,5.71-2.541.646.646,0,0,0-.39-1.231,55.35,55.35,0,0,0-5.906,2.622A.646.646,0,0,0,290.2,148.586Z" transform="translate(-268.19 -134.096)" fill="#ebc4c6"/>
      <path id="Path_231" data-name="Path 231" d="M290.2,250.986a.646.646,0,0,0,.869.282,55.31,55.31,0,0,1,5.71-2.541.646.646,0,0,0-.39-1.231,55.342,55.342,0,0,0-5.906,2.622A.646.646,0,0,0,290.2,250.986Z" transform="translate(-268.19 -228.753)" fill="#ebc4c6"/>
      <path id="Path_232" data-name="Path 232" d="M94.515,154a20.48,20.48,0,0,0-8.7.307.645.645,0,0,0,.167,1.269.656.656,0,0,0,.168-.022,19.447,19.447,0,0,1,8.075-.3A.645.645,0,1,0,94.515,154Z" transform="translate(-78.88 -142.026)" fill="#ebc4c6"/>
      <path id="Path_233" data-name="Path 233" d="M94.515,205.205a20.492,20.492,0,0,0-8.7.307.645.645,0,0,0,.167,1.269.656.656,0,0,0,.168-.022,19.447,19.447,0,0,1,8.075-.3.645.645,0,1,0,.294-1.256Z" transform="translate(-78.88 -189.358)" fill="#ebc4c6"/>
      <path id="Path_234" data-name="Path 234" d="M290.2,302.186a.646.646,0,0,0,.869.282,55.31,55.31,0,0,1,5.71-2.541.646.646,0,0,0-.39-1.231,55.339,55.339,0,0,0-5.906,2.622A.646.646,0,0,0,290.2,302.186Z" transform="translate(-268.19 -276.081)" fill="#ebc4c6"/>
      <path id="Path_235" data-name="Path 235" d="M94.515,256.4a20.48,20.48,0,0,0-8.7.307.646.646,0,0,0,.167,1.269.656.656,0,0,0,.168-.023,19.447,19.447,0,0,1,8.075-.3.645.645,0,1,0,.294-1.256Z" transform="translate(-78.88 -236.684)" fill="#ebc4c6"/>
      <path id="Path_236" data-name="Path 236" d="M94.515,358.8a20.479,20.479,0,0,0-8.7.307.646.646,0,0,0,.167,1.269.654.654,0,0,0,.168-.023,19.446,19.446,0,0,1,8.075-.3.645.645,0,1,0,.294-1.256Z" transform="translate(-78.88 -331.339)" fill="#ebc4c6"/>
      <path id="Path_237" data-name="Path 237" d="M94.515,307.6a20.469,20.469,0,0,0-8.7.307.646.646,0,0,0,.167,1.269.653.653,0,0,0,.168-.023,19.447,19.447,0,0,1,8.075-.3.645.645,0,1,0,.294-1.256Z" transform="translate(-78.88 -284.009)" fill="#ebc4c6"/>
    </g>
  </g>
</svg>
