<svg id="detailed_syllabus" xmlns="http://www.w3.org/2000/svg" width="34.088" height="37.74" viewBox="0 0 34.088 37.74">
  <path id="Path_366" data-name="Path 366" d="M1.217,3.652H19.479V7.913a.608.608,0,0,0,.609.609h4.261v4.87h1.217V7.913a.608.608,0,0,0-.179-.431L20.519,2.614a.608.608,0,0,0-.432-.18H3.652V1.217H26.784V14.609H28v-14A.608.608,0,0,0,27.392,0H3.044a.608.608,0,0,0-.609.609V2.435H.609A.608.608,0,0,0,0,3.044V37.132a.608.608,0,0,0,.609.609h20.7V36.523H1.217ZM20.7,4.513,23.488,7.3H20.7Zm0,0" fill="#ebc4c6"/>
  <path id="Path_367" data-name="Path 367" d="M225.653,195.786h-.917a9.106,9.106,0,0,1-7.014-3.285l-.123-.148a.629.629,0,0,0-.936,0l-.123.147a9.107,9.107,0,0,1-7.015,3.285h-.917a.608.608,0,0,0-.609.609v9.859a6.71,6.71,0,0,0,3.374,5.814l5.455,3.117a.608.608,0,0,0,.6,0l5.455-3.117a6.71,6.71,0,0,0,3.374-5.814v-9.859A.608.608,0,0,0,225.653,195.786Zm-.609,10.467a5.488,5.488,0,0,1-2.761,4.757l-5.153,2.946-5.153-2.945a5.49,5.49,0,0,1-2.761-4.757V197h.308a10.319,10.319,0,0,0,7.605-3.33,10.318,10.318,0,0,0,7.605,3.33h.308Zm0,0" transform="translate(-192.173 -177.524)" fill="#ebc4c6"/>
  <path id="Path_368" data-name="Path 368" d="M246.7,264a6.7,6.7,0,1,0,6.7,6.7A6.7,6.7,0,0,0,246.7,264Zm0,12.174a5.478,5.478,0,1,1,5.478-5.478A5.484,5.484,0,0,1,246.7,276.174Zm0,0" transform="translate(-221.738 -243.912)" fill="#ebc4c6"/>
  <path id="Path_369" data-name="Path 369" d="M300.31,314.814l-1.105-1.105-.861.861,1.826,1.826a.607.607,0,0,0,.43.178.62.62,0,0,0,.149-.018.611.611,0,0,0,.435-.416l1.826-6.087-1.166-.35Zm0,0" transform="translate(-275.643 -286.138)" fill="#ebc4c6"/>
  <path id="Path_370" data-name="Path 370" d="M32,128H47.827v1.217H32Zm0,0" transform="translate(-29.565 -118.261)" fill="#ebc4c6"/>
  <path id="Path_371" data-name="Path 371" d="M32,160H47.827v1.217H32Zm0,0" transform="translate(-29.565 -147.826)" fill="#ebc4c6"/>
  <path id="Path_372" data-name="Path 372" d="M32,192H47.827v1.217H32Zm0,0" transform="translate(-29.565 -177.391)" fill="#ebc4c6"/>
  <path id="Path_373" data-name="Path 373" d="M32,224H44.174v1.217H32Zm0,0" transform="translate(-29.565 -206.956)" fill="#ebc4c6"/>
  <path id="Path_374" data-name="Path 374" d="M32,256H44.174v1.217H32Zm0,0" transform="translate(-29.565 -236.521)" fill="#ebc4c6"/>
  <path id="Path_375" data-name="Path 375" d="M32,288H44.174v1.217H32Zm0,0" transform="translate(-29.565 -266.086)" fill="#ebc4c6"/>
  <path id="Path_376" data-name="Path 376" d="M32,384H44.174v1.217H32Zm0,0" transform="translate(-29.565 -354.782)" fill="#ebc4c6"/>
  <path id="Path_377" data-name="Path 377" d="M32,416H44.174v1.217H32Zm0,0" transform="translate(-29.565 -384.347)" fill="#ebc4c6"/>
  <path id="Path_378" data-name="Path 378" d="M32,448H44.174v1.217H32Zm0,0" transform="translate(-29.565 -413.912)" fill="#ebc4c6"/>
  <path id="Path_379" data-name="Path 379" d="M40,64h1.217v1.217H40Zm0,0" transform="translate(-36.956 -59.13)" fill="#ebc4c6"/>
  <path id="Path_380" data-name="Path 380" d="M72,64h1.217v1.217H72Zm0,0" transform="translate(-66.522 -59.13)" fill="#ebc4c6"/>
  <path id="Path_381" data-name="Path 381" d="M104,64h1.217v1.217H104Zm0,0" transform="translate(-96.087 -59.13)" fill="#ebc4c6"/>
  <path id="Path_382" data-name="Path 382" d="M136,64h7.913v1.217H136Zm0,0" transform="translate(-125.652 -59.13)" fill="#ebc4c6"/>
</svg>
