<svg id="high_level_course" xmlns="http://www.w3.org/2000/svg" width="38.134" height="38.133" viewBox="0 0 38.134 38.133">
  <path id="Path_363" data-name="Path 363" d="M54.458,0H51.9A1.9,1.9,0,0,0,50,1.9v30.05L52.542,36.4v1.1a.636.636,0,0,0,1.271,0V36.4l2.542-4.449V1.9A1.9,1.9,0,0,0,54.458,0ZM51.271,5.72h3.813V6.991H51.271Zm1.907,29.225-1.447-2.532h2.894Zm1.907-3.8H51.271V8.262h3.813ZM51.271,4.449V1.9a.627.627,0,0,1,.626-.626h2.561a.627.627,0,0,1,.627.626V4.449Z" transform="translate(-18.222)" fill="#ebc4c6"/>
  <path id="Path_364" data-name="Path 364" d="M0,0V38.133H29.236V0H0ZM1.271,36.862V1.271H5.084V36.862ZM27.965,1.271V36.862H6.356V1.271Z" fill="#ebc4c6"/>
  <path id="Path_365" data-name="Path 365" d="M30.253,18.9V10H15v8.9ZM16.271,11.271H28.982v6.356H16.271Z" transform="translate(-5.467 -3.644)" fill="#ebc4c6"/>
  <rect id="Rectangle_2094" data-name="Rectangle 2094" width="8.898" height="1.271" transform="translate(12.711 8.898)" fill="#ebc4c6"/>
  <rect id="Rectangle_2095" data-name="Rectangle 2095" width="8.898" height="1.271" transform="translate(12.711 11.44)" fill="#ebc4c6"/>
</svg>
