<svg id="grading_policy" xmlns="http://www.w3.org/2000/svg" width="39.854" height="35.982" viewBox="0 0 39.854 35.982">
  <path id="Path_383" data-name="Path 383" d="M35.652,0H9.88A4.041,4.041,0,0,0,5.824,4.011L5.658,26.7H.629A.654.654,0,0,0,0,27.376V30.5a5.472,5.472,0,0,0,5.163,5.446v.038h21.7V35.94c.161.007.259.042.37.042h.015A5.455,5.455,0,0,0,32.674,30.5V10.649h6.552a.661.661,0,0,0,.629-.679V4.24A4.233,4.233,0,0,0,35.652,0ZM5.446,34.691h0A4.183,4.183,0,0,1,1.291,30.5v-2.5H21.783v2.492a5.463,5.463,0,0,0,1.595,3.876,2.318,2.318,0,0,1,.34.327ZM31.383,30.5a4.168,4.168,0,0,1-4.133,4.194h-.013a4.193,4.193,0,0,1-4.163-4.2V27.376a.669.669,0,0,0-.645-.672H6.949L7.115,4.016A2.749,2.749,0,0,1,9.88,1.291H32.6a4.4,4.4,0,0,0-1.221,2.967Zm7.18-26.246V9.359H32.674v-5.1a2.989,2.989,0,0,1,2.959-2.966h.018a2.942,2.942,0,0,1,2.913,2.956Zm0,0" transform="translate(0)" fill="#ebc4c6"/>
  <path id="Path_384" data-name="Path 384" d="M165,65.138l3.328,2.275a.635.635,0,0,0,.721,0l3.318-2.274a5.013,5.013,0,0,0,2-3.824v-4.6a.631.631,0,0,0-.344-.58l-5.067-2.492a.634.634,0,0,0-.564,0l-5.057,2.485a.63.63,0,0,0-.344.58v4.61A5.013,5.013,0,0,0,165,65.138Zm-.714-8.031,4.4-2.169,4.4,2.175v4.2a3.719,3.719,0,0,1-1.441,2.757L168.677,66.1l-2.952-2.026a3.717,3.717,0,0,1-1.438-2.757Zm0,0" transform="translate(-149.846 -49.252)" fill="#ebc4c6"/>
  <path id="Path_385" data-name="Path 385" d="M203.028,119.8a.645.645,0,0,0,.457.193h0a.646.646,0,0,0,.456-.191l2.567-2.568a.646.646,0,1,0-.913-.914l-2.109,2.109-.843-.851a.646.646,0,0,0-.917.909Zm0,0" transform="translate(-185.281 -106.76)" fill="#ebc4c6"/>
  <path id="Path_386" data-name="Path 386" d="M149.135,248h-15.49a.645.645,0,1,0,0,1.291h15.49a.645.645,0,1,0,0-1.291Zm0,0" transform="translate(-122.27 -227.992)" fill="#ebc4c6"/>
  <path id="Path_387" data-name="Path 387" d="M149.135,285h-15.49a.645.645,0,1,0,0,1.291h15.49a.645.645,0,1,0,0-1.291Zm0,0" transform="translate(-122.27 -262.007)" fill="#ebc4c6"/>
</svg>
