<svg id="mooc_proposal" xmlns="http://www.w3.org/2000/svg" width="31.729" height="40.58" viewBox="0 0 31.729 40.58">
  <path id="Path_353" data-name="Path 353" d="M31.129,17.885a.6.6,0,0,0,.6-.6V7.865a1.383,1.383,0,0,0-1.381-1.381H27.993V4.624a1.382,1.382,0,0,0-1.381-1.381H24.18V1.381A1.383,1.383,0,0,0,22.8,0H6.223a.6.6,0,1,0,0,1.2H22.8a.181.181,0,0,1,.18.18V32.715a.18.18,0,0,1-.18.18H1.381a.18.18,0,0,1-.18-.18V1.381a.18.18,0,0,1,.18-.18h2.44a.6.6,0,0,0,0-1.2H1.381A1.383,1.383,0,0,0,0,1.381V32.715A1.383,1.383,0,0,0,1.381,34.1H3.814v1.861a1.381,1.381,0,0,0,1.38,1.381H7.55V39.2A1.383,1.383,0,0,0,8.931,40.58H30.348A1.383,1.383,0,0,0,31.729,39.2V19.686a.6.6,0,0,0-1.2,0V39.2a.18.18,0,0,1-.18.18H8.931a.18.18,0,0,1-.18-.18V37.338H26.612a1.382,1.382,0,0,0,1.381-1.381v-8.3a.6.6,0,0,0-1.2,0v8.3a.18.18,0,0,1-.18.18H5.195a.18.18,0,0,1-.18-.18V34.1H22.8a1.383,1.383,0,0,0,1.381-1.381V4.443h2.432a.18.18,0,0,1,.18.18V25.251a.6.6,0,0,0,1.2,0V7.685h2.355a.18.18,0,0,1,.18.18v9.419A.6.6,0,0,0,31.129,17.885Zm0,0" fill="#ebc4c6"/>
  <path id="Path_354" data-name="Path 354" d="M116.569,35.642a3.388,3.388,0,1,0-3.388,3.388A3.392,3.392,0,0,0,116.569,35.642Zm-5.575,0a2.187,2.187,0,1,1,2.187,2.187A2.189,2.189,0,0,1,110.994,35.642Zm0,0" transform="translate(-101.091 -29.698)" fill="#ebc4c6"/>
  <path id="Path_355" data-name="Path 355" d="M216.232,68.623a.6.6,0,1,0,0-1.2h-2.816a.6.6,0,0,0,0,1.2Zm0,0" transform="translate(-195.949 -62.078)" fill="#ebc4c6"/>
  <path id="Path_356" data-name="Path 356" d="M45,67.422H42.187a.6.6,0,1,0,0,1.2H45a.6.6,0,0,0,0-1.2Zm0,0" transform="translate(-38.29 -62.078)" fill="#ebc4c6"/>
  <path id="Path_357" data-name="Path 357" d="M59.1,139.929a.6.6,0,0,0,.6.6H73.313a.6.6,0,0,0,0-1.2H59.7A.6.6,0,0,0,59.1,139.929Zm0,0" transform="translate(-54.417 -128.285)" fill="#ebc4c6"/>
  <path id="Path_358" data-name="Path 358" d="M73.312,176.066H59.7a.6.6,0,0,0,0,1.2h13.61a.6.6,0,1,0,0-1.2Zm0,0" transform="translate(-54.417 -162.112)" fill="#ebc4c6"/>
  <path id="Path_359" data-name="Path 359" d="M73.312,212.8H59.7a.6.6,0,0,0,0,1.2h13.61a.6.6,0,1,0,0-1.2Zm0,0" transform="translate(-54.417 -195.935)" fill="#ebc4c6"/>
  <path id="Path_360" data-name="Path 360" d="M73.312,249.535H59.7a.6.6,0,0,0,0,1.2h13.61a.6.6,0,1,0,0-1.2Zm0,0" transform="translate(-54.417 -229.757)" fill="#ebc4c6"/>
  <path id="Path_361" data-name="Path 361" d="M73.312,286.273H59.7a.6.6,0,0,0,0,1.2h13.61a.6.6,0,1,0,0-1.2Zm0,0" transform="translate(-54.417 -263.584)" fill="#ebc4c6"/>
  <path id="Path_362" data-name="Path 362" d="M171.276,323.145a.6.6,0,0,0-.845.084l-2.866,3.5-1.329-1.3a.6.6,0,1,0-.841.858l1.488,1.459a1,1,0,0,0,1.468-.08l3.008-3.668A.6.6,0,0,0,171.276,323.145Zm0,0" transform="translate(-152.121 -297.408)" fill="#ebc4c6"/>
</svg>
