<svg xmlns="http://www.w3.org/2000/svg" xmlns:xlink="http://www.w3.org/1999/xlink" width="77" height="65" viewBox="0 0 77 65">
  <defs>
    <clipPath id="clip-path">
      <rect id="Rectangle_2294" data-name="Rectangle 2294" width="77" height="65" transform="translate(841 204)" fill="none" stroke="#707070" stroke-width="1"/>
    </clipPath>
  </defs>
  <g id="Mask_Group_5" data-name="Mask Group 5" transform="translate(-841 -204)" clip-path="url(#clip-path)">
    <g id="conveyor" transform="translate(843.999 207)">
      <path id="Path_623" data-name="Path 623" d="M234.111,36.083a3.1,3.1,0,0,0,1.037-.178v3.7a3.806,3.806,0,0,0,3.8,3.8h21.982a3.806,3.806,0,0,0,3.8-3.8V35.49a3.11,3.11,0,0,0,4.147-2.932V22.88A5.19,5.19,0,0,0,263.7,17.7h-4.309a1.037,1.037,0,0,0,0,2.074H263.7a3.114,3.114,0,0,1,3.111,3.111v9.677a1.037,1.037,0,0,1-2.074,0V24.263a2.366,2.366,0,0,0-.026-.349,2.431,2.431,0,0,0-2.393-2.07H237.567a2.4,2.4,0,0,0-2.387,2.035,2.273,2.273,0,0,0-.032.385v8.71a1.037,1.037,0,1,1-2.074,0V22.88a3.114,3.114,0,0,1,3.111-3.111h18.387a1.037,1.037,0,0,0,1.037-1.037V15.968a1.73,1.73,0,0,0-1.728-1.728h-.622V8.917a1.73,1.73,0,0,0-1.728-1.728h-.553V3.867a2.074,2.074,0,1,0-2.074,0V7.189h-.553a1.73,1.73,0,0,0-1.728,1.728V14.24H246a1.73,1.73,0,0,0-1.728,1.728V17.7h-8.088A5.19,5.19,0,0,0,231,22.88V32.972A3.114,3.114,0,0,0,234.111,36.083Zm28.548,3.525a1.73,1.73,0,0,1-1.728,1.728H238.949a1.73,1.73,0,0,1-1.728-1.728V27.556l1.014,1.58a5.164,5.164,0,0,0,4.363,2.384h14.687a5.164,5.164,0,0,0,4.36-2.379l1.014-1.576Zm-.346-15.691a.343.343,0,0,1,.19.059l-2.6,4.044a3.1,3.1,0,0,1-2.616,1.427H242.6a3.1,3.1,0,0,1-2.618-1.431l-2.6-4.046a.344.344,0,0,1,.183-.053ZM248.7,9.263h2.488V14.24H248.7Zm-2.35,7.051h7.189V17.7h-7.189Zm0,0" transform="translate(-199.065)" fill="#b01116"/>
      <path id="Path_624" data-name="Path 624" d="M68.364,170.977H65.251a3.775,3.775,0,0,0,.417-1.728v-2.074a3.806,3.806,0,0,0-3.8-3.8H39.885a3.806,3.806,0,0,0-3.8,3.8v2.074a3.775,3.775,0,0,0,.417,1.728H29.143a2.432,2.432,0,0,0,.028-.346V138.419A2.422,2.422,0,0,0,26.751,136H7.535a2.422,2.422,0,0,0-2.419,2.419v32.212a2.432,2.432,0,0,0,.028.346H2.419A2.422,2.422,0,0,0,0,173.4v1.382A2.422,2.422,0,0,0,2.419,177.2h7.12a1.037,1.037,0,1,0,0-2.074H2.419a.346.346,0,0,1-.346-.346V173.4a.346.346,0,0,1,.346-.346H68.364a.346.346,0,0,1,.346.346v1.382a.346.346,0,0,1-.346.346H14.378a1.037,1.037,0,0,0,0,2.074H68.364a2.422,2.422,0,0,0,2.419-2.419V173.4A2.422,2.422,0,0,0,68.364,170.977Zm-30.207-1.728v-2.074a1.73,1.73,0,0,1,1.728-1.728H61.866a1.73,1.73,0,0,1,1.728,1.728v2.074a1.73,1.73,0,0,1-1.728,1.728H39.885A1.73,1.73,0,0,1,38.157,169.249ZM7.189,170.631V138.419a.346.346,0,0,1,.346-.346H26.751a.346.346,0,0,1,.346.346v32.212a.346.346,0,0,1-.346.346H7.535A.346.346,0,0,1,7.189,170.631Zm0,0" transform="translate(0 -117.198)" fill="#b01116"/>
      <path id="Path_625" data-name="Path 625" d="M81.447,166H68.313A1.315,1.315,0,0,0,67,167.313v26.129a1.315,1.315,0,0,0,1.313,1.313H81.447a1.315,1.315,0,0,0,1.313-1.313V167.313A1.315,1.315,0,0,0,81.447,166Zm-12.373,5.33,4.641,9.048-4.641,9.048Zm.66-3.256H80.026L74.88,178.106ZM74.88,182.65l5.146,10.032H69.734Zm1.165-2.272,4.641-9.048v18.1Zm0,0" transform="translate(-57.737 -143.051)" fill="#b01116"/>
      <path id="Path_626" data-name="Path 626" d="M294.44,269h-2.9a1.037,1.037,0,0,0,0,2.074h2.9a1.037,1.037,0,1,0,0-2.074Zm0,0" transform="translate(-250.339 -231.811)" fill="#b01116"/>
      <path id="Path_627" data-name="Path 627" d="M413.44,269h-2.9a1.037,1.037,0,1,0,0,2.074h2.9a1.037,1.037,0,1,0,0-2.074Zm0,0" transform="translate(-352.887 -231.811)" fill="#b01116"/>
    </g>
  </g>
</svg>
