<svg xmlns="http://www.w3.org/2000/svg" width="60.298" height="60.283" viewBox="0 0 60.298 60.283">
  <g id="intellectual_property" transform="translate(1 0.555)">
    <path id="Path_281" data-name="Path 281" d="M60.3,52.978,52.547,49.1H31V45.227h25.19V19.949a3.141,3.141,0,0,0,3.875-3.088v-.52a3.178,3.178,0,0,0-1.354-2.6L39.723.445l-8.61,6.027H7.2L.227,18.1H1.938V30.052L0,32.267V60.729H31V56.853H52.547ZM33.91,51.04H51.35v3.875H33.91Zm-1.938,3.875H28.1a1.938,1.938,0,1,1,0-3.875h3.875Zm21.315-.6V51.639l2.678,1.339ZM48.443,43.289H40.692V32.632a.97.97,0,0,1,.969-.969h5.813a.97.97,0,0,1,.969.969Zm1.938,0V32.632a2.91,2.91,0,0,0-2.907-2.907H41.661a2.91,2.91,0,0,0-2.907,2.907V43.289H31V23.912H25.19V18.886L39.723,8.627,54.256,18.886v24.4ZM57.6,15.328a1.235,1.235,0,0,1,.528,1.013v.52a1.237,1.237,0,0,1-1.95,1.01L39.723,6.256,23.267,17.872a1.238,1.238,0,0,1-1.952-1.01v-.52a1.235,1.235,0,0,1,.528-1.013L39.723,2.811ZM8.3,8.41H28.345l-7.613,5.33A3.167,3.167,0,0,0,19.4,16.161H3.65ZM3.875,18.1H19.628a3.18,3.18,0,0,0,2.924,1.938,3.125,3.125,0,0,0,.7-.087v3.963H7.311L3.875,27.839ZM6.782,27.46v4.2H3.1ZM29.066,58.791H1.938V33.6H8.72V25.85H29.066V49.1H28.1a3.875,3.875,0,1,0,0,7.751h.969Zm0,0" transform="translate(-1 -1)" fill="#b01116"/>
    <path id="Path_282" data-name="Path 282" d="M49.44,264.62H47.31l1.905-2.285-1.489-1.241-2.938,3.526H32v13.564H49.44ZM47.5,276.246H33.938v-9.689h9.234l-4.455,5.347-2.157-2.157-1.37,1.37,3.656,3.656,6.85-8.217H47.5Zm0,0" transform="translate(-28.034 -228.991)" fill="#b01116"/>
    <path id="Path_283" data-name="Path 283" d="M32,450.211H50.408v1.938H32Zm0,0" transform="translate(-28.034 -395.205)" fill="#b01116"/>
    <path id="Path_284" data-name="Path 284" d="M32,418.211H50.408v1.938H32Zm0,0" transform="translate(-28.034 -367.08)" fill="#b01116"/>
    <path id="Path_285" data-name="Path 285" d="M88,226.211h16.471v1.938H88Zm0,0" transform="translate(-77.252 -198.333)" fill="#b01116"/>
    <path id="Path_286" data-name="Path 286" d="M352,290.211h1.938v1.938H352Zm0,0" transform="translate(-309.28 -254.582)" fill="#b01116"/>
    <path id="Path_287" data-name="Path 287" d="M264,144.024h15.5v-5.813H264Zm1.938-3.875h11.626v1.938H265.938Zm0,0" transform="translate(-231.937 -120.991)" fill="#b01116"/>
  </g>
</svg>
