<svg xmlns="http://www.w3.org/2000/svg" xmlns:xlink="http://www.w3.org/1999/xlink" width="65" height="65" viewBox="0 0 65 65">
  <defs>
    <clipPath id="clip-path">
      <rect id="Rectangle_2305" data-name="Rectangle 2305" width="65" height="65" transform="translate(391 602)" fill="none" stroke="#707070" stroke-width="1"/>
    </clipPath>
  </defs>
  <g id="Mask_Group_15" data-name="Mask Group 15" transform="translate(-391 -602)" clip-path="url(#clip-path)">
    <g id="Group_13902" data-name="Group 13902" transform="translate(-17806 -2642.65)">
      <path id="Path_908" data-name="Path 908" d="M169.5.729V7.9a.729.729,0,0,0,1.458,0V.729a.729.729,0,0,0-1.458,0Zm0,0" transform="translate(18052.027 3246.65)" fill="#b01116" stroke="#b01116" stroke-width="0.4"/>
      <path id="Path_909" data-name="Path 909" d="M208.5,19.729v4.859a.729.729,0,0,0,1.458,0V19.729a.729.729,0,0,0-1.458,0Zm0,0" transform="translate(18017.766 3229.958)" fill="#b01116" stroke="#b01116" stroke-width="0.4"/>
      <path id="Path_910" data-name="Path 910" d="M131.5,19.729v4.859a.729.729,0,1,0,1.458,0V19.729a.729.729,0,1,0-1.458,0Zm0,0" transform="translate(18085.412 3229.958)" fill="#b01116" stroke="#b01116" stroke-width="0.4"/>
      <path id="Path_911" data-name="Path 911" d="M236.5,38.729v3.765a.729.729,0,0,0,1.458,0V38.729a.729.729,0,0,0-1.458,0Zm0,0" transform="translate(17993.164 3213.266)" fill="#b01116" stroke="#b01116" stroke-width="0.4"/>
      <path id="Path_912" data-name="Path 912" d="M102.5,38.729v3.765a.729.729,0,0,0,1.458,0V38.729a.729.729,0,0,0-1.458,0Zm0,0" transform="translate(18110.889 3213.266)" fill="#b01116" stroke="#b01116" stroke-width="0.4"/>
      <path id="Path_913" data-name="Path 913" d="M57.058,107.892l-6.045-.65a18.939,18.939,0,0,0-7.272-7.347V92.276a.729.729,0,0,0-1.273-.485l-4.85,5.44c-.191-.058-.374-.111-.552-.162a15.451,15.451,0,1,0-30.037,7.187,13.883,13.883,0,0,0-3.507,8.3H1.229a.729.729,0,0,0,0,1.458H3.536c.328,5,3.555,9.543,8.989,12.619V134.3a.729.729,0,0,0,.729.729h6.8a.729.729,0,0,0,.729-.729v-4.567a34.751,34.751,0,0,0,14.333,0V134.3a.729.729,0,0,0,.729.729h6.8a.729.729,0,0,0,.729-.729v-7.67a19.1,19.1,0,0,0,7.539-7.395l6.15-.725a.729.729,0,0,0,.644-.724v-9.17A.73.73,0,0,0,57.058,107.892Zm-35.132,2.484a10.22,10.22,0,1,1,10.22-10.22A10.22,10.22,0,0,1,21.926,110.377ZM29.636,91.4a11.631,11.631,0,0,0-7.151-2.9V86.177a13.934,13.934,0,0,1,8.79,3.579Zm-8.608-2.88a11.63,11.63,0,0,0-6.89,2.951L12.5,89.827a13.94,13.94,0,0,1,8.529-3.632ZM13.114,92.5a11.629,11.629,0,0,0-2.85,7.057H7.947a13.936,13.936,0,0,1,3.528-8.7Zm-2.834,8.515a11.628,11.628,0,0,0,2.883,6.848l-1.64,1.64a13.934,13.934,0,0,1-3.564-8.488Zm3.912,7.88a11.631,11.631,0,0,0,6.834,2.9v2.32a13.941,13.941,0,0,1-8.474-3.582Zm8.292,2.922a11.627,11.627,0,0,0,7.095-2.852l1.64,1.64a13.935,13.935,0,0,1-8.734,3.529Zm9.772-2.236-1.639-1.639a11.632,11.632,0,0,0,2.953-6.927h2.32A13.939,13.939,0,0,1,32.256,109.585ZM35.9,99.561H33.587a11.628,11.628,0,0,0-2.92-7.137l1.64-1.64A13.936,13.936,0,0,1,35.9,99.561Zm20.347,17.578-5.894.694a.729.729,0,0,0-.568.4,17.645,17.645,0,0,1-7.5,7.332.729.729,0,0,0-.375.637v7.366H36.575v-4.747a.729.729,0,0,0-.9-.71,33.379,33.379,0,0,1-15.457,0,.729.729,0,0,0-.9.71v4.747H13.982V126.2a.728.728,0,0,0-.381-.64c-5.377-2.922-8.506-7.316-8.631-12.094a.715.715,0,0,0,0-.383,12.027,12.027,0,0,1,2.614-7.194,15.45,15.45,0,0,0,29.8-5.736q0-.759-.073-1.5l.327.1a.73.73,0,0,0,.764-.21l3.89-4.362v6.123a.728.728,0,0,0,.364.631,17.455,17.455,0,0,1,7.233,7.3.729.729,0,0,0,.58.41l5.791.623Zm0,0" transform="translate(18200.5 3172.232)" fill="#b01116" stroke="#b01116" stroke-width="0.4"/>
      <path id="Path_914" data-name="Path 914" d="M322.572,262.625a3.1,3.1,0,1,0,3.1,3.1A3.1,3.1,0,0,0,322.572,262.625Zm0,4.735a1.639,1.639,0,1,1,1.639-1.639A1.639,1.639,0,0,1,322.572,267.36Zm0,0" transform="translate(17920.268 3015.925)" fill="#b01116" stroke="#b01116" stroke-width="0.4"/>
      <path id="Path_917" data-name="Path 917" d="M212.183,84.431h-3.113a3.22,3.22,0,0,1,1.348,2.153H212.2v1.1h-1.75a3.429,3.429,0,0,1-3.082,3.1l3.206,4.988H208.4l-2.974-4.8H203.4V89.325h2.835a2.142,2.142,0,0,0,2.231-1.642H203.4v-1.1h5.081a2.1,2.1,0,0,0-2.246-1.626H203.4V83.3h8.8v1.131Z" transform="translate(18015.152 3184.055)" fill="#b01116"/>
    </g>
  </g>
</svg>
