<svg xmlns="http://www.w3.org/2000/svg" xmlns:xlink="http://www.w3.org/1999/xlink" width="57.277" height="57.277" viewBox="0 0 57.277 57.277">
  <defs>
    <clipPath id="clip-path">
      <rect id="Rectangle_2315" data-name="Rectangle 2315" width="57.277" height="57.277" transform="translate(589 1963)" fill="#b01116" stroke="#b01116" stroke-width="0.3" opacity="0.3"/>
    </clipPath>
  </defs>
  <g id="reading_material" transform="translate(-589 -1963)" clip-path="url(#clip-path)">
    <g id="_003-open-book" data-name="003-open-book" transform="translate(589 1963)">
      <g id="Group_13806" data-name="Group 13806" transform="translate(0 0)">
        <g id="Group_13805" data-name="Group 13805">
          <path id="Path_808" data-name="Path 808" d="M290.217,200.639a.8.8,0,0,0,1.079.35,68.733,68.733,0,0,1,7.094-3.156.8.8,0,0,0-.484-1.53,68.755,68.755,0,0,0-7.338,3.257A.8.8,0,0,0,290.217,200.639Z" transform="translate(-256.507 -173.92)" fill="#b01116" stroke="#b01116" stroke-width="0.3"/>
          <path id="Path_809" data-name="Path 809" d="M290.933,98.678a.8.8,0,0,0,.363-.087,68.728,68.728,0,0,1,7.094-3.156.8.8,0,0,0-.484-1.53,68.767,68.767,0,0,0-7.338,3.257.8.8,0,0,0,.365,1.516Z" transform="translate(-256.507 -83.18)" fill="#b01116" stroke="#b01116" stroke-width="0.3"/>
          <path id="Path_810" data-name="Path 810" d="M56.324,14.319a.954.954,0,0,0-.955.955V52.5a2.867,2.867,0,0,1-2.864,2.864H29.595v-2.2a28.132,28.132,0,0,1,8.591-1.622A49.239,49.239,0,0,1,52.2,53.41.955.955,0,0,0,53.46,52.5v-42a.953.953,0,0,0-.748-.932s-.748-.167-2.028-.4a.955.955,0,0,0-.346,1.878c.488.09.9.169,1.211.232V51.235a53.911,53.911,0,0,0-13.365-1.6,29.99,29.99,0,0,0-9.509,1.829,22.363,22.363,0,0,0-8.629-1.829A64.329,64.329,0,0,0,5.73,51.275V11.24A62.835,62.835,0,0,1,20.049,9.546a20.7,20.7,0,0,1,7.637,1.573V48.685a.954.954,0,0,0,1.446.818c.095-.056,9.553-5.706,17.947-8.5a.955.955,0,0,0,.653-.906V.955A.956.956,0,0,0,46.442.061,101.548,101.548,0,0,0,31,7.782.955.955,0,1,0,32.01,9.4,102.031,102.031,0,0,1,45.823,2.351V39.41a106.979,106.979,0,0,0-16.228,7.617V10.5a.955.955,0,0,0-.528-.854,22.1,22.1,0,0,0-9.018-2.009A61.956,61.956,0,0,0,4.512,9.584a.954.954,0,0,0-.692.917v42a.954.954,0,0,0,.955.955.941.941,0,0,0,.262-.037,61.321,61.321,0,0,1,15.012-1.872,20.651,20.651,0,0,1,7.637,1.574v2.244H4.775A2.867,2.867,0,0,1,1.911,52.5V15.274a.955.955,0,1,0-1.909,0V52.5a4.778,4.778,0,0,0,4.773,4.773h47.73A4.778,4.778,0,0,0,57.278,52.5V15.274A.954.954,0,0,0,56.324,14.319Z" transform="translate(-0.002 0)" fill="#b01116" stroke="#b01116" stroke-width="0.3"/>
          <path id="Path_811" data-name="Path 811" d="M290.217,149.439a.8.8,0,0,0,1.079.35,68.737,68.737,0,0,1,7.094-3.156.8.8,0,0,0-.484-1.53,68.765,68.765,0,0,0-7.338,3.257A.8.8,0,0,0,290.217,149.439Z" transform="translate(-256.507 -128.549)" fill="#b01116" stroke="#b01116" stroke-width="0.3"/>
          <path id="Path_812" data-name="Path 812" d="M290.217,251.839a.8.8,0,0,0,1.079.35,68.734,68.734,0,0,1,7.094-3.156.8.8,0,0,0-.484-1.53,68.758,68.758,0,0,0-7.338,3.257A.8.8,0,0,0,290.217,251.839Z" transform="translate(-256.507 -219.29)" fill="#b01116" stroke="#b01116" stroke-width="0.3"/>
          <path id="Path_813" data-name="Path 813" d="M96.741,154.088c-4.951-1.162-10.577.318-10.813.382a.8.8,0,0,0,.207,1.576.814.814,0,0,0,.208-.027c.054-.015,5.47-1.44,10.032-.37a.8.8,0,1,0,.365-1.561Z" transform="translate(-75.278 -136.312)" fill="#b01116" stroke="#b01116" stroke-width="0.3"/>
          <path id="Path_814" data-name="Path 814" d="M96.741,205.292c-4.951-1.161-10.577.318-10.813.382a.8.8,0,0,0,.207,1.576.815.815,0,0,0,.208-.027c.054-.015,5.47-1.44,10.032-.37a.8.8,0,1,0,.365-1.561Z" transform="translate(-75.278 -181.74)" fill="#b01116" stroke="#b01116" stroke-width="0.3"/>
          <path id="Path_815" data-name="Path 815" d="M290.217,303.039a.8.8,0,0,0,1.079.35,68.722,68.722,0,0,1,7.094-3.156.8.8,0,0,0-.484-1.53,68.758,68.758,0,0,0-7.338,3.257A.8.8,0,0,0,290.217,303.039Z" transform="translate(-256.507 -264.661)" fill="#b01116" stroke="#b01116" stroke-width="0.3"/>
          <path id="Path_816" data-name="Path 816" d="M96.741,256.49c-4.951-1.161-10.577.317-10.813.382a.8.8,0,0,0,.207,1.577.814.814,0,0,0,.208-.028c.054-.015,5.47-1.44,10.032-.37a.8.8,0,1,0,.365-1.561Z" transform="translate(-75.278 -227.162)" fill="#b01116" stroke="#b01116" stroke-width="0.3"/>
          <path id="Path_817" data-name="Path 817" d="M96.741,358.888c-4.951-1.162-10.577.318-10.813.382a.8.8,0,0,0,.207,1.577.813.813,0,0,0,.208-.028c.054-.015,5.47-1.44,10.032-.37a.8.8,0,1,0,.365-1.561Z" transform="translate(-75.278 -318.009)" fill="#b01116" stroke="#b01116" stroke-width="0.3"/>
          <path id="Path_818" data-name="Path 818" d="M96.741,307.687c-4.951-1.162-10.577.317-10.813.382a.8.8,0,0,0,.207,1.577.81.81,0,0,0,.208-.028c.054-.015,5.47-1.44,10.032-.37a.8.8,0,1,0,.365-1.561Z" transform="translate(-75.278 -272.583)" fill="#b01116" stroke="#b01116" stroke-width="0.3"/>
        </g>
      </g>
    </g>
  </g>
</svg>
