<svg xmlns="http://www.w3.org/2000/svg" xmlns:xlink="http://www.w3.org/1999/xlink" width="65" height="65" viewBox="0 0 65 65">
  <defs>
    <clipPath id="clip-path">
      <rect id="Rectangle_2298" data-name="Rectangle 2298" width="65" height="65" transform="translate(618 397)" fill="none" stroke="#707070" stroke-width="1"/>
    </clipPath>
  </defs>
  <g id="Mask_Group_9" data-name="Mask Group 9" transform="translate(-618 -397)" clip-path="url(#clip-path)">
    <path id="team" d="M58.373,24.479H56.257L53.1,26.138a4.681,4.681,0,0,0-1.122-.462l-3.966-.993v-.451a6.612,6.612,0,0,0,2.825-5.4V17.184a6.764,6.764,0,0,0-6.388-6.825c-.179,0-.355,0-.532.011l1.028-2.408L39.963,2.978,37.024,4.891A15.925,15.925,0,0,0,33.5,3.429L32.774,0H25.6l-.726,3.43a15.907,15.907,0,0,0-3.524,1.462L18.41,2.979,13.429,7.96,14.44,10.37c-.039,0-.075-.009-.114-.01a6.593,6.593,0,0,0-6.794,6.587V18.83a6.609,6.609,0,0,0,2.824,5.4v.452l-2.587.647L3.08,22.6H0V42.1l9.262,3.087h1.8l.225-.789,2.839,1.7a2.931,2.931,0,0,0,2.827,2.84,2.931,2.931,0,0,0,2.824,2.824A2.931,2.931,0,0,0,22.606,54.6a2.928,2.928,0,0,0,4.578,2.325l.834.736a2.867,2.867,0,0,0,1.894.715h.174a2.867,2.867,0,0,0,2.861-2.828,2.864,2.864,0,0,0,2.824-2.824A2.864,2.864,0,0,0,38.6,49.893,2.9,2.9,0,0,0,41.426,47a2.757,2.757,0,0,0-.014-.282l16.961-8.48Zm-9.415-7.295V18.83A4.726,4.726,0,0,1,46.6,22.9l-.471.272,0,2.979,4.7,1.175L40.484,32.78V30.244a4.684,4.684,0,0,0-1.348-3.281l3.231-.807V23.174L41.9,22.9a4.721,4.721,0,0,1-2.355-4.072V16.947a4.707,4.707,0,0,1,4.853-4.7A4.868,4.868,0,0,1,48.958,17.184ZM30.606,32.04l-4.262-1.362a11.627,11.627,0,0,0-6.033-.275l-.54.12v-.279A2.822,2.822,0,0,1,21.91,27.5L27.3,26.155V23.174l-.47-.272a4.721,4.721,0,0,1-2.355-4.072V16.947a4.707,4.707,0,0,1,4.853-4.7,4.868,4.868,0,0,1,4.562,4.942V18.83A4.726,4.726,0,0,1,31.537,22.9l-.471.272,0,2.979L36.462,27.5A2.822,2.822,0,0,1,38.6,30.244v3.528l-.233.122h-.577L32,32.24A5.935,5.935,0,0,0,30.606,32.04ZM19.982,14.091a10.349,10.349,0,0,1,18.369-.076,6.548,6.548,0,0,0-.692,2.932V18.83a6.609,6.609,0,0,0,2.824,5.4v.452l-3.766.943-3.767-.943v-.451a6.612,6.612,0,0,0,2.825-5.4V17.184a6.764,6.764,0,0,0-6.388-6.825A6.592,6.592,0,0,0,22.6,16.947V18.83a6.609,6.609,0,0,0,2.824,5.4v.452l-3.766.943-3.767-.943v-.451a6.612,6.612,0,0,0,2.825-5.4V17.184A6.939,6.939,0,0,0,19.982,14.091ZM15.652,8.4,18.66,5.389l2.647,1.723.507-.311a14.049,14.049,0,0,1,4.077-1.691l.579-.139.655-3.089h4.123L31.9,4.971l.579.138A14.063,14.063,0,0,1,36.557,6.8l.507.311,2.647-1.723,3,3.005-1.068,2.5a6.581,6.581,0,0,0-1.987,1.321c-.039.038-.072.078-.109.117a12.227,12.227,0,0,0-20.765.057,6.641,6.641,0,0,0-2.077-1.472ZM12.239,26.155V23.174l-.47-.272A4.721,4.721,0,0,1,9.415,18.83V16.947a4.707,4.707,0,0,1,4.853-4.7,4.868,4.868,0,0,1,4.562,4.942V18.83A4.726,4.726,0,0,1,16.473,22.9L16,23.176l0,2.979,3.23.807a4.684,4.684,0,0,0-1.348,3.281v.7l-2.937.653.076-.267.036-1.74L10.1,26.69ZM1.883,24.479h.686L9.34,28.428,5.924,42.094,1.883,40.747Zm7.685,18.83-1.853-.617,3.319-13.275,2.147,1.252v.269L9.647,43.309Zm6.438,2.71a1.063,1.063,0,0,1,.309-.747l1.655-1.655a1.056,1.056,0,0,1,1.493,1.493l-1.655,1.655a1.056,1.056,0,0,1-1.8-.747Zm2.824,2.824a1.063,1.063,0,0,1,.309-.747l1.655-1.655a1.056,1.056,0,0,1,1.493,1.493L20.632,49.59a1.056,1.056,0,0,1-1.8-.747Zm2.824,2.824a1.063,1.063,0,0,1,.309-.747l1.655-1.655a1.056,1.056,0,0,1,1.493,1.493l-1.655,1.655a1.056,1.056,0,0,1-1.8-.747Zm3.88,3.88a1.056,1.056,0,0,1-.747-1.8l1.655-1.655a1.056,1.056,0,0,1,1.493,1.493l-1.655,1.655A1.063,1.063,0,0,1,25.534,55.548Zm4.553.941h-.174a.976.976,0,0,1-.649-.246l-.7-.621.707-.707a2.927,2.927,0,0,0,.593-.875l.856.713a.982.982,0,0,1-.629,1.736Zm8.443-8.473h-.163a1.01,1.01,0,0,1-.648-.235l-5.106-4.255-1.206,1.447L36.366,49.1a.983.983,0,0,1-.63,1.736h-.205a.982.982,0,0,1-.628-.228l-5.114-4.261L28.583,47.8l4.958,4.131a.981.981,0,0,1-.629,1.735,1.555,1.555,0,0,1-.991-.359l-2.1-1.752a2.929,2.929,0,0,0-2.528-1.645,2.931,2.931,0,0,0-2.824-2.824,2.931,2.931,0,0,0-2.824-2.824,2.932,2.932,0,0,0-5-1.974l-1.655,1.655a2.9,2.9,0,0,0-.264.322l-2.892-1.735,2.535-8.873,6.356-1.413a9.7,9.7,0,0,1,5.051.228l1.387.444-4.7,2.351a3.138,3.138,0,0,0-1.742,2.821v.186a3.153,3.153,0,0,0,4.776,2.7L29,38.873a1.943,1.943,0,0,1,2.258.217l7.955,7.159a1.013,1.013,0,0,1-.677,1.766ZM56.49,37.078,40.628,45.009c-.051-.055-.105-.107-.162-.157l-7.953-7.159a3.789,3.789,0,0,0-4.487-.434l-3.507,2.1a1.27,1.27,0,0,1-1.923-1.09v-.186a1.263,1.263,0,0,1,.7-1.136l5.252-2.626a4.092,4.092,0,0,1,2.934-.272l5.917,1.69,1.433.036L56.49,26.484Zm0,0" transform="translate(621.001 400)" fill="#b01116"/>
  </g>
</svg>
