<svg xmlns="http://www.w3.org/2000/svg" width="65.816" height="65.797" viewBox="0 0 65.816 65.797">
  <g id="project-management" transform="translate(0 -0.067)">
    <g id="Group_13812" data-name="Group 13812" transform="translate(0 0.338)">
      <g id="Group_13811" data-name="Group 13811" transform="translate(0 0)">
        <path id="Path_838" data-name="Path 838" d="M64.879,19.059h0l0,0-4.248-.606a1.092,1.092,0,0,1-.5-1.955l3.434-2.575a1.092,1.092,0,0,0,.218-1.529L59.847,7.149a1.092,1.092,0,0,0-1.529-.218L54.886,9.506a1.092,1.092,0,0,1-1.741-1.028l.607-4.248a1.092,1.092,0,0,0-.926-1.236h0l-6.483-.926a1.092,1.092,0,0,0-1.236.926h0L44.5,7.242a1.092,1.092,0,0,1-1.955.5L39.97,4.31a1.092,1.092,0,0,0-1.529-.218L35.16,6.554a21.13,21.13,0,0,0-4.467,0A20.75,20.75,0,0,0,12.4,25.16c-.029.309-.04.616-.056.923h-.328a1.092,1.092,0,0,0-1.068.874l-.755,3.589L7.168,28.46a1.092,1.092,0,0,0-1.392.127L2.5,31.863a1.092,1.092,0,0,0-.127,1.391l2.075,3.017-3.59.755A1.092,1.092,0,0,0,0,38.1v4.368a1.092,1.092,0,0,0,.867,1.069l3.59.755L2.382,47.306A1.092,1.092,0,0,0,2.509,48.7l3.276,3.276a1.092,1.092,0,0,0,1.392.127l3.017-2.08.755,3.59a1.092,1.092,0,0,0,1.068.874h4.368a1.092,1.092,0,0,0,1.069-.867l.755-3.59L21.227,52.1a1.092,1.092,0,0,0,1.391-.127l1.7-1.7v3.112A4.354,4.354,0,0,0,26.5,57.146v6.068a4.368,4.368,0,0,0,4.368,4.368h4.368A4.368,4.368,0,0,0,39.6,63.214V57.146a4.354,4.354,0,0,0,2.184-3.761V49.063A5.351,5.351,0,0,1,44.314,44.6a20.958,20.958,0,0,0,2.571-1.966l-1.457-1.627a18.591,18.591,0,0,1-2.3,1.759A7.522,7.522,0,0,0,39.6,49.063v4.322a2.184,2.184,0,0,1-2.184,2.184H28.683A2.184,2.184,0,0,1,26.5,53.385V48.972a7.348,7.348,0,0,0-3.464-6.164A18.51,18.51,0,0,1,32.816,8.626a1.188,1.188,0,0,0-.043.119,1.092,1.092,0,0,0,.209.809l2.574,3.432a1.069,1.069,0,0,1,.066,1.212,1.086,1.086,0,0,1-1.092.525l-4.248-.607a1.092,1.092,0,0,0-1.236.926h0l-.927,6.486a1.092,1.092,0,0,0,.926,1.236h0l4.248.607a1.092,1.092,0,0,1,.5,1.955L30.362,27.9a1.092,1.092,0,0,0-.218,1.529l3.932,5.242a1.092,1.092,0,0,0,1.529.218l3.434-2.574a1.092,1.092,0,0,1,1.735,1.028l-.606,4.248a1.092,1.092,0,0,0,.926,1.236h0l6.487.927a1.21,1.21,0,0,0,.154.01,1.092,1.092,0,0,0,1.082-.937l.606-4.248a1.092,1.092,0,0,1,1.955-.5l2.575,3.432a1.092,1.092,0,0,0,1.529.218L60.723,33.8a1.092,1.092,0,0,0,.218-1.529l-2.574-3.432a1.073,1.073,0,0,1-.066-1.212,1.06,1.06,0,0,1,1.092-.524l4.248.606a1.092,1.092,0,0,0,1.236-.926h0l.926-6.487A1.092,1.092,0,0,0,64.879,19.059Zm-36.2,38.695h8.737v2.184H28.683Zm0,4.368h8.737v1.092A2.184,2.184,0,0,1,35.235,65.4H30.867a2.184,2.184,0,0,1-2.184-2.184ZM19.988,43.289a20.642,20.642,0,0,0,1.866,1.36,5.331,5.331,0,0,1,2.2,2.795l-2.343,2.338-2.268-1.564a2.184,2.184,0,0,0-3.377,1.349L15.5,52.293H12.9l-.572-2.723a2.184,2.184,0,0,0-3.377-1.349l-2.269,1.56L4.692,47.8l1.563-2.267a2.184,2.184,0,0,0-1.348-3.378l-2.723-.573V38.983l2.723-.573a2.184,2.184,0,0,0,1.349-3.371L4.692,32.764l1.99-1.985,2.27,1.564a2.184,2.184,0,0,0,3.376-1.35l.191-.909a20.8,20.8,0,0,0,.866,3.7,6.553,6.553,0,1,0,6.6,9.5Zm-1.7-1.539a4.362,4.362,0,1,1-4.1-5.838h.041A20.683,20.683,0,0,0,18.292,41.75ZM62.865,25.388,59.7,24.936a3.276,3.276,0,0,0-3.084,5.209L58.533,32.7l-3.495,2.621-1.92-2.558a3.276,3.276,0,0,0-5.865,1.5l-.442,3.171-4.324-.618.452-3.167a3.276,3.276,0,0,0-5.209-3.085l-2.559,1.919-2.621-3.495,2.558-1.92a3.276,3.276,0,0,0-1.5-5.865l-3.167-.452.618-4.324,3.167.452a3.276,3.276,0,0,0,3.085-5.209L35.385,9.116,38.879,6.5,40.8,9.054a3.276,3.276,0,0,0,5.865-1.5l.452-3.167L51.439,5l-.452,3.167A3.276,3.276,0,0,0,56.2,11.254l2.559-1.919,2.621,3.495-2.559,1.92a3.276,3.276,0,0,0,1.5,5.865l3.167.452Z" transform="translate(0 -2.057)" fill="#b01116"/>
      </g>
    </g>
    <g id="Group_13814" data-name="Group 13814" transform="translate(38.223 10.456)">
      <g id="Group_13813" data-name="Group 13813">
        <path id="Path_839" data-name="Path 839" d="M288.737,76.171a8.737,8.737,0,1,0,8.737,8.737A8.737,8.737,0,0,0,288.737,76.171Zm0,15.289a6.553,6.553,0,1,1,6.553-6.553A6.552,6.552,0,0,1,288.737,91.46Z" transform="translate(-280 -76.171)" fill="#b01116"/>
      </g>
    </g>
    <g id="Group_13816" data-name="Group 13816" transform="translate(31.959 48.391)">
      <g id="Group_13815" data-name="Group 13815">
        <rect id="Rectangle_2334" data-name="Rectangle 2334" width="2.184" height="3.276" fill="#b01116"/>
      </g>
    </g>
    <g id="Group_13818" data-name="Group 13818" transform="translate(17.752 12.52)">
      <g id="Group_13817" data-name="Group 13817">
        <path id="Path_840" data-name="Path 840" d="M140.566,116.436a13.105,13.105,0,0,1-2.213-23.3l-1.167-1.848a15.289,15.289,0,0,0,2.587,27.178,6.972,6.972,0,0,1,4.478,6.509h2.184A9.138,9.138,0,0,0,140.566,116.436Z" transform="translate(-130.044 -91.291)" fill="#b01116"/>
      </g>
    </g>
    <g id="Group_13820" data-name="Group 13820" transform="translate(53.801 40.746)">
      <g id="Group_13819" data-name="Group 13819">
        <rect id="Rectangle_2335" data-name="Rectangle 2335" width="7.645" height="2.184" fill="#b01116"/>
      </g>
    </g>
    <g id="Group_13822" data-name="Group 13822" transform="translate(52.01 46.459)">
      <g id="Group_13821" data-name="Group 13821" transform="translate(0 0)">
        <rect id="Rectangle_2336" data-name="Rectangle 2336" width="2.184" height="8.529" transform="matrix(0.64, -0.768, 0.768, 0.64, 0, 1.678)" fill="#b01116"/>
      </g>
    </g>
    <g id="Group_13824" data-name="Group 13824" transform="translate(47.248 49.483)">
      <g id="Group_13823" data-name="Group 13823">
        <rect id="Rectangle_2337" data-name="Rectangle 2337" width="2.184" height="7.645" fill="#b01116"/>
      </g>
    </g>
    <g id="Group_13826" data-name="Group 13826" transform="translate(1.115 16.752)">
      <g id="Group_13825" data-name="Group 13825" transform="translate(0 0)">
        <rect id="Rectangle_2338" data-name="Rectangle 2338" width="9.005" height="2.183" transform="translate(0 2.184) rotate(-14.035)" fill="#b01116"/>
      </g>
    </g>
    <g id="Group_13828" data-name="Group 13828" transform="translate(2.929 6.004)">
      <g id="Group_13827" data-name="Group 13827" transform="translate(0)">
        <rect id="Rectangle_2339" data-name="Rectangle 2339" width="2.183" height="9.394" transform="matrix(0.581, -0.814, 0.814, 0.581, 0, 1.776)" fill="#b01116"/>
      </g>
    </g>
    <g id="Group_13830" data-name="Group 13830" transform="translate(12.286 0.067)">
      <g id="Group_13829" data-name="Group 13829" transform="translate(0 0)">
        <rect id="Rectangle_2340" data-name="Rectangle 2340" width="2.184" height="9.017" transform="matrix(0.969, -0.248, 0.248, 0.969, 0, 0.541)" fill="#b01116"/>
      </g>
    </g>
  </g>
</svg>
