<svg xmlns="http://www.w3.org/2000/svg" width="56.087" height="60" viewBox="0 0 56.087 60">
  <path id="managerial_economics" d="M-423.5-3442v-1.875h9.213l-.175-3.75H-423.5v-1.875h8.949l-1.924-41.25h-5.15v2.985a2.808,2.808,0,0,1,1.875,2.64,2.816,2.816,0,0,1-2.813,2.813,2.816,2.816,0,0,1-2.813-2.812,2.808,2.808,0,0,1,1.875-2.64v-2.985h-6.562v4.688a.939.939,0,0,1,.78.417l1.875,2.813a.948.948,0,0,1,.157.521v9.375a.937.937,0,0,1-.938.938h-5.625a.937.937,0,0,1-.937-.937v-9.375a.947.947,0,0,1,.158-.521l1.875-2.812a.939.939,0,0,1,.78-.417v-4.687H-438.5v2.985a2.808,2.808,0,0,1,1.875,2.64,2.816,2.816,0,0,1-2.813,2.813,2.816,2.816,0,0,1-2.813-2.812,2.808,2.808,0,0,1,1.875-2.64v-2.985h-5.855l-1.687,18.834-1.868-.168,1.765-19.687a.937.937,0,0,1,.933-.854h6.712v-.937a8.447,8.447,0,0,1,8.438-8.437h1.875a8.447,8.447,0,0,1,8.437,8.438v.938h6.044a.938.938,0,0,1,.937.895l2.23,47.768a1.882,1.882,0,0,1-.518,1.382,1.882,1.882,0,0,1-1.355.581Zm-9.375-40.028v8.153h3.75v-8.153l-1.439-2.159h-.872Zm9.375-3.1a.939.939,0,0,0,.938.938.939.939,0,0,0,.938-.937.939.939,0,0,0-.937-.937A.939.939,0,0,0-423.5-3485.125Zm-16.875,0a.939.939,0,0,0,.938.938.939.939,0,0,0,.938-.937.939.939,0,0,0-.938-.937A.939.939,0,0,0-440.375-3485.125Zm1.875-8.437v.938h15v-.937a6.57,6.57,0,0,0-6.562-6.562h-1.875A6.57,6.57,0,0,0-438.5-3493.562ZM-466.625-3442a1.877,1.877,0,0,1-1.875-1.875v-24.375a1.877,1.877,0,0,1,1.875-1.875h39.375a1.877,1.877,0,0,1,1.875,1.875v24.375A1.877,1.877,0,0,1-427.25-3442Zm0-1.875h39.376V-3457H-431v-1.875h3.75v-3.75h-39.375v3.75h33.75V-3457h-33.75Zm0-20.625h39.375v-3.75h-39.375Zm31.862,18.236a3.713,3.713,0,0,1-1.862.514,3.754,3.754,0,0,1-3.75-3.75,3.754,3.754,0,0,1,3.75-3.75,3.7,3.7,0,0,1,1.862.514,3.7,3.7,0,0,1,1.866-.514,3.754,3.754,0,0,1,3.75,3.75,3.754,3.754,0,0,1-3.75,3.75A3.707,3.707,0,0,1-434.764-3446.264Zm1.4-5.05a3.711,3.711,0,0,1,.487,1.813,3.713,3.713,0,0,1-.487,1.813,1.856,1.856,0,0,0,.465.062,1.877,1.877,0,0,0,1.875-1.875,1.877,1.877,0,0,0-1.875-1.875A1.845,1.845,0,0,0-433.363-3451.313Zm-5.137,1.813a1.877,1.877,0,0,0,1.875,1.875,1.856,1.856,0,0,0,1.183-.433c.016-.017.023-.04.04-.055a1.849,1.849,0,0,0,.628-1.386,1.849,1.849,0,0,0-.627-1.386c-.017-.015-.025-.039-.04-.055a1.856,1.856,0,0,0-1.184-.434A1.877,1.877,0,0,0-438.5-3449.5Zm-15,1.875v-1.875h11.25v1.875Zm-7.5,0v-1.875h5.625v1.875Zm7.5-5.625v-1.875h1.875v1.875Zm-5.625,0v-1.875h3.75v1.875Zm-3.75,0v-1.875H-461v1.875Z" transform="translate(468.5 3502)" fill="#b01116"/>
</svg>
