<svg xmlns="http://www.w3.org/2000/svg" width="59.273" height="58.317" viewBox="0 0 59.273 58.317">
  <g id="manufacturing_competitiveness" transform="translate(0 -4)">
    <g id="Group_12995" data-name="Group 12995" transform="translate(0 4)">
      <g id="Group_12994" data-name="Group 12994">
        <path id="Path_292" data-name="Path 292" d="M13.466,175.472a2.8,2.8,0,0,0-2.39,1.353l-1.439,2.4-.076-.153V176.12l3.108-1.244a2.658,2.658,0,0,0-1.835-4.987L10.5,170l.386-.772a5.63,5.63,0,0,0,.591-2.5,2.729,2.729,0,0,0-5.169-1.22l-2.378,4.756-1.994,9.8-.019,12.616.75,3.824H0V203.2H14.34V196.5H11.472v-6.4l1.751-2.627,2.6-6.872a6.656,6.656,0,0,0,.424-2.344A2.79,2.79,0,0,0,13.466,175.472ZM11.445,171.7a.746.746,0,0,1,.515,1.4l-2.4.96v-1.726Zm.984,26.716v2.868H1.912v-2.868Zm1.609-18.486-2.465,6.575L9.56,189.523V196.5H4.608l-.784-3.919V180.347l1.868-9.341,2.321-4.641a.81.81,0,0,1,.73-.453.818.818,0,0,1,.816.816,3.716,3.716,0,0,1-.389,1.648l-1.523,3.046v8.1l1.836,3.671,3.231-5.385a.875.875,0,0,1,1.625.45A4.727,4.727,0,0,1,14.037,179.931Z" transform="translate(0 -144.88)" fill="#b01116"/>
        <path id="Path_293" data-name="Path 293" d="M373.595,196.5l.728-3.637.018-12.616-1.931-9.748-2.46-5a2.729,2.729,0,0,0-5.169,1.22,5.64,5.64,0,0,0,.591,2.5l.385.771-.337-.114a2.658,2.658,0,0,0-1.836,4.988l3.109,1.244v2.951l-.076.153-1.439-2.4A2.787,2.787,0,0,0,360,178.259a6.655,6.655,0,0,0,.424,2.344l2.5,6.677,1.852,2.822v6.4h-2.868V203.2h14.34V196.5Zm-9.3-23.4a.746.746,0,0,1,.516-1.4l1.884.634v1.726Zm.389,13.405-2.465-6.575a4.707,4.707,0,0,1-.3-1.672.875.875,0,0,1,1.625-.45l3.231,5.384,1.836-3.671v-8.1l-1.523-3.045a3.713,3.713,0,0,1-.389-1.648.816.816,0,0,1,1.547-.364L370.56,171l1.868,9.342v12.24l-.784,3.918h-4.952v-6.982Zm9.66,14.779H363.824v-2.868H374.34Z" transform="translate(-316.979 -144.88)" fill="#b01116"/>
        <path id="Path_294" data-name="Path 294" d="M154.424,21.208h2.257V15.472h-2.257a12.222,12.222,0,0,0-1.51-3.648l1.595-1.6-4.055-4.055-1.6,1.594a12.233,12.233,0,0,0-3.648-1.51V4h-5.736V6.257a12.223,12.223,0,0,0-3.648,1.51l-1.6-1.595-4.055,4.055,1.595,1.6a12.233,12.233,0,0,0-1.51,3.648H128v5.736h2.257a12.222,12.222,0,0,0,1.51,3.648l-1.595,1.6,4.055,4.055,1.465-1.465a2.432,2.432,0,0,0-.03.291,2.386,2.386,0,0,0,1.12,2.017,2.375,2.375,0,0,0,2.227,3.241H145.7a2.375,2.375,0,0,0,2.227-3.241,2.385,2.385,0,0,0,1.12-2.017,2.273,2.273,0,0,0-.026-.257l1.431,1.431,4.055-4.055-1.595-1.6A12.209,12.209,0,0,0,154.424,21.208ZM145.7,32.681H139.01a.478.478,0,0,1,0-.956H145.7a.478.478,0,0,1,0,.956Zm.956-2.868h-8.6a.478.478,0,0,1,0-.956h8.6a.478.478,0,1,1,0,.956Zm-3.346-8.78a2.868,2.868,0,1,0-1.912,0v5.912h-1.912V24.406l-.477-.276a6.692,6.692,0,1,1,6.69,0l-.477.276v2.538h-1.912Zm-.956-1.736a.956.956,0,1,1,.956-.956A.956.956,0,0,1,142.356,19.3Zm10.342.8a10.363,10.363,0,0,1-1.792,4.332l-.468.658,1.367,1.369L150.453,27.8l-1.369-1.369-.659.469c-.175.124-.366.249-.571.372a2.356,2.356,0,0,0-.719-.285V25.486a8.6,8.6,0,1,0-9.56,0v1.507a2.355,2.355,0,0,0-.734.293c-.208-.126-.405-.252-.585-.38l-.659-.469L134.228,27.8l-1.352-1.352,1.367-1.369-.468-.658a10.363,10.363,0,0,1-1.792-4.332l-.136-.8h-1.936V17.384h1.936l.135-.8a10.363,10.363,0,0,1,1.792-4.332l.468-.658-1.367-1.369,1.352-1.352,1.369,1.367.658-.468a10.362,10.362,0,0,1,4.332-1.792l.8-.136V5.912H143.3V7.848l.8.135a10.362,10.362,0,0,1,4.332,1.792l.658.468,1.369-1.367,1.352,1.352L150.437,11.6l.468.658a10.362,10.362,0,0,1,1.792,4.332l.136.8h1.936V19.3h-1.936Z" transform="translate(-112.704 -4)" fill="#b01116"/>
        <rect id="Rectangle_2074" data-name="Rectangle 2074" width="1.912" height="1.912" transform="translate(28.681 32.505)" fill="#b01116"/>
        <rect id="Rectangle_2075" data-name="Rectangle 2075" width="1.912" height="1.912" transform="translate(28.681 36.329)" fill="#b01116"/>
        <rect id="Rectangle_2076" data-name="Rectangle 2076" width="1.912" height="1.912" transform="translate(28.681 40.153)" fill="#b01116"/>
        <rect id="Rectangle_2077" data-name="Rectangle 2077" width="1.912" height="1.912" transform="translate(28.681 43.977)" fill="#b01116"/>
      </g>
    </g>
  </g>
</svg>
