<svg xmlns="http://www.w3.org/2000/svg" width="60.392" height="58.2" viewBox="0 0 60.392 58.2">
  <g id="knowledge" transform="translate(0.109 -8.335)">
    <g id="Group_13856" data-name="Group 13856" transform="translate(14.549 15.685)">
      <g id="Group_13855" data-name="Group 13855">
        <path id="Path_882" data-name="Path 882" d="M134.6,92.463a14.233,14.233,0,0,0,8.876-13.4c0-8.067-6.969-14.629-15.536-14.629S112.408,71,112.408,79.064a14.233,14.233,0,0,0,8.876,13.4l.12.065.822,1.35a3.072,3.072,0,0,0-.725,4.735,3.094,3.094,0,0,0,2.3,5.179h8.286a3.094,3.094,0,0,0,2.3-5.179,3.072,3.072,0,0,0-.725-4.735l.822-1.35Zm-2.517,9.257H123.8a1.036,1.036,0,1,1,0-2.071h8.286a1.036,1.036,0,0,1,0,2.071Zm0-4.143H123.8a1.036,1.036,0,1,1,0-2.071h8.286a1.036,1.036,0,0,1,0,2.071Zm1.577-6.961-.414.225a1.041,1.041,0,0,0-.39.371l-1.354,2.222h-.454V85.578l4.875-4.875-1.465-1.465-5.179,5.179a1.036,1.036,0,0,0-.3.732v8.286h-2.071V85.149a1.036,1.036,0,0,0-.3-.732l-5.179-5.179L119.962,80.7l4.875,4.875v7.857h-.454l-1.354-2.222a1.041,1.041,0,0,0-.39-.371l-.414-.225a1.114,1.114,0,0,0-.1-.048,12.2,12.2,0,0,1-7.642-11.5c0-6.924,6.04-12.558,13.464-12.558s13.464,5.634,13.464,12.558a12.2,12.2,0,0,1-7.642,11.5C133.731,90.583,133.7,90.6,133.664,90.617Z" transform="translate(-112.407 -64.435)" fill="#b01116" stroke="#fbf2f3" stroke-width="0.2"/>
      </g>
    </g>
    <g id="Group_13858" data-name="Group 13858" transform="translate(7.873 15.795)">
      <g id="Group_13857" data-name="Group 13857">
        <rect id="Rectangle_2341" data-name="Rectangle 2341" width="2.071" height="6.948" transform="translate(0 1.853) rotate(-63.435)" fill="#b01116" stroke="#fbf2f3" stroke-width="0.2"/>
      </g>
    </g>
    <g id="Group_13860" data-name="Group 13860" transform="translate(44.913 16.193)">
      <g id="Group_13859" data-name="Group 13859">
        <rect id="Rectangle_2342" data-name="Rectangle 2342" width="6.948" height="2.071" transform="translate(0 2.198) rotate(-18.446)" fill="#b01116" stroke="#fbf2f3" stroke-width="0.2"/>
      </g>
    </g>
    <g id="Group_13862" data-name="Group 13862" transform="translate(4.194 29.149)">
      <g id="Group_13861" data-name="Group 13861">
        <rect id="Rectangle_2343" data-name="Rectangle 2343" width="6.214" height="2.071" fill="#b01116" stroke="#fbf2f3" stroke-width="0.2"/>
      </g>
    </g>
    <g id="Group_13864" data-name="Group 13864" transform="translate(49.765 29.149)">
      <g id="Group_13863" data-name="Group 13863">
        <rect id="Rectangle_2344" data-name="Rectangle 2344" width="6.214" height="2.071" fill="#b01116" stroke="#fbf2f3" stroke-width="0.2"/>
      </g>
    </g>
    <g id="Group_13866" data-name="Group 13866" transform="translate(7.873 41.686)">
      <g id="Group_13865" data-name="Group 13865">
        <rect id="Rectangle_2345" data-name="Rectangle 2345" width="6.948" height="2.071" transform="translate(0 3.107) rotate(-26.565)" fill="#b01116" stroke="#fbf2f3" stroke-width="0.2"/>
      </g>
    </g>
    <g id="Group_13868" data-name="Group 13868" transform="translate(45.158 41.69)">
      <g id="Group_13867" data-name="Group 13867">
        <rect id="Rectangle_2346" data-name="Rectangle 2346" width="2.071" height="6.948" transform="translate(0 1.853) rotate(-63.435)" fill="#b01116" stroke="#fbf2f3" stroke-width="0.2"/>
      </g>
    </g>
    <g id="Group_13870" data-name="Group 13870" transform="translate(29.051 8.435)">
      <g id="Group_13869" data-name="Group 13869" transform="translate(0 0)">
        <rect id="Rectangle_2347" data-name="Rectangle 2347" width="2.071" height="5.179" fill="#b01116" stroke="#fbf2f3" stroke-width="0.2"/>
      </g>
    </g>
    <g id="Group_13872" data-name="Group 13872" transform="translate(0.051 55.042)">
      <g id="Group_13871" data-name="Group 13871">
        <path id="Path_883" data-name="Path 883" d="M60.489,370.506v-2.071c-13.512,0-27.871,3.266-27.964,9.321H28.382c-.093-6.055-14.451-9.321-27.964-9.321v2.071c15.173,0,25.768,3.808,25.887,7.25H.418v2.071H60.489v-2.071H34.6C34.721,374.314,45.316,370.506,60.489,370.506Z" transform="translate(-0.418 -368.435)" fill="#b01116" stroke="#fbf2f3" stroke-width="0.2"/>
      </g>
    </g>
    <g id="Group_13874" data-name="Group 13874" transform="translate(-0.004 60.223)">
      <g id="Group_13873" data-name="Group 13873" transform="translate(0 0)">
        <rect id="Rectangle_2348" data-name="Rectangle 2348" width="2.071" height="19.71" transform="translate(0 2.069) rotate(-86.985)" fill="#b01116" stroke="#fbf2f3" stroke-width="0.2"/>
      </g>
    </g>
    <g id="Group_13876" data-name="Group 13876" transform="translate(40.387 60.221)">
      <g id="Group_13875" data-name="Group 13875" transform="translate(0 0)">
        <rect id="Rectangle_2349" data-name="Rectangle 2349" width="19.71" height="2.071" transform="translate(0 1.039) rotate(-3.021)" fill="#b01116" stroke="#fbf2f3" stroke-width="0.2"/>
      </g>
    </g>
  </g>
</svg>
