<svg xmlns="http://www.w3.org/2000/svg" width="60" height="60" viewBox="0 0 60 60">
  <g id="Marketing_Management" data-name="Marketing Management" transform="translate(0 -0.001)">
    <path id="Union_8" data-name="Union 8" d="M28.293,59.707l-11-11a1,1,0,0,1,0-1.414l6-6A1,1,0,0,1,24,41h4a1,1,0,0,1,.707.293l9,9a1,1,0,0,1,0,1.414l-8,8a1,1,0,0,1-1.414,0ZM19.414,48,29,57.586,35.586,51l-8-8H24.414Zm31.808,9.708-9.9-9.9a1,1,0,0,1,0-1.414l7.072-7.072a1,1,0,0,1,1.414,0l9.9,9.9a1,1,0,0,1,0,1.414l-7.071,7.071a1,1,0,0,1-1.414,0ZM43.443,47.1l8.486,8.484,4.827-4.826-7.025-.54a1,1,0,0,1-.92-.921l-.541-7.024Zm7.3,1.189,5.643.433-6.077-6.076Zm-24.446,4,4-4,1.414,1.414-4,4Zm-3-3,4-4,1.414,1.414-4,4ZM8,48a1,1,0,0,1-1-1V37.892a3.872,3.872,0,0,1-3-3.764V34H1a1,1,0,0,1-1-1V27a1,1,0,0,1,1-1H4v-.128A3.876,3.876,0,0,1,7.872,22H18.128a3.864,3.864,0,0,1,3.63,2.569l16.836-7.483A1,1,0,0,1,40,18V42a1,1,0,0,1-1.406.914L21.758,35.431A3.867,3.867,0,0,1,19,37.892v2.116A3,3,0,0,1,16.008,43H15v4a1,1,0,0,1-1,1Zm1-2h4V38H9Zm6-5h1.008A.993.993,0,0,0,17,40.008V38H15ZM34,21.316V38.684l4,1.777V19.539ZM22,26.65v6.7L32,37.8V22.2ZM6,25.872v8.256A1.874,1.874,0,0,0,7.872,36H18.128A1.874,1.874,0,0,0,20,34.128V25.872A1.874,1.874,0,0,0,18.128,24H7.872A1.874,1.874,0,0,0,6,25.872ZM2,32H4V28H2Zm47,5a1,1,0,0,1-1-1V35H43a1,1,0,0,1-1-1V31a3.991,3.991,0,0,1,2.246-3.577,3,3,0,1,1,3.508,0,4,4,0,0,1,1.251.965,4.014,4.014,0,0,1,1.676-1.142,4,4,0,1,1,4.638,0A4.012,4.012,0,0,1,58,31.019V36a1,1,0,0,1-1,1Zm1-5.981V35h6V31.019A2.022,2.022,0,0,0,53.982,29H52.02A2.022,2.022,0,0,0,50,31.019ZM44,31v2h4V31a2,2,0,1,0-4,0Zm7-7a2,2,0,1,0,2-2A2,2,0,0,0,51,24Zm-6,1a1,1,0,1,0,1-1A1,1,0,0,0,45,25ZM27,19A7,7,0,1,1,31.184,6.4L37.293.293l1.416,1.414L32.6,7.816A6.986,6.986,0,0,1,27.016,19Zm-5-7a5,5,0,1,0,5-5A5,5,0,0,0,22,12Zm22,5a1,1,0,0,1-1-1V9a1,1,0,0,1,.293-.707l8-8a1,1,0,0,1,1.414,0l7,7a1,1,0,0,1,0,1.414l-8,8A1,1,0,0,1,51,17Zm1-7.586V15h5.586l7-7L52,2.414ZM47,11.5A1.5,1.5,0,1,1,48.5,13,1.5,1.5,0,0,1,47,11.5Z" transform="translate(0 0.001)" fill="#4086a2"/>
  </g>
</svg>
