<svg xmlns="http://www.w3.org/2000/svg" xmlns:xlink="http://www.w3.org/1999/xlink" width="68" height="68" viewBox="0 0 68 68">
  <defs>
    <clipPath id="clip-path">
      <rect id="Rectangle_2155" data-name="Rectangle 2155" width="68" height="68" transform="translate(1166 1963)" fill="#551818" opacity="0.3"/>
    </clipPath>
  </defs>
  <g id="online_discussion" transform="translate(-1166 -1963)" clip-path="url(#clip-path)">
    <g id="_004-message" data-name="004-message" transform="translate(1166.001 1993.001)">
      <path id="Union_25" data-name="Union 25" d="M-15323.271-1961a1.139,1.139,0,0,1-1.135-1.134v-1.707c-.521.228-1.047.443-1.572.644a1.173,1.173,0,0,1-.4.076,1.141,1.141,0,0,1-1.062-.734,1.137,1.137,0,0,1,.66-1.463c.8-.3,1.6-.641,2.377-1.013v-.338a5.675,5.675,0,0,1,3.9-5.382,6.755,6.755,0,0,1-.5-2.55,6.807,6.807,0,0,1,6.8-6.8,6.763,6.763,0,0,1,4.15,1.418c.289-.535.563-1.077.82-1.623a1.13,1.13,0,0,1,1.5-.551,1.13,1.13,0,0,1,.547,1.507c-.381.827-.8,1.645-1.26,2.441a6.75,6.75,0,0,1,1.039,3.606,6.76,6.76,0,0,1-.5,2.551,5.672,5.672,0,0,1,3.9,5.381v4.535a1.139,1.139,0,0,1-1.135,1.134Zm1.133-5.669v3.4h15.869v-3.4a3.4,3.4,0,0,0-2.9-3.363,6.786,6.786,0,0,1-5.029,2.229h0a6.758,6.758,0,0,1-1.115-.092h0l-.082-.014h-.006l-.068-.013-.025,0-.055-.011-.037-.008-.037-.008-.062-.013-.016,0a6.8,6.8,0,0,1-3.521-2.057A3.4,3.4,0,0,0-15322.138-1966.67Zm7.934-3.4a4.491,4.491,0,0,0,3.6-1.819,1.23,1.23,0,0,1,.125-.138,4.512,4.512,0,0,0,.8-2.578,4.52,4.52,0,0,0-.867-2.667,1.115,1.115,0,0,1-.262-.325,4.515,4.515,0,0,0-3.4-1.544,4.539,4.539,0,0,0-4.535,4.535,4.523,4.523,0,0,0,.811,2.586,1.184,1.184,0,0,1,.119.13,4.5,4.5,0,0,0,2.943,1.77l.012,0,.1.014.043,0,.074.008.057.005.061,0,.064,0,.061,0,.063,0h.121Zm-27.889,8.821a1.135,1.135,0,0,1-.99-1.262,1.13,1.13,0,0,1,1.258-.987,32.174,32.174,0,0,0,7.625,0,1.134,1.134,0,0,1,1.264.991,1.129,1.129,0,0,1-.992,1.258,34.5,34.5,0,0,1-4.072.245A34.836,34.836,0,0,1-15342.093-1961.246Zm-28.775.245a1.139,1.139,0,0,1-1.133-1.134v-4.535a5.675,5.675,0,0,1,3.9-5.382,6.717,6.717,0,0,1-.5-2.55,6.76,6.76,0,0,1,1.035-3.6c-.453-.8-.877-1.615-1.264-2.442a1.134,1.134,0,0,1,.547-1.507,1.137,1.137,0,0,1,1.508.551c.254.546.529,1.089.816,1.625a6.769,6.769,0,0,1,4.154-1.42,6.807,6.807,0,0,1,6.8,6.8,6.716,6.716,0,0,1-.5,2.55,5.669,5.669,0,0,1,3.9,5.383v.336c.783.373,1.58.713,2.379,1.015a1.133,1.133,0,0,1,.658,1.463,1.13,1.13,0,0,1-1.059.734,1.127,1.127,0,0,1-.4-.076c-.529-.2-1.059-.413-1.58-.641v1.7a1.135,1.135,0,0,1-1.133,1.134Zm1.135-5.669v3.4h15.863v-3.4a3.4,3.4,0,0,0-2.9-3.363,6.8,6.8,0,0,1-3.7,2.1h-.008l-.08.015h-.008l-.07.013-.021,0-.066.011-.02,0-.059.009-.031,0-.057.008-.031,0-.057.007-.029,0-.057.006-.031,0-.049,0-.041,0-.051,0-.035,0-.055,0-.033,0-.055,0-.033,0-.053,0h-.035l-.066,0h-.4l-.066,0h-.033l-.053,0-.033,0-.057,0-.031,0-.057,0-.033,0-.053,0-.035,0-.057-.006-.021,0-.066-.007-.021,0-.064-.008-.023,0-.064-.009-.021,0-.068-.01-.014,0-.076-.013h-.008a6.8,6.8,0,0,1-3.867-2.126A3.4,3.4,0,0,0-15369.733-1966.67Zm7.932-3.4.127,0h.033l.094,0,.033,0,.1-.007.025,0,.111-.011h.008a4.5,4.5,0,0,0,3.076-1.788,1.2,1.2,0,0,1,.119-.134,4.513,4.513,0,0,0,.811-2.583,4.543,4.543,0,0,0-4.535-4.535,4.52,4.52,0,0,0-3.414,1.557,1.1,1.1,0,0,1-.24.3,4.513,4.513,0,0,0-.877,2.677,4.509,4.509,0,0,0,.813,2.586,1.154,1.154,0,0,1,.117.131,4.5,4.5,0,0,0,3.074,1.788h0l.115.012.023,0,.1.007.033,0,.094,0h.035l.125,0Zm36.6-4.869-6.465-6.465h-10.861a2.269,2.269,0,0,1-2.268-2.272v-4.531h-.666l-6.471,6.469a1.114,1.114,0,0,1-.8.333,1.115,1.115,0,0,1-.432-.089,1.128,1.128,0,0,1-.7-1.045v-5.669H-15355a2.268,2.268,0,0,1-2.268-2.268v-13.6a2.268,2.268,0,0,1,2.268-2.268h20.395a2.271,2.271,0,0,1,2.268,2.268v4.531h10.2a2.272,2.272,0,0,1,2.268,2.272v13.592a2.272,2.272,0,0,1-2.268,2.272h-1.133v5.665a1.138,1.138,0,0,1-.7,1.049,1.1,1.1,0,0,1-.432.084A1.137,1.137,0,0,1-15325.206-1974.935Zm-17.33-8.737,11.334,0a1.116,1.116,0,0,1,.8.334l4.869,4.864v-4.064a1.132,1.132,0,0,1,1.133-1.134h2.264l.006-13.6-14.127,0-6.277,0v13.592Zm-12.467-6.8h2.268a1.135,1.135,0,0,1,1.133,1.134v4.064l4.865-4.864a1.132,1.132,0,0,1,.8-.333h1.139v-6.794a2.269,2.269,0,0,1,2.268-2.272h7.932v-4.531h-20.4Zm22.666,3.4a1.137,1.137,0,0,1-1.135-1.134,1.14,1.14,0,0,1,1.135-1.134h6.8a1.137,1.137,0,0,1,1.133,1.134,1.134,1.134,0,0,1-1.133,1.134Zm-6.8,0a1.132,1.132,0,0,1-1.133-1.134,1.135,1.135,0,0,1,1.133-1.134h2.268a1.136,1.136,0,0,1,1.131,1.134,1.133,1.133,0,0,1-1.131,1.134Zm33.338-1.254a1.13,1.13,0,0,1-.924-1.307,32.425,32.425,0,0,0,.453-5.371c0-1.01-.049-2.028-.146-3.028a1.134,1.134,0,0,1,1.021-1.236,1.139,1.139,0,0,1,1.236,1.022c.1,1.072.156,2.161.156,3.241a33.9,33.9,0,0,1-.49,5.753,1.129,1.129,0,0,1-1.115.943A.924.924,0,0,1-15305.8-1988.323Zm-65.719-.934A34.368,34.368,0,0,1-15372-1995c0-1.085.053-2.179.156-3.25a1.142,1.142,0,0,1,1.23-1.023,1.139,1.139,0,0,1,1.023,1.24c-.094,1-.143,2.019-.143,3.032a31.755,31.755,0,0,0,.453,5.366,1.139,1.139,0,0,1-.93,1.307,1.4,1.4,0,0,1-.189.013A1.131,1.131,0,0,1-15371.517-1989.256Zm43.715-2.343a1.132,1.132,0,0,1-1.133-1.134,1.132,1.132,0,0,1,1.133-1.134h2.268a1.129,1.129,0,0,1,1.129,1.134,1.129,1.129,0,0,1-1.129,1.134Zm-11.334,0a1.132,1.132,0,0,1-1.133-1.134,1.132,1.132,0,0,1,1.133-1.134h6.8a1.134,1.134,0,0,1,1.135,1.134,1.134,1.134,0,0,1-1.135,1.134Zm30.816-14.619c-.3-.8-.643-1.6-1.016-2.383h-13.936a1.136,1.136,0,0,1-1.135-1.134v-4.535a5.679,5.679,0,0,1,3.9-5.381,6.765,6.765,0,0,1-.482-2.135c-.752-.479-1.527-.928-2.307-1.336a1.134,1.134,0,0,1-.48-1.53,1.136,1.136,0,0,1,1.529-.48c.525.277,1.049.568,1.564.874a6.813,6.813,0,0,1,6.484-4.742,6.808,6.808,0,0,1,6.8,6.8,6.78,6.78,0,0,1-.5,2.547,5.677,5.677,0,0,1,3.9,5.381v4.535a1.136,1.136,0,0,1-1.135,1.134h-1.707c.229.522.445,1.05.645,1.579a1.132,1.132,0,0,1-.656,1.463,1.172,1.172,0,0,1-.406.071A1.138,1.138,0,0,1-15308.319-2006.219Zm2.051-4.646v-3.406a3.4,3.4,0,0,0-2.9-3.359,6.786,6.786,0,0,1-5.029,2.229h0a6.826,6.826,0,0,1-1.111-.091l-.01,0-.068-.012-.021,0-.053-.01-.041-.008-.039-.008-.059-.012-.016,0a6.809,6.809,0,0,1-3.611-2.079,3.4,3.4,0,0,0-2.9,3.358v3.406h13.438a1.122,1.122,0,0,1,.154,0Zm-7.936-6.8a4.5,4.5,0,0,0,3.6-1.814,1.084,1.084,0,0,1,.123-.136,4.516,4.516,0,0,0,.807-2.58,4.535,4.535,0,0,0-4.529-4.535,4.538,4.538,0,0,0-4.523,4.2,1.176,1.176,0,0,1-.012.351,4.479,4.479,0,0,0,.814,2.571,1.175,1.175,0,0,1,.115.128,4.513,4.513,0,0,0,2.945,1.766h0l.115.015.035,0,.078.008.055,0,.066,0,.061,0,.063,0,.061,0h.121Zm-54.943,12.107a1.135,1.135,0,0,1-.658-1.463c.2-.529.418-1.056.646-1.579h-1.709a1.132,1.132,0,0,1-1.133-1.134v-4.535a5.677,5.677,0,0,1,3.9-5.381,6.738,6.738,0,0,1-.494-2.547,6.806,6.806,0,0,1,6.8-6.8,6.812,6.812,0,0,1,6.48,4.743c.516-.306,1.039-.6,1.563-.875a1.132,1.132,0,0,1,1.529.48,1.13,1.13,0,0,1-.475,1.53c-.785.409-1.561.859-2.312,1.339a6.8,6.8,0,0,1-.48,2.132,5.675,5.675,0,0,1,3.895,5.382v4.535a1.132,1.132,0,0,1-1.133,1.134h-13.934c-.373.782-.713,1.58-1.014,2.383a1.145,1.145,0,0,1-1.064.729A1.155,1.155,0,0,1-15369.147-2005.561Zm15.277-5.3v-3.406a3.4,3.4,0,0,0-2.9-3.359,6.782,6.782,0,0,1-4.67,2.22h0l-.086,0h0l-.076,0h-.395l-.066,0-.035,0-.051,0-.035,0-.055,0-.033,0-.055,0-.035,0-.051,0-.039,0-.051,0-.029,0-.059-.006-.029,0-.057-.007-.031,0-.057-.008-.031,0-.059-.009-.021,0-.066-.011-.018,0-.072-.013h-.008l-.08-.016h0a6.8,6.8,0,0,1-3.7-2.1,3.4,3.4,0,0,0-2.9,3.358v3.406h2.275a1.122,1.122,0,0,1,.154,0Zm-7.932-6.8.127,0h.029l.1,0,.031,0,.1-.008.021,0a4.519,4.519,0,0,0,3.2-1.8,1.031,1.031,0,0,1,.117-.132,4.512,4.512,0,0,0,.813-2.568,1.115,1.115,0,0,1-.012-.351,4.542,4.542,0,0,0-4.523-4.2,4.537,4.537,0,0,0-4.531,4.535,4.512,4.512,0,0,0,.814,2.588,1.009,1.009,0,0,1,.115.129,4.5,4.5,0,0,0,3.193,1.8l.021,0,.1.008.031,0,.1,0h.029l.127,0Zm32.848-7.754a31.725,31.725,0,0,0-5.988-1.165,1.133,1.133,0,0,1-1.018-1.236,1.138,1.138,0,0,1,1.234-1.023,34.236,34.236,0,0,1,6.422,1.25,1.135,1.135,0,0,1,.76,1.409,1.137,1.137,0,0,1-1.086.814A1.219,1.219,0,0,1-15328.954-2025.422Zm-19.5-.769a1.131,1.131,0,0,1,.766-1.4,33.779,33.779,0,0,1,6.42-1.25,1.139,1.139,0,0,1,1.236,1.023,1.139,1.139,0,0,1-1.023,1.236,31.48,31.48,0,0,0-5.988,1.16,1.177,1.177,0,0,1-.324.049A1.137,1.137,0,0,1-15348.45-2026.191Z" transform="translate(15372 1999)" fill="#b01116"/>
    </g>
  </g>
</svg>
