<svg xmlns="http://www.w3.org/2000/svg" width="59.971" height="60" viewBox="0 0 59.971 60">
  <path id="operational_management" d="M-896.586-3362a1,1,0,0,1-.98-.8l-.305-1.452c-.251-.06-.5-.127-.752-.2l-1,1.115a1,1,0,0,1-1.139.253,14.989,14.989,0,0,1-3.154-1.842,1,1,0,0,1-.348-1.113l.46-1.4c-.189-.178-.374-.363-.552-.552l-1.4.46a1.006,1.006,0,0,1-1.114-.349,15.052,15.052,0,0,1-1.84-3.153,1,1,0,0,1,.253-1.139l1.113-1c-.075-.25-.143-.5-.2-.752l-1.452-.305a1,1,0,0,1-.8-.98v-3.417a1,1,0,0,1,.8-.98l1.452-.305c.06-.251.127-.5.2-.752l-1.114-1a1,1,0,0,1-.253-1.139,14.99,14.99,0,0,1,1.842-3.154,1.008,1.008,0,0,1,1.112-.348l1.4.46c.178-.189.363-.374.552-.552l-.46-1.4a1,1,0,0,1,.349-1.114,15.049,15.049,0,0,1,3.152-1.84,1.006,1.006,0,0,1,1.139.253l1,1.114c.249-.075.5-.143.752-.2l.305-1.452a1,1,0,0,1,.98-.8h3.417a1,1,0,0,1,.98.8l.305,1.452c.251.06.5.127.752.2l1-1.114a1.007,1.007,0,0,1,1.139-.253,14.993,14.993,0,0,1,3.154,1.843,1,1,0,0,1,.348,1.112l-.46,1.4c.189.178.374.363.552.552l1.4-.46a1,1,0,0,1,1.113.349,15.051,15.051,0,0,1,1.84,3.152,1,1,0,0,1-.253,1.139l-1.113,1c.075.249.143.5.2.752l1.452.305a1,1,0,0,1,.8.98v3.417a1,1,0,0,1-.8.98l-1.452.305c-.06.251-.127.5-.2.752l1.114,1a1,1,0,0,1,.253,1.139,15.007,15.007,0,0,1-1.842,3.154,1,1,0,0,1-1.112.348l-1.4-.46c-.178.189-.363.374-.552.552l.46,1.4a1,1,0,0,1-.349,1.114,15.061,15.061,0,0,1-3.152,1.84,1,1,0,0,1-1.139-.253l-1-1.114c-.249.075-.5.143-.752.2l-.305,1.452a1,1,0,0,1-.98.8Zm-.262-4.08a1,1,0,0,1,.8.78l.273,1.3h1.791l.273-1.3a1,1,0,0,1,.8-.78,10.756,10.756,0,0,0,1.745-.471,1.007,1.007,0,0,1,1.086.275l.942,1.051a13.045,13.045,0,0,0,1.509-.885l-.435-1.323a1,1,0,0,1,.3-1.077,10.948,10.948,0,0,0,1.282-1.282,1.006,1.006,0,0,1,1.078-.3l1.324.436a13.145,13.145,0,0,0,.885-1.509l-1.051-.941a1,1,0,0,1-.275-1.085,10.9,10.9,0,0,0,.471-1.747,1,1,0,0,1,.78-.8l1.3-.273v-1.791l-1.3-.273a1,1,0,0,1-.78-.8,10.776,10.776,0,0,0-.471-1.744,1,1,0,0,1,.275-1.086l1.051-.942a13.071,13.071,0,0,0-.885-1.509l-1.323.436a1.011,1.011,0,0,1-1.077-.3,10.939,10.939,0,0,0-1.283-1.281,1,1,0,0,1-.3-1.078l.435-1.323a13.121,13.121,0,0,0-1.509-.885l-.941,1.051a1,1,0,0,1-1.085.275,10.882,10.882,0,0,0-1.746-.471,1,1,0,0,1-.8-.78l-.273-1.3h-1.791l-.273,1.3a1,1,0,0,1-.8.78,10.807,10.807,0,0,0-1.745.471,1.006,1.006,0,0,1-1.086-.275l-.942-1.051a13.047,13.047,0,0,0-1.509.885l.436,1.323a1,1,0,0,1-.3,1.077,10.941,10.941,0,0,0-1.282,1.283,1,1,0,0,1-1.078.3l-1.324-.435a13.159,13.159,0,0,0-.885,1.509l1.051.941a1,1,0,0,1,.275,1.085,10.9,10.9,0,0,0-.471,1.747,1,1,0,0,1-.78.8l-1.3.273v1.791l1.3.273a1,1,0,0,1,.78.8,10.792,10.792,0,0,0,.471,1.745,1,1,0,0,1-.275,1.086l-1.051.942a13.08,13.08,0,0,0,.885,1.509l1.323-.435a1.006,1.006,0,0,1,1.077.3,10.96,10.96,0,0,0,1.283,1.282,1,1,0,0,1,.3,1.078l-.435,1.324a13.163,13.163,0,0,0,1.509.885l.941-1.051a1.01,1.01,0,0,1,1.085-.275h0A10.885,10.885,0,0,0-896.848-3366.081Zm-7.047-10.834a9.017,9.017,0,0,1,9.017-9.017,9.017,9.017,0,0,1,9.017,9.017,9.027,9.027,0,0,1-9.017,9.017A9.017,9.017,0,0,1-903.894-3376.915Zm2,0a7.022,7.022,0,0,0,7.013,7.013,7.013,7.013,0,0,0,7.013-7.013,7.013,7.013,0,0,0-7.013-7.013A7.013,7.013,0,0,0-901.891-3376.915Zm5.3,3.714-3.006-3.006,1.417-1.417,2.23,2.23,4.307-5.169,1.54,1.284-5.009,6.011a1,1,0,0,1-.725.359h-.045A1,1,0,0,1-896.588-3373.2Zm-23.337-.708h0a1,1,0,0,1-1-1v-2h-13.026a1,1,0,0,1-1-1v-17.032h2v16.03h12.023v-2a1,1,0,0,1,.081-.4,1,1,0,0,1,1.315-.525l7.013,3.006a1,1,0,0,1,.527.527,1,1,0,0,1-.527,1.314l-7.013,3.006a.987.987,0,0,1-.393.081Zm1-2.521,3.468-1.486-3.468-1.486Zm-10.649-19.542a12.716,12.716,0,0,1-2.744-.921,1,1,0,0,1-.577-.817l-.178-1.947q-.35-.238-.671-.495l-1.839.421a1,1,0,0,1-.971-.308,13.318,13.318,0,0,1-1.7-2.383,1,1,0,0,1,.008-.991l.972-1.673c-.1-.268-.182-.546-.261-.84l-1.749-.771a1,1,0,0,1-.6-.917v-2.722a1,1,0,0,1,.6-.917l1.749-.771c.079-.293.165-.571.261-.839l-.972-1.673a1,1,0,0,1-.008-.991,13.292,13.292,0,0,1,1.7-2.383.994.994,0,0,1,.971-.308l1.84.421c.214-.171.439-.336.671-.495l.178-1.946a1,1,0,0,1,.577-.818,12.742,12.742,0,0,1,2.744-.922,1,1,0,0,1,.965.327l1.284,1.49h.771l1.284-1.49a1,1,0,0,1,.965-.327,12.729,12.729,0,0,1,2.744.921,1,1,0,0,1,.577.817l.178,1.947q.35.238.671.5l1.839-.421a1,1,0,0,1,.971.308,13.309,13.309,0,0,1,1.7,2.383,1,1,0,0,1-.008.991l-.972,1.673c.1.268.182.546.261.839l1.749.771a1,1,0,0,1,.6.917v2.722a1,1,0,0,1-.6.917l-1.748.771c-.079.293-.165.571-.261.839l.972,1.673a1,1,0,0,1,.008.991,13.273,13.273,0,0,1-1.7,2.383,1,1,0,0,1-.971.308l-1.839-.42c-.214.171-.439.336-.671.495l-.178,1.946a1,1,0,0,1-.577.818,12.738,12.738,0,0,1-2.744.921.987.987,0,0,1-.206.022,1,1,0,0,1-.759-.348l-1.284-1.49h-.771l-1.284,1.49a1,1,0,0,1-.758.348A.993.993,0,0,1-929.572-3395.972Zm3.479-3.82a1,1,0,0,1,.759.348l1.185,1.376a11.056,11.056,0,0,0,1.225-.416l.168-1.839a1,1,0,0,1,.47-.76,9.146,9.146,0,0,0,1.229-.909.993.993,0,0,1,.887-.225l1.732.4a11.383,11.383,0,0,0,.784-1.095l-.917-1.58a1,1,0,0,1-.059-.886,9.212,9.212,0,0,0,.464-1.486,1,1,0,0,1,.571-.693l1.6-.705h0v-1.417l-1.6-.706a1,1,0,0,1-.571-.693,9.213,9.213,0,0,0-.464-1.486,1,1,0,0,1,.059-.886l.917-1.58a11.383,11.383,0,0,0-.784-1.095l-1.732.4a1,1,0,0,1-.887-.225,9.037,9.037,0,0,0-1.228-.908,1,1,0,0,1-.47-.759l-.168-1.84a11.081,11.081,0,0,0-1.226-.416l-1.185,1.375a1,1,0,0,1-.759.348h-1.689a1,1,0,0,1-.759-.348l-1.185-1.375a11.056,11.056,0,0,0-1.225.416l-.168,1.838a1,1,0,0,1-.47.76,9.144,9.144,0,0,0-1.229.909,1,1,0,0,1-.888.225l-1.732-.4a11.348,11.348,0,0,0-.784,1.095l.917,1.58a1,1,0,0,1,.059.886,9.2,9.2,0,0,0-.464,1.486,1,1,0,0,1-.571.693l-1.6.706v1.417l1.6.706a1,1,0,0,1,.571.692,9.21,9.21,0,0,0,.464,1.486,1,1,0,0,1-.059.886l-.917,1.58a11.37,11.37,0,0,0,.784,1.095l1.732-.4a.994.994,0,0,1,.888.225,9.035,9.035,0,0,0,1.228.908,1,1,0,0,1,.47.759l.168,1.84a11.064,11.064,0,0,0,1.226.416l1.185-1.376a1,1,0,0,1,.759-.348Zm33.2-.165a.993.993,0,0,1-.207-.022,10.849,10.849,0,0,1-2.324-.78,1,1,0,0,1-.577-.818l-.141-1.544c-.151-.1-.3-.214-.441-.326l-1.454.334a1,1,0,0,1-.971-.308,11.309,11.309,0,0,1-1.442-2.015,1,1,0,0,1,.008-.992l.771-1.329c-.063-.181-.121-.367-.175-.561l-1.383-.61a1,1,0,0,1-.6-.917v-2.268a1,1,0,0,1,.6-.917l1.383-.611q.081-.29.175-.562l-.77-1.328a1,1,0,0,1-.008-.991,11.249,11.249,0,0,1,1.441-2.016,1,1,0,0,1,.97-.308l1.456.333q.214-.168.44-.325l.141-1.544a1,1,0,0,1,.577-.818,10.851,10.851,0,0,1,2.324-.78.994.994,0,0,1,.965.327l1.02,1.184h.489l1.02-1.184a1,1,0,0,1,.965-.327,10.848,10.848,0,0,1,2.324.78,1,1,0,0,1,.577.818l.141,1.544q.226.157.44.325l1.456-.333a1,1,0,0,1,.97.308,11.335,11.335,0,0,1,1.442,2.015,1,1,0,0,1-.008.992l-.771,1.329c.063.181.121.367.175.561l1.383.61a1,1,0,0,1,.6.917v2.268a1,1,0,0,1-.6.917l-1.383.611c-.054.194-.112.38-.175.561l.771,1.329a1,1,0,0,1,.008.992,11.324,11.324,0,0,1-1.442,2.015,1,1,0,0,1-.97.308l-1.456-.333q-.214.168-.44.325l-.141,1.544a1,1,0,0,1-.577.818,10.848,10.848,0,0,1-2.324.78.97.97,0,0,1-.205.021,1,1,0,0,1-.759-.348l-1.02-1.184h-.489l-1.02,1.184a1,1,0,0,1-.757.348Zm2.726-3.536a1,1,0,0,1,.759.348l.918,1.065c.269-.076.539-.168.808-.274l.13-1.43a1,1,0,0,1,.472-.761,7.423,7.423,0,0,0,1-.739.992.992,0,0,1,.885-.225l1.342.307q.28-.356.523-.732l-.713-1.229a1,1,0,0,1-.059-.887,7.48,7.48,0,0,0,.378-1.208,1,1,0,0,1,.572-.695l1.234-.544v-.963l-1.234-.544a1,1,0,0,1-.572-.695,7.488,7.488,0,0,0-.378-1.208,1,1,0,0,1,.059-.887l.713-1.229q-.242-.377-.523-.732l-1.342.307a1,1,0,0,1-.885-.225,7.422,7.422,0,0,0-1-.739,1,1,0,0,1-.472-.761l-.13-1.431c-.269-.105-.539-.2-.808-.274l-.918,1.066a1,1,0,0,1-.759.348h-1.407a1,1,0,0,1-.759-.348l-.918-1.066c-.269.076-.539.168-.808.274l-.13,1.431a1,1,0,0,1-.472.761,7.414,7.414,0,0,0-1,.739,1,1,0,0,1-.885.225l-1.342-.307c-.187.237-.361.481-.521.731l.712,1.229a1,1,0,0,1,.059.886,7.542,7.542,0,0,0-.378,1.21,1,1,0,0,1-.572.695l-1.234.544v.963l1.234.544a1,1,0,0,1,.572.695,7.488,7.488,0,0,0,.378,1.208,1,1,0,0,1-.059.887l-.713,1.229c.161.25.336.495.522.731l1.341-.307a1.008,1.008,0,0,1,.887.226,7.35,7.35,0,0,0,1,.739,1,1,0,0,1,.472.761l.13,1.43c.269.106.539.2.808.274l.918-1.065a1,1,0,0,1,.759-.348Zm-43.785-5.481a7.013,7.013,0,0,1,7.013-7.013,7.013,7.013,0,0,1,7.013,7.013,7.013,7.013,0,0,1-7.013,7.013A7.022,7.022,0,0,1-933.951-3408.975Zm2,0a5.01,5.01,0,0,0,5.009,5.01,5.01,5.01,0,0,0,5.009-5.01,5.01,5.01,0,0,0-5.009-5.01A5.015,5.015,0,0,0-931.947-3408.975Zm36.068-2a5.009,5.009,0,0,1,5.009-5.009,5.009,5.009,0,0,1,5.009,5.009,5.009,5.009,0,0,1-5.009,5.01A5.015,5.015,0,0,1-895.879-3410.979Zm2,0a3.006,3.006,0,0,0,3.006,3.006,3.006,3.006,0,0,0,3.006-3.006,3.006,3.006,0,0,0-3.006-3.006A3.009,3.009,0,0,0-893.875-3410.979Zm-18.034,2v-2h8.015v2Z" transform="translate(939.885 3422)" fill="#b01116"/>
</svg>
