<svg xmlns="http://www.w3.org/2000/svg" xmlns:xlink="http://www.w3.org/1999/xlink" width="65" height="65" viewBox="0 0 65 65">
  <defs>
    <clipPath id="clip-path">
      <rect id="Rectangle_2299" data-name="Rectangle 2299" width="65" height="65" transform="translate(844 401)" fill="none" stroke="#707070" stroke-width="1"/>
    </clipPath>
    <clipPath id="clip-path-2">
      <rect id="Rectangle_2278" data-name="Rectangle 2278" width="60.18" height="60.18" transform="translate(1166 1963)" fill="#551818" opacity="0.3"/>
    </clipPath>
  </defs>
  <g id="Mask_Group_10" data-name="Mask Group 10" transform="translate(-844 -401)" clip-path="url(#clip-path)">
    <g id="online_discussion" transform="translate(-320 -1560)" clip-path="url(#clip-path-2)">
      <g id="_004-message" data-name="004-message" transform="translate(1166 1963)">
        <path id="Union_41" data-name="Union 41" d="M43.126,60.18a1.008,1.008,0,0,1-1-1v-1.51q-.693.3-1.392.57a1.035,1.035,0,0,1-.355.067,1,1,0,0,1-.356-1.944c.709-.267,1.414-.567,2.1-.9v-.3a5.022,5.022,0,0,1,3.45-4.763,6.016,6.016,0,0,1,9.255-7.018c.255-.473.5-.953.726-1.436a1,1,0,1,1,1.813.846c-.338.732-.713,1.456-1.115,2.16a5.995,5.995,0,0,1,.479,5.449,5.019,5.019,0,0,1,3.45,4.763v4.014a1.008,1.008,0,0,1-1,1Zm1-5.017v3.01H58.173v-3.01A3.011,3.011,0,0,0,55.6,52.187a6,6,0,0,1-4.451,1.973h0a5.987,5.987,0,0,1-.987-.081h0l-.072-.012h-.006l-.061-.011-.022,0-.048-.01-.033-.007-.032-.007-.056-.012-.014,0a6.015,6.015,0,0,1-3.116-1.82A3.009,3.009,0,0,0,44.129,55.163Zm7.021-3.006a3.973,3.973,0,0,0,3.188-1.609,1.134,1.134,0,0,1,.111-.122,4.012,4.012,0,0,0-.056-4.642.985.985,0,0,1-.231-.287,4.01,4.01,0,0,0-6.306,4.936,1.076,1.076,0,0,1,.105.115,3.988,3.988,0,0,0,2.6,1.567h.011l.092.012.038,0,.065.007.05,0,.054,0,.057,0,.054,0,.056,0h.107ZM26.469,59.963a1,1,0,0,1,.236-1.991,28.476,28.476,0,0,0,6.748,0,1,1,0,1,1,.241,1.991,30.228,30.228,0,0,1-7.226,0ZM1,60.18a1.008,1.008,0,0,1-1-1V55.163A5.022,5.022,0,0,1,3.45,50.4a6.013,6.013,0,0,1,.477-5.447c-.4-.7-.775-1.429-1.118-2.161a1,1,0,1,1,1.818-.846c.225.483.469.964.723,1.438A6.014,6.014,0,0,1,14.6,50.4a5.018,5.018,0,0,1,3.45,4.764v.3c.693.33,1.4.631,2.105.9a1,1,0,1,1-.707,1.877c-.469-.176-.937-.365-1.4-.567v1.508a1,1,0,0,1-1,1Zm1-5.017v3.01H16.046v-3.01a3.012,3.012,0,0,0-2.568-2.976,6.016,6.016,0,0,1-3.272,1.857H10.2l-.071.013H10.12l-.062.011-.02,0-.059.01-.018,0-.052.008-.027,0-.051.007-.027,0-.05.006-.026,0-.05.006-.027,0-.044,0-.036,0-.045,0-.031,0-.048,0-.029,0-.049,0-.029,0-.047,0H9.263l-.059,0H8.849l-.06,0H8.76l-.047,0-.029,0-.05,0-.027,0-.051,0-.029,0-.046,0-.031,0-.051,0-.019,0-.059-.006-.02,0-.057-.007-.021,0L8.167,54.1l-.019,0-.061-.009-.013,0-.067-.011H8a6.017,6.017,0,0,1-3.422-1.881A3.009,3.009,0,0,0,2.007,55.163Zm7.02-3.006.112,0h.029l.083,0,.029,0,.087-.006.022,0,.1-.01H9.5a3.982,3.982,0,0,0,2.722-1.582,1.1,1.1,0,0,1,.105-.118A4.01,4.01,0,0,0,6,45.508a.986.986,0,0,1-.213.266,4,4,0,0,0-.057,4.657,1.055,1.055,0,0,1,.1.116A3.979,3.979,0,0,0,8.56,52.129h0l.1.01.021,0,.087.006.029,0,.083,0h.031l.11,0Zm32.387-4.309-5.721-5.721H26.08a2.008,2.008,0,0,1-2.007-2.01v-4.01h-.59l-5.727,5.725a.986.986,0,0,1-1.089.216,1,1,0,0,1-.622-.925V36.106h-1A2.007,2.007,0,0,1,13.04,34.1V22.067a2.007,2.007,0,0,1,2.007-2.007H33.1A2.01,2.01,0,0,1,35.1,22.067v4.01h9.026a2.01,2.01,0,0,1,2.007,2.011V40.116a2.01,2.01,0,0,1-2.007,2.01h-1V47.14a1.007,1.007,0,0,1-.618.929.977.977,0,0,1-.382.075A1.009,1.009,0,0,1,41.413,47.848ZM26.076,40.116l10.03,0a.986.986,0,0,1,.707.3l4.31,4.3v-3.6a1,1,0,0,1,1-1h2l0-12.033-12.5,0-5.556,0V40.116ZM15.043,34.1H17.05a1,1,0,0,1,1,1v3.6l4.306-4.3a1,1,0,0,1,.707-.3h1.008V28.087a2.008,2.008,0,0,1,2.007-2.011H33.1v-4.01H15.047ZM35.1,37.11a1,1,0,1,1,0-2.007h6.021a1,1,0,0,1,0,2.007Zm-6.017,0a1,1,0,0,1,0-2.007h2.007a1,1,0,0,1,0,2.007ZM58.59,36a1,1,0,0,1-.817-1.157,28.7,28.7,0,0,0,.4-4.753c0-.893-.043-1.794-.13-2.68a1,1,0,0,1,2-.189c.09.948.138,1.912.138,2.869a29.965,29.965,0,0,1-.434,5.092,1,1,0,0,1-.987.834A.816.816,0,0,1,58.59,36ZM.429,35.174A30.444,30.444,0,0,1,0,30.09c0-.96.047-1.928.139-2.876a1.01,1.01,0,0,1,1.089-.905,1.008,1.008,0,0,1,.905,1.1c-.083.881-.126,1.786-.126,2.684a28.037,28.037,0,0,0,.4,4.749A1.008,1.008,0,0,1,1.585,36a1.236,1.236,0,0,1-.168.012A1,1,0,0,1,.429,35.174ZM39.116,33.1a1,1,0,0,1,0-2.007h2.007a1,1,0,0,1,0,2.007Zm-10.03,0a1,1,0,0,1,0-2.007H35.1a1,1,0,1,1,0,2.007ZM56.358,20.162c-.27-.711-.569-1.417-.9-2.109H43.126a1.006,1.006,0,0,1-1-1V13.036A5.026,5.026,0,0,1,45.57,8.274a6,6,0,0,1-.427-1.89c-.665-.423-1.352-.821-2.041-1.182a1,1,0,1,1,.928-1.779c.465.245.929.5,1.385.773A6.019,6.019,0,1,1,56.731,8.274a5.024,5.024,0,0,1,3.448,4.762V17.05a1.006,1.006,0,0,1-1,1H57.665c.2.462.394.929.57,1.4a1,1,0,0,1-.581,1.294,1.034,1.034,0,0,1-.359.063A1.006,1.006,0,0,1,56.358,20.162Zm1.814-4.112V13.036A3.007,3.007,0,0,0,55.6,10.064a6,6,0,0,1-4.451,1.973h0a6.042,6.042,0,0,1-.983-.08l-.009,0-.061-.01-.02,0-.046-.009L50,11.925l-.034-.007-.052-.011-.014,0a6.023,6.023,0,0,1-3.2-1.84,3.013,3.013,0,0,0-2.57,2.972V16.05H56.021a.969.969,0,0,1,.136,0ZM51.15,10.03a3.979,3.979,0,0,0,3.188-1.605.965.965,0,0,1,.109-.12,4.012,4.012,0,1,0-7.3-2.579,1.036,1.036,0,0,1-.011.31,3.971,3.971,0,0,0,.721,2.275.992.992,0,0,1,.1.113,3.993,3.993,0,0,0,2.606,1.563h0l.1.013.031,0,.069.007.048,0,.06,0,.053,0,.056,0,.054,0h.107ZM2.525,20.745a1,1,0,0,1-.583-1.294c.179-.468.37-.935.572-1.4H1a1,1,0,0,1-1-1V13.036A5.024,5.024,0,0,1,3.448,8.274,6.021,6.021,0,0,1,9.026,0a6.029,6.029,0,0,1,5.735,4.2c.456-.271.919-.529,1.383-.774A1,1,0,0,1,17.078,5.2c-.7.362-1.382.76-2.047,1.185a6.011,6.011,0,0,1-.426,1.887,5.022,5.022,0,0,1,3.447,4.763V17.05a1,1,0,0,1-1,1H4.719c-.33.692-.631,1.4-.9,2.109a1.014,1.014,0,0,1-1.3.582ZM16.046,16.05V13.036a3.008,3.008,0,0,0-2.568-2.972,6,6,0,0,1-4.133,1.964h0l-.076,0h0l-.067,0H8.849l-.06,0-.03,0-.046,0-.03,0-.049,0-.029,0-.049,0-.03,0-.045,0-.035,0L8.4,12l-.025,0L8.322,12l-.025,0-.05-.006-.028,0-.05-.007-.027,0-.052-.008-.02,0-.059-.01-.016,0-.064-.011H7.925l-.07-.014h0a6.021,6.021,0,0,1-3.275-1.856,3.011,3.011,0,0,0-2.568,2.972V16.05H4.021a.983.983,0,0,1,.137,0Zm-7.02-6.02.112,0h.025l.087,0,.027,0,.09-.007h.02a4,4,0,0,0,2.829-1.589,1.009,1.009,0,0,1,.1-.116,3.991,3.991,0,0,0,.72-2.272,1,1,0,0,1-.011-.31A4.012,4.012,0,1,0,5.737,8.31a.979.979,0,0,1,.1.114,3.985,3.985,0,0,0,2.826,1.589h.019l.09.007.028,0,.086,0h.026l.112,0ZM38.1,3.167a28.087,28.087,0,0,0-5.3-1.031,1,1,0,0,1,.191-2,30.293,30.293,0,0,1,5.684,1.106,1.005,1.005,0,0,1-.288,1.967A1.073,1.073,0,0,1,38.1,3.167ZM20.843,2.487a1,1,0,0,1,.677-1.243A29.9,29.9,0,0,1,27.2.138a1,1,0,1,1,.188,2,27.842,27.842,0,0,0-5.3,1.027,1.052,1.052,0,0,1-.287.043A1.006,1.006,0,0,1,20.843,2.487Z" transform="translate(0 0)" fill="#b01116"/>
      </g>
    </g>
  </g>
</svg>
