<svg xmlns="http://www.w3.org/2000/svg" xmlns:xlink="http://www.w3.org/1999/xlink" width="68" height="68" viewBox="0 0 68 68">
  <defs>
    <clipPath id="clip-path">
      <rect id="Rectangle_2153" data-name="Rectangle 2153" width="68" height="68" transform="translate(589 1963)" fill="#551818" opacity="0.3"/>
    </clipPath>
  </defs>
  <g id="reading_material" transform="translate(-589 -1963)" clip-path="url(#clip-path)">
    <g id="_003-open-book" data-name="003-open-book" transform="translate(588.998 1963)">
      <g id="Group_12865" data-name="Group 12865" transform="translate(0.002 0)">
        <g id="Group_12864" data-name="Group 12864">
          <path id="Path_227" data-name="Path 227" d="M290.233,201.458a.953.953,0,0,0,1.281.416,81.6,81.6,0,0,1,8.422-3.747.952.952,0,0,0-.575-1.816,81.632,81.632,0,0,0-8.711,3.867A.952.952,0,0,0,290.233,201.458Z" transform="translate(-250.212 -169.736)" fill="#b01116"/>
          <path id="Path_228" data-name="Path 228" d="M291.083,99.579a.95.95,0,0,0,.431-.1,81.6,81.6,0,0,1,8.422-3.747.952.952,0,0,0-.575-1.816,81.642,81.642,0,0,0-8.711,3.867.952.952,0,0,0,.433,1.8Z" transform="translate(-250.213 -81.179)" fill="#b01116"/>
          <path id="Path_229" data-name="Path 229" d="M66.868,17a1.133,1.133,0,0,0-1.133,1.133v44.2a3.4,3.4,0,0,1-3.4,3.4h-27.2V63.125a33.4,33.4,0,0,1,10.2-1.926,58.457,58.457,0,0,1,16.643,2.209,1.133,1.133,0,0,0,1.49-1.076V12.467a1.132,1.132,0,0,0-.887-1.106s-.889-.2-2.407-.477a1.133,1.133,0,0,0-.41,2.229c.579.107,1.064.2,1.438.275V60.827a64,64,0,0,0-15.867-1.894A35.6,35.6,0,0,0,34.046,61.1,26.55,26.55,0,0,0,23.8,58.933a76.372,76.372,0,0,0-17,1.941V13.344a74.6,74.6,0,0,1,17-2.01A24.572,24.572,0,0,1,32.868,13.2V57.8a1.133,1.133,0,0,0,1.717.971C34.7,58.7,45.926,52,55.893,48.676a1.133,1.133,0,0,0,.775-1.076V1.134A1.135,1.135,0,0,0,55.136.072,120.559,120.559,0,0,0,36.8,9.239,1.133,1.133,0,1,0,38,11.162,121.133,121.133,0,0,1,54.4,2.791v44a127.008,127.008,0,0,0-19.267,9.043V12.467a1.134,1.134,0,0,0-.627-1.014A26.243,26.243,0,0,0,23.8,9.067,73.556,73.556,0,0,0,5.357,11.378a1.133,1.133,0,0,0-.822,1.089V62.333a1.133,1.133,0,0,0,1.133,1.133,1.117,1.117,0,0,0,.311-.044A72.8,72.8,0,0,1,23.8,61.2a24.518,24.518,0,0,1,9.067,1.869v2.664H5.669a3.4,3.4,0,0,1-3.4-3.4v-44.2a1.133,1.133,0,1,0-2.267,0v44.2A5.673,5.673,0,0,0,5.669,68H62.335A5.673,5.673,0,0,0,68,62.333v-44.2A1.133,1.133,0,0,0,66.868,17Z" transform="translate(-0.002 0)" fill="#b01116"/>
          <path id="Path_230" data-name="Path 230" d="M290.233,150.258a.953.953,0,0,0,1.281.416,81.6,81.6,0,0,1,8.422-3.747.952.952,0,0,0-.575-1.816,81.641,81.641,0,0,0-8.711,3.867A.952.952,0,0,0,290.233,150.258Z" transform="translate(-250.212 -125.457)" fill="#b01116"/>
          <path id="Path_231" data-name="Path 231" d="M290.233,252.658a.953.953,0,0,0,1.281.416,81.6,81.6,0,0,1,8.422-3.747.952.952,0,0,0-.575-1.816,81.631,81.631,0,0,0-8.711,3.867A.952.952,0,0,0,290.233,252.658Z" transform="translate(-250.212 -214.015)" fill="#b01116"/>
          <path id="Path_232" data-name="Path 232" d="M98.876,154.171c-5.878-1.379-12.557.378-12.837.453a.952.952,0,0,0,.246,1.871.967.967,0,0,0,.248-.032c.064-.018,6.494-1.71,11.91-.439a.952.952,0,1,0,.434-1.853Z" transform="translate(-73.395 -133.067)" fill="#b01116"/>
          <path id="Path_233" data-name="Path 233" d="M98.876,205.375c-5.878-1.378-12.557.378-12.837.453a.952.952,0,0,0,.246,1.871.968.968,0,0,0,.248-.032c.064-.018,6.494-1.71,11.91-.439a.952.952,0,1,0,.434-1.853Z" transform="translate(-73.395 -177.413)" fill="#b01116"/>
          <path id="Path_234" data-name="Path 234" d="M290.233,303.858a.953.953,0,0,0,1.281.416,81.584,81.584,0,0,1,8.422-3.747.952.952,0,0,0-.575-1.816,81.636,81.636,0,0,0-8.711,3.867A.952.952,0,0,0,290.233,303.858Z" transform="translate(-250.212 -258.294)" fill="#b01116"/>
          <path id="Path_235" data-name="Path 235" d="M98.876,256.573c-5.878-1.378-12.557.377-12.837.453a.952.952,0,0,0,.246,1.872.966.966,0,0,0,.248-.033c.064-.018,6.494-1.71,11.91-.439a.952.952,0,1,0,.434-1.853Z" transform="translate(-73.395 -221.755)" fill="#b01116"/>
          <path id="Path_236" data-name="Path 236" d="M98.876,358.971c-5.878-1.379-12.557.378-12.837.453a.952.952,0,0,0,.246,1.872.965.965,0,0,0,.248-.033c.064-.018,6.494-1.71,11.91-.439a.952.952,0,1,0,.434-1.853Z" transform="translate(-73.395 -310.438)" fill="#b01116"/>
          <path id="Path_237" data-name="Path 237" d="M98.876,307.77c-5.878-1.379-12.557.377-12.837.453a.952.952,0,0,0,.246,1.872.963.963,0,0,0,.248-.033c.064-.018,6.494-1.71,11.91-.439a.952.952,0,1,0,.434-1.853Z" transform="translate(-73.395 -266.094)" fill="#b01116"/>
        </g>
      </g>
    </g>
  </g>
</svg>
