<svg xmlns="http://www.w3.org/2000/svg" xmlns:xlink="http://www.w3.org/1999/xlink" width="65" height="65" viewBox="0 0 65 65">
  <defs>
    <clipPath id="clip-path">
      <rect id="Rectangle_2295" data-name="Rectangle 2295" width="65" height="65" transform="translate(1073.001 203)" fill="none" stroke="#707070" stroke-width="1"/>
    </clipPath>
  </defs>
  <g id="Mask_Group_6" data-name="Mask Group 6" transform="translate(-1073 -203)" clip-path="url(#clip-path)">
    <g id="analysis" transform="translate(1076 206)">
      <path id="Path_628" data-name="Path 628" d="M122.215,88.914a2.93,2.93,0,1,0-2.338-1.169l-4.808,6.719a2.918,2.918,0,0,0-2.9.639l-3.2-1.818a2.926,2.926,0,1,0-5.721,0l-3.2,1.818a2.922,2.922,0,1,0,.869,1.526l3.2-1.818a2.919,2.919,0,0,0,3.984,0l3.2,1.818a2.926,2.926,0,1,0,5.2-1.142l4.808-6.719A2.917,2.917,0,0,0,122.215,88.914Zm0-4.1a1.171,1.171,0,1,1-1.17,1.171A1.172,1.172,0,0,1,122.215,84.817Zm-24.172,13.6a1.171,1.171,0,1,1,1.17-1.171A1.172,1.172,0,0,1,98.044,98.414Zm8.057-4.575a1.171,1.171,0,1,1,1.17-1.171A1.172,1.172,0,0,1,106.1,93.839Zm8.057,4.575a1.171,1.171,0,1,1,1.171-1.171A1.172,1.172,0,0,1,114.158,98.414Z" transform="translate(-83.984 -74.106)" fill="#b01116"/>
      <path id="Path_629" data-name="Path 629" d="M49.02,79.544H2.483a.728.728,0,0,1-.727-.727V42.6a.728.728,0,0,1,.727-.727H6.622a.878.878,0,1,0,0-1.756H2.483A2.486,2.486,0,0,0,0,42.6V78.816A2.486,2.486,0,0,0,2.483,81.3H8.536v1.932a2,2,0,0,0,2,2H19.32L15.183,93.3a.878.878,0,1,0,1.563.8l4.547-8.877H31L35.545,94.1a.878.878,0,1,0,1.563-.8l-4.137-8.076h8.787a2,2,0,0,0,2-2V81.3H49.02a.878.878,0,1,0,0-1.756ZM42,83.232a.241.241,0,0,1-.24.24H10.532a.241.241,0,0,1-.24-.24V81.3H42Z" transform="translate(0 -36.188)" fill="#b01116"/>
      <path id="Path_630" data-name="Path 630" d="M79.949,12.242h39.674a.728.728,0,0,1,.727.727v8.347a.878.878,0,1,0,1.756,0V12.969a2.486,2.486,0,0,0-2.483-2.483h-18.79V8.76a2.2,2.2,0,0,0-2.2-2.2h-5.34a2.205,2.205,0,0,0-2.2,2.2v1.726H79.949a.878.878,0,0,0,0,1.756Zm12.9-3.481a.447.447,0,0,1,.447-.447h5.34a.447.447,0,0,1,.447.447v1.726H92.845V8.76Z" transform="translate(-69.816 -6.558)" fill="#b01116"/>
      <path id="Path_631" data-name="Path 631" d="M98.28,267.576a.878.878,0,0,0-.878.878v7.757a.878.878,0,0,0,.878.878h3.561a.878.878,0,0,0,.878-.878v-7.757a.878.878,0,0,0-.878-.878Zm2.684,7.757H99.158v-6h1.806Z" transform="translate(-86.001 -237.024)" fill="#b01116"/>
      <path id="Path_632" data-name="Path 632" d="M167.115,229.248a.878.878,0,0,0-.878.878v12.243a.878.878,0,0,0,.878.878h3.561a.878.878,0,0,0,.878-.878V230.126a.878.878,0,0,0-.878-.878Zm2.684,12.243h-1.806V231H169.8Z" transform="translate(-146.779 -203.182)" fill="#b01116"/>
      <path id="Path_633" data-name="Path 633" d="M235.951,267.576a.878.878,0,0,0-.878.878v7.757a.878.878,0,0,0,.878.878h3.561a.878.878,0,0,0,.878-.878v-7.757a.878.878,0,0,0-.878-.878Zm2.684,7.757h-1.806v-6h1.806Z" transform="translate(-207.558 -237.024)" fill="#b01116"/>
      <path id="Path_634" data-name="Path 634" d="M304.787,311.832a.878.878,0,0,0-.878.878v2.577a.878.878,0,0,0,.878.878h3.562a.878.878,0,0,0,0-1.756h-2.684v-1.7A.878.878,0,0,0,304.787,311.832Z" transform="translate(-268.337 -276.1)" fill="#b01116"/>
      <path id="Path_635" data-name="Path 635" d="M320.423,172.513l-5.036-8.723a11.48,11.48,0,1,0-11.351,3.239,11.536,11.536,0,0,0,2.988.4,11.331,11.331,0,0,0,2.584-.3l5.035,8.723a3.337,3.337,0,1,0,5.78-3.337Zm-15.933-7.18a9.718,9.718,0,1,1,7.374-.971A9.656,9.656,0,0,1,304.489,165.333Zm13.834,10.218a1.583,1.583,0,0,1-2.16-.578l-4.844-8.393A11.527,11.527,0,0,0,314.056,165l4.846,8.393a1.58,1.58,0,0,1-.578,2.16Z" transform="translate(-260.941 -128.331)" fill="#b01116"/>
      <path id="Path_636" data-name="Path 636" d="M338.6,182.053a8.308,8.308,0,0,0-.416-6.018.878.878,0,1,0-1.588.748,6.575,6.575,0,1,1-1.982-2.45.878.878,0,1,0,1.059-1.4,8.337,8.337,0,1,0,2.927,9.12Z" transform="translate(-284.575 -151.965)" fill="#b01116"/>
    </g>
  </g>
</svg>
