<svg xmlns="http://www.w3.org/2000/svg" width="60" height="60" viewBox="0 0 60 60">
  <path id="strategy_sustainable" d="M54.975,15.329a5.054,5.054,0,0,0-4.01,2h-.724V10.708a.951.951,0,0,0-.951-.951H46.11a.951.951,0,1,0,0,1.9h2.231v6.619a.951.951,0,0,0,.951.951H51.47a.951.951,0,0,0,.817-.465,3.123,3.123,0,1,1,0,3.181.951.951,0,0,0-.818-.465H49.291a.951.951,0,0,0-.951.951v6.619H41.722a.951.951,0,0,0-.951.951v2.179a.95.95,0,0,0,.465.818,3.123,3.123,0,1,1-3.182,0,.951.951,0,0,0,.465-.818V30a.951.951,0,0,0-.951-.951H30.951V23.381h.724a5.025,5.025,0,1,0,0-6.054h-.724V11.659H42.94a.951.951,0,1,0,0-1.9H23.381V9.034a5.025,5.025,0,1,0-6.054,0v.724H10.709a.951.951,0,0,0-.951.951v25.91H9.034a5.025,5.025,0,1,0,0,6.054h.724v6.619h0a.951.951,0,0,0,.951.951H14.08a.951.951,0,0,0,0-1.9H11.659V41.722a.951.951,0,0,0-.951-.951H8.53a.95.95,0,0,0-.817.465,3.123,3.123,0,1,1,0-3.182.951.951,0,0,0,.817.465h2.179a.951.951,0,0,0,.951-.951V30.951h6.619A.951.951,0,0,0,19.229,30V27.821A.95.95,0,0,0,18.764,27a3.123,3.123,0,1,1,3.181,0,.951.951,0,0,0-.465.817V30a.951.951,0,0,0,.951.951h6.619v5.668h-.724a5.025,5.025,0,1,0,0,6.054h.724v5.668H17.039a.951.951,0,0,0,0,1.9h19.58v.724a5.025,5.025,0,1,0,6.054,0v-.724h6.619a.951.951,0,0,0,.951-.951V23.381h.723a5.024,5.024,0,1,0,4.01-8.052ZM23.381,29.049v-.724a5.025,5.025,0,1,0-6.054,0v.724H11.659V11.659h6.619a.951.951,0,0,0,.951-.951V8.53a.951.951,0,0,0-.465-.817,3.123,3.123,0,1,1,3.181,0,.951.951,0,0,0-.465.817v2.179a.951.951,0,0,0,.951.951h6.619v6.619a.951.951,0,0,0,.951.951h2.179A.951.951,0,0,0,33,18.764a3.123,3.123,0,1,1,0,3.182.951.951,0,0,0-.818-.465H30a.951.951,0,0,0-.951.951v6.619H23.381Zm24.96,12.589v6.7H41.722a.951.951,0,0,0-.951.951V51.47a.951.951,0,0,0,.465.817,3.123,3.123,0,1,1-3.182,0,.951.951,0,0,0,.465-.818V49.292a.951.951,0,0,0-.951-.951H30.951V41.722A.951.951,0,0,0,30,40.771H27.821a.951.951,0,0,0-.817.465,3.123,3.123,0,1,1,0-3.182.951.951,0,0,0,.817.465H30a.951.951,0,0,0,.951-.951V30.951h5.668v.724a5.025,5.025,0,1,0,6.054,0v-.724h5.668V41.638Z" fill="#b01116"/>
</svg>
