<svg xmlns="http://www.w3.org/2000/svg" width="39" height="39" viewBox="0 0 39 39">
  <g id="twitter" transform="translate(-1327 -4293)">
    <circle id="Ellipse_254" data-name="Ellipse 254" cx="19.5" cy="19.5" r="19.5" transform="translate(1327 4293)" fill="#b01116" opacity="0.2"/>
    <g id="twitter-logo-silhouette" transform="translate(1336.999 4247.559)">
      <g id="Group_13169" data-name="Group 13169" transform="translate(0.001 57.441)">
        <path id="Path_418" data-name="Path 418" d="M18.467,59.216a7.565,7.565,0,0,1-2.175.6,3.8,3.8,0,0,0,1.665-2.094,7.637,7.637,0,0,1-2.407.92A3.791,3.791,0,0,0,9.1,62.091a10.755,10.755,0,0,1-7.807-3.958A3.793,3.793,0,0,0,2.46,63.19a3.788,3.788,0,0,1-1.716-.475v.047a3.792,3.792,0,0,0,3.038,3.715,3.837,3.837,0,0,1-1,.133,3.636,3.636,0,0,1-.713-.07A3.79,3.79,0,0,0,5.609,69.17,7.6,7.6,0,0,1,.9,70.789a8.053,8.053,0,0,1-.9-.052,10.708,10.708,0,0,0,5.807,1.7A10.7,10.7,0,0,0,16.585,61.663l-.013-.49A7.565,7.565,0,0,0,18.467,59.216Z" transform="translate(-0.001 -57.441)" fill="rgba(176,17,22,0.8)"/>
      </g>
    </g>
  </g>
</svg>
