<svg xmlns="http://www.w3.org/2000/svg" xmlns:xlink="http://www.w3.org/1999/xlink" width="68" height="68" viewBox="0 0 68 68">
  <defs>
    <clipPath id="clip-path">
      <rect id="Rectangle_2152" data-name="Rectangle 2152" width="68" height="68" transform="translate(345 1963)" fill="#551818" opacity="0.3"/>
    </clipPath>
  </defs>
  <g id="video_lecture" transform="translate(-345 -1963)" clip-path="url(#clip-path)">
    <g id="Group_12862" data-name="Group 12862" transform="translate(-5 673)">
      <g id="_001-class" data-name="001-class" transform="translate(350 1290)">
        <g id="Group_12860" data-name="Group 12860" transform="translate(5.493 24.114)">
          <rect id="Rectangle_2063" data-name="Rectangle 2063" width="17.577" height="13.183" fill="#b01116" opacity="0.1"/>
          <rect id="Rectangle_2064" data-name="Rectangle 2064" width="17.577" height="13.183" transform="translate(39.437 5.493)" fill="rgba(176,17,22,0.1)"/>
        </g>
        <g id="Group_12861" data-name="Group 12861">
          <path id="Path_224" data-name="Path 224" d="M220.394,40.789A4.394,4.394,0,1,0,216,36.394,4.4,4.4,0,0,0,220.394,40.789Zm0-6.592a2.2,2.2,0,1,1-2.2,2.2A2.2,2.2,0,0,1,220.394,34.2Z" transform="translate(-186.394 -27.606)" fill="#b01116"/>
          <path id="Path_225" data-name="Path 225" d="M195.775,177.887a9.887,9.887,0,1,0-9.887,9.887A9.9,9.9,0,0,0,195.775,177.887Zm-9.887-7.69a7.7,7.7,0,0,1,7.6,6.592h-.509a1.892,1.892,0,0,1-1.575-.843l-1.918-2.878-3.151,2.1a3.092,3.092,0,0,1-1.721.522h-6.094A7.7,7.7,0,0,1,185.887,170.2Zm0,15.38a7.7,7.7,0,0,1-7.69-7.69h6.418a5.283,5.283,0,0,0,2.941-.891l1.323-.882.7,1.05a4.079,4.079,0,0,0,3.4,1.821h.509A7.7,7.7,0,0,1,185.887,185.577Z" transform="translate(-151.887 -144.983)" fill="#b01116"/>
          <rect id="Rectangle_2065" data-name="Rectangle 2065" width="10.986" height="2.197" transform="translate(8.789 27.418)" fill="#b01116"/>
          <rect id="Rectangle_2066" data-name="Rectangle 2066" width="10.986" height="2.197" transform="translate(8.789 31.805)" fill="#b01116"/>
          <rect id="Rectangle_2067" data-name="Rectangle 2067" width="10.986" height="2.197" transform="translate(48.225 32.901)" fill="#b01116"/>
          <rect id="Rectangle_2068" data-name="Rectangle 2068" width="2.197" height="2.197" transform="translate(57.014 37.288)" fill="#b01116"/>
          <rect id="Rectangle_2069" data-name="Rectangle 2069" width="6.592" height="2.197" transform="translate(48.25 37.288)" fill="#b01116"/>
          <path id="Path_226" data-name="Path 226" d="M62.516,16.452H40.581V14.559a8.774,8.774,0,1,0-13.161,0v1.893H5.484A5.49,5.49,0,0,0,0,21.935v34a5.49,5.49,0,0,0,5.484,5.484H18.645v4.387H14.258V68H53.742V65.806H49.355V61.419H62.516A5.49,5.49,0,0,0,68,55.935v-34A5.49,5.49,0,0,0,62.516,16.452Zm-32.9-.09a8.7,8.7,0,0,0,8.774,0v2.283H29.613ZM34,2.194a6.581,6.581,0,1,1-6.581,6.581A6.587,6.587,0,0,1,34,2.194ZM5.484,18.645H27.419v2.194H40.581V18.645H62.516a3.294,3.294,0,0,1,3.29,3.29v30.71H49.355V50.452a7.687,7.687,0,0,0-7.677-7.677H26.323a7.687,7.687,0,0,0-7.677,7.677v2.194H2.194V21.935A3.294,3.294,0,0,1,5.484,18.645ZM41.677,48.258v4.387H26.323V48.258H24.129v4.387h-3.29V50.452a5.49,5.49,0,0,1,5.484-5.484H41.677a5.49,5.49,0,0,1,5.484,5.484v2.194h-3.29V48.258Zm5.484,17.548H20.839V61.419H47.161Zm15.355-6.581H5.484a3.294,3.294,0,0,1-3.29-3.29v-1.1H65.806v1.1A3.294,3.294,0,0,1,62.516,59.226Z" fill="#b01116"/>
        </g>
      </g>
    </g>
  </g>
</svg>
