<svg xmlns="http://www.w3.org/2000/svg" width="39.24" height="39.24" viewBox="0 0 39.24 39.24">
  <g id="Group_12728" data-name="Group 12728" transform="translate(-1201 -5191)">
    <circle id="Ellipse_253" data-name="Ellipse 253" cx="19.62" cy="19.62" r="19.62" transform="translate(1201 5191)" fill="#fff" opacity="0.2"/>
    <g id="youtube-logo" transform="translate(1166.755 5199.076)" opacity="0.8">
      <g id="Group_12727" data-name="Group 12727" transform="translate(44.245 0)">
        <path id="Union_15" data-name="Union 15" d="M2.4,22.84a2.282,2.282,0,0,1-1.321-.593A2.363,2.363,0,0,1,.335,20.97,21.884,21.884,0,0,1,0,16.456a22.35,22.35,0,0,1,.335-4.514,2.452,2.452,0,0,1,.749-1.277,2.339,2.339,0,0,1,1.328-.605Q4.772,9.8,9.557,9.8t7.158.258a2.419,2.419,0,0,1,2.063,1.882,21.891,21.891,0,0,1,.335,4.514,22.343,22.343,0,0,1-.335,4.514,2.457,2.457,0,0,1-.748,1.277,2.259,2.259,0,0,1-1.316.593,68.811,68.811,0,0,1-7.158.271A68.834,68.834,0,0,1,2.4,22.84Zm12.187-8.048a2.5,2.5,0,0,0-.36,1.5v2.231a2.423,2.423,0,0,0,.373,1.5,1.656,1.656,0,0,0,1.393.657,1.595,1.595,0,0,0,1.664-1.38,5.76,5.76,0,0,0,.026-.748v-.167H16.508a6.6,6.6,0,0,1-.025.786.493.493,0,0,1-.516.464q-.594,0-.594-.889V17.616h2.309V16.288a2.564,2.564,0,0,0-.348-1.5,1.629,1.629,0,0,0-1.367-.657A1.645,1.645,0,0,0,14.586,14.792Zm-2.294,5.882a.893.893,0,0,0,.915-.709,4.755,4.755,0,0,0,.116-1.29V16.133a4.6,4.6,0,0,0-.116-1.276.9.9,0,0,0-.915-.722,1.552,1.552,0,0,0-1.2.7v-2.8H9.944v8.55h1.148v-.619A1.6,1.6,0,0,0,12.291,20.673ZM5.624,19.255a3.192,3.192,0,0,0,.1.941.694.694,0,0,0,.748.477,1.886,1.886,0,0,0,1.316-.787v.7H8.938v-6.37H7.79v4.875q-.387.541-.735.541c-.155,0-.244-.089-.27-.27a3.352,3.352,0,0,1-.014-.451V14.212H5.624ZM1.432,13.245H2.786v7.338h1.29V13.245h1.38V12.032H1.432Zm9.66,6.1V15.464a.826.826,0,0,1,.58-.284q.5,0,.5.864v2.721q0,.864-.5.864A.824.824,0,0,1,11.092,19.345Zm4.281-2.7v-.593q0-.877.58-.877t.58.877v.593Zm-3.3-8.4a3.311,3.311,0,0,1-.1-.967V2.2h1.173V6.938a3.151,3.151,0,0,0,.014.451c.025.189.115.284.27.284q.349,0,.735-.554V2.2h1.174V8.641H14.16V7.931a1.855,1.855,0,0,1-1.328.8A.718.718,0,0,1,12.071,8.254ZM7.931,8.073a2.581,2.581,0,0,1-.361-1.522V4.294a2.52,2.52,0,0,1,.361-1.509,1.6,1.6,0,0,1,1.354-.657,1.588,1.588,0,0,1,1.368.657,2.52,2.52,0,0,1,.361,1.509V6.551a2.542,2.542,0,0,1-.361,1.522,1.587,1.587,0,0,1-1.368.658A1.594,1.594,0,0,1,7.931,8.073Zm.8-4.01V6.771q0,.9.554.9t.554-.9V4.062q0-.891-.554-.89T8.731,4.062ZM4.708,8.641V5.146a21.965,21.965,0,0,0-.786-2.734Q3.445,1.083,3.084,0H4.45l.915,3.392L6.242,0H7.558L6,5.146V8.641Z" fill="#fff"/>
      </g>
    </g>
  </g>
</svg>
